<?xml version="1.0" encoding="utf-8" standalone="no"?>
<!DOCTYPE svg PUBLIC "-//W3C//DTD SVG 1.1//EN"
  "http://www.w3.org/Graphics/SVG/1.1/DTD/svg11.dtd">
<!-- Created with matplotlib (https://matplotlib.org/) -->
<svg height="288pt" version="1.1" viewBox="0 0 576 288" width="576pt" xmlns="http://www.w3.org/2000/svg" xmlns:xlink="http://www.w3.org/1999/xlink">
 <defs>
  <style type="text/css">
*{stroke-linecap:butt;stroke-linejoin:round;}
  </style>
 </defs>
 <g id="figure_1">
  <g id="patch_1">
   <path d="M 0 288 
L 576 288 
L 576 0 
L 0 0 
z
" style="fill:#ffffff;"/>
  </g>
  <g id="axes_1">
   <g id="patch_2">
    <path d="M 54.05 70.097917 
L 561.7 70.097917 
L 561.7 14.3 
L 54.05 14.3 
z
" style="fill:#ffffff;"/>
   </g>
   <g id="patch_3">
    <path clip-path="url(#p4f94dfd82e)" d="M 55.742167 70.097917 
L 69.2795 70.097917 
L 69.2795 49.488395 
L 55.742167 49.488395 
z
" style="fill:#ff796c;"/>
   </g>
   <g id="patch_4">
    <path clip-path="url(#p4f94dfd82e)" d="M 72.663833 70.097917 
L 86.201167 70.097917 
L 86.201167 36.806554 
L 72.663833 36.806554 
z
" style="fill:#7bc8f6;"/>
   </g>
   <g id="patch_5">
    <path clip-path="url(#p4f94dfd82e)" d="M 89.5855 70.097917 
L 103.122833 70.097917 
L 103.122833 50.996497 
L 89.5855 50.996497 
z
" style="fill:#ff796c;"/>
   </g>
   <g id="patch_6">
    <path clip-path="url(#p4f94dfd82e)" d="M 106.507167 70.097917 
L 120.0445 70.097917 
L 120.0445 38.875591 
L 106.507167 38.875591 
z
" style="fill:#ff796c;"/>
   </g>
   <g id="patch_7">
    <path clip-path="url(#p4f94dfd82e)" d="M 123.428833 70.097917 
L 136.966167 70.097917 
L 136.966167 47.139546 
L 123.428833 47.139546 
z
" style="fill:#ff796c;"/>
   </g>
   <g id="patch_8">
    <path clip-path="url(#p4f94dfd82e)" d="M 140.3505 70.097917 
L 153.887833 70.097917 
L 153.887833 35.314529 
L 140.3505 35.314529 
z
" style="fill:#ff796c;"/>
   </g>
   <g id="patch_9">
    <path clip-path="url(#p4f94dfd82e)" d="M 157.272167 70.097917 
L 170.8095 70.097917 
L 170.8095 46.001169 
L 157.272167 46.001169 
z
" style="fill:#7bc8f6;"/>
   </g>
   <g id="patch_10">
    <path clip-path="url(#p4f94dfd82e)" d="M 174.193833 70.097917 
L 187.731167 70.097917 
L 187.731167 41.514332 
L 174.193833 41.514332 
z
" style="fill:#ff796c;"/>
   </g>
   <g id="patch_11">
    <path clip-path="url(#p4f94dfd82e)" d="M 191.1155 70.097917 
L 204.652833 70.097917 
L 204.652833 34.42393 
L 191.1155 34.42393 
z
" style="fill:#7bc8f6;"/>
   </g>
   <g id="patch_12">
    <path clip-path="url(#p4f94dfd82e)" d="M 208.037167 70.097917 
L 221.5745 70.097917 
L 221.5745 37.429784 
L 208.037167 37.429784 
z
" style="fill:#ff796c;"/>
   </g>
   <g id="patch_13">
    <path clip-path="url(#p4f94dfd82e)" d="M 224.958833 70.097917 
L 238.496167 70.097917 
L 238.496167 24.987896 
L 224.958833 24.987896 
z
" style="fill:#ff796c;"/>
   </g>
   <g id="patch_14">
    <path clip-path="url(#p4f94dfd82e)" d="M 241.8805 70.097917 
L 255.417833 70.097917 
L 255.417833 47.358142 
L 241.8805 47.358142 
z
" style="fill:#ff796c;"/>
   </g>
   <g id="patch_15">
    <path clip-path="url(#p4f94dfd82e)" d="M 258.802167 70.097917 
L 272.3395 70.097917 
L 272.3395 35.731142 
L 258.802167 35.731142 
z
" style="fill:#7bc8f6;"/>
   </g>
   <g id="patch_16">
    <path clip-path="url(#p4f94dfd82e)" d="M 275.723833 70.097917 
L 289.261167 70.097917 
L 289.261167 45.19399 
L 275.723833 45.19399 
z
" style="fill:#7bc8f6;"/>
   </g>
   <g id="patch_17">
    <path clip-path="url(#p4f94dfd82e)" d="M 292.6455 70.097917 
L 306.182833 70.097917 
L 306.182833 31.986343 
L 292.6455 31.986343 
z
" style="fill:#ff796c;"/>
   </g>
   <g id="patch_18">
    <path clip-path="url(#p4f94dfd82e)" d="M 309.567167 70.097917 
L 323.1045 70.097917 
L 323.1045 31.817666 
L 309.567167 31.817666 
z
" style="fill:#ff796c;"/>
   </g>
   <g id="patch_19">
    <path clip-path="url(#p4f94dfd82e)" d="M 326.488833 70.097917 
L 340.026167 70.097917 
L 340.026167 16.957044 
L 326.488833 16.957044 
z
" style="fill:#ff796c;"/>
   </g>
   <g id="patch_20">
    <path clip-path="url(#p4f94dfd82e)" d="M 343.4105 70.097917 
L 356.947833 70.097917 
L 356.947833 30.536081 
L 343.4105 30.536081 
z
" style="fill:#ff796c;"/>
   </g>
   <g id="patch_21">
    <path clip-path="url(#p4f94dfd82e)" d="M 360.332167 70.097917 
L 373.8695 70.097917 
L 373.8695 20.079676 
L 360.332167 20.079676 
z
" style="fill:#ff796c;"/>
   </g>
   <g id="patch_22">
    <path clip-path="url(#p4f94dfd82e)" d="M 377.253833 70.097917 
L 390.791167 70.097917 
L 390.791167 36.789074 
L 377.253833 36.789074 
z
" style="fill:#ff796c;"/>
   </g>
   <g id="patch_23">
    <path clip-path="url(#p4f94dfd82e)" d="M 394.1755 70.097917 
L 407.712833 70.097917 
L 407.712833 57.942821 
L 394.1755 57.942821 
z
" style="fill:#7bc8f6;"/>
   </g>
   <g id="patch_24">
    <path clip-path="url(#p4f94dfd82e)" d="M 411.097167 70.097917 
L 424.6345 70.097917 
L 424.6345 37.699563 
L 411.097167 37.699563 
z
" style="fill:#ff796c;"/>
   </g>
   <g id="patch_25">
    <path clip-path="url(#p4f94dfd82e)" d="M 428.018833 70.097917 
L 441.556167 70.097917 
L 441.556167 51.761486 
L 428.018833 51.761486 
z
" style="fill:#ff796c;"/>
   </g>
   <g id="patch_26">
    <path clip-path="url(#p4f94dfd82e)" d="M 444.9405 70.097917 
L 458.477833 70.097917 
L 458.477833 45.731324 
L 444.9405 45.731324 
z
" style="fill:#ff796c;"/>
   </g>
   <g id="patch_27">
    <path clip-path="url(#p4f94dfd82e)" d="M 461.862167 70.097917 
L 475.3995 70.097917 
L 475.3995 58.548002 
L 461.862167 58.548002 
z
" style="fill:#ff796c;"/>
   </g>
   <g id="patch_28">
    <path clip-path="url(#p4f94dfd82e)" d="M 478.783833 70.097917 
L 492.321167 70.097917 
L 492.321167 26.296398 
L 478.783833 26.296398 
z
" style="fill:#ff796c;"/>
   </g>
   <g id="patch_29">
    <path clip-path="url(#p4f94dfd82e)" d="M 495.7055 70.097917 
L 509.242833 70.097917 
L 509.242833 31.811704 
L 495.7055 31.811704 
z
" style="fill:#ff796c;"/>
   </g>
   <g id="patch_30">
    <path clip-path="url(#p4f94dfd82e)" d="M 512.627167 70.097917 
L 526.1645 70.097917 
L 526.1645 37.27343 
L 512.627167 37.27343 
z
" style="fill:#ff796c;"/>
   </g>
   <g id="patch_31">
    <path clip-path="url(#p4f94dfd82e)" d="M 529.548833 70.097917 
L 543.086167 70.097917 
L 543.086167 23.758055 
L 529.548833 23.758055 
z
" style="fill:#7bc8f6;"/>
   </g>
   <g id="patch_32">
    <path clip-path="url(#p4f94dfd82e)" d="M 546.4705 70.097917 
L 560.007833 70.097917 
L 560.007833 57.968959 
L 546.4705 57.968959 
z
" style="fill:#7bc8f6;"/>
   </g>
   <g id="matplotlib.axis_1">
    <g id="xtick_1">
     <g id="line2d_1">
      <defs>
       <path d="M 0 0 
L 0 3.5 
" id="md226223a6d" style="stroke:#000000;stroke-width:0.8;"/>
      </defs>
      <g>
       <use style="stroke:#000000;stroke-width:0.8;" x="62.510833" xlink:href="#md226223a6d" y="70.097917"/>
      </g>
     </g>
     <g id="text_1">
      <!-- 1 -->
      <defs>
       <path d="M 12.40625 8.296875 
L 28.515625 8.296875 
L 28.515625 63.921875 
L 10.984375 60.40625 
L 10.984375 69.390625 
L 28.421875 72.90625 
L 38.28125 72.90625 
L 38.28125 8.296875 
L 54.390625 8.296875 
L 54.390625 0 
L 12.40625 0 
z
" id="DejaVuSans-49"/>
      </defs>
      <g transform="translate(59.329583 84.696354)scale(0.1 -0.1)">
       <use xlink:href="#DejaVuSans-49"/>
      </g>
     </g>
    </g>
    <g id="xtick_2">
     <g id="line2d_2">
      <g>
       <use style="stroke:#000000;stroke-width:0.8;" x="79.4325" xlink:href="#md226223a6d" y="70.097917"/>
      </g>
     </g>
     <g id="text_2">
      <!-- 2 -->
      <defs>
       <path d="M 19.1875 8.296875 
L 53.609375 8.296875 
L 53.609375 0 
L 7.328125 0 
L 7.328125 8.296875 
Q 12.9375 14.109375 22.625 23.890625 
Q 32.328125 33.6875 34.8125 36.53125 
Q 39.546875 41.84375 41.421875 45.53125 
Q 43.3125 49.21875 43.3125 52.78125 
Q 43.3125 58.59375 39.234375 62.25 
Q 35.15625 65.921875 28.609375 65.921875 
Q 23.96875 65.921875 18.8125 64.3125 
Q 13.671875 62.703125 7.8125 59.421875 
L 7.8125 69.390625 
Q 13.765625 71.78125 18.9375 73 
Q 24.125 74.21875 28.421875 74.21875 
Q 39.75 74.21875 46.484375 68.546875 
Q 53.21875 62.890625 53.21875 53.421875 
Q 53.21875 48.921875 51.53125 44.890625 
Q 49.859375 40.875 45.40625 35.40625 
Q 44.1875 33.984375 37.640625 27.21875 
Q 31.109375 20.453125 19.1875 8.296875 
z
" id="DejaVuSans-50"/>
      </defs>
      <g transform="translate(76.25125 84.696354)scale(0.1 -0.1)">
       <use xlink:href="#DejaVuSans-50"/>
      </g>
     </g>
    </g>
    <g id="xtick_3">
     <g id="line2d_3">
      <g>
       <use style="stroke:#000000;stroke-width:0.8;" x="96.354167" xlink:href="#md226223a6d" y="70.097917"/>
      </g>
     </g>
     <g id="text_3">
      <!-- 3 -->
      <defs>
       <path d="M 40.578125 39.3125 
Q 47.65625 37.796875 51.625 33 
Q 55.609375 28.21875 55.609375 21.1875 
Q 55.609375 10.40625 48.1875 4.484375 
Q 40.765625 -1.421875 27.09375 -1.421875 
Q 22.515625 -1.421875 17.65625 -0.515625 
Q 12.796875 0.390625 7.625 2.203125 
L 7.625 11.71875 
Q 11.71875 9.328125 16.59375 8.109375 
Q 21.484375 6.890625 26.8125 6.890625 
Q 36.078125 6.890625 40.9375 10.546875 
Q 45.796875 14.203125 45.796875 21.1875 
Q 45.796875 27.640625 41.28125 31.265625 
Q 36.765625 34.90625 28.71875 34.90625 
L 20.21875 34.90625 
L 20.21875 43.015625 
L 29.109375 43.015625 
Q 36.375 43.015625 40.234375 45.921875 
Q 44.09375 48.828125 44.09375 54.296875 
Q 44.09375 59.90625 40.109375 62.90625 
Q 36.140625 65.921875 28.71875 65.921875 
Q 24.65625 65.921875 20.015625 65.03125 
Q 15.375 64.15625 9.8125 62.3125 
L 9.8125 71.09375 
Q 15.4375 72.65625 20.34375 73.4375 
Q 25.25 74.21875 29.59375 74.21875 
Q 40.828125 74.21875 47.359375 69.109375 
Q 53.90625 64.015625 53.90625 55.328125 
Q 53.90625 49.265625 50.4375 45.09375 
Q 46.96875 40.921875 40.578125 39.3125 
z
" id="DejaVuSans-51"/>
      </defs>
      <g transform="translate(93.172917 84.696354)scale(0.1 -0.1)">
       <use xlink:href="#DejaVuSans-51"/>
      </g>
     </g>
    </g>
    <g id="xtick_4">
     <g id="line2d_4">
      <g>
       <use style="stroke:#000000;stroke-width:0.8;" x="113.275833" xlink:href="#md226223a6d" y="70.097917"/>
      </g>
     </g>
     <g id="text_4">
      <!-- 4 -->
      <defs>
       <path d="M 37.796875 64.3125 
L 12.890625 25.390625 
L 37.796875 25.390625 
z
M 35.203125 72.90625 
L 47.609375 72.90625 
L 47.609375 25.390625 
L 58.015625 25.390625 
L 58.015625 17.1875 
L 47.609375 17.1875 
L 47.609375 0 
L 37.796875 0 
L 37.796875 17.1875 
L 4.890625 17.1875 
L 4.890625 26.703125 
z
" id="DejaVuSans-52"/>
      </defs>
      <g transform="translate(110.094583 84.696354)scale(0.1 -0.1)">
       <use xlink:href="#DejaVuSans-52"/>
      </g>
     </g>
    </g>
    <g id="xtick_5">
     <g id="line2d_5">
      <g>
       <use style="stroke:#000000;stroke-width:0.8;" x="130.1975" xlink:href="#md226223a6d" y="70.097917"/>
      </g>
     </g>
     <g id="text_5">
      <!-- 5 -->
      <defs>
       <path d="M 10.796875 72.90625 
L 49.515625 72.90625 
L 49.515625 64.59375 
L 19.828125 64.59375 
L 19.828125 46.734375 
Q 21.96875 47.46875 24.109375 47.828125 
Q 26.265625 48.1875 28.421875 48.1875 
Q 40.625 48.1875 47.75 41.5 
Q 54.890625 34.8125 54.890625 23.390625 
Q 54.890625 11.625 47.5625 5.09375 
Q 40.234375 -1.421875 26.90625 -1.421875 
Q 22.3125 -1.421875 17.546875 -0.640625 
Q 12.796875 0.140625 7.71875 1.703125 
L 7.71875 11.625 
Q 12.109375 9.234375 16.796875 8.0625 
Q 21.484375 6.890625 26.703125 6.890625 
Q 35.15625 6.890625 40.078125 11.328125 
Q 45.015625 15.765625 45.015625 23.390625 
Q 45.015625 31 40.078125 35.4375 
Q 35.15625 39.890625 26.703125 39.890625 
Q 22.75 39.890625 18.8125 39.015625 
Q 14.890625 38.140625 10.796875 36.28125 
z
" id="DejaVuSans-53"/>
      </defs>
      <g transform="translate(127.01625 84.696354)scale(0.1 -0.1)">
       <use xlink:href="#DejaVuSans-53"/>
      </g>
     </g>
    </g>
    <g id="xtick_6">
     <g id="line2d_6">
      <g>
       <use style="stroke:#000000;stroke-width:0.8;" x="147.119167" xlink:href="#md226223a6d" y="70.097917"/>
      </g>
     </g>
     <g id="text_6">
      <!-- 6 -->
      <defs>
       <path d="M 33.015625 40.375 
Q 26.375 40.375 22.484375 35.828125 
Q 18.609375 31.296875 18.609375 23.390625 
Q 18.609375 15.53125 22.484375 10.953125 
Q 26.375 6.390625 33.015625 6.390625 
Q 39.65625 6.390625 43.53125 10.953125 
Q 47.40625 15.53125 47.40625 23.390625 
Q 47.40625 31.296875 43.53125 35.828125 
Q 39.65625 40.375 33.015625 40.375 
z
M 52.59375 71.296875 
L 52.59375 62.3125 
Q 48.875 64.0625 45.09375 64.984375 
Q 41.3125 65.921875 37.59375 65.921875 
Q 27.828125 65.921875 22.671875 59.328125 
Q 17.53125 52.734375 16.796875 39.40625 
Q 19.671875 43.65625 24.015625 45.921875 
Q 28.375 48.1875 33.59375 48.1875 
Q 44.578125 48.1875 50.953125 41.515625 
Q 57.328125 34.859375 57.328125 23.390625 
Q 57.328125 12.15625 50.6875 5.359375 
Q 44.046875 -1.421875 33.015625 -1.421875 
Q 20.359375 -1.421875 13.671875 8.265625 
Q 6.984375 17.96875 6.984375 36.375 
Q 6.984375 53.65625 15.1875 63.9375 
Q 23.390625 74.21875 37.203125 74.21875 
Q 40.921875 74.21875 44.703125 73.484375 
Q 48.484375 72.75 52.59375 71.296875 
z
" id="DejaVuSans-54"/>
      </defs>
      <g transform="translate(143.937917 84.696354)scale(0.1 -0.1)">
       <use xlink:href="#DejaVuSans-54"/>
      </g>
     </g>
    </g>
    <g id="xtick_7">
     <g id="line2d_7">
      <g>
       <use style="stroke:#000000;stroke-width:0.8;" x="164.040833" xlink:href="#md226223a6d" y="70.097917"/>
      </g>
     </g>
     <g id="text_7">
      <!-- 7 -->
      <defs>
       <path d="M 8.203125 72.90625 
L 55.078125 72.90625 
L 55.078125 68.703125 
L 28.609375 0 
L 18.3125 0 
L 43.21875 64.59375 
L 8.203125 64.59375 
z
" id="DejaVuSans-55"/>
      </defs>
      <g transform="translate(160.859583 84.696354)scale(0.1 -0.1)">
       <use xlink:href="#DejaVuSans-55"/>
      </g>
     </g>
    </g>
    <g id="xtick_8">
     <g id="line2d_8">
      <g>
       <use style="stroke:#000000;stroke-width:0.8;" x="180.9625" xlink:href="#md226223a6d" y="70.097917"/>
      </g>
     </g>
     <g id="text_8">
      <!-- 8 -->
      <defs>
       <path d="M 31.78125 34.625 
Q 24.75 34.625 20.71875 30.859375 
Q 16.703125 27.09375 16.703125 20.515625 
Q 16.703125 13.921875 20.71875 10.15625 
Q 24.75 6.390625 31.78125 6.390625 
Q 38.8125 6.390625 42.859375 10.171875 
Q 46.921875 13.96875 46.921875 20.515625 
Q 46.921875 27.09375 42.890625 30.859375 
Q 38.875 34.625 31.78125 34.625 
z
M 21.921875 38.8125 
Q 15.578125 40.375 12.03125 44.71875 
Q 8.5 49.078125 8.5 55.328125 
Q 8.5 64.0625 14.71875 69.140625 
Q 20.953125 74.21875 31.78125 74.21875 
Q 42.671875 74.21875 48.875 69.140625 
Q 55.078125 64.0625 55.078125 55.328125 
Q 55.078125 49.078125 51.53125 44.71875 
Q 48 40.375 41.703125 38.8125 
Q 48.828125 37.15625 52.796875 32.3125 
Q 56.78125 27.484375 56.78125 20.515625 
Q 56.78125 9.90625 50.3125 4.234375 
Q 43.84375 -1.421875 31.78125 -1.421875 
Q 19.734375 -1.421875 13.25 4.234375 
Q 6.78125 9.90625 6.78125 20.515625 
Q 6.78125 27.484375 10.78125 32.3125 
Q 14.796875 37.15625 21.921875 38.8125 
z
M 18.3125 54.390625 
Q 18.3125 48.734375 21.84375 45.5625 
Q 25.390625 42.390625 31.78125 42.390625 
Q 38.140625 42.390625 41.71875 45.5625 
Q 45.3125 48.734375 45.3125 54.390625 
Q 45.3125 60.0625 41.71875 63.234375 
Q 38.140625 66.40625 31.78125 66.40625 
Q 25.390625 66.40625 21.84375 63.234375 
Q 18.3125 60.0625 18.3125 54.390625 
z
" id="DejaVuSans-56"/>
      </defs>
      <g transform="translate(177.78125 84.696354)scale(0.1 -0.1)">
       <use xlink:href="#DejaVuSans-56"/>
      </g>
     </g>
    </g>
    <g id="xtick_9">
     <g id="line2d_9">
      <g>
       <use style="stroke:#000000;stroke-width:0.8;" x="197.884167" xlink:href="#md226223a6d" y="70.097917"/>
      </g>
     </g>
     <g id="text_9">
      <!-- 9 -->
      <defs>
       <path d="M 10.984375 1.515625 
L 10.984375 10.5 
Q 14.703125 8.734375 18.5 7.8125 
Q 22.3125 6.890625 25.984375 6.890625 
Q 35.75 6.890625 40.890625 13.453125 
Q 46.046875 20.015625 46.78125 33.40625 
Q 43.953125 29.203125 39.59375 26.953125 
Q 35.25 24.703125 29.984375 24.703125 
Q 19.046875 24.703125 12.671875 31.3125 
Q 6.296875 37.9375 6.296875 49.421875 
Q 6.296875 60.640625 12.9375 67.421875 
Q 19.578125 74.21875 30.609375 74.21875 
Q 43.265625 74.21875 49.921875 64.515625 
Q 56.59375 54.828125 56.59375 36.375 
Q 56.59375 19.140625 48.40625 8.859375 
Q 40.234375 -1.421875 26.421875 -1.421875 
Q 22.703125 -1.421875 18.890625 -0.6875 
Q 15.09375 0.046875 10.984375 1.515625 
z
M 30.609375 32.421875 
Q 37.25 32.421875 41.125 36.953125 
Q 45.015625 41.5 45.015625 49.421875 
Q 45.015625 57.28125 41.125 61.84375 
Q 37.25 66.40625 30.609375 66.40625 
Q 23.96875 66.40625 20.09375 61.84375 
Q 16.21875 57.28125 16.21875 49.421875 
Q 16.21875 41.5 20.09375 36.953125 
Q 23.96875 32.421875 30.609375 32.421875 
z
" id="DejaVuSans-57"/>
      </defs>
      <g transform="translate(194.702917 84.696354)scale(0.1 -0.1)">
       <use xlink:href="#DejaVuSans-57"/>
      </g>
     </g>
    </g>
    <g id="xtick_10">
     <g id="line2d_10">
      <g>
       <use style="stroke:#000000;stroke-width:0.8;" x="214.805833" xlink:href="#md226223a6d" y="70.097917"/>
      </g>
     </g>
     <g id="text_10">
      <!-- 10 -->
      <defs>
       <path d="M 31.78125 66.40625 
Q 24.171875 66.40625 20.328125 58.90625 
Q 16.5 51.421875 16.5 36.375 
Q 16.5 21.390625 20.328125 13.890625 
Q 24.171875 6.390625 31.78125 6.390625 
Q 39.453125 6.390625 43.28125 13.890625 
Q 47.125 21.390625 47.125 36.375 
Q 47.125 51.421875 43.28125 58.90625 
Q 39.453125 66.40625 31.78125 66.40625 
z
M 31.78125 74.21875 
Q 44.046875 74.21875 50.515625 64.515625 
Q 56.984375 54.828125 56.984375 36.375 
Q 56.984375 17.96875 50.515625 8.265625 
Q 44.046875 -1.421875 31.78125 -1.421875 
Q 19.53125 -1.421875 13.0625 8.265625 
Q 6.59375 17.96875 6.59375 36.375 
Q 6.59375 54.828125 13.0625 64.515625 
Q 19.53125 74.21875 31.78125 74.21875 
z
" id="DejaVuSans-48"/>
      </defs>
      <g transform="translate(208.443333 84.696354)scale(0.1 -0.1)">
       <use xlink:href="#DejaVuSans-49"/>
       <use x="63.623047" xlink:href="#DejaVuSans-48"/>
      </g>
     </g>
    </g>
    <g id="xtick_11">
     <g id="line2d_11">
      <g>
       <use style="stroke:#000000;stroke-width:0.8;" x="231.7275" xlink:href="#md226223a6d" y="70.097917"/>
      </g>
     </g>
     <g id="text_11">
      <!-- 11 -->
      <g transform="translate(225.365 84.696354)scale(0.1 -0.1)">
       <use xlink:href="#DejaVuSans-49"/>
       <use x="63.623047" xlink:href="#DejaVuSans-49"/>
      </g>
     </g>
    </g>
    <g id="xtick_12">
     <g id="line2d_12">
      <g>
       <use style="stroke:#000000;stroke-width:0.8;" x="248.649167" xlink:href="#md226223a6d" y="70.097917"/>
      </g>
     </g>
     <g id="text_12">
      <!-- 12 -->
      <g transform="translate(242.286667 84.696354)scale(0.1 -0.1)">
       <use xlink:href="#DejaVuSans-49"/>
       <use x="63.623047" xlink:href="#DejaVuSans-50"/>
      </g>
     </g>
    </g>
    <g id="xtick_13">
     <g id="line2d_13">
      <g>
       <use style="stroke:#000000;stroke-width:0.8;" x="265.570833" xlink:href="#md226223a6d" y="70.097917"/>
      </g>
     </g>
     <g id="text_13">
      <!-- 13 -->
      <g transform="translate(259.208333 84.696354)scale(0.1 -0.1)">
       <use xlink:href="#DejaVuSans-49"/>
       <use x="63.623047" xlink:href="#DejaVuSans-51"/>
      </g>
     </g>
    </g>
    <g id="xtick_14">
     <g id="line2d_14">
      <g>
       <use style="stroke:#000000;stroke-width:0.8;" x="282.4925" xlink:href="#md226223a6d" y="70.097917"/>
      </g>
     </g>
     <g id="text_14">
      <!-- 14 -->
      <g transform="translate(276.13 84.696354)scale(0.1 -0.1)">
       <use xlink:href="#DejaVuSans-49"/>
       <use x="63.623047" xlink:href="#DejaVuSans-52"/>
      </g>
     </g>
    </g>
    <g id="xtick_15">
     <g id="line2d_15">
      <g>
       <use style="stroke:#000000;stroke-width:0.8;" x="299.414167" xlink:href="#md226223a6d" y="70.097917"/>
      </g>
     </g>
     <g id="text_15">
      <!-- 15 -->
      <g transform="translate(293.051667 84.696354)scale(0.1 -0.1)">
       <use xlink:href="#DejaVuSans-49"/>
       <use x="63.623047" xlink:href="#DejaVuSans-53"/>
      </g>
     </g>
    </g>
    <g id="xtick_16">
     <g id="line2d_16">
      <g>
       <use style="stroke:#000000;stroke-width:0.8;" x="316.335833" xlink:href="#md226223a6d" y="70.097917"/>
      </g>
     </g>
     <g id="text_16">
      <!-- 16 -->
      <g transform="translate(309.973333 84.696354)scale(0.1 -0.1)">
       <use xlink:href="#DejaVuSans-49"/>
       <use x="63.623047" xlink:href="#DejaVuSans-54"/>
      </g>
     </g>
    </g>
    <g id="xtick_17">
     <g id="line2d_17">
      <g>
       <use style="stroke:#000000;stroke-width:0.8;" x="333.2575" xlink:href="#md226223a6d" y="70.097917"/>
      </g>
     </g>
     <g id="text_17">
      <!-- 17 -->
      <g transform="translate(326.895 84.696354)scale(0.1 -0.1)">
       <use xlink:href="#DejaVuSans-49"/>
       <use x="63.623047" xlink:href="#DejaVuSans-55"/>
      </g>
     </g>
    </g>
    <g id="xtick_18">
     <g id="line2d_18">
      <g>
       <use style="stroke:#000000;stroke-width:0.8;" x="350.179167" xlink:href="#md226223a6d" y="70.097917"/>
      </g>
     </g>
     <g id="text_18">
      <!-- 18 -->
      <g transform="translate(343.816667 84.696354)scale(0.1 -0.1)">
       <use xlink:href="#DejaVuSans-49"/>
       <use x="63.623047" xlink:href="#DejaVuSans-56"/>
      </g>
     </g>
    </g>
    <g id="xtick_19">
     <g id="line2d_19">
      <g>
       <use style="stroke:#000000;stroke-width:0.8;" x="367.100833" xlink:href="#md226223a6d" y="70.097917"/>
      </g>
     </g>
     <g id="text_19">
      <!-- 19 -->
      <g transform="translate(360.738333 84.696354)scale(0.1 -0.1)">
       <use xlink:href="#DejaVuSans-49"/>
       <use x="63.623047" xlink:href="#DejaVuSans-57"/>
      </g>
     </g>
    </g>
    <g id="xtick_20">
     <g id="line2d_20">
      <g>
       <use style="stroke:#000000;stroke-width:0.8;" x="384.0225" xlink:href="#md226223a6d" y="70.097917"/>
      </g>
     </g>
     <g id="text_20">
      <!-- 20 -->
      <g transform="translate(377.66 84.696354)scale(0.1 -0.1)">
       <use xlink:href="#DejaVuSans-50"/>
       <use x="63.623047" xlink:href="#DejaVuSans-48"/>
      </g>
     </g>
    </g>
    <g id="xtick_21">
     <g id="line2d_21">
      <g>
       <use style="stroke:#000000;stroke-width:0.8;" x="400.944167" xlink:href="#md226223a6d" y="70.097917"/>
      </g>
     </g>
     <g id="text_21">
      <!-- 21 -->
      <g transform="translate(394.581667 84.696354)scale(0.1 -0.1)">
       <use xlink:href="#DejaVuSans-50"/>
       <use x="63.623047" xlink:href="#DejaVuSans-49"/>
      </g>
     </g>
    </g>
    <g id="xtick_22">
     <g id="line2d_22">
      <g>
       <use style="stroke:#000000;stroke-width:0.8;" x="417.865833" xlink:href="#md226223a6d" y="70.097917"/>
      </g>
     </g>
     <g id="text_22">
      <!-- 22 -->
      <g transform="translate(411.503333 84.696354)scale(0.1 -0.1)">
       <use xlink:href="#DejaVuSans-50"/>
       <use x="63.623047" xlink:href="#DejaVuSans-50"/>
      </g>
     </g>
    </g>
    <g id="xtick_23">
     <g id="line2d_23">
      <g>
       <use style="stroke:#000000;stroke-width:0.8;" x="434.7875" xlink:href="#md226223a6d" y="70.097917"/>
      </g>
     </g>
     <g id="text_23">
      <!-- 23 -->
      <g transform="translate(428.425 84.696354)scale(0.1 -0.1)">
       <use xlink:href="#DejaVuSans-50"/>
       <use x="63.623047" xlink:href="#DejaVuSans-51"/>
      </g>
     </g>
    </g>
    <g id="xtick_24">
     <g id="line2d_24">
      <g>
       <use style="stroke:#000000;stroke-width:0.8;" x="451.709167" xlink:href="#md226223a6d" y="70.097917"/>
      </g>
     </g>
     <g id="text_24">
      <!-- 24 -->
      <g transform="translate(445.346667 84.696354)scale(0.1 -0.1)">
       <use xlink:href="#DejaVuSans-50"/>
       <use x="63.623047" xlink:href="#DejaVuSans-52"/>
      </g>
     </g>
    </g>
    <g id="xtick_25">
     <g id="line2d_25">
      <g>
       <use style="stroke:#000000;stroke-width:0.8;" x="468.630833" xlink:href="#md226223a6d" y="70.097917"/>
      </g>
     </g>
     <g id="text_25">
      <!-- 25 -->
      <g transform="translate(462.268333 84.696354)scale(0.1 -0.1)">
       <use xlink:href="#DejaVuSans-50"/>
       <use x="63.623047" xlink:href="#DejaVuSans-53"/>
      </g>
     </g>
    </g>
    <g id="xtick_26">
     <g id="line2d_26">
      <g>
       <use style="stroke:#000000;stroke-width:0.8;" x="485.5525" xlink:href="#md226223a6d" y="70.097917"/>
      </g>
     </g>
     <g id="text_26">
      <!-- 26 -->
      <g transform="translate(479.19 84.696354)scale(0.1 -0.1)">
       <use xlink:href="#DejaVuSans-50"/>
       <use x="63.623047" xlink:href="#DejaVuSans-54"/>
      </g>
     </g>
    </g>
    <g id="xtick_27">
     <g id="line2d_27">
      <g>
       <use style="stroke:#000000;stroke-width:0.8;" x="502.474167" xlink:href="#md226223a6d" y="70.097917"/>
      </g>
     </g>
     <g id="text_27">
      <!-- 27 -->
      <g transform="translate(496.111667 84.696354)scale(0.1 -0.1)">
       <use xlink:href="#DejaVuSans-50"/>
       <use x="63.623047" xlink:href="#DejaVuSans-55"/>
      </g>
     </g>
    </g>
    <g id="xtick_28">
     <g id="line2d_28">
      <g>
       <use style="stroke:#000000;stroke-width:0.8;" x="519.395833" xlink:href="#md226223a6d" y="70.097917"/>
      </g>
     </g>
     <g id="text_28">
      <!-- 28 -->
      <g transform="translate(513.033333 84.696354)scale(0.1 -0.1)">
       <use xlink:href="#DejaVuSans-50"/>
       <use x="63.623047" xlink:href="#DejaVuSans-56"/>
      </g>
     </g>
    </g>
    <g id="xtick_29">
     <g id="line2d_29">
      <g>
       <use style="stroke:#000000;stroke-width:0.8;" x="536.3175" xlink:href="#md226223a6d" y="70.097917"/>
      </g>
     </g>
     <g id="text_29">
      <!-- 29 -->
      <g transform="translate(529.955 84.696354)scale(0.1 -0.1)">
       <use xlink:href="#DejaVuSans-50"/>
       <use x="63.623047" xlink:href="#DejaVuSans-57"/>
      </g>
     </g>
    </g>
    <g id="xtick_30">
     <g id="line2d_30">
      <g>
       <use style="stroke:#000000;stroke-width:0.8;" x="553.239167" xlink:href="#md226223a6d" y="70.097917"/>
      </g>
     </g>
     <g id="text_30">
      <!-- 30 -->
      <g transform="translate(546.876667 84.696354)scale(0.1 -0.1)">
       <use xlink:href="#DejaVuSans-51"/>
       <use x="63.623047" xlink:href="#DejaVuSans-48"/>
      </g>
     </g>
    </g>
   </g>
   <g id="matplotlib.axis_2">
    <g id="ytick_1">
     <g id="line2d_31">
      <defs>
       <path d="M 0 0 
L -3.5 0 
" id="m964a3fe97a" style="stroke:#000000;stroke-width:0.8;"/>
      </defs>
      <g>
       <use style="stroke:#000000;stroke-width:0.8;" x="54.05" xlink:href="#m964a3fe97a" y="70.097917"/>
      </g>
     </g>
     <g id="text_31">
      <!-- 0.0 -->
      <defs>
       <path d="M 10.6875 12.40625 
L 21 12.40625 
L 21 0 
L 10.6875 0 
z
" id="DejaVuSans-46"/>
      </defs>
      <g transform="translate(31.146875 73.897135)scale(0.1 -0.1)">
       <use xlink:href="#DejaVuSans-48"/>
       <use x="63.623047" xlink:href="#DejaVuSans-46"/>
       <use x="95.410156" xlink:href="#DejaVuSans-48"/>
      </g>
     </g>
    </g>
    <g id="ytick_2">
     <g id="line2d_32">
      <g>
       <use style="stroke:#000000;stroke-width:0.8;" x="54.05" xlink:href="#m964a3fe97a" y="33.967093"/>
      </g>
     </g>
     <g id="text_32">
      <!-- 0.2 -->
      <g transform="translate(31.146875 37.766311)scale(0.1 -0.1)">
       <use xlink:href="#DejaVuSans-48"/>
       <use x="63.623047" xlink:href="#DejaVuSans-46"/>
       <use x="95.410156" xlink:href="#DejaVuSans-50"/>
      </g>
     </g>
    </g>
    <g id="text_33">
     <!-- Vægt -->
     <defs>
      <path d="M 28.609375 0 
L 0.78125 72.90625 
L 11.078125 72.90625 
L 34.1875 11.53125 
L 57.328125 72.90625 
L 67.578125 72.90625 
L 39.796875 0 
z
" id="DejaVuSans-86"/>
      <path d="M 83.890625 32.234375 
Q 83.84375 39.59375 79.8125 43.984375 
Q 75.78125 48.390625 69.09375 48.390625 
Q 61.625 48.390625 57.109375 44.140625 
Q 52.59375 39.890625 51.90625 32.171875 
z
M 48.578125 47.015625 
Q 52.203125 51.421875 57.375 53.703125 
Q 62.546875 56 69 56 
Q 80.03125 56 86.46875 48.890625 
Q 92.921875 41.796875 92.921875 29.59375 
L 92.921875 25.203125 
L 51.609375 25.203125 
Q 52.203125 15.875 57.171875 10.984375 
Q 62.15625 6.109375 71.09375 6.109375 
Q 76.171875 6.109375 81.046875 7.390625 
Q 85.9375 8.6875 90.828125 11.28125 
L 90.828125 2.78125 
Q 85.9375 0.734375 80.859375 -0.34375 
Q 75.78125 -1.421875 70.609375 -1.421875 
Q 62.453125 -1.421875 56.390625 1.53125 
Q 50.34375 4.5 46.578125 10.296875 
Q 43.015625 4.4375 37.734375 1.5 
Q 32.46875 -1.421875 25.484375 -1.421875 
Q 16.265625 -1.421875 11.125 3.140625 
Q 6 7.71875 6 15.921875 
Q 6 25.140625 12.171875 29.828125 
Q 18.359375 34.515625 30.609375 34.515625 
L 43.21875 34.515625 
L 43.21875 35.40625 
Q 43.21875 41.609375 39.140625 45 
Q 35.0625 48.390625 27.6875 48.390625 
Q 23 48.390625 18.546875 47.265625 
Q 14.109375 46.140625 10.015625 43.890625 
L 10.015625 52.203125 
Q 14.9375 54.109375 19.578125 55.046875 
Q 24.21875 56 28.609375 56 
Q 35.546875 56 40.75 53.65625 
Q 45.953125 51.3125 48.578125 47.015625 
z
M 34.28125 27.484375 
Q 23.390625 27.484375 19.1875 25 
Q 14.984375 22.515625 14.984375 16.5 
Q 14.984375 11.71875 18.140625 8.90625 
Q 21.296875 6.109375 26.703125 6.109375 
Q 34.1875 6.109375 38.703125 11.40625 
Q 43.21875 16.703125 43.21875 25.484375 
L 43.21875 27.484375 
z
" id="DejaVuSans-230"/>
      <path d="M 45.40625 27.984375 
Q 45.40625 37.75 41.375 43.109375 
Q 37.359375 48.484375 30.078125 48.484375 
Q 22.859375 48.484375 18.828125 43.109375 
Q 14.796875 37.75 14.796875 27.984375 
Q 14.796875 18.265625 18.828125 12.890625 
Q 22.859375 7.515625 30.078125 7.515625 
Q 37.359375 7.515625 41.375 12.890625 
Q 45.40625 18.265625 45.40625 27.984375 
z
M 54.390625 6.78125 
Q 54.390625 -7.171875 48.1875 -13.984375 
Q 42 -20.796875 29.203125 -20.796875 
Q 24.46875 -20.796875 20.265625 -20.09375 
Q 16.0625 -19.390625 12.109375 -17.921875 
L 12.109375 -9.1875 
Q 16.0625 -11.328125 19.921875 -12.34375 
Q 23.78125 -13.375 27.78125 -13.375 
Q 36.625 -13.375 41.015625 -8.765625 
Q 45.40625 -4.15625 45.40625 5.171875 
L 45.40625 9.625 
Q 42.625 4.78125 38.28125 2.390625 
Q 33.9375 0 27.875 0 
Q 17.828125 0 11.671875 7.65625 
Q 5.515625 15.328125 5.515625 27.984375 
Q 5.515625 40.671875 11.671875 48.328125 
Q 17.828125 56 27.875 56 
Q 33.9375 56 38.28125 53.609375 
Q 42.625 51.21875 45.40625 46.390625 
L 45.40625 54.6875 
L 54.390625 54.6875 
z
" id="DejaVuSans-103"/>
      <path d="M 18.3125 70.21875 
L 18.3125 54.6875 
L 36.8125 54.6875 
L 36.8125 47.703125 
L 18.3125 47.703125 
L 18.3125 18.015625 
Q 18.3125 11.328125 20.140625 9.421875 
Q 21.96875 7.515625 27.59375 7.515625 
L 36.8125 7.515625 
L 36.8125 0 
L 27.59375 0 
Q 17.1875 0 13.234375 3.875 
Q 9.28125 7.765625 9.28125 18.015625 
L 9.28125 47.703125 
L 2.6875 47.703125 
L 2.6875 54.6875 
L 9.28125 54.6875 
L 9.28125 70.21875 
z
" id="DejaVuSans-116"/>
     </defs>
     <g transform="translate(25.067187 55.663021)rotate(-90)scale(0.1 -0.1)">
      <use xlink:href="#DejaVuSans-86"/>
      <use x="68.408203" xlink:href="#DejaVuSans-230"/>
      <use x="166.601562" xlink:href="#DejaVuSans-103"/>
      <use x="230.078125" xlink:href="#DejaVuSans-116"/>
     </g>
    </g>
   </g>
   <g id="patch_33">
    <path d="M 54.05 70.097917 
L 54.05 14.3 
" style="fill:none;stroke:#000000;stroke-linecap:square;stroke-linejoin:miter;stroke-width:0.8;"/>
   </g>
   <g id="patch_34">
    <path d="M 561.7 70.097917 
L 561.7 14.3 
" style="fill:none;stroke:#000000;stroke-linecap:square;stroke-linejoin:miter;stroke-width:0.8;"/>
   </g>
   <g id="patch_35">
    <path d="M 54.05 70.097917 
L 561.7 70.097917 
" style="fill:none;stroke:#000000;stroke-linecap:square;stroke-linejoin:miter;stroke-width:0.8;"/>
   </g>
   <g id="patch_36">
    <path d="M 54.05 14.3 
L 561.7 14.3 
" style="fill:none;stroke:#000000;stroke-linecap:square;stroke-linejoin:miter;stroke-width:0.8;"/>
   </g>
   <g id="text_34">
    <!-- PCA 1 -->
    <defs>
     <path d="M 19.671875 64.796875 
L 19.671875 37.40625 
L 32.078125 37.40625 
Q 38.96875 37.40625 42.71875 40.96875 
Q 46.484375 44.53125 46.484375 51.125 
Q 46.484375 57.671875 42.71875 61.234375 
Q 38.96875 64.796875 32.078125 64.796875 
z
M 9.8125 72.90625 
L 32.078125 72.90625 
Q 44.34375 72.90625 50.609375 67.359375 
Q 56.890625 61.8125 56.890625 51.125 
Q 56.890625 40.328125 50.609375 34.8125 
Q 44.34375 29.296875 32.078125 29.296875 
L 19.671875 29.296875 
L 19.671875 0 
L 9.8125 0 
z
" id="DejaVuSans-80"/>
     <path d="M 64.40625 67.28125 
L 64.40625 56.890625 
Q 59.421875 61.53125 53.78125 63.8125 
Q 48.140625 66.109375 41.796875 66.109375 
Q 29.296875 66.109375 22.65625 58.46875 
Q 16.015625 50.828125 16.015625 36.375 
Q 16.015625 21.96875 22.65625 14.328125 
Q 29.296875 6.6875 41.796875 6.6875 
Q 48.140625 6.6875 53.78125 8.984375 
Q 59.421875 11.28125 64.40625 15.921875 
L 64.40625 5.609375 
Q 59.234375 2.09375 53.4375 0.328125 
Q 47.65625 -1.421875 41.21875 -1.421875 
Q 24.65625 -1.421875 15.125 8.703125 
Q 5.609375 18.84375 5.609375 36.375 
Q 5.609375 53.953125 15.125 64.078125 
Q 24.65625 74.21875 41.21875 74.21875 
Q 47.75 74.21875 53.53125 72.484375 
Q 59.328125 70.75 64.40625 67.28125 
z
" id="DejaVuSans-67"/>
     <path d="M 34.1875 63.1875 
L 20.796875 26.90625 
L 47.609375 26.90625 
z
M 28.609375 72.90625 
L 39.796875 72.90625 
L 67.578125 0 
L 57.328125 0 
L 50.6875 18.703125 
L 17.828125 18.703125 
L 11.1875 0 
L 0.78125 0 
z
" id="DejaVuSans-65"/>
     <path id="DejaVuSans-32"/>
    </defs>
    <g transform="translate(64.203 28.249479)scale(0.14 -0.14)">
     <use xlink:href="#DejaVuSans-80"/>
     <use x="60.302734" xlink:href="#DejaVuSans-67"/>
     <use x="130.126953" xlink:href="#DejaVuSans-65"/>
     <use x="198.535156" xlink:href="#DejaVuSans-32"/>
     <use x="230.322266" xlink:href="#DejaVuSans-49"/>
    </g>
   </g>
  </g>
  <g id="axes_2">
   <g id="patch_37">
    <path d="M 54.05 157.195833 
L 561.7 157.195833 
L 561.7 101.397917 
L 54.05 101.397917 
z
" style="fill:#ffffff;"/>
   </g>
   <g id="patch_38">
    <path clip-path="url(#p329bdd566f)" d="M 55.742167 157.195833 
L 69.2795 157.195833 
L 69.2795 133.587989 
L 55.742167 133.587989 
z
" style="fill:#ff796c;"/>
   </g>
   <g id="patch_39">
    <path clip-path="url(#p329bdd566f)" d="M 72.663833 157.195833 
L 86.201167 157.195833 
L 86.201167 124.775706 
L 72.663833 124.775706 
z
" style="fill:#7bc8f6;"/>
   </g>
   <g id="patch_40">
    <path clip-path="url(#p329bdd566f)" d="M 89.5855 157.195833 
L 103.122833 157.195833 
L 103.122833 140.601622 
L 89.5855 140.601622 
z
" style="fill:#ff796c;"/>
   </g>
   <g id="patch_41">
    <path clip-path="url(#p329bdd566f)" d="M 106.507167 157.195833 
L 120.0445 157.195833 
L 120.0445 146.276264 
L 106.507167 146.276264 
z
" style="fill:#7bc8f6;"/>
   </g>
   <g id="patch_42">
    <path clip-path="url(#p329bdd566f)" d="M 123.428833 157.195833 
L 136.966167 157.195833 
L 136.966167 150.397997 
L 123.428833 150.397997 
z
" style="fill:#ff796c;"/>
   </g>
   <g id="patch_43">
    <path clip-path="url(#p329bdd566f)" d="M 140.3505 157.195833 
L 153.887833 157.195833 
L 153.887833 141.139698 
L 140.3505 141.139698 
z
" style="fill:#ff796c;"/>
   </g>
   <g id="patch_44">
    <path clip-path="url(#p329bdd566f)" d="M 157.272167 157.195833 
L 170.8095 157.195833 
L 170.8095 147.710141 
L 157.272167 147.710141 
z
" style="fill:#7bc8f6;"/>
   </g>
   <g id="patch_45">
    <path clip-path="url(#p329bdd566f)" d="M 174.193833 157.195833 
L 187.731167 157.195833 
L 187.731167 137.087892 
L 174.193833 137.087892 
z
" style="fill:#ff796c;"/>
   </g>
   <g id="patch_46">
    <path clip-path="url(#p329bdd566f)" d="M 191.1155 157.195833 
L 204.652833 157.195833 
L 204.652833 110.237956 
L 191.1155 110.237956 
z
" style="fill:#7bc8f6;"/>
   </g>
   <g id="patch_47">
    <path clip-path="url(#p329bdd566f)" d="M 208.037167 157.195833 
L 221.5745 157.195833 
L 221.5745 132.960468 
L 208.037167 132.960468 
z
" style="fill:#7bc8f6;"/>
   </g>
   <g id="patch_48">
    <path clip-path="url(#p329bdd566f)" d="M 224.958833 157.195833 
L 238.496167 157.195833 
L 238.496167 148.697104 
L 224.958833 148.697104 
z
" style="fill:#ff796c;"/>
   </g>
   <g id="patch_49">
    <path clip-path="url(#p329bdd566f)" d="M 241.8805 157.195833 
L 255.417833 157.195833 
L 255.417833 104.05496 
L 241.8805 104.05496 
z
" style="fill:#7bc8f6;"/>
   </g>
   <g id="patch_50">
    <path clip-path="url(#p329bdd566f)" d="M 258.802167 157.195833 
L 272.3395 157.195833 
L 272.3395 132.721897 
L 258.802167 132.721897 
z
" style="fill:#ff796c;"/>
   </g>
   <g id="patch_51">
    <path clip-path="url(#p329bdd566f)" d="M 275.723833 157.195833 
L 289.261167 157.195833 
L 289.261167 114.484133 
L 275.723833 114.484133 
z
" style="fill:#ff796c;"/>
   </g>
   <g id="patch_52">
    <path clip-path="url(#p329bdd566f)" d="M 292.6455 157.195833 
L 306.182833 157.195833 
L 306.182833 108.697919 
L 292.6455 108.697919 
z
" style="fill:#7bc8f6;"/>
   </g>
   <g id="patch_53">
    <path clip-path="url(#p329bdd566f)" d="M 309.567167 157.195833 
L 323.1045 157.195833 
L 323.1045 142.549959 
L 309.567167 142.549959 
z
" style="fill:#7bc8f6;"/>
   </g>
   <g id="patch_54">
    <path clip-path="url(#p329bdd566f)" d="M 326.488833 157.195833 
L 340.026167 157.195833 
L 340.026167 156.830883 
L 326.488833 156.830883 
z
" style="fill:#ff796c;"/>
   </g>
   <g id="patch_55">
    <path clip-path="url(#p329bdd566f)" d="M 343.4105 157.195833 
L 356.947833 157.195833 
L 356.947833 125.22434 
L 343.4105 125.22434 
z
" style="fill:#ff796c;"/>
   </g>
   <g id="patch_56">
    <path clip-path="url(#p329bdd566f)" d="M 360.332167 157.195833 
L 373.8695 157.195833 
L 373.8695 151.044234 
L 360.332167 151.044234 
z
" style="fill:#ff796c;"/>
   </g>
   <g id="patch_57">
    <path clip-path="url(#p329bdd566f)" d="M 377.253833 157.195833 
L 390.791167 157.195833 
L 390.791167 154.845218 
L 377.253833 154.845218 
z
" style="fill:#7bc8f6;"/>
   </g>
   <g id="patch_58">
    <path clip-path="url(#p329bdd566f)" d="M 394.1755 157.195833 
L 407.712833 157.195833 
L 407.712833 105.079097 
L 394.1755 105.079097 
z
" style="fill:#7bc8f6;"/>
   </g>
   <g id="patch_59">
    <path clip-path="url(#p329bdd566f)" d="M 411.097167 157.195833 
L 424.6345 157.195833 
L 424.6345 149.959486 
L 411.097167 149.959486 
z
" style="fill:#ff796c;"/>
   </g>
   <g id="patch_60">
    <path clip-path="url(#p329bdd566f)" d="M 428.018833 157.195833 
L 441.556167 157.195833 
L 441.556167 140.256793 
L 428.018833 140.256793 
z
" style="fill:#7bc8f6;"/>
   </g>
   <g id="patch_61">
    <path clip-path="url(#p329bdd566f)" d="M 444.9405 157.195833 
L 458.477833 157.195833 
L 458.477833 126.102151 
L 444.9405 126.102151 
z
" style="fill:#ff796c;"/>
   </g>
   <g id="patch_62">
    <path clip-path="url(#p329bdd566f)" d="M 461.862167 157.195833 
L 475.3995 157.195833 
L 475.3995 149.214596 
L 461.862167 149.214596 
z
" style="fill:#7bc8f6;"/>
   </g>
   <g id="patch_63">
    <path clip-path="url(#p329bdd566f)" d="M 478.783833 157.195833 
L 492.321167 157.195833 
L 492.321167 155.894934 
L 478.783833 155.894934 
z
" style="fill:#ff796c;"/>
   </g>
   <g id="patch_64">
    <path clip-path="url(#p329bdd566f)" d="M 495.7055 157.195833 
L 509.242833 157.195833 
L 509.242833 147.097097 
L 495.7055 147.097097 
z
" style="fill:#7bc8f6;"/>
   </g>
   <g id="patch_65">
    <path clip-path="url(#p329bdd566f)" d="M 512.627167 157.195833 
L 526.1645 157.195833 
L 526.1645 113.657803 
L 512.627167 113.657803 
z
" style="fill:#7bc8f6;"/>
   </g>
   <g id="patch_66">
    <path clip-path="url(#p329bdd566f)" d="M 529.548833 157.195833 
L 543.086167 157.195833 
L 543.086167 143.689865 
L 529.548833 143.689865 
z
" style="fill:#7bc8f6;"/>
   </g>
   <g id="patch_67">
    <path clip-path="url(#p329bdd566f)" d="M 546.4705 157.195833 
L 560.007833 157.195833 
L 560.007833 123.560438 
L 546.4705 123.560438 
z
" style="fill:#ff796c;"/>
   </g>
   <g id="matplotlib.axis_3">
    <g id="xtick_31">
     <g id="line2d_33">
      <g>
       <use style="stroke:#000000;stroke-width:0.8;" x="62.510833" xlink:href="#md226223a6d" y="157.195833"/>
      </g>
     </g>
     <g id="text_35">
      <!-- 1 -->
      <g transform="translate(59.329583 171.794271)scale(0.1 -0.1)">
       <use xlink:href="#DejaVuSans-49"/>
      </g>
     </g>
    </g>
    <g id="xtick_32">
     <g id="line2d_34">
      <g>
       <use style="stroke:#000000;stroke-width:0.8;" x="79.4325" xlink:href="#md226223a6d" y="157.195833"/>
      </g>
     </g>
     <g id="text_36">
      <!-- 2 -->
      <g transform="translate(76.25125 171.794271)scale(0.1 -0.1)">
       <use xlink:href="#DejaVuSans-50"/>
      </g>
     </g>
    </g>
    <g id="xtick_33">
     <g id="line2d_35">
      <g>
       <use style="stroke:#000000;stroke-width:0.8;" x="96.354167" xlink:href="#md226223a6d" y="157.195833"/>
      </g>
     </g>
     <g id="text_37">
      <!-- 3 -->
      <g transform="translate(93.172917 171.794271)scale(0.1 -0.1)">
       <use xlink:href="#DejaVuSans-51"/>
      </g>
     </g>
    </g>
    <g id="xtick_34">
     <g id="line2d_36">
      <g>
       <use style="stroke:#000000;stroke-width:0.8;" x="113.275833" xlink:href="#md226223a6d" y="157.195833"/>
      </g>
     </g>
     <g id="text_38">
      <!-- 4 -->
      <g transform="translate(110.094583 171.794271)scale(0.1 -0.1)">
       <use xlink:href="#DejaVuSans-52"/>
      </g>
     </g>
    </g>
    <g id="xtick_35">
     <g id="line2d_37">
      <g>
       <use style="stroke:#000000;stroke-width:0.8;" x="130.1975" xlink:href="#md226223a6d" y="157.195833"/>
      </g>
     </g>
     <g id="text_39">
      <!-- 5 -->
      <g transform="translate(127.01625 171.794271)scale(0.1 -0.1)">
       <use xlink:href="#DejaVuSans-53"/>
      </g>
     </g>
    </g>
    <g id="xtick_36">
     <g id="line2d_38">
      <g>
       <use style="stroke:#000000;stroke-width:0.8;" x="147.119167" xlink:href="#md226223a6d" y="157.195833"/>
      </g>
     </g>
     <g id="text_40">
      <!-- 6 -->
      <g transform="translate(143.937917 171.794271)scale(0.1 -0.1)">
       <use xlink:href="#DejaVuSans-54"/>
      </g>
     </g>
    </g>
    <g id="xtick_37">
     <g id="line2d_39">
      <g>
       <use style="stroke:#000000;stroke-width:0.8;" x="164.040833" xlink:href="#md226223a6d" y="157.195833"/>
      </g>
     </g>
     <g id="text_41">
      <!-- 7 -->
      <g transform="translate(160.859583 171.794271)scale(0.1 -0.1)">
       <use xlink:href="#DejaVuSans-55"/>
      </g>
     </g>
    </g>
    <g id="xtick_38">
     <g id="line2d_40">
      <g>
       <use style="stroke:#000000;stroke-width:0.8;" x="180.9625" xlink:href="#md226223a6d" y="157.195833"/>
      </g>
     </g>
     <g id="text_42">
      <!-- 8 -->
      <g transform="translate(177.78125 171.794271)scale(0.1 -0.1)">
       <use xlink:href="#DejaVuSans-56"/>
      </g>
     </g>
    </g>
    <g id="xtick_39">
     <g id="line2d_41">
      <g>
       <use style="stroke:#000000;stroke-width:0.8;" x="197.884167" xlink:href="#md226223a6d" y="157.195833"/>
      </g>
     </g>
     <g id="text_43">
      <!-- 9 -->
      <g transform="translate(194.702917 171.794271)scale(0.1 -0.1)">
       <use xlink:href="#DejaVuSans-57"/>
      </g>
     </g>
    </g>
    <g id="xtick_40">
     <g id="line2d_42">
      <g>
       <use style="stroke:#000000;stroke-width:0.8;" x="214.805833" xlink:href="#md226223a6d" y="157.195833"/>
      </g>
     </g>
     <g id="text_44">
      <!-- 10 -->
      <g transform="translate(208.443333 171.794271)scale(0.1 -0.1)">
       <use xlink:href="#DejaVuSans-49"/>
       <use x="63.623047" xlink:href="#DejaVuSans-48"/>
      </g>
     </g>
    </g>
    <g id="xtick_41">
     <g id="line2d_43">
      <g>
       <use style="stroke:#000000;stroke-width:0.8;" x="231.7275" xlink:href="#md226223a6d" y="157.195833"/>
      </g>
     </g>
     <g id="text_45">
      <!-- 11 -->
      <g transform="translate(225.365 171.794271)scale(0.1 -0.1)">
       <use xlink:href="#DejaVuSans-49"/>
       <use x="63.623047" xlink:href="#DejaVuSans-49"/>
      </g>
     </g>
    </g>
    <g id="xtick_42">
     <g id="line2d_44">
      <g>
       <use style="stroke:#000000;stroke-width:0.8;" x="248.649167" xlink:href="#md226223a6d" y="157.195833"/>
      </g>
     </g>
     <g id="text_46">
      <!-- 12 -->
      <g transform="translate(242.286667 171.794271)scale(0.1 -0.1)">
       <use xlink:href="#DejaVuSans-49"/>
       <use x="63.623047" xlink:href="#DejaVuSans-50"/>
      </g>
     </g>
    </g>
    <g id="xtick_43">
     <g id="line2d_45">
      <g>
       <use style="stroke:#000000;stroke-width:0.8;" x="265.570833" xlink:href="#md226223a6d" y="157.195833"/>
      </g>
     </g>
     <g id="text_47">
      <!-- 13 -->
      <g transform="translate(259.208333 171.794271)scale(0.1 -0.1)">
       <use xlink:href="#DejaVuSans-49"/>
       <use x="63.623047" xlink:href="#DejaVuSans-51"/>
      </g>
     </g>
    </g>
    <g id="xtick_44">
     <g id="line2d_46">
      <g>
       <use style="stroke:#000000;stroke-width:0.8;" x="282.4925" xlink:href="#md226223a6d" y="157.195833"/>
      </g>
     </g>
     <g id="text_48">
      <!-- 14 -->
      <g transform="translate(276.13 171.794271)scale(0.1 -0.1)">
       <use xlink:href="#DejaVuSans-49"/>
       <use x="63.623047" xlink:href="#DejaVuSans-52"/>
      </g>
     </g>
    </g>
    <g id="xtick_45">
     <g id="line2d_47">
      <g>
       <use style="stroke:#000000;stroke-width:0.8;" x="299.414167" xlink:href="#md226223a6d" y="157.195833"/>
      </g>
     </g>
     <g id="text_49">
      <!-- 15 -->
      <g transform="translate(293.051667 171.794271)scale(0.1 -0.1)">
       <use xlink:href="#DejaVuSans-49"/>
       <use x="63.623047" xlink:href="#DejaVuSans-53"/>
      </g>
     </g>
    </g>
    <g id="xtick_46">
     <g id="line2d_48">
      <g>
       <use style="stroke:#000000;stroke-width:0.8;" x="316.335833" xlink:href="#md226223a6d" y="157.195833"/>
      </g>
     </g>
     <g id="text_50">
      <!-- 16 -->
      <g transform="translate(309.973333 171.794271)scale(0.1 -0.1)">
       <use xlink:href="#DejaVuSans-49"/>
       <use x="63.623047" xlink:href="#DejaVuSans-54"/>
      </g>
     </g>
    </g>
    <g id="xtick_47">
     <g id="line2d_49">
      <g>
       <use style="stroke:#000000;stroke-width:0.8;" x="333.2575" xlink:href="#md226223a6d" y="157.195833"/>
      </g>
     </g>
     <g id="text_51">
      <!-- 17 -->
      <g transform="translate(326.895 171.794271)scale(0.1 -0.1)">
       <use xlink:href="#DejaVuSans-49"/>
       <use x="63.623047" xlink:href="#DejaVuSans-55"/>
      </g>
     </g>
    </g>
    <g id="xtick_48">
     <g id="line2d_50">
      <g>
       <use style="stroke:#000000;stroke-width:0.8;" x="350.179167" xlink:href="#md226223a6d" y="157.195833"/>
      </g>
     </g>
     <g id="text_52">
      <!-- 18 -->
      <g transform="translate(343.816667 171.794271)scale(0.1 -0.1)">
       <use xlink:href="#DejaVuSans-49"/>
       <use x="63.623047" xlink:href="#DejaVuSans-56"/>
      </g>
     </g>
    </g>
    <g id="xtick_49">
     <g id="line2d_51">
      <g>
       <use style="stroke:#000000;stroke-width:0.8;" x="367.100833" xlink:href="#md226223a6d" y="157.195833"/>
      </g>
     </g>
     <g id="text_53">
      <!-- 19 -->
      <g transform="translate(360.738333 171.794271)scale(0.1 -0.1)">
       <use xlink:href="#DejaVuSans-49"/>
       <use x="63.623047" xlink:href="#DejaVuSans-57"/>
      </g>
     </g>
    </g>
    <g id="xtick_50">
     <g id="line2d_52">
      <g>
       <use style="stroke:#000000;stroke-width:0.8;" x="384.0225" xlink:href="#md226223a6d" y="157.195833"/>
      </g>
     </g>
     <g id="text_54">
      <!-- 20 -->
      <g transform="translate(377.66 171.794271)scale(0.1 -0.1)">
       <use xlink:href="#DejaVuSans-50"/>
       <use x="63.623047" xlink:href="#DejaVuSans-48"/>
      </g>
     </g>
    </g>
    <g id="xtick_51">
     <g id="line2d_53">
      <g>
       <use style="stroke:#000000;stroke-width:0.8;" x="400.944167" xlink:href="#md226223a6d" y="157.195833"/>
      </g>
     </g>
     <g id="text_55">
      <!-- 21 -->
      <g transform="translate(394.581667 171.794271)scale(0.1 -0.1)">
       <use xlink:href="#DejaVuSans-50"/>
       <use x="63.623047" xlink:href="#DejaVuSans-49"/>
      </g>
     </g>
    </g>
    <g id="xtick_52">
     <g id="line2d_54">
      <g>
       <use style="stroke:#000000;stroke-width:0.8;" x="417.865833" xlink:href="#md226223a6d" y="157.195833"/>
      </g>
     </g>
     <g id="text_56">
      <!-- 22 -->
      <g transform="translate(411.503333 171.794271)scale(0.1 -0.1)">
       <use xlink:href="#DejaVuSans-50"/>
       <use x="63.623047" xlink:href="#DejaVuSans-50"/>
      </g>
     </g>
    </g>
    <g id="xtick_53">
     <g id="line2d_55">
      <g>
       <use style="stroke:#000000;stroke-width:0.8;" x="434.7875" xlink:href="#md226223a6d" y="157.195833"/>
      </g>
     </g>
     <g id="text_57">
      <!-- 23 -->
      <g transform="translate(428.425 171.794271)scale(0.1 -0.1)">
       <use xlink:href="#DejaVuSans-50"/>
       <use x="63.623047" xlink:href="#DejaVuSans-51"/>
      </g>
     </g>
    </g>
    <g id="xtick_54">
     <g id="line2d_56">
      <g>
       <use style="stroke:#000000;stroke-width:0.8;" x="451.709167" xlink:href="#md226223a6d" y="157.195833"/>
      </g>
     </g>
     <g id="text_58">
      <!-- 24 -->
      <g transform="translate(445.346667 171.794271)scale(0.1 -0.1)">
       <use xlink:href="#DejaVuSans-50"/>
       <use x="63.623047" xlink:href="#DejaVuSans-52"/>
      </g>
     </g>
    </g>
    <g id="xtick_55">
     <g id="line2d_57">
      <g>
       <use style="stroke:#000000;stroke-width:0.8;" x="468.630833" xlink:href="#md226223a6d" y="157.195833"/>
      </g>
     </g>
     <g id="text_59">
      <!-- 25 -->
      <g transform="translate(462.268333 171.794271)scale(0.1 -0.1)">
       <use xlink:href="#DejaVuSans-50"/>
       <use x="63.623047" xlink:href="#DejaVuSans-53"/>
      </g>
     </g>
    </g>
    <g id="xtick_56">
     <g id="line2d_58">
      <g>
       <use style="stroke:#000000;stroke-width:0.8;" x="485.5525" xlink:href="#md226223a6d" y="157.195833"/>
      </g>
     </g>
     <g id="text_60">
      <!-- 26 -->
      <g transform="translate(479.19 171.794271)scale(0.1 -0.1)">
       <use xlink:href="#DejaVuSans-50"/>
       <use x="63.623047" xlink:href="#DejaVuSans-54"/>
      </g>
     </g>
    </g>
    <g id="xtick_57">
     <g id="line2d_59">
      <g>
       <use style="stroke:#000000;stroke-width:0.8;" x="502.474167" xlink:href="#md226223a6d" y="157.195833"/>
      </g>
     </g>
     <g id="text_61">
      <!-- 27 -->
      <g transform="translate(496.111667 171.794271)scale(0.1 -0.1)">
       <use xlink:href="#DejaVuSans-50"/>
       <use x="63.623047" xlink:href="#DejaVuSans-55"/>
      </g>
     </g>
    </g>
    <g id="xtick_58">
     <g id="line2d_60">
      <g>
       <use style="stroke:#000000;stroke-width:0.8;" x="519.395833" xlink:href="#md226223a6d" y="157.195833"/>
      </g>
     </g>
     <g id="text_62">
      <!-- 28 -->
      <g transform="translate(513.033333 171.794271)scale(0.1 -0.1)">
       <use xlink:href="#DejaVuSans-50"/>
       <use x="63.623047" xlink:href="#DejaVuSans-56"/>
      </g>
     </g>
    </g>
    <g id="xtick_59">
     <g id="line2d_61">
      <g>
       <use style="stroke:#000000;stroke-width:0.8;" x="536.3175" xlink:href="#md226223a6d" y="157.195833"/>
      </g>
     </g>
     <g id="text_63">
      <!-- 29 -->
      <g transform="translate(529.955 171.794271)scale(0.1 -0.1)">
       <use xlink:href="#DejaVuSans-50"/>
       <use x="63.623047" xlink:href="#DejaVuSans-57"/>
      </g>
     </g>
    </g>
    <g id="xtick_60">
     <g id="line2d_62">
      <g>
       <use style="stroke:#000000;stroke-width:0.8;" x="553.239167" xlink:href="#md226223a6d" y="157.195833"/>
      </g>
     </g>
     <g id="text_64">
      <!-- 30 -->
      <g transform="translate(546.876667 171.794271)scale(0.1 -0.1)">
       <use xlink:href="#DejaVuSans-51"/>
       <use x="63.623047" xlink:href="#DejaVuSans-48"/>
      </g>
     </g>
    </g>
   </g>
   <g id="matplotlib.axis_4">
    <g id="ytick_3">
     <g id="line2d_63">
      <g>
       <use style="stroke:#000000;stroke-width:0.8;" x="54.05" xlink:href="#m964a3fe97a" y="157.195833"/>
      </g>
     </g>
     <g id="text_65">
      <!-- 0.0 -->
      <g transform="translate(31.146875 160.995052)scale(0.1 -0.1)">
       <use xlink:href="#DejaVuSans-48"/>
       <use x="63.623047" xlink:href="#DejaVuSans-46"/>
       <use x="95.410156" xlink:href="#DejaVuSans-48"/>
      </g>
     </g>
    </g>
    <g id="ytick_4">
     <g id="line2d_64">
      <g>
       <use style="stroke:#000000;stroke-width:0.8;" x="54.05" xlink:href="#m964a3fe97a" y="127.56859"/>
      </g>
     </g>
     <g id="text_66">
      <!-- 0.2 -->
      <g transform="translate(31.146875 131.367809)scale(0.1 -0.1)">
       <use xlink:href="#DejaVuSans-48"/>
       <use x="63.623047" xlink:href="#DejaVuSans-46"/>
       <use x="95.410156" xlink:href="#DejaVuSans-50"/>
      </g>
     </g>
    </g>
    <g id="text_67">
     <!-- Vægt -->
     <g transform="translate(25.067187 142.760938)rotate(-90)scale(0.1 -0.1)">
      <use xlink:href="#DejaVuSans-86"/>
      <use x="68.408203" xlink:href="#DejaVuSans-230"/>
      <use x="166.601562" xlink:href="#DejaVuSans-103"/>
      <use x="230.078125" xlink:href="#DejaVuSans-116"/>
     </g>
    </g>
   </g>
   <g id="patch_68">
    <path d="M 54.05 157.195833 
L 54.05 101.397917 
" style="fill:none;stroke:#000000;stroke-linecap:square;stroke-linejoin:miter;stroke-width:0.8;"/>
   </g>
   <g id="patch_69">
    <path d="M 561.7 157.195833 
L 561.7 101.397917 
" style="fill:none;stroke:#000000;stroke-linecap:square;stroke-linejoin:miter;stroke-width:0.8;"/>
   </g>
   <g id="patch_70">
    <path d="M 54.05 157.195833 
L 561.7 157.195833 
" style="fill:none;stroke:#000000;stroke-linecap:square;stroke-linejoin:miter;stroke-width:0.8;"/>
   </g>
   <g id="patch_71">
    <path d="M 54.05 101.397917 
L 561.7 101.397917 
" style="fill:none;stroke:#000000;stroke-linecap:square;stroke-linejoin:miter;stroke-width:0.8;"/>
   </g>
   <g id="text_68">
    <!-- PCA 2 -->
    <g transform="translate(64.203 115.347396)scale(0.14 -0.14)">
     <use xlink:href="#DejaVuSans-80"/>
     <use x="60.302734" xlink:href="#DejaVuSans-67"/>
     <use x="130.126953" xlink:href="#DejaVuSans-65"/>
     <use x="198.535156" xlink:href="#DejaVuSans-32"/>
     <use x="230.322266" xlink:href="#DejaVuSans-50"/>
    </g>
   </g>
  </g>
  <g id="axes_3">
   <g id="patch_72">
    <path d="M 54.05 244.29375 
L 561.7 244.29375 
L 561.7 188.495833 
L 54.05 188.495833 
z
" style="fill:#ffffff;"/>
   </g>
   <g id="patch_73">
    <path clip-path="url(#p387cf374f4)" d="M 55.742167 244.29375 
L 69.2795 244.29375 
L 69.2795 219.056981 
L 55.742167 219.056981 
z
" style="fill:#ff796c;"/>
   </g>
   <g id="patch_74">
    <path clip-path="url(#p387cf374f4)" d="M 72.663833 244.29375 
L 86.201167 244.29375 
L 86.201167 240.194382 
L 72.663833 240.194382 
z
" style="fill:#ff796c;"/>
   </g>
   <g id="patch_75">
    <path clip-path="url(#p387cf374f4)" d="M 89.5855 244.29375 
L 103.122833 244.29375 
L 103.122833 241.605553 
L 89.5855 241.605553 
z
" style="fill:#ff796c;"/>
   </g>
   <g id="patch_76">
    <path clip-path="url(#p387cf374f4)" d="M 106.507167 244.29375 
L 120.0445 244.29375 
L 120.0445 244.257636 
L 106.507167 244.257636 
z
" style="fill:#ff796c;"/>
   </g>
   <g id="patch_77">
    <path clip-path="url(#p387cf374f4)" d="M 123.428833 244.29375 
L 136.966167 244.29375 
L 136.966167 225.030023 
L 123.428833 225.030023 
z
" style="fill:#ff796c;"/>
   </g>
   <g id="patch_78">
    <path clip-path="url(#p387cf374f4)" d="M 140.3505 244.29375 
L 153.887833 244.29375 
L 153.887833 237.195092 
L 140.3505 237.195092 
z
" style="fill:#ff796c;"/>
   </g>
   <g id="patch_79">
    <path clip-path="url(#p387cf374f4)" d="M 157.272167 244.29375 
L 170.8095 244.29375 
L 170.8095 242.320961 
L 157.272167 242.320961 
z
" style="fill:#7bc8f6;"/>
   </g>
   <g id="patch_80">
    <path clip-path="url(#p387cf374f4)" d="M 174.193833 244.29375 
L 187.731167 244.29375 
L 187.731167 235.196196 
L 174.193833 235.196196 
z
" style="fill:#ff796c;"/>
   </g>
   <g id="patch_81">
    <path clip-path="url(#p387cf374f4)" d="M 191.1155 244.29375 
L 204.652833 244.29375 
L 204.652833 234.999167 
L 191.1155 234.999167 
z
" style="fill:#ff796c;"/>
   </g>
   <g id="patch_82">
    <path clip-path="url(#p387cf374f4)" d="M 208.037167 244.29375 
L 221.5745 244.29375 
L 221.5745 221.916712 
L 208.037167 221.916712 
z
" style="fill:#7bc8f6;"/>
   </g>
   <g id="patch_83">
    <path clip-path="url(#p387cf374f4)" d="M 224.958833 244.29375 
L 238.496167 244.29375 
L 238.496167 239.197929 
L 224.958833 239.197929 
z
" style="fill:#ff796c;"/>
   </g>
   <g id="patch_84">
    <path clip-path="url(#p387cf374f4)" d="M 241.8805 244.29375 
L 255.417833 244.29375 
L 255.417833 219.177682 
L 241.8805 219.177682 
z
" style="fill:#7bc8f6;"/>
   </g>
   <g id="patch_85">
    <path clip-path="url(#p387cf374f4)" d="M 258.802167 244.29375 
L 272.3395 244.29375 
L 272.3395 237.904191 
L 258.802167 237.904191 
z
" style="fill:#ff796c;"/>
   </g>
   <g id="patch_86">
    <path clip-path="url(#p387cf374f4)" d="M 275.723833 244.29375 
L 289.261167 244.29375 
L 289.261167 243.789631 
L 275.723833 243.789631 
z
" style="fill:#ff796c;"/>
   </g>
   <g id="patch_87">
    <path clip-path="url(#p387cf374f4)" d="M 292.6455 244.29375 
L 306.182833 244.29375 
L 306.182833 238.145574 
L 292.6455 238.145574 
z
" style="fill:#ff796c;"/>
   </g>
   <g id="patch_88">
    <path clip-path="url(#p387cf374f4)" d="M 309.567167 244.29375 
L 323.1045 244.29375 
L 323.1045 224.19144 
L 309.567167 224.19144 
z
" style="fill:#ff796c;"/>
   </g>
   <g id="patch_89">
    <path clip-path="url(#p387cf374f4)" d="M 326.488833 244.29375 
L 340.026167 244.29375 
L 340.026167 238.936211 
L 326.488833 238.936211 
z
" style="fill:#ff796c;"/>
   </g>
   <g id="patch_90">
    <path clip-path="url(#p387cf374f4)" d="M 343.4105 244.29375 
L 356.947833 244.29375 
L 356.947833 240.403847 
L 343.4105 240.403847 
z
" style="fill:#7bc8f6;"/>
   </g>
   <g id="patch_91">
    <path clip-path="url(#p387cf374f4)" d="M 360.332167 244.29375 
L 373.8695 244.29375 
L 373.8695 240.439841 
L 360.332167 240.439841 
z
" style="fill:#7bc8f6;"/>
   </g>
   <g id="patch_92">
    <path clip-path="url(#p387cf374f4)" d="M 377.253833 244.29375 
L 390.791167 244.29375 
L 390.791167 236.875944 
L 377.253833 236.875944 
z
" style="fill:#7bc8f6;"/>
   </g>
   <g id="patch_93">
    <path clip-path="url(#p387cf374f4)" d="M 394.1755 244.29375 
L 407.712833 244.29375 
L 407.712833 205.87452 
L 394.1755 205.87452 
z
" style="fill:#ff796c;"/>
   </g>
   <g id="patch_94">
    <path clip-path="url(#p387cf374f4)" d="M 411.097167 244.29375 
L 424.6345 244.29375 
L 424.6345 236.488405 
L 411.097167 236.488405 
z
" style="fill:#7bc8f6;"/>
   </g>
   <g id="patch_95">
    <path clip-path="url(#p387cf374f4)" d="M 428.018833 244.29375 
L 441.556167 244.29375 
L 441.556167 238.31958 
L 428.018833 238.31958 
z
" style="fill:#7bc8f6;"/>
   </g>
   <g id="patch_96">
    <path clip-path="url(#p387cf374f4)" d="M 444.9405 244.29375 
L 458.477833 244.29375 
L 458.477833 229.025867 
L 444.9405 229.025867 
z
" style="fill:#7bc8f6;"/>
   </g>
   <g id="patch_97">
    <path clip-path="url(#p387cf374f4)" d="M 461.862167 244.29375 
L 475.3995 244.29375 
L 475.3995 191.152877 
L 461.862167 191.152877 
z
" style="fill:#ff796c;"/>
   </g>
   <g id="patch_98">
    <path clip-path="url(#p387cf374f4)" d="M 478.783833 244.29375 
L 492.321167 244.29375 
L 492.321167 226.95704 
L 478.783833 226.95704 
z
" style="fill:#ff796c;"/>
   </g>
   <g id="patch_99">
    <path clip-path="url(#p387cf374f4)" d="M 495.7055 244.29375 
L 509.242833 244.29375 
L 509.242833 229.195783 
L 495.7055 229.195783 
z
" style="fill:#7bc8f6;"/>
   </g>
   <g id="patch_100">
    <path clip-path="url(#p387cf374f4)" d="M 512.627167 244.29375 
L 526.1645 244.29375 
L 526.1645 227.187518 
L 512.627167 227.187518 
z
" style="fill:#7bc8f6;"/>
   </g>
   <g id="patch_101">
    <path clip-path="url(#p387cf374f4)" d="M 529.548833 244.29375 
L 543.086167 244.29375 
L 543.086167 234.696687 
L 529.548833 234.696687 
z
" style="fill:#7bc8f6;"/>
   </g>
   <g id="patch_102">
    <path clip-path="url(#p387cf374f4)" d="M 546.4705 244.29375 
L 560.007833 244.29375 
L 560.007833 241.702783 
L 546.4705 241.702783 
z
" style="fill:#7bc8f6;"/>
   </g>
   <g id="matplotlib.axis_5">
    <g id="xtick_61">
     <g id="line2d_65">
      <g>
       <use style="stroke:#000000;stroke-width:0.8;" x="62.510833" xlink:href="#md226223a6d" y="244.29375"/>
      </g>
     </g>
     <g id="text_69">
      <!-- 1 -->
      <g transform="translate(59.329583 258.892188)scale(0.1 -0.1)">
       <use xlink:href="#DejaVuSans-49"/>
      </g>
     </g>
    </g>
    <g id="xtick_62">
     <g id="line2d_66">
      <g>
       <use style="stroke:#000000;stroke-width:0.8;" x="79.4325" xlink:href="#md226223a6d" y="244.29375"/>
      </g>
     </g>
     <g id="text_70">
      <!-- 2 -->
      <g transform="translate(76.25125 258.892188)scale(0.1 -0.1)">
       <use xlink:href="#DejaVuSans-50"/>
      </g>
     </g>
    </g>
    <g id="xtick_63">
     <g id="line2d_67">
      <g>
       <use style="stroke:#000000;stroke-width:0.8;" x="96.354167" xlink:href="#md226223a6d" y="244.29375"/>
      </g>
     </g>
     <g id="text_71">
      <!-- 3 -->
      <g transform="translate(93.172917 258.892188)scale(0.1 -0.1)">
       <use xlink:href="#DejaVuSans-51"/>
      </g>
     </g>
    </g>
    <g id="xtick_64">
     <g id="line2d_68">
      <g>
       <use style="stroke:#000000;stroke-width:0.8;" x="113.275833" xlink:href="#md226223a6d" y="244.29375"/>
      </g>
     </g>
     <g id="text_72">
      <!-- 4 -->
      <g transform="translate(110.094583 258.892188)scale(0.1 -0.1)">
       <use xlink:href="#DejaVuSans-52"/>
      </g>
     </g>
    </g>
    <g id="xtick_65">
     <g id="line2d_69">
      <g>
       <use style="stroke:#000000;stroke-width:0.8;" x="130.1975" xlink:href="#md226223a6d" y="244.29375"/>
      </g>
     </g>
     <g id="text_73">
      <!-- 5 -->
      <g transform="translate(127.01625 258.892188)scale(0.1 -0.1)">
       <use xlink:href="#DejaVuSans-53"/>
      </g>
     </g>
    </g>
    <g id="xtick_66">
     <g id="line2d_70">
      <g>
       <use style="stroke:#000000;stroke-width:0.8;" x="147.119167" xlink:href="#md226223a6d" y="244.29375"/>
      </g>
     </g>
     <g id="text_74">
      <!-- 6 -->
      <g transform="translate(143.937917 258.892188)scale(0.1 -0.1)">
       <use xlink:href="#DejaVuSans-54"/>
      </g>
     </g>
    </g>
    <g id="xtick_67">
     <g id="line2d_71">
      <g>
       <use style="stroke:#000000;stroke-width:0.8;" x="164.040833" xlink:href="#md226223a6d" y="244.29375"/>
      </g>
     </g>
     <g id="text_75">
      <!-- 7 -->
      <g transform="translate(160.859583 258.892188)scale(0.1 -0.1)">
       <use xlink:href="#DejaVuSans-55"/>
      </g>
     </g>
    </g>
    <g id="xtick_68">
     <g id="line2d_72">
      <g>
       <use style="stroke:#000000;stroke-width:0.8;" x="180.9625" xlink:href="#md226223a6d" y="244.29375"/>
      </g>
     </g>
     <g id="text_76">
      <!-- 8 -->
      <g transform="translate(177.78125 258.892188)scale(0.1 -0.1)">
       <use xlink:href="#DejaVuSans-56"/>
      </g>
     </g>
    </g>
    <g id="xtick_69">
     <g id="line2d_73">
      <g>
       <use style="stroke:#000000;stroke-width:0.8;" x="197.884167" xlink:href="#md226223a6d" y="244.29375"/>
      </g>
     </g>
     <g id="text_77">
      <!-- 9 -->
      <g transform="translate(194.702917 258.892188)scale(0.1 -0.1)">
       <use xlink:href="#DejaVuSans-57"/>
      </g>
     </g>
    </g>
    <g id="xtick_70">
     <g id="line2d_74">
      <g>
       <use style="stroke:#000000;stroke-width:0.8;" x="214.805833" xlink:href="#md226223a6d" y="244.29375"/>
      </g>
     </g>
     <g id="text_78">
      <!-- 10 -->
      <g transform="translate(208.443333 258.892188)scale(0.1 -0.1)">
       <use xlink:href="#DejaVuSans-49"/>
       <use x="63.623047" xlink:href="#DejaVuSans-48"/>
      </g>
     </g>
    </g>
    <g id="xtick_71">
     <g id="line2d_75">
      <g>
       <use style="stroke:#000000;stroke-width:0.8;" x="231.7275" xlink:href="#md226223a6d" y="244.29375"/>
      </g>
     </g>
     <g id="text_79">
      <!-- 11 -->
      <g transform="translate(225.365 258.892188)scale(0.1 -0.1)">
       <use xlink:href="#DejaVuSans-49"/>
       <use x="63.623047" xlink:href="#DejaVuSans-49"/>
      </g>
     </g>
    </g>
    <g id="xtick_72">
     <g id="line2d_76">
      <g>
       <use style="stroke:#000000;stroke-width:0.8;" x="248.649167" xlink:href="#md226223a6d" y="244.29375"/>
      </g>
     </g>
     <g id="text_80">
      <!-- 12 -->
      <g transform="translate(242.286667 258.892188)scale(0.1 -0.1)">
       <use xlink:href="#DejaVuSans-49"/>
       <use x="63.623047" xlink:href="#DejaVuSans-50"/>
      </g>
     </g>
    </g>
    <g id="xtick_73">
     <g id="line2d_77">
      <g>
       <use style="stroke:#000000;stroke-width:0.8;" x="265.570833" xlink:href="#md226223a6d" y="244.29375"/>
      </g>
     </g>
     <g id="text_81">
      <!-- 13 -->
      <g transform="translate(259.208333 258.892188)scale(0.1 -0.1)">
       <use xlink:href="#DejaVuSans-49"/>
       <use x="63.623047" xlink:href="#DejaVuSans-51"/>
      </g>
     </g>
    </g>
    <g id="xtick_74">
     <g id="line2d_78">
      <g>
       <use style="stroke:#000000;stroke-width:0.8;" x="282.4925" xlink:href="#md226223a6d" y="244.29375"/>
      </g>
     </g>
     <g id="text_82">
      <!-- 14 -->
      <g transform="translate(276.13 258.892188)scale(0.1 -0.1)">
       <use xlink:href="#DejaVuSans-49"/>
       <use x="63.623047" xlink:href="#DejaVuSans-52"/>
      </g>
     </g>
    </g>
    <g id="xtick_75">
     <g id="line2d_79">
      <g>
       <use style="stroke:#000000;stroke-width:0.8;" x="299.414167" xlink:href="#md226223a6d" y="244.29375"/>
      </g>
     </g>
     <g id="text_83">
      <!-- 15 -->
      <g transform="translate(293.051667 258.892188)scale(0.1 -0.1)">
       <use xlink:href="#DejaVuSans-49"/>
       <use x="63.623047" xlink:href="#DejaVuSans-53"/>
      </g>
     </g>
    </g>
    <g id="xtick_76">
     <g id="line2d_80">
      <g>
       <use style="stroke:#000000;stroke-width:0.8;" x="316.335833" xlink:href="#md226223a6d" y="244.29375"/>
      </g>
     </g>
     <g id="text_84">
      <!-- 16 -->
      <g transform="translate(309.973333 258.892188)scale(0.1 -0.1)">
       <use xlink:href="#DejaVuSans-49"/>
       <use x="63.623047" xlink:href="#DejaVuSans-54"/>
      </g>
     </g>
    </g>
    <g id="xtick_77">
     <g id="line2d_81">
      <g>
       <use style="stroke:#000000;stroke-width:0.8;" x="333.2575" xlink:href="#md226223a6d" y="244.29375"/>
      </g>
     </g>
     <g id="text_85">
      <!-- 17 -->
      <g transform="translate(326.895 258.892188)scale(0.1 -0.1)">
       <use xlink:href="#DejaVuSans-49"/>
       <use x="63.623047" xlink:href="#DejaVuSans-55"/>
      </g>
     </g>
    </g>
    <g id="xtick_78">
     <g id="line2d_82">
      <g>
       <use style="stroke:#000000;stroke-width:0.8;" x="350.179167" xlink:href="#md226223a6d" y="244.29375"/>
      </g>
     </g>
     <g id="text_86">
      <!-- 18 -->
      <g transform="translate(343.816667 258.892188)scale(0.1 -0.1)">
       <use xlink:href="#DejaVuSans-49"/>
       <use x="63.623047" xlink:href="#DejaVuSans-56"/>
      </g>
     </g>
    </g>
    <g id="xtick_79">
     <g id="line2d_83">
      <g>
       <use style="stroke:#000000;stroke-width:0.8;" x="367.100833" xlink:href="#md226223a6d" y="244.29375"/>
      </g>
     </g>
     <g id="text_87">
      <!-- 19 -->
      <g transform="translate(360.738333 258.892188)scale(0.1 -0.1)">
       <use xlink:href="#DejaVuSans-49"/>
       <use x="63.623047" xlink:href="#DejaVuSans-57"/>
      </g>
     </g>
    </g>
    <g id="xtick_80">
     <g id="line2d_84">
      <g>
       <use style="stroke:#000000;stroke-width:0.8;" x="384.0225" xlink:href="#md226223a6d" y="244.29375"/>
      </g>
     </g>
     <g id="text_88">
      <!-- 20 -->
      <g transform="translate(377.66 258.892188)scale(0.1 -0.1)">
       <use xlink:href="#DejaVuSans-50"/>
       <use x="63.623047" xlink:href="#DejaVuSans-48"/>
      </g>
     </g>
    </g>
    <g id="xtick_81">
     <g id="line2d_85">
      <g>
       <use style="stroke:#000000;stroke-width:0.8;" x="400.944167" xlink:href="#md226223a6d" y="244.29375"/>
      </g>
     </g>
     <g id="text_89">
      <!-- 21 -->
      <g transform="translate(394.581667 258.892188)scale(0.1 -0.1)">
       <use xlink:href="#DejaVuSans-50"/>
       <use x="63.623047" xlink:href="#DejaVuSans-49"/>
      </g>
     </g>
    </g>
    <g id="xtick_82">
     <g id="line2d_86">
      <g>
       <use style="stroke:#000000;stroke-width:0.8;" x="417.865833" xlink:href="#md226223a6d" y="244.29375"/>
      </g>
     </g>
     <g id="text_90">
      <!-- 22 -->
      <g transform="translate(411.503333 258.892188)scale(0.1 -0.1)">
       <use xlink:href="#DejaVuSans-50"/>
       <use x="63.623047" xlink:href="#DejaVuSans-50"/>
      </g>
     </g>
    </g>
    <g id="xtick_83">
     <g id="line2d_87">
      <g>
       <use style="stroke:#000000;stroke-width:0.8;" x="434.7875" xlink:href="#md226223a6d" y="244.29375"/>
      </g>
     </g>
     <g id="text_91">
      <!-- 23 -->
      <g transform="translate(428.425 258.892188)scale(0.1 -0.1)">
       <use xlink:href="#DejaVuSans-50"/>
       <use x="63.623047" xlink:href="#DejaVuSans-51"/>
      </g>
     </g>
    </g>
    <g id="xtick_84">
     <g id="line2d_88">
      <g>
       <use style="stroke:#000000;stroke-width:0.8;" x="451.709167" xlink:href="#md226223a6d" y="244.29375"/>
      </g>
     </g>
     <g id="text_92">
      <!-- 24 -->
      <g transform="translate(445.346667 258.892188)scale(0.1 -0.1)">
       <use xlink:href="#DejaVuSans-50"/>
       <use x="63.623047" xlink:href="#DejaVuSans-52"/>
      </g>
     </g>
    </g>
    <g id="xtick_85">
     <g id="line2d_89">
      <g>
       <use style="stroke:#000000;stroke-width:0.8;" x="468.630833" xlink:href="#md226223a6d" y="244.29375"/>
      </g>
     </g>
     <g id="text_93">
      <!-- 25 -->
      <g transform="translate(462.268333 258.892188)scale(0.1 -0.1)">
       <use xlink:href="#DejaVuSans-50"/>
       <use x="63.623047" xlink:href="#DejaVuSans-53"/>
      </g>
     </g>
    </g>
    <g id="xtick_86">
     <g id="line2d_90">
      <g>
       <use style="stroke:#000000;stroke-width:0.8;" x="485.5525" xlink:href="#md226223a6d" y="244.29375"/>
      </g>
     </g>
     <g id="text_94">
      <!-- 26 -->
      <g transform="translate(479.19 258.892188)scale(0.1 -0.1)">
       <use xlink:href="#DejaVuSans-50"/>
       <use x="63.623047" xlink:href="#DejaVuSans-54"/>
      </g>
     </g>
    </g>
    <g id="xtick_87">
     <g id="line2d_91">
      <g>
       <use style="stroke:#000000;stroke-width:0.8;" x="502.474167" xlink:href="#md226223a6d" y="244.29375"/>
      </g>
     </g>
     <g id="text_95">
      <!-- 27 -->
      <g transform="translate(496.111667 258.892188)scale(0.1 -0.1)">
       <use xlink:href="#DejaVuSans-50"/>
       <use x="63.623047" xlink:href="#DejaVuSans-55"/>
      </g>
     </g>
    </g>
    <g id="xtick_88">
     <g id="line2d_92">
      <g>
       <use style="stroke:#000000;stroke-width:0.8;" x="519.395833" xlink:href="#md226223a6d" y="244.29375"/>
      </g>
     </g>
     <g id="text_96">
      <!-- 28 -->
      <g transform="translate(513.033333 258.892188)scale(0.1 -0.1)">
       <use xlink:href="#DejaVuSans-50"/>
       <use x="63.623047" xlink:href="#DejaVuSans-56"/>
      </g>
     </g>
    </g>
    <g id="xtick_89">
     <g id="line2d_93">
      <g>
       <use style="stroke:#000000;stroke-width:0.8;" x="536.3175" xlink:href="#md226223a6d" y="244.29375"/>
      </g>
     </g>
     <g id="text_97">
      <!-- 29 -->
      <g transform="translate(529.955 258.892188)scale(0.1 -0.1)">
       <use xlink:href="#DejaVuSans-50"/>
       <use x="63.623047" xlink:href="#DejaVuSans-57"/>
      </g>
     </g>
    </g>
    <g id="xtick_90">
     <g id="line2d_94">
      <g>
       <use style="stroke:#000000;stroke-width:0.8;" x="553.239167" xlink:href="#md226223a6d" y="244.29375"/>
      </g>
     </g>
     <g id="text_98">
      <!-- 30 -->
      <g transform="translate(546.876667 258.892188)scale(0.1 -0.1)">
       <use xlink:href="#DejaVuSans-51"/>
       <use x="63.623047" xlink:href="#DejaVuSans-48"/>
      </g>
     </g>
    </g>
    <g id="text_99">
     <!-- Spørgsmål -->
     <defs>
      <path d="M 53.515625 70.515625 
L 53.515625 60.890625 
Q 47.90625 63.578125 42.921875 64.890625 
Q 37.9375 66.21875 33.296875 66.21875 
Q 25.25 66.21875 20.875 63.09375 
Q 16.5 59.96875 16.5 54.203125 
Q 16.5 49.359375 19.40625 46.890625 
Q 22.3125 44.4375 30.421875 42.921875 
L 36.375 41.703125 
Q 47.40625 39.59375 52.65625 34.296875 
Q 57.90625 29 57.90625 20.125 
Q 57.90625 9.515625 50.796875 4.046875 
Q 43.703125 -1.421875 29.984375 -1.421875 
Q 24.8125 -1.421875 18.96875 -0.25 
Q 13.140625 0.921875 6.890625 3.21875 
L 6.890625 13.375 
Q 12.890625 10.015625 18.65625 8.296875 
Q 24.421875 6.59375 29.984375 6.59375 
Q 38.421875 6.59375 43.015625 9.90625 
Q 47.609375 13.234375 47.609375 19.390625 
Q 47.609375 24.75 44.3125 27.78125 
Q 41.015625 30.8125 33.5 32.328125 
L 27.484375 33.5 
Q 16.453125 35.6875 11.515625 40.375 
Q 6.59375 45.0625 6.59375 53.421875 
Q 6.59375 63.09375 13.40625 68.65625 
Q 20.21875 74.21875 32.171875 74.21875 
Q 37.3125 74.21875 42.625 73.28125 
Q 47.953125 72.359375 53.515625 70.515625 
z
" id="DejaVuSans-83"/>
      <path d="M 18.109375 8.203125 
L 18.109375 -20.796875 
L 9.078125 -20.796875 
L 9.078125 54.6875 
L 18.109375 54.6875 
L 18.109375 46.390625 
Q 20.953125 51.265625 25.265625 53.625 
Q 29.59375 56 35.59375 56 
Q 45.5625 56 51.78125 48.09375 
Q 58.015625 40.1875 58.015625 27.296875 
Q 58.015625 14.40625 51.78125 6.484375 
Q 45.5625 -1.421875 35.59375 -1.421875 
Q 29.59375 -1.421875 25.265625 0.953125 
Q 20.953125 3.328125 18.109375 8.203125 
z
M 48.6875 27.296875 
Q 48.6875 37.203125 44.609375 42.84375 
Q 40.53125 48.484375 33.40625 48.484375 
Q 26.265625 48.484375 22.1875 42.84375 
Q 18.109375 37.203125 18.109375 27.296875 
Q 18.109375 17.390625 22.1875 11.75 
Q 26.265625 6.109375 33.40625 6.109375 
Q 40.53125 6.109375 44.609375 11.75 
Q 48.6875 17.390625 48.6875 27.296875 
z
" id="DejaVuSans-112"/>
      <path d="M 44.1875 39.109375 
L 20.40625 10.203125 
Q 22.40625 8.15625 24.921875 7.171875 
Q 27.4375 6.203125 30.609375 6.203125 
Q 37.796875 6.203125 41.984375 11.859375 
Q 46.1875 17.53125 46.1875 27.296875 
Q 46.1875 31.15625 45.703125 34 
Q 45.21875 36.859375 44.1875 39.109375 
z
M 40.71875 44.390625 
Q 38.671875 46.390625 36.15625 47.390625 
Q 33.640625 48.390625 30.609375 48.390625 
Q 23.25 48.390625 19.109375 42.65625 
Q 14.984375 36.921875 14.984375 26.609375 
Q 14.984375 23.09375 15.453125 20.40625 
Q 15.921875 17.71875 16.890625 15.484375 
z
M 10.796875 8.109375 
Q 8.15625 11.859375 6.828125 16.671875 
Q 5.515625 21.484375 5.515625 27.296875 
Q 5.515625 40.765625 12.171875 48.375 
Q 18.84375 56 30.609375 56 
Q 35.15625 56 39.03125 54.75 
Q 42.921875 53.515625 46.1875 50.984375 
L 52.984375 59.1875 
L 57.625 55.328125 
L 50.484375 46.578125 
Q 53.078125 42.828125 54.390625 37.984375 
Q 55.71875 33.15625 55.71875 27.296875 
Q 55.71875 13.875 49.015625 6.21875 
Q 42.328125 -1.421875 30.609375 -1.421875 
Q 25.921875 -1.421875 21.984375 -0.140625 
Q 18.0625 1.125 14.984375 3.609375 
L 8.203125 -4.59375 
L 3.515625 -0.78125 
z
" id="DejaVuSans-248"/>
      <path d="M 41.109375 46.296875 
Q 39.59375 47.171875 37.8125 47.578125 
Q 36.03125 48 33.890625 48 
Q 26.265625 48 22.1875 43.046875 
Q 18.109375 38.09375 18.109375 28.8125 
L 18.109375 0 
L 9.078125 0 
L 9.078125 54.6875 
L 18.109375 54.6875 
L 18.109375 46.1875 
Q 20.953125 51.171875 25.484375 53.578125 
Q 30.03125 56 36.53125 56 
Q 37.453125 56 38.578125 55.875 
Q 39.703125 55.765625 41.0625 55.515625 
z
" id="DejaVuSans-114"/>
      <path d="M 44.28125 53.078125 
L 44.28125 44.578125 
Q 40.484375 46.53125 36.375 47.5 
Q 32.28125 48.484375 27.875 48.484375 
Q 21.1875 48.484375 17.84375 46.4375 
Q 14.5 44.390625 14.5 40.28125 
Q 14.5 37.15625 16.890625 35.375 
Q 19.28125 33.59375 26.515625 31.984375 
L 29.59375 31.296875 
Q 39.15625 29.25 43.1875 25.515625 
Q 47.21875 21.78125 47.21875 15.09375 
Q 47.21875 7.46875 41.1875 3.015625 
Q 35.15625 -1.421875 24.609375 -1.421875 
Q 20.21875 -1.421875 15.453125 -0.5625 
Q 10.6875 0.296875 5.421875 2 
L 5.421875 11.28125 
Q 10.40625 8.6875 15.234375 7.390625 
Q 20.0625 6.109375 24.8125 6.109375 
Q 31.15625 6.109375 34.5625 8.28125 
Q 37.984375 10.453125 37.984375 14.40625 
Q 37.984375 18.0625 35.515625 20.015625 
Q 33.0625 21.96875 24.703125 23.78125 
L 21.578125 24.515625 
Q 13.234375 26.265625 9.515625 29.90625 
Q 5.8125 33.546875 5.8125 39.890625 
Q 5.8125 47.609375 11.28125 51.796875 
Q 16.75 56 26.8125 56 
Q 31.78125 56 36.171875 55.265625 
Q 40.578125 54.546875 44.28125 53.078125 
z
" id="DejaVuSans-115"/>
      <path d="M 52 44.1875 
Q 55.375 50.25 60.0625 53.125 
Q 64.75 56 71.09375 56 
Q 79.640625 56 84.28125 50.015625 
Q 88.921875 44.046875 88.921875 33.015625 
L 88.921875 0 
L 79.890625 0 
L 79.890625 32.71875 
Q 79.890625 40.578125 77.09375 44.375 
Q 74.3125 48.1875 68.609375 48.1875 
Q 61.625 48.1875 57.5625 43.546875 
Q 53.515625 38.921875 53.515625 30.90625 
L 53.515625 0 
L 44.484375 0 
L 44.484375 32.71875 
Q 44.484375 40.625 41.703125 44.40625 
Q 38.921875 48.1875 33.109375 48.1875 
Q 26.21875 48.1875 22.15625 43.53125 
Q 18.109375 38.875 18.109375 30.90625 
L 18.109375 0 
L 9.078125 0 
L 9.078125 54.6875 
L 18.109375 54.6875 
L 18.109375 46.1875 
Q 21.1875 51.21875 25.484375 53.609375 
Q 29.78125 56 35.6875 56 
Q 41.65625 56 45.828125 52.96875 
Q 50 49.953125 52 44.1875 
z
" id="DejaVuSans-109"/>
      <path d="M 34.28125 27.484375 
Q 23.390625 27.484375 19.1875 25 
Q 14.984375 22.515625 14.984375 16.5 
Q 14.984375 11.71875 18.140625 8.90625 
Q 21.296875 6.109375 26.703125 6.109375 
Q 34.1875 6.109375 38.703125 11.40625 
Q 43.21875 16.703125 43.21875 25.484375 
L 43.21875 27.484375 
z
M 52.203125 31.203125 
L 52.203125 0 
L 43.21875 0 
L 43.21875 8.296875 
Q 40.140625 3.328125 35.546875 0.953125 
Q 30.953125 -1.421875 24.3125 -1.421875 
Q 15.921875 -1.421875 10.953125 3.296875 
Q 6 8.015625 6 15.921875 
Q 6 25.140625 12.171875 29.828125 
Q 18.359375 34.515625 30.609375 34.515625 
L 43.21875 34.515625 
L 43.21875 35.40625 
Q 43.21875 41.609375 39.140625 45 
Q 35.0625 48.390625 27.6875 48.390625 
Q 23 48.390625 18.546875 47.265625 
Q 14.109375 46.140625 10.015625 43.890625 
L 10.015625 52.203125 
Q 14.9375 54.109375 19.578125 55.046875 
Q 24.21875 56 28.609375 56 
Q 40.484375 56 46.34375 49.84375 
Q 52.203125 43.703125 52.203125 31.203125 
z
M 36.421875 74.421875 
Q 36.421875 77.484375 34.265625 79.625 
Q 32.125 81.78125 29 81.78125 
Q 25.828125 81.78125 23.703125 79.65625 
Q 21.578125 77.546875 21.578125 74.421875 
Q 21.578125 71.234375 23.703125 69.109375 
Q 25.828125 67 29 67 
Q 32.125 67 34.265625 69.140625 
Q 36.421875 71.296875 36.421875 74.421875 
z
M 42.375 74.421875 
Q 42.375 68.796875 38.484375 64.890625 
Q 34.609375 60.984375 29 60.984375 
Q 23.390625 60.984375 19.5 64.890625 
Q 15.625 68.796875 15.625 74.421875 
Q 15.625 80.03125 19.5 83.90625 
Q 23.390625 87.796875 29 87.796875 
Q 34.609375 87.796875 38.484375 83.90625 
Q 42.375 80.03125 42.375 74.421875 
z
" id="DejaVuSans-229"/>
      <path d="M 9.421875 75.984375 
L 18.40625 75.984375 
L 18.40625 0 
L 9.421875 0 
z
" id="DejaVuSans-108"/>
     </defs>
     <g transform="translate(281.310156 273.751563)scale(0.1 -0.1)">
      <use xlink:href="#DejaVuSans-83"/>
      <use x="63.476562" xlink:href="#DejaVuSans-112"/>
      <use x="126.953125" xlink:href="#DejaVuSans-248"/>
      <use x="188.134766" xlink:href="#DejaVuSans-114"/>
      <use x="229.232422" xlink:href="#DejaVuSans-103"/>
      <use x="292.708984" xlink:href="#DejaVuSans-115"/>
      <use x="344.808594" xlink:href="#DejaVuSans-109"/>
      <use x="442.220703" xlink:href="#DejaVuSans-229"/>
      <use x="503.5" xlink:href="#DejaVuSans-108"/>
     </g>
    </g>
   </g>
   <g id="matplotlib.axis_6">
    <g id="ytick_5">
     <g id="line2d_95">
      <g>
       <use style="stroke:#000000;stroke-width:0.8;" x="54.05" xlink:href="#m964a3fe97a" y="244.29375"/>
      </g>
     </g>
     <g id="text_100">
      <!-- 0.0 -->
      <g transform="translate(31.146875 248.092969)scale(0.1 -0.1)">
       <use xlink:href="#DejaVuSans-48"/>
       <use x="63.623047" xlink:href="#DejaVuSans-46"/>
       <use x="95.410156" xlink:href="#DejaVuSans-48"/>
      </g>
     </g>
    </g>
    <g id="ytick_6">
     <g id="line2d_96">
      <g>
       <use style="stroke:#000000;stroke-width:0.8;" x="54.05" xlink:href="#m964a3fe97a" y="198.03543"/>
      </g>
     </g>
     <g id="text_101">
      <!-- 0.5 -->
      <g transform="translate(31.146875 201.834649)scale(0.1 -0.1)">
       <use xlink:href="#DejaVuSans-48"/>
       <use x="63.623047" xlink:href="#DejaVuSans-46"/>
       <use x="95.410156" xlink:href="#DejaVuSans-53"/>
      </g>
     </g>
    </g>
    <g id="text_102">
     <!-- Vægt -->
     <g transform="translate(25.067187 229.858854)rotate(-90)scale(0.1 -0.1)">
      <use xlink:href="#DejaVuSans-86"/>
      <use x="68.408203" xlink:href="#DejaVuSans-230"/>
      <use x="166.601562" xlink:href="#DejaVuSans-103"/>
      <use x="230.078125" xlink:href="#DejaVuSans-116"/>
     </g>
    </g>
   </g>
   <g id="patch_103">
    <path d="M 54.05 244.29375 
L 54.05 188.495833 
" style="fill:none;stroke:#000000;stroke-linecap:square;stroke-linejoin:miter;stroke-width:0.8;"/>
   </g>
   <g id="patch_104">
    <path d="M 561.7 244.29375 
L 561.7 188.495833 
" style="fill:none;stroke:#000000;stroke-linecap:square;stroke-linejoin:miter;stroke-width:0.8;"/>
   </g>
   <g id="patch_105">
    <path d="M 54.05 244.29375 
L 561.7 244.29375 
" style="fill:none;stroke:#000000;stroke-linecap:square;stroke-linejoin:miter;stroke-width:0.8;"/>
   </g>
   <g id="patch_106">
    <path d="M 54.05 188.495833 
L 561.7 188.495833 
" style="fill:none;stroke:#000000;stroke-linecap:square;stroke-linejoin:miter;stroke-width:0.8;"/>
   </g>
   <g id="text_103">
    <!-- PCA 3 -->
    <g transform="translate(64.203 202.445313)scale(0.14 -0.14)">
     <use xlink:href="#DejaVuSans-80"/>
     <use x="60.302734" xlink:href="#DejaVuSans-67"/>
     <use x="130.126953" xlink:href="#DejaVuSans-65"/>
     <use x="198.535156" xlink:href="#DejaVuSans-32"/>
     <use x="230.322266" xlink:href="#DejaVuSans-51"/>
    </g>
   </g>
  </g>
 </g>
 <defs>
  <clipPath id="p4f94dfd82e">
   <rect height="55.797917" width="507.65" x="54.05" y="14.3"/>
  </clipPath>
  <clipPath id="p329bdd566f">
   <rect height="55.797917" width="507.65" x="54.05" y="101.397917"/>
  </clipPath>
  <clipPath id="p387cf374f4">
   <rect height="55.797917" width="507.65" x="54.05" y="188.495833"/>
  </clipPath>
 </defs>
</svg>
