<?xml version="1.0" encoding="utf-8" standalone="no"?>
<!DOCTYPE svg PUBLIC "-//W3C//DTD SVG 1.1//EN"
  "http://www.w3.org/Graphics/SVG/1.1/DTD/svg11.dtd">
<svg xmlns:xlink="http://www.w3.org/1999/xlink" width="432pt" height="288pt" viewBox="0 0 432 288" xmlns="http://www.w3.org/2000/svg" version="1.1">
 <metadata>
  <rdf:RDF xmlns:dc="http://purl.org/dc/elements/1.1/" xmlns:cc="http://creativecommons.org/ns#" xmlns:rdf="http://www.w3.org/1999/02/22-rdf-syntax-ns#">
   <cc:Work>
    <dc:type rdf:resource="http://purl.org/dc/dcmitype/StillImage"/>
    <dc:date>2022-10-26T20:35:06.255789</dc:date>
    <dc:format>image/svg+xml</dc:format>
    <dc:creator>
     <cc:Agent>
      <dc:title>Matplotlib v3.6.1, https://matplotlib.org/</dc:title>
     </cc:Agent>
    </dc:creator>
   </cc:Work>
  </rdf:RDF>
 </metadata>
 <defs>
  <style type="text/css">*{stroke-linejoin: round; stroke-linecap: butt}</style>
 </defs>
 <g id="figure_1">
  <g id="patch_1">
   <path d="M 0 288 
L 432 288 
L 432 0 
L 0 0 
z
" style="fill: #ffffff"/>
  </g>
  <g id="axes_1">
   <g id="patch_2">
    <path d="M 140.11 244.63375 
L 421.2 244.63375 
L 421.2 28.8 
L 140.11 28.8 
z
" style="fill: #ffffff"/>
   </g>
   <g id="patch_3">
    <path d="M 140.11 241.083853 
L 268.433696 241.083853 
L 268.433696 231.144141 
L 140.11 231.144141 
z
" clip-path="url(#p02f096259d)" style="fill: #cfcfcf"/>
   </g>
   <g id="patch_4">
    <path d="M 140.11 226.884264 
L 315.930128 226.884264 
L 315.930128 216.944552 
L 140.11 216.944552 
z
" clip-path="url(#p02f096259d)" style="fill: #0c5ea7"/>
   </g>
   <g id="patch_5">
    <path d="M 140.11 212.684675 
L 325.769815 212.684675 
L 325.769815 202.744963 
L 140.11 202.744963 
z
" clip-path="url(#p02f096259d)" style="fill: #06454f"/>
   </g>
   <g id="patch_6">
    <path d="M 140.11 198.485086 
L 327.619727 198.485086 
L 327.619727 188.545374 
L 140.11 188.545374 
z
" clip-path="url(#p02f096259d)" style="fill: #1c74bf"/>
   </g>
   <g id="patch_7">
    <path d="M 140.11 184.285498 
L 355.780077 184.285498 
L 355.780077 174.345785 
L 140.11 174.345785 
z
" clip-path="url(#p02f096259d)" style="fill: #d11557"/>
   </g>
   <g id="patch_8">
    <path d="M 140.11 170.085909 
L 356.234119 170.085909 
L 356.234119 160.146197 
L 140.11 160.146197 
z
" clip-path="url(#p02f096259d)" style="fill: #546299"/>
   </g>
   <g id="patch_9">
    <path d="M 140.11 155.88632 
L 363.426561 155.88632 
L 363.426561 145.946608 
L 140.11 145.946608 
z
" clip-path="url(#p02f096259d)" style="fill: #832e8e"/>
   </g>
   <g id="patch_10">
    <path d="M 140.11 141.686731 
L 370.165982 141.686731 
L 370.165982 131.747019 
L 140.11 131.747019 
z
" clip-path="url(#p02f096259d)" style="fill: #267862"/>
   </g>
   <g id="patch_11">
    <path d="M 140.11 127.487142 
L 370.434582 127.487142 
L 370.434582 117.54743 
L 140.11 117.54743 
z
" clip-path="url(#p02f096259d)" style="fill: #c60c31"/>
   </g>
   <g id="patch_12">
    <path d="M 140.11 113.287553 
L 372.696698 113.287553 
L 372.696698 103.347841 
L 140.11 103.347841 
z
" clip-path="url(#p02f096259d)" style="fill: #efb34c"/>
   </g>
   <g id="patch_13">
    <path d="M 140.11 99.087965 
L 373.103254 99.087965 
L 373.103254 89.148252 
L 140.11 89.148252 
z
" clip-path="url(#p02f096259d)" style="fill: #29fd2f"/>
   </g>
   <g id="patch_14">
    <path d="M 140.11 84.888376 
L 375.806584 84.888376 
L 375.806584 74.948664 
L 140.11 74.948664 
z
" clip-path="url(#p02f096259d)" style="fill: #e7ccc8"/>
   </g>
   <g id="patch_15">
    <path d="M 140.11 70.688787 
L 379.246269 70.688787 
L 379.246269 60.749075 
L 140.11 60.749075 
z
" clip-path="url(#p02f096259d)" style="fill: #c21a24"/>
   </g>
   <g id="patch_16">
    <path d="M 140.11 56.489198 
L 382.091826 56.489198 
L 382.091826 46.549486 
L 140.11 46.549486 
z
" clip-path="url(#p02f096259d)" style="fill: #08458c"/>
   </g>
   <g id="patch_17">
    <path d="M 140.11 42.289609 
L 407.814762 42.289609 
L 407.814762 32.349897 
L 140.11 32.349897 
z
" clip-path="url(#p02f096259d)" style="fill: #df147b"/>
   </g>
   <g id="matplotlib.axis_1">
    <g id="xtick_1">
     <g id="line2d_1">
      <path d="M 140.11 244.63375 
L 140.11 28.8 
" clip-path="url(#p02f096259d)" style="fill: none; stroke: #ffffff; stroke-width: 0.8; stroke-linecap: square"/>
     </g>
     <g id="text_1">
      <!-- 0 -->
      <g transform="translate(136.92875 259.232188) scale(0.1 -0.1)">
       <defs>
        <path id="DejaVuSans-30" d="M 2034 4250 
Q 1547 4250 1301 3770 
Q 1056 3291 1056 2328 
Q 1056 1369 1301 889 
Q 1547 409 2034 409 
Q 2525 409 2770 889 
Q 3016 1369 3016 2328 
Q 3016 3291 2770 3770 
Q 2525 4250 2034 4250 
z
M 2034 4750 
Q 2819 4750 3233 4129 
Q 3647 3509 3647 2328 
Q 3647 1150 3233 529 
Q 2819 -91 2034 -91 
Q 1250 -91 836 529 
Q 422 1150 422 2328 
Q 422 3509 836 4129 
Q 1250 4750 2034 4750 
z
" transform="scale(0.015625)"/>
       </defs>
       <use xlink:href="#DejaVuSans-30"/>
      </g>
     </g>
    </g>
    <g id="xtick_2">
     <g id="line2d_2">
      <path d="M 176.773913 244.63375 
L 176.773913 28.8 
" clip-path="url(#p02f096259d)" style="fill: none; stroke: #ffffff; stroke-width: 0.8; stroke-linecap: square"/>
     </g>
     <g id="text_2">
      <!-- 1 -->
      <g transform="translate(173.592663 259.232188) scale(0.1 -0.1)">
       <defs>
        <path id="DejaVuSans-31" d="M 794 531 
L 1825 531 
L 1825 4091 
L 703 3866 
L 703 4441 
L 1819 4666 
L 2450 4666 
L 2450 531 
L 3481 531 
L 3481 0 
L 794 0 
L 794 531 
z
" transform="scale(0.015625)"/>
       </defs>
       <use xlink:href="#DejaVuSans-31"/>
      </g>
     </g>
    </g>
    <g id="xtick_3">
     <g id="line2d_3">
      <path d="M 213.437826 244.63375 
L 213.437826 28.8 
" clip-path="url(#p02f096259d)" style="fill: none; stroke: #ffffff; stroke-width: 0.8; stroke-linecap: square"/>
     </g>
     <g id="text_3">
      <!-- 2 -->
      <g transform="translate(210.256576 259.232188) scale(0.1 -0.1)">
       <defs>
        <path id="DejaVuSans-32" d="M 1228 531 
L 3431 531 
L 3431 0 
L 469 0 
L 469 531 
Q 828 903 1448 1529 
Q 2069 2156 2228 2338 
Q 2531 2678 2651 2914 
Q 2772 3150 2772 3378 
Q 2772 3750 2511 3984 
Q 2250 4219 1831 4219 
Q 1534 4219 1204 4116 
Q 875 4013 500 3803 
L 500 4441 
Q 881 4594 1212 4672 
Q 1544 4750 1819 4750 
Q 2544 4750 2975 4387 
Q 3406 4025 3406 3419 
Q 3406 3131 3298 2873 
Q 3191 2616 2906 2266 
Q 2828 2175 2409 1742 
Q 1991 1309 1228 531 
z
" transform="scale(0.015625)"/>
       </defs>
       <use xlink:href="#DejaVuSans-32"/>
      </g>
     </g>
    </g>
    <g id="xtick_4">
     <g id="line2d_4">
      <path d="M 250.101739 244.63375 
L 250.101739 28.8 
" clip-path="url(#p02f096259d)" style="fill: none; stroke: #ffffff; stroke-width: 0.8; stroke-linecap: square"/>
     </g>
     <g id="text_4">
      <!-- 3 -->
      <g transform="translate(246.920489 259.232188) scale(0.1 -0.1)">
       <defs>
        <path id="DejaVuSans-33" d="M 2597 2516 
Q 3050 2419 3304 2112 
Q 3559 1806 3559 1356 
Q 3559 666 3084 287 
Q 2609 -91 1734 -91 
Q 1441 -91 1130 -33 
Q 819 25 488 141 
L 488 750 
Q 750 597 1062 519 
Q 1375 441 1716 441 
Q 2309 441 2620 675 
Q 2931 909 2931 1356 
Q 2931 1769 2642 2001 
Q 2353 2234 1838 2234 
L 1294 2234 
L 1294 2753 
L 1863 2753 
Q 2328 2753 2575 2939 
Q 2822 3125 2822 3475 
Q 2822 3834 2567 4026 
Q 2313 4219 1838 4219 
Q 1578 4219 1281 4162 
Q 984 4106 628 3988 
L 628 4550 
Q 988 4650 1302 4700 
Q 1616 4750 1894 4750 
Q 2613 4750 3031 4423 
Q 3450 4097 3450 3541 
Q 3450 3153 3228 2886 
Q 3006 2619 2597 2516 
z
" transform="scale(0.015625)"/>
       </defs>
       <use xlink:href="#DejaVuSans-33"/>
      </g>
     </g>
    </g>
    <g id="xtick_5">
     <g id="line2d_5">
      <path d="M 286.765652 244.63375 
L 286.765652 28.8 
" clip-path="url(#p02f096259d)" style="fill: none; stroke: #ffffff; stroke-width: 0.8; stroke-linecap: square"/>
     </g>
     <g id="text_5">
      <!-- 4 -->
      <g transform="translate(283.584402 259.232188) scale(0.1 -0.1)">
       <defs>
        <path id="DejaVuSans-34" d="M 2419 4116 
L 825 1625 
L 2419 1625 
L 2419 4116 
z
M 2253 4666 
L 3047 4666 
L 3047 1625 
L 3713 1625 
L 3713 1100 
L 3047 1100 
L 3047 0 
L 2419 0 
L 2419 1100 
L 313 1100 
L 313 1709 
L 2253 4666 
z
" transform="scale(0.015625)"/>
       </defs>
       <use xlink:href="#DejaVuSans-34"/>
      </g>
     </g>
    </g>
    <g id="xtick_6">
     <g id="line2d_6">
      <path d="M 323.429565 244.63375 
L 323.429565 28.8 
" clip-path="url(#p02f096259d)" style="fill: none; stroke: #ffffff; stroke-width: 0.8; stroke-linecap: square"/>
     </g>
     <g id="text_6">
      <!-- 5 -->
      <g transform="translate(320.248315 259.232188) scale(0.1 -0.1)">
       <defs>
        <path id="DejaVuSans-35" d="M 691 4666 
L 3169 4666 
L 3169 4134 
L 1269 4134 
L 1269 2991 
Q 1406 3038 1543 3061 
Q 1681 3084 1819 3084 
Q 2600 3084 3056 2656 
Q 3513 2228 3513 1497 
Q 3513 744 3044 326 
Q 2575 -91 1722 -91 
Q 1428 -91 1123 -41 
Q 819 9 494 109 
L 494 744 
Q 775 591 1075 516 
Q 1375 441 1709 441 
Q 2250 441 2565 725 
Q 2881 1009 2881 1497 
Q 2881 1984 2565 2268 
Q 2250 2553 1709 2553 
Q 1456 2553 1204 2497 
Q 953 2441 691 2322 
L 691 4666 
z
" transform="scale(0.015625)"/>
       </defs>
       <use xlink:href="#DejaVuSans-35"/>
      </g>
     </g>
    </g>
    <g id="xtick_7">
     <g id="line2d_7">
      <path d="M 360.093478 244.63375 
L 360.093478 28.8 
" clip-path="url(#p02f096259d)" style="fill: none; stroke: #ffffff; stroke-width: 0.8; stroke-linecap: square"/>
     </g>
     <g id="text_7">
      <!-- 6 -->
      <g transform="translate(356.912228 259.232188) scale(0.1 -0.1)">
       <defs>
        <path id="DejaVuSans-36" d="M 2113 2584 
Q 1688 2584 1439 2293 
Q 1191 2003 1191 1497 
Q 1191 994 1439 701 
Q 1688 409 2113 409 
Q 2538 409 2786 701 
Q 3034 994 3034 1497 
Q 3034 2003 2786 2293 
Q 2538 2584 2113 2584 
z
M 3366 4563 
L 3366 3988 
Q 3128 4100 2886 4159 
Q 2644 4219 2406 4219 
Q 1781 4219 1451 3797 
Q 1122 3375 1075 2522 
Q 1259 2794 1537 2939 
Q 1816 3084 2150 3084 
Q 2853 3084 3261 2657 
Q 3669 2231 3669 1497 
Q 3669 778 3244 343 
Q 2819 -91 2113 -91 
Q 1303 -91 875 529 
Q 447 1150 447 2328 
Q 447 3434 972 4092 
Q 1497 4750 2381 4750 
Q 2619 4750 2861 4703 
Q 3103 4656 3366 4563 
z
" transform="scale(0.015625)"/>
       </defs>
       <use xlink:href="#DejaVuSans-36"/>
      </g>
     </g>
    </g>
    <g id="xtick_8">
     <g id="line2d_8">
      <path d="M 396.757391 244.63375 
L 396.757391 28.8 
" clip-path="url(#p02f096259d)" style="fill: none; stroke: #ffffff; stroke-width: 0.8; stroke-linecap: square"/>
     </g>
     <g id="text_8">
      <!-- 7 -->
      <g transform="translate(393.576141 259.232188) scale(0.1 -0.1)">
       <defs>
        <path id="DejaVuSans-37" d="M 525 4666 
L 3525 4666 
L 3525 4397 
L 1831 0 
L 1172 0 
L 2766 4134 
L 525 4134 
L 525 4666 
z
" transform="scale(0.015625)"/>
       </defs>
       <use xlink:href="#DejaVuSans-37"/>
      </g>
     </g>
    </g>
    <g id="text_9">
     <!-- Års uddannelse efter grundskolen -->
     <g transform="translate(196.146406 274.594688) scale(0.1 -0.1)">
      <defs>
       <path id="DejaVuSans-c5" d="M 2663 5081 
Q 2663 5278 2523 5417 
Q 2384 5556 2188 5556 
Q 1988 5556 1852 5420 
Q 1716 5284 1716 5081 
Q 1716 4884 1853 4746 
Q 1991 4609 2188 4609 
Q 2384 4609 2523 4746 
Q 2663 4884 2663 5081 
z
M 2188 4044 
L 1338 1722 
L 3041 1722 
L 2188 4044 
z
M 1716 4366 
Q 1525 4494 1428 4673 
Q 1331 4853 1331 5081 
Q 1331 5441 1579 5691 
Q 1828 5941 2188 5941 
Q 2544 5941 2795 5689 
Q 3047 5438 3047 5081 
Q 3047 4863 2948 4678 
Q 2850 4494 2663 4366 
L 4325 0 
L 3669 0 
L 3244 1197 
L 1141 1197 
L 716 0 
L 50 0 
L 1716 4366 
z
" transform="scale(0.015625)"/>
       <path id="DejaVuSans-72" d="M 2631 2963 
Q 2534 3019 2420 3045 
Q 2306 3072 2169 3072 
Q 1681 3072 1420 2755 
Q 1159 2438 1159 1844 
L 1159 0 
L 581 0 
L 581 3500 
L 1159 3500 
L 1159 2956 
Q 1341 3275 1631 3429 
Q 1922 3584 2338 3584 
Q 2397 3584 2469 3576 
Q 2541 3569 2628 3553 
L 2631 2963 
z
" transform="scale(0.015625)"/>
       <path id="DejaVuSans-73" d="M 2834 3397 
L 2834 2853 
Q 2591 2978 2328 3040 
Q 2066 3103 1784 3103 
Q 1356 3103 1142 2972 
Q 928 2841 928 2578 
Q 928 2378 1081 2264 
Q 1234 2150 1697 2047 
L 1894 2003 
Q 2506 1872 2764 1633 
Q 3022 1394 3022 966 
Q 3022 478 2636 193 
Q 2250 -91 1575 -91 
Q 1294 -91 989 -36 
Q 684 19 347 128 
L 347 722 
Q 666 556 975 473 
Q 1284 391 1588 391 
Q 1994 391 2212 530 
Q 2431 669 2431 922 
Q 2431 1156 2273 1281 
Q 2116 1406 1581 1522 
L 1381 1569 
Q 847 1681 609 1914 
Q 372 2147 372 2553 
Q 372 3047 722 3315 
Q 1072 3584 1716 3584 
Q 2034 3584 2315 3537 
Q 2597 3491 2834 3397 
z
" transform="scale(0.015625)"/>
       <path id="DejaVuSans-20" transform="scale(0.015625)"/>
       <path id="DejaVuSans-75" d="M 544 1381 
L 544 3500 
L 1119 3500 
L 1119 1403 
Q 1119 906 1312 657 
Q 1506 409 1894 409 
Q 2359 409 2629 706 
Q 2900 1003 2900 1516 
L 2900 3500 
L 3475 3500 
L 3475 0 
L 2900 0 
L 2900 538 
Q 2691 219 2414 64 
Q 2138 -91 1772 -91 
Q 1169 -91 856 284 
Q 544 659 544 1381 
z
M 1991 3584 
L 1991 3584 
z
" transform="scale(0.015625)"/>
       <path id="DejaVuSans-64" d="M 2906 2969 
L 2906 4863 
L 3481 4863 
L 3481 0 
L 2906 0 
L 2906 525 
Q 2725 213 2448 61 
Q 2172 -91 1784 -91 
Q 1150 -91 751 415 
Q 353 922 353 1747 
Q 353 2572 751 3078 
Q 1150 3584 1784 3584 
Q 2172 3584 2448 3432 
Q 2725 3281 2906 2969 
z
M 947 1747 
Q 947 1113 1208 752 
Q 1469 391 1925 391 
Q 2381 391 2643 752 
Q 2906 1113 2906 1747 
Q 2906 2381 2643 2742 
Q 2381 3103 1925 3103 
Q 1469 3103 1208 2742 
Q 947 2381 947 1747 
z
" transform="scale(0.015625)"/>
       <path id="DejaVuSans-61" d="M 2194 1759 
Q 1497 1759 1228 1600 
Q 959 1441 959 1056 
Q 959 750 1161 570 
Q 1363 391 1709 391 
Q 2188 391 2477 730 
Q 2766 1069 2766 1631 
L 2766 1759 
L 2194 1759 
z
M 3341 1997 
L 3341 0 
L 2766 0 
L 2766 531 
Q 2569 213 2275 61 
Q 1981 -91 1556 -91 
Q 1019 -91 701 211 
Q 384 513 384 1019 
Q 384 1609 779 1909 
Q 1175 2209 1959 2209 
L 2766 2209 
L 2766 2266 
Q 2766 2663 2505 2880 
Q 2244 3097 1772 3097 
Q 1472 3097 1187 3025 
Q 903 2953 641 2809 
L 641 3341 
Q 956 3463 1253 3523 
Q 1550 3584 1831 3584 
Q 2591 3584 2966 3190 
Q 3341 2797 3341 1997 
z
" transform="scale(0.015625)"/>
       <path id="DejaVuSans-6e" d="M 3513 2113 
L 3513 0 
L 2938 0 
L 2938 2094 
Q 2938 2591 2744 2837 
Q 2550 3084 2163 3084 
Q 1697 3084 1428 2787 
Q 1159 2491 1159 1978 
L 1159 0 
L 581 0 
L 581 3500 
L 1159 3500 
L 1159 2956 
Q 1366 3272 1645 3428 
Q 1925 3584 2291 3584 
Q 2894 3584 3203 3211 
Q 3513 2838 3513 2113 
z
" transform="scale(0.015625)"/>
       <path id="DejaVuSans-65" d="M 3597 1894 
L 3597 1613 
L 953 1613 
Q 991 1019 1311 708 
Q 1631 397 2203 397 
Q 2534 397 2845 478 
Q 3156 559 3463 722 
L 3463 178 
Q 3153 47 2828 -22 
Q 2503 -91 2169 -91 
Q 1331 -91 842 396 
Q 353 884 353 1716 
Q 353 2575 817 3079 
Q 1281 3584 2069 3584 
Q 2775 3584 3186 3129 
Q 3597 2675 3597 1894 
z
M 3022 2063 
Q 3016 2534 2758 2815 
Q 2500 3097 2075 3097 
Q 1594 3097 1305 2825 
Q 1016 2553 972 2059 
L 3022 2063 
z
" transform="scale(0.015625)"/>
       <path id="DejaVuSans-6c" d="M 603 4863 
L 1178 4863 
L 1178 0 
L 603 0 
L 603 4863 
z
" transform="scale(0.015625)"/>
       <path id="DejaVuSans-66" d="M 2375 4863 
L 2375 4384 
L 1825 4384 
Q 1516 4384 1395 4259 
Q 1275 4134 1275 3809 
L 1275 3500 
L 2222 3500 
L 2222 3053 
L 1275 3053 
L 1275 0 
L 697 0 
L 697 3053 
L 147 3053 
L 147 3500 
L 697 3500 
L 697 3744 
Q 697 4328 969 4595 
Q 1241 4863 1831 4863 
L 2375 4863 
z
" transform="scale(0.015625)"/>
       <path id="DejaVuSans-74" d="M 1172 4494 
L 1172 3500 
L 2356 3500 
L 2356 3053 
L 1172 3053 
L 1172 1153 
Q 1172 725 1289 603 
Q 1406 481 1766 481 
L 2356 481 
L 2356 0 
L 1766 0 
Q 1100 0 847 248 
Q 594 497 594 1153 
L 594 3053 
L 172 3053 
L 172 3500 
L 594 3500 
L 594 4494 
L 1172 4494 
z
" transform="scale(0.015625)"/>
       <path id="DejaVuSans-67" d="M 2906 1791 
Q 2906 2416 2648 2759 
Q 2391 3103 1925 3103 
Q 1463 3103 1205 2759 
Q 947 2416 947 1791 
Q 947 1169 1205 825 
Q 1463 481 1925 481 
Q 2391 481 2648 825 
Q 2906 1169 2906 1791 
z
M 3481 434 
Q 3481 -459 3084 -895 
Q 2688 -1331 1869 -1331 
Q 1566 -1331 1297 -1286 
Q 1028 -1241 775 -1147 
L 775 -588 
Q 1028 -725 1275 -790 
Q 1522 -856 1778 -856 
Q 2344 -856 2625 -561 
Q 2906 -266 2906 331 
L 2906 616 
Q 2728 306 2450 153 
Q 2172 0 1784 0 
Q 1141 0 747 490 
Q 353 981 353 1791 
Q 353 2603 747 3093 
Q 1141 3584 1784 3584 
Q 2172 3584 2450 3431 
Q 2728 3278 2906 2969 
L 2906 3500 
L 3481 3500 
L 3481 434 
z
" transform="scale(0.015625)"/>
       <path id="DejaVuSans-6b" d="M 581 4863 
L 1159 4863 
L 1159 1991 
L 2875 3500 
L 3609 3500 
L 1753 1863 
L 3688 0 
L 2938 0 
L 1159 1709 
L 1159 0 
L 581 0 
L 581 4863 
z
" transform="scale(0.015625)"/>
       <path id="DejaVuSans-6f" d="M 1959 3097 
Q 1497 3097 1228 2736 
Q 959 2375 959 1747 
Q 959 1119 1226 758 
Q 1494 397 1959 397 
Q 2419 397 2687 759 
Q 2956 1122 2956 1747 
Q 2956 2369 2687 2733 
Q 2419 3097 1959 3097 
z
M 1959 3584 
Q 2709 3584 3137 3096 
Q 3566 2609 3566 1747 
Q 3566 888 3137 398 
Q 2709 -91 1959 -91 
Q 1206 -91 779 398 
Q 353 888 353 1747 
Q 353 2609 779 3096 
Q 1206 3584 1959 3584 
z
" transform="scale(0.015625)"/>
      </defs>
      <use xlink:href="#DejaVuSans-c5"/>
      <use xlink:href="#DejaVuSans-72" x="68.408203"/>
      <use xlink:href="#DejaVuSans-73" x="109.521484"/>
      <use xlink:href="#DejaVuSans-20" x="161.621094"/>
      <use xlink:href="#DejaVuSans-75" x="193.408203"/>
      <use xlink:href="#DejaVuSans-64" x="256.787109"/>
      <use xlink:href="#DejaVuSans-64" x="320.263672"/>
      <use xlink:href="#DejaVuSans-61" x="383.740234"/>
      <use xlink:href="#DejaVuSans-6e" x="445.019531"/>
      <use xlink:href="#DejaVuSans-6e" x="508.398438"/>
      <use xlink:href="#DejaVuSans-65" x="571.777344"/>
      <use xlink:href="#DejaVuSans-6c" x="633.300781"/>
      <use xlink:href="#DejaVuSans-73" x="661.083984"/>
      <use xlink:href="#DejaVuSans-65" x="713.183594"/>
      <use xlink:href="#DejaVuSans-20" x="774.707031"/>
      <use xlink:href="#DejaVuSans-65" x="806.494141"/>
      <use xlink:href="#DejaVuSans-66" x="868.017578"/>
      <use xlink:href="#DejaVuSans-74" x="901.472656"/>
      <use xlink:href="#DejaVuSans-65" x="940.681641"/>
      <use xlink:href="#DejaVuSans-72" x="1002.205078"/>
      <use xlink:href="#DejaVuSans-20" x="1043.318359"/>
      <use xlink:href="#DejaVuSans-67" x="1075.105469"/>
      <use xlink:href="#DejaVuSans-72" x="1138.582031"/>
      <use xlink:href="#DejaVuSans-75" x="1179.695312"/>
      <use xlink:href="#DejaVuSans-6e" x="1243.074219"/>
      <use xlink:href="#DejaVuSans-64" x="1306.453125"/>
      <use xlink:href="#DejaVuSans-73" x="1369.929688"/>
      <use xlink:href="#DejaVuSans-6b" x="1422.029297"/>
      <use xlink:href="#DejaVuSans-6f" x="1476.314453"/>
      <use xlink:href="#DejaVuSans-6c" x="1537.496094"/>
      <use xlink:href="#DejaVuSans-65" x="1565.279297"/>
      <use xlink:href="#DejaVuSans-6e" x="1626.802734"/>
     </g>
    </g>
   </g>
   <g id="matplotlib.axis_2">
    <g id="ytick_1">
     <g id="text_10">
      <!-- Uden for partierne -->
      <g transform="translate(40.980313 239.913215) scale(0.1 -0.1)">
       <defs>
        <path id="DejaVuSans-55" d="M 556 4666 
L 1191 4666 
L 1191 1831 
Q 1191 1081 1462 751 
Q 1734 422 2344 422 
Q 2950 422 3222 751 
Q 3494 1081 3494 1831 
L 3494 4666 
L 4128 4666 
L 4128 1753 
Q 4128 841 3676 375 
Q 3225 -91 2344 -91 
Q 1459 -91 1007 375 
Q 556 841 556 1753 
L 556 4666 
z
" transform="scale(0.015625)"/>
        <path id="DejaVuSans-70" d="M 1159 525 
L 1159 -1331 
L 581 -1331 
L 581 3500 
L 1159 3500 
L 1159 2969 
Q 1341 3281 1617 3432 
Q 1894 3584 2278 3584 
Q 2916 3584 3314 3078 
Q 3713 2572 3713 1747 
Q 3713 922 3314 415 
Q 2916 -91 2278 -91 
Q 1894 -91 1617 61 
Q 1341 213 1159 525 
z
M 3116 1747 
Q 3116 2381 2855 2742 
Q 2594 3103 2138 3103 
Q 1681 3103 1420 2742 
Q 1159 2381 1159 1747 
Q 1159 1113 1420 752 
Q 1681 391 2138 391 
Q 2594 391 2855 752 
Q 3116 1113 3116 1747 
z
" transform="scale(0.015625)"/>
        <path id="DejaVuSans-69" d="M 603 3500 
L 1178 3500 
L 1178 0 
L 603 0 
L 603 3500 
z
M 603 4863 
L 1178 4863 
L 1178 4134 
L 603 4134 
L 603 4863 
z
" transform="scale(0.015625)"/>
       </defs>
       <use xlink:href="#DejaVuSans-55"/>
       <use xlink:href="#DejaVuSans-64" x="73.193359"/>
       <use xlink:href="#DejaVuSans-65" x="136.669922"/>
       <use xlink:href="#DejaVuSans-6e" x="198.193359"/>
       <use xlink:href="#DejaVuSans-20" x="261.572266"/>
       <use xlink:href="#DejaVuSans-66" x="293.359375"/>
       <use xlink:href="#DejaVuSans-6f" x="328.564453"/>
       <use xlink:href="#DejaVuSans-72" x="389.746094"/>
       <use xlink:href="#DejaVuSans-20" x="430.859375"/>
       <use xlink:href="#DejaVuSans-70" x="462.646484"/>
       <use xlink:href="#DejaVuSans-61" x="526.123047"/>
       <use xlink:href="#DejaVuSans-72" x="587.402344"/>
       <use xlink:href="#DejaVuSans-74" x="628.515625"/>
       <use xlink:href="#DejaVuSans-69" x="667.724609"/>
       <use xlink:href="#DejaVuSans-65" x="695.507812"/>
       <use xlink:href="#DejaVuSans-72" x="757.03125"/>
       <use xlink:href="#DejaVuSans-6e" x="796.394531"/>
       <use xlink:href="#DejaVuSans-65" x="859.773438"/>
      </g>
     </g>
    </g>
    <g id="ytick_2">
     <g id="text_11">
      <!-- Dansk Folkeparti -->
      <g transform="translate(49.613125 225.713627) scale(0.1 -0.1)">
       <defs>
        <path id="DejaVuSans-44" d="M 1259 4147 
L 1259 519 
L 2022 519 
Q 2988 519 3436 956 
Q 3884 1394 3884 2338 
Q 3884 3275 3436 3711 
Q 2988 4147 2022 4147 
L 1259 4147 
z
M 628 4666 
L 1925 4666 
Q 3281 4666 3915 4102 
Q 4550 3538 4550 2338 
Q 4550 1131 3912 565 
Q 3275 0 1925 0 
L 628 0 
L 628 4666 
z
" transform="scale(0.015625)"/>
        <path id="DejaVuSans-46" d="M 628 4666 
L 3309 4666 
L 3309 4134 
L 1259 4134 
L 1259 2759 
L 3109 2759 
L 3109 2228 
L 1259 2228 
L 1259 0 
L 628 0 
L 628 4666 
z
" transform="scale(0.015625)"/>
       </defs>
       <use xlink:href="#DejaVuSans-44"/>
       <use xlink:href="#DejaVuSans-61" x="77.001953"/>
       <use xlink:href="#DejaVuSans-6e" x="138.28125"/>
       <use xlink:href="#DejaVuSans-73" x="201.660156"/>
       <use xlink:href="#DejaVuSans-6b" x="253.759766"/>
       <use xlink:href="#DejaVuSans-20" x="311.669922"/>
       <use xlink:href="#DejaVuSans-46" x="343.457031"/>
       <use xlink:href="#DejaVuSans-6f" x="397.351562"/>
       <use xlink:href="#DejaVuSans-6c" x="458.533203"/>
       <use xlink:href="#DejaVuSans-6b" x="486.316406"/>
       <use xlink:href="#DejaVuSans-65" x="540.601562"/>
       <use xlink:href="#DejaVuSans-70" x="602.125"/>
       <use xlink:href="#DejaVuSans-61" x="665.601562"/>
       <use xlink:href="#DejaVuSans-72" x="726.880859"/>
       <use xlink:href="#DejaVuSans-74" x="767.994141"/>
       <use xlink:href="#DejaVuSans-69" x="807.203125"/>
      </g>
     </g>
    </g>
    <g id="ytick_3">
     <g id="text_12">
      <!-- Nye Borgerlige -->
      <g transform="translate(58.792813 211.514038) scale(0.1 -0.1)">
       <defs>
        <path id="DejaVuSans-4e" d="M 628 4666 
L 1478 4666 
L 3547 763 
L 3547 4666 
L 4159 4666 
L 4159 0 
L 3309 0 
L 1241 3903 
L 1241 0 
L 628 0 
L 628 4666 
z
" transform="scale(0.015625)"/>
        <path id="DejaVuSans-79" d="M 2059 -325 
Q 1816 -950 1584 -1140 
Q 1353 -1331 966 -1331 
L 506 -1331 
L 506 -850 
L 844 -850 
Q 1081 -850 1212 -737 
Q 1344 -625 1503 -206 
L 1606 56 
L 191 3500 
L 800 3500 
L 1894 763 
L 2988 3500 
L 3597 3500 
L 2059 -325 
z
" transform="scale(0.015625)"/>
        <path id="DejaVuSans-42" d="M 1259 2228 
L 1259 519 
L 2272 519 
Q 2781 519 3026 730 
Q 3272 941 3272 1375 
Q 3272 1813 3026 2020 
Q 2781 2228 2272 2228 
L 1259 2228 
z
M 1259 4147 
L 1259 2741 
L 2194 2741 
Q 2656 2741 2882 2914 
Q 3109 3088 3109 3444 
Q 3109 3797 2882 3972 
Q 2656 4147 2194 4147 
L 1259 4147 
z
M 628 4666 
L 2241 4666 
Q 2963 4666 3353 4366 
Q 3744 4066 3744 3513 
Q 3744 3084 3544 2831 
Q 3344 2578 2956 2516 
Q 3422 2416 3680 2098 
Q 3938 1781 3938 1306 
Q 3938 681 3513 340 
Q 3088 0 2303 0 
L 628 0 
L 628 4666 
z
" transform="scale(0.015625)"/>
       </defs>
       <use xlink:href="#DejaVuSans-4e"/>
       <use xlink:href="#DejaVuSans-79" x="74.804688"/>
       <use xlink:href="#DejaVuSans-65" x="133.984375"/>
       <use xlink:href="#DejaVuSans-20" x="195.507812"/>
       <use xlink:href="#DejaVuSans-42" x="227.294922"/>
       <use xlink:href="#DejaVuSans-6f" x="295.898438"/>
       <use xlink:href="#DejaVuSans-72" x="357.080078"/>
       <use xlink:href="#DejaVuSans-67" x="396.443359"/>
       <use xlink:href="#DejaVuSans-65" x="459.919922"/>
       <use xlink:href="#DejaVuSans-72" x="521.443359"/>
       <use xlink:href="#DejaVuSans-6c" x="562.556641"/>
       <use xlink:href="#DejaVuSans-69" x="590.339844"/>
       <use xlink:href="#DejaVuSans-67" x="618.123047"/>
       <use xlink:href="#DejaVuSans-65" x="681.599609"/>
      </g>
     </g>
    </g>
    <g id="ytick_4">
     <g id="text_13">
      <!-- Danmarksdemokraterne -->
      <g transform="translate(11.074063 197.314449) scale(0.1 -0.1)">
       <defs>
        <path id="DejaVuSans-6d" d="M 3328 2828 
Q 3544 3216 3844 3400 
Q 4144 3584 4550 3584 
Q 5097 3584 5394 3201 
Q 5691 2819 5691 2113 
L 5691 0 
L 5113 0 
L 5113 2094 
Q 5113 2597 4934 2840 
Q 4756 3084 4391 3084 
Q 3944 3084 3684 2787 
Q 3425 2491 3425 1978 
L 3425 0 
L 2847 0 
L 2847 2094 
Q 2847 2600 2669 2842 
Q 2491 3084 2119 3084 
Q 1678 3084 1418 2786 
Q 1159 2488 1159 1978 
L 1159 0 
L 581 0 
L 581 3500 
L 1159 3500 
L 1159 2956 
Q 1356 3278 1631 3431 
Q 1906 3584 2284 3584 
Q 2666 3584 2933 3390 
Q 3200 3197 3328 2828 
z
" transform="scale(0.015625)"/>
       </defs>
       <use xlink:href="#DejaVuSans-44"/>
       <use xlink:href="#DejaVuSans-61" x="77.001953"/>
       <use xlink:href="#DejaVuSans-6e" x="138.28125"/>
       <use xlink:href="#DejaVuSans-6d" x="201.660156"/>
       <use xlink:href="#DejaVuSans-61" x="299.072266"/>
       <use xlink:href="#DejaVuSans-72" x="360.351562"/>
       <use xlink:href="#DejaVuSans-6b" x="401.464844"/>
       <use xlink:href="#DejaVuSans-73" x="459.375"/>
       <use xlink:href="#DejaVuSans-64" x="511.474609"/>
       <use xlink:href="#DejaVuSans-65" x="574.951172"/>
       <use xlink:href="#DejaVuSans-6d" x="636.474609"/>
       <use xlink:href="#DejaVuSans-6f" x="733.886719"/>
       <use xlink:href="#DejaVuSans-6b" x="795.068359"/>
       <use xlink:href="#DejaVuSans-72" x="852.978516"/>
       <use xlink:href="#DejaVuSans-61" x="894.091797"/>
       <use xlink:href="#DejaVuSans-74" x="955.371094"/>
       <use xlink:href="#DejaVuSans-65" x="994.580078"/>
       <use xlink:href="#DejaVuSans-72" x="1056.103516"/>
       <use xlink:href="#DejaVuSans-6e" x="1095.466797"/>
       <use xlink:href="#DejaVuSans-65" x="1158.845703"/>
      </g>
     </g>
    </g>
    <g id="ytick_5">
     <g id="text_14">
      <!-- Enhedslisten -->
      <g transform="translate(69.22875 183.11486) scale(0.1 -0.1)">
       <defs>
        <path id="DejaVuSans-45" d="M 628 4666 
L 3578 4666 
L 3578 4134 
L 1259 4134 
L 1259 2753 
L 3481 2753 
L 3481 2222 
L 1259 2222 
L 1259 531 
L 3634 531 
L 3634 0 
L 628 0 
L 628 4666 
z
" transform="scale(0.015625)"/>
        <path id="DejaVuSans-68" d="M 3513 2113 
L 3513 0 
L 2938 0 
L 2938 2094 
Q 2938 2591 2744 2837 
Q 2550 3084 2163 3084 
Q 1697 3084 1428 2787 
Q 1159 2491 1159 1978 
L 1159 0 
L 581 0 
L 581 4863 
L 1159 4863 
L 1159 2956 
Q 1366 3272 1645 3428 
Q 1925 3584 2291 3584 
Q 2894 3584 3203 3211 
Q 3513 2838 3513 2113 
z
" transform="scale(0.015625)"/>
       </defs>
       <use xlink:href="#DejaVuSans-45"/>
       <use xlink:href="#DejaVuSans-6e" x="63.183594"/>
       <use xlink:href="#DejaVuSans-68" x="126.5625"/>
       <use xlink:href="#DejaVuSans-65" x="189.941406"/>
       <use xlink:href="#DejaVuSans-64" x="251.464844"/>
       <use xlink:href="#DejaVuSans-73" x="314.941406"/>
       <use xlink:href="#DejaVuSans-6c" x="367.041016"/>
       <use xlink:href="#DejaVuSans-69" x="394.824219"/>
       <use xlink:href="#DejaVuSans-73" x="422.607422"/>
       <use xlink:href="#DejaVuSans-74" x="474.707031"/>
       <use xlink:href="#DejaVuSans-65" x="513.916016"/>
       <use xlink:href="#DejaVuSans-6e" x="575.439453"/>
      </g>
     </g>
    </g>
    <g id="ytick_6">
     <g id="text_15">
      <!-- Kristendemokraterne -->
      <g transform="translate(27.152188 168.915271) scale(0.1 -0.1)">
       <defs>
        <path id="DejaVuSans-4b" d="M 628 4666 
L 1259 4666 
L 1259 2694 
L 3353 4666 
L 4166 4666 
L 1850 2491 
L 4331 0 
L 3500 0 
L 1259 2247 
L 1259 0 
L 628 0 
L 628 4666 
z
" transform="scale(0.015625)"/>
       </defs>
       <use xlink:href="#DejaVuSans-4b"/>
       <use xlink:href="#DejaVuSans-72" x="65.576172"/>
       <use xlink:href="#DejaVuSans-69" x="106.689453"/>
       <use xlink:href="#DejaVuSans-73" x="134.472656"/>
       <use xlink:href="#DejaVuSans-74" x="186.572266"/>
       <use xlink:href="#DejaVuSans-65" x="225.78125"/>
       <use xlink:href="#DejaVuSans-6e" x="287.304688"/>
       <use xlink:href="#DejaVuSans-64" x="350.683594"/>
       <use xlink:href="#DejaVuSans-65" x="414.160156"/>
       <use xlink:href="#DejaVuSans-6d" x="475.683594"/>
       <use xlink:href="#DejaVuSans-6f" x="573.095703"/>
       <use xlink:href="#DejaVuSans-6b" x="634.277344"/>
       <use xlink:href="#DejaVuSans-72" x="692.1875"/>
       <use xlink:href="#DejaVuSans-61" x="733.300781"/>
       <use xlink:href="#DejaVuSans-74" x="794.580078"/>
       <use xlink:href="#DejaVuSans-65" x="833.789062"/>
       <use xlink:href="#DejaVuSans-72" x="895.3125"/>
       <use xlink:href="#DejaVuSans-6e" x="934.675781"/>
       <use xlink:href="#DejaVuSans-65" x="998.054688"/>
      </g>
     </g>
    </g>
    <g id="ytick_7">
     <g id="text_16">
      <!-- Moderaterne -->
      <g transform="translate(69.1225 154.715683) scale(0.1 -0.1)">
       <defs>
        <path id="DejaVuSans-4d" d="M 628 4666 
L 1569 4666 
L 2759 1491 
L 3956 4666 
L 4897 4666 
L 4897 0 
L 4281 0 
L 4281 4097 
L 3078 897 
L 2444 897 
L 1241 4097 
L 1241 0 
L 628 0 
L 628 4666 
z
" transform="scale(0.015625)"/>
       </defs>
       <use xlink:href="#DejaVuSans-4d"/>
       <use xlink:href="#DejaVuSans-6f" x="86.279297"/>
       <use xlink:href="#DejaVuSans-64" x="147.460938"/>
       <use xlink:href="#DejaVuSans-65" x="210.9375"/>
       <use xlink:href="#DejaVuSans-72" x="272.460938"/>
       <use xlink:href="#DejaVuSans-61" x="313.574219"/>
       <use xlink:href="#DejaVuSans-74" x="374.853516"/>
       <use xlink:href="#DejaVuSans-65" x="414.0625"/>
       <use xlink:href="#DejaVuSans-72" x="475.585938"/>
       <use xlink:href="#DejaVuSans-6e" x="514.949219"/>
       <use xlink:href="#DejaVuSans-65" x="578.328125"/>
      </g>
     </g>
    </g>
    <g id="ytick_8">
     <g id="text_17">
      <!-- Konservative -->
      <g transform="translate(68.305313 140.516094) scale(0.1 -0.1)">
       <defs>
        <path id="DejaVuSans-76" d="M 191 3500 
L 800 3500 
L 1894 563 
L 2988 3500 
L 3597 3500 
L 2284 0 
L 1503 0 
L 191 3500 
z
" transform="scale(0.015625)"/>
       </defs>
       <use xlink:href="#DejaVuSans-4b"/>
       <use xlink:href="#DejaVuSans-6f" x="60.576172"/>
       <use xlink:href="#DejaVuSans-6e" x="121.757812"/>
       <use xlink:href="#DejaVuSans-73" x="185.136719"/>
       <use xlink:href="#DejaVuSans-65" x="237.236328"/>
       <use xlink:href="#DejaVuSans-72" x="298.759766"/>
       <use xlink:href="#DejaVuSans-76" x="339.873047"/>
       <use xlink:href="#DejaVuSans-61" x="399.052734"/>
       <use xlink:href="#DejaVuSans-74" x="460.332031"/>
       <use xlink:href="#DejaVuSans-69" x="499.541016"/>
       <use xlink:href="#DejaVuSans-76" x="527.324219"/>
       <use xlink:href="#DejaVuSans-65" x="586.503906"/>
      </g>
     </g>
    </g>
    <g id="ytick_9">
     <g id="text_18">
      <!-- Socialdemokratiet -->
      <g transform="translate(42.2975 126.316505) scale(0.1 -0.1)">
       <defs>
        <path id="DejaVuSans-53" d="M 3425 4513 
L 3425 3897 
Q 3066 4069 2747 4153 
Q 2428 4238 2131 4238 
Q 1616 4238 1336 4038 
Q 1056 3838 1056 3469 
Q 1056 3159 1242 3001 
Q 1428 2844 1947 2747 
L 2328 2669 
Q 3034 2534 3370 2195 
Q 3706 1856 3706 1288 
Q 3706 609 3251 259 
Q 2797 -91 1919 -91 
Q 1588 -91 1214 -16 
Q 841 59 441 206 
L 441 856 
Q 825 641 1194 531 
Q 1563 422 1919 422 
Q 2459 422 2753 634 
Q 3047 847 3047 1241 
Q 3047 1584 2836 1778 
Q 2625 1972 2144 2069 
L 1759 2144 
Q 1053 2284 737 2584 
Q 422 2884 422 3419 
Q 422 4038 858 4394 
Q 1294 4750 2059 4750 
Q 2388 4750 2728 4690 
Q 3069 4631 3425 4513 
z
" transform="scale(0.015625)"/>
        <path id="DejaVuSans-63" d="M 3122 3366 
L 3122 2828 
Q 2878 2963 2633 3030 
Q 2388 3097 2138 3097 
Q 1578 3097 1268 2742 
Q 959 2388 959 1747 
Q 959 1106 1268 751 
Q 1578 397 2138 397 
Q 2388 397 2633 464 
Q 2878 531 3122 666 
L 3122 134 
Q 2881 22 2623 -34 
Q 2366 -91 2075 -91 
Q 1284 -91 818 406 
Q 353 903 353 1747 
Q 353 2603 823 3093 
Q 1294 3584 2113 3584 
Q 2378 3584 2631 3529 
Q 2884 3475 3122 3366 
z
" transform="scale(0.015625)"/>
       </defs>
       <use xlink:href="#DejaVuSans-53"/>
       <use xlink:href="#DejaVuSans-6f" x="63.476562"/>
       <use xlink:href="#DejaVuSans-63" x="124.658203"/>
       <use xlink:href="#DejaVuSans-69" x="179.638672"/>
       <use xlink:href="#DejaVuSans-61" x="207.421875"/>
       <use xlink:href="#DejaVuSans-6c" x="268.701172"/>
       <use xlink:href="#DejaVuSans-64" x="296.484375"/>
       <use xlink:href="#DejaVuSans-65" x="359.960938"/>
       <use xlink:href="#DejaVuSans-6d" x="421.484375"/>
       <use xlink:href="#DejaVuSans-6f" x="518.896484"/>
       <use xlink:href="#DejaVuSans-6b" x="580.078125"/>
       <use xlink:href="#DejaVuSans-72" x="637.988281"/>
       <use xlink:href="#DejaVuSans-61" x="679.101562"/>
       <use xlink:href="#DejaVuSans-74" x="740.380859"/>
       <use xlink:href="#DejaVuSans-69" x="779.589844"/>
       <use xlink:href="#DejaVuSans-65" x="807.373047"/>
       <use xlink:href="#DejaVuSans-74" x="868.896484"/>
      </g>
     </g>
    </g>
    <g id="ytick_10">
     <g id="text_19">
      <!-- Liberal Alliance -->
      <g transform="translate(56.770938 112.116916) scale(0.1 -0.1)">
       <defs>
        <path id="DejaVuSans-4c" d="M 628 4666 
L 1259 4666 
L 1259 531 
L 3531 531 
L 3531 0 
L 628 0 
L 628 4666 
z
" transform="scale(0.015625)"/>
        <path id="DejaVuSans-62" d="M 3116 1747 
Q 3116 2381 2855 2742 
Q 2594 3103 2138 3103 
Q 1681 3103 1420 2742 
Q 1159 2381 1159 1747 
Q 1159 1113 1420 752 
Q 1681 391 2138 391 
Q 2594 391 2855 752 
Q 3116 1113 3116 1747 
z
M 1159 2969 
Q 1341 3281 1617 3432 
Q 1894 3584 2278 3584 
Q 2916 3584 3314 3078 
Q 3713 2572 3713 1747 
Q 3713 922 3314 415 
Q 2916 -91 2278 -91 
Q 1894 -91 1617 61 
Q 1341 213 1159 525 
L 1159 0 
L 581 0 
L 581 4863 
L 1159 4863 
L 1159 2969 
z
" transform="scale(0.015625)"/>
        <path id="DejaVuSans-41" d="M 2188 4044 
L 1331 1722 
L 3047 1722 
L 2188 4044 
z
M 1831 4666 
L 2547 4666 
L 4325 0 
L 3669 0 
L 3244 1197 
L 1141 1197 
L 716 0 
L 50 0 
L 1831 4666 
z
" transform="scale(0.015625)"/>
       </defs>
       <use xlink:href="#DejaVuSans-4c"/>
       <use xlink:href="#DejaVuSans-69" x="55.712891"/>
       <use xlink:href="#DejaVuSans-62" x="83.496094"/>
       <use xlink:href="#DejaVuSans-65" x="146.972656"/>
       <use xlink:href="#DejaVuSans-72" x="208.496094"/>
       <use xlink:href="#DejaVuSans-61" x="249.609375"/>
       <use xlink:href="#DejaVuSans-6c" x="310.888672"/>
       <use xlink:href="#DejaVuSans-20" x="338.671875"/>
       <use xlink:href="#DejaVuSans-41" x="370.458984"/>
       <use xlink:href="#DejaVuSans-6c" x="438.867188"/>
       <use xlink:href="#DejaVuSans-6c" x="466.650391"/>
       <use xlink:href="#DejaVuSans-69" x="494.433594"/>
       <use xlink:href="#DejaVuSans-61" x="522.216797"/>
       <use xlink:href="#DejaVuSans-6e" x="583.496094"/>
       <use xlink:href="#DejaVuSans-63" x="646.875"/>
       <use xlink:href="#DejaVuSans-65" x="701.855469"/>
      </g>
     </g>
    </g>
    <g id="ytick_11">
     <g id="text_20">
      <!-- Alternativet -->
      <g transform="translate(74.325625 97.917327) scale(0.1 -0.1)">
       <use xlink:href="#DejaVuSans-41"/>
       <use xlink:href="#DejaVuSans-6c" x="68.408203"/>
       <use xlink:href="#DejaVuSans-74" x="96.191406"/>
       <use xlink:href="#DejaVuSans-65" x="135.400391"/>
       <use xlink:href="#DejaVuSans-72" x="196.923828"/>
       <use xlink:href="#DejaVuSans-6e" x="236.287109"/>
       <use xlink:href="#DejaVuSans-61" x="299.666016"/>
       <use xlink:href="#DejaVuSans-74" x="360.945312"/>
       <use xlink:href="#DejaVuSans-69" x="400.154297"/>
       <use xlink:href="#DejaVuSans-76" x="427.9375"/>
       <use xlink:href="#DejaVuSans-65" x="487.117188"/>
       <use xlink:href="#DejaVuSans-74" x="548.640625"/>
      </g>
     </g>
    </g>
    <g id="ytick_12">
     <g id="text_21">
      <!-- Frie Grønne -->
      <g transform="translate(75.056875 83.717738) scale(0.1 -0.1)">
       <defs>
        <path id="DejaVuSans-47" d="M 3809 666 
L 3809 1919 
L 2778 1919 
L 2778 2438 
L 4434 2438 
L 4434 434 
Q 4069 175 3628 42 
Q 3188 -91 2688 -91 
Q 1594 -91 976 548 
Q 359 1188 359 2328 
Q 359 3472 976 4111 
Q 1594 4750 2688 4750 
Q 3144 4750 3555 4637 
Q 3966 4525 4313 4306 
L 4313 3634 
Q 3963 3931 3569 4081 
Q 3175 4231 2741 4231 
Q 1884 4231 1454 3753 
Q 1025 3275 1025 2328 
Q 1025 1384 1454 906 
Q 1884 428 2741 428 
Q 3075 428 3337 486 
Q 3600 544 3809 666 
z
" transform="scale(0.015625)"/>
        <path id="DejaVuSans-f8" d="M 2828 2503 
L 1306 653 
Q 1434 522 1595 459 
Q 1756 397 1959 397 
Q 2419 397 2687 759 
Q 2956 1122 2956 1747 
Q 2956 1994 2925 2176 
Q 2894 2359 2828 2503 
z
M 2606 2841 
Q 2475 2969 2314 3033 
Q 2153 3097 1959 3097 
Q 1488 3097 1223 2730 
Q 959 2363 959 1703 
Q 959 1478 989 1306 
Q 1019 1134 1081 991 
L 2606 2841 
z
M 691 519 
Q 522 759 437 1067 
Q 353 1375 353 1747 
Q 353 2609 779 3096 
Q 1206 3584 1959 3584 
Q 2250 3584 2498 3504 
Q 2747 3425 2956 3263 
L 3391 3788 
L 3688 3541 
L 3231 2981 
Q 3397 2741 3481 2431 
Q 3566 2122 3566 1747 
Q 3566 888 3137 398 
Q 2709 -91 1959 -91 
Q 1659 -91 1407 -9 
Q 1156 72 959 231 
L 525 -294 
L 225 -50 
L 691 519 
z
" transform="scale(0.015625)"/>
       </defs>
       <use xlink:href="#DejaVuSans-46"/>
       <use xlink:href="#DejaVuSans-72" x="50.269531"/>
       <use xlink:href="#DejaVuSans-69" x="91.382812"/>
       <use xlink:href="#DejaVuSans-65" x="119.166016"/>
       <use xlink:href="#DejaVuSans-20" x="180.689453"/>
       <use xlink:href="#DejaVuSans-47" x="212.476562"/>
       <use xlink:href="#DejaVuSans-72" x="289.966797"/>
       <use xlink:href="#DejaVuSans-f8" x="331.080078"/>
       <use xlink:href="#DejaVuSans-6e" x="392.261719"/>
       <use xlink:href="#DejaVuSans-6e" x="455.640625"/>
       <use xlink:href="#DejaVuSans-65" x="519.019531"/>
      </g>
     </g>
    </g>
    <g id="ytick_13">
     <g id="text_22">
      <!-- SF -->
      <g transform="translate(121.01 69.51815) scale(0.1 -0.1)">
       <use xlink:href="#DejaVuSans-53"/>
       <use xlink:href="#DejaVuSans-46" x="63.476562"/>
      </g>
     </g>
    </g>
    <g id="ytick_14">
     <g id="text_23">
      <!-- Venstre -->
      <g transform="translate(95.385 55.318561) scale(0.1 -0.1)">
       <defs>
        <path id="DejaVuSans-56" d="M 1831 0 
L 50 4666 
L 709 4666 
L 2188 738 
L 3669 4666 
L 4325 4666 
L 2547 0 
L 1831 0 
z
" transform="scale(0.015625)"/>
       </defs>
       <use xlink:href="#DejaVuSans-56"/>
       <use xlink:href="#DejaVuSans-65" x="60.658203"/>
       <use xlink:href="#DejaVuSans-6e" x="122.181641"/>
       <use xlink:href="#DejaVuSans-73" x="185.560547"/>
       <use xlink:href="#DejaVuSans-74" x="237.660156"/>
       <use xlink:href="#DejaVuSans-72" x="276.869141"/>
       <use xlink:href="#DejaVuSans-65" x="315.732422"/>
      </g>
     </g>
    </g>
    <g id="ytick_15">
     <g id="text_24">
      <!-- Radikale -->
      <g transform="translate(90.456875 41.118972) scale(0.1 -0.1)">
       <defs>
        <path id="DejaVuSans-52" d="M 2841 2188 
Q 3044 2119 3236 1894 
Q 3428 1669 3622 1275 
L 4263 0 
L 3584 0 
L 2988 1197 
Q 2756 1666 2539 1819 
Q 2322 1972 1947 1972 
L 1259 1972 
L 1259 0 
L 628 0 
L 628 4666 
L 2053 4666 
Q 2853 4666 3247 4331 
Q 3641 3997 3641 3322 
Q 3641 2881 3436 2590 
Q 3231 2300 2841 2188 
z
M 1259 4147 
L 1259 2491 
L 2053 2491 
Q 2509 2491 2742 2702 
Q 2975 2913 2975 3322 
Q 2975 3731 2742 3939 
Q 2509 4147 2053 4147 
L 1259 4147 
z
" transform="scale(0.015625)"/>
       </defs>
       <use xlink:href="#DejaVuSans-52"/>
       <use xlink:href="#DejaVuSans-61" x="67.232422"/>
       <use xlink:href="#DejaVuSans-64" x="128.511719"/>
       <use xlink:href="#DejaVuSans-69" x="191.988281"/>
       <use xlink:href="#DejaVuSans-6b" x="219.771484"/>
       <use xlink:href="#DejaVuSans-61" x="275.931641"/>
       <use xlink:href="#DejaVuSans-6c" x="337.210938"/>
       <use xlink:href="#DejaVuSans-65" x="364.994141"/>
      </g>
     </g>
    </g>
   </g>
  </g>
  <g id="text_25">
   <!-- De Radikale har siddet længst på skolebænken -->
   <g transform="translate(43.2 17.28) scale(0.14 -0.14)">
    <defs>
     <path id="DejaVuSans-e6" d="M 5369 2063 
Q 5366 2534 5108 2815 
Q 4850 3097 4422 3097 
Q 3944 3097 3655 2825 
Q 3366 2553 3322 2059 
L 5369 2063 
z
M 3109 3009 
Q 3341 3291 3672 3437 
Q 4003 3584 4416 3584 
Q 5122 3584 5534 3129 
Q 5947 2675 5947 1894 
L 5947 1613 
L 3303 1613 
Q 3341 1016 3659 703 
Q 3978 391 4550 391 
Q 4875 391 5187 473 
Q 5500 556 5813 722 
L 5813 178 
Q 5500 47 5175 -22 
Q 4850 -91 4519 -91 
Q 3997 -91 3609 98 
Q 3222 288 2981 659 
Q 2753 284 2415 96 
Q 2078 -91 1631 -91 
Q 1041 -91 712 201 
Q 384 494 384 1019 
Q 384 1609 779 1909 
Q 1175 2209 1959 2209 
L 2766 2209 
L 2766 2266 
Q 2766 2663 2505 2880 
Q 2244 3097 1772 3097 
Q 1472 3097 1187 3025 
Q 903 2953 641 2809 
L 641 3341 
Q 956 3463 1253 3523 
Q 1550 3584 1831 3584 
Q 2275 3584 2608 3434 
Q 2941 3284 3109 3009 
z
M 2194 1759 
Q 1497 1759 1228 1600 
Q 959 1441 959 1056 
Q 959 750 1161 570 
Q 1363 391 1709 391 
Q 2188 391 2477 730 
Q 2766 1069 2766 1631 
L 2766 1759 
L 2194 1759 
z
" transform="scale(0.015625)"/>
     <path id="DejaVuSans-e5" d="M 2194 1759 
Q 1497 1759 1228 1600 
Q 959 1441 959 1056 
Q 959 750 1161 570 
Q 1363 391 1709 391 
Q 2188 391 2477 730 
Q 2766 1069 2766 1631 
L 2766 1759 
L 2194 1759 
z
M 3341 1997 
L 3341 0 
L 2766 0 
L 2766 531 
Q 2569 213 2275 61 
Q 1981 -91 1556 -91 
Q 1019 -91 701 211 
Q 384 513 384 1019 
Q 384 1609 779 1909 
Q 1175 2209 1959 2209 
L 2766 2209 
L 2766 2266 
Q 2766 2663 2505 2880 
Q 2244 3097 1772 3097 
Q 1472 3097 1187 3025 
Q 903 2953 641 2809 
L 641 3341 
Q 956 3463 1253 3523 
Q 1550 3584 1831 3584 
Q 2591 3584 2966 3190 
Q 3341 2797 3341 1997 
z
M 2331 4763 
Q 2331 4959 2193 5096 
Q 2056 5234 1856 5234 
Q 1653 5234 1517 5098 
Q 1381 4963 1381 4763 
Q 1381 4559 1517 4423 
Q 1653 4288 1856 4288 
Q 2056 4288 2193 4425 
Q 2331 4563 2331 4763 
z
M 2712 4763 
Q 2712 4403 2463 4153 
Q 2215 3903 1856 3903 
Q 1497 3903 1248 4153 
Q 1000 4403 1000 4763 
Q 1000 5122 1248 5370 
Q 1497 5619 1856 5619 
Q 2215 5619 2463 5370 
Q 2712 5122 2712 4763 
z
" transform="scale(0.015625)"/>
    </defs>
    <use xlink:href="#DejaVuSans-44"/>
    <use xlink:href="#DejaVuSans-65" x="77.001953"/>
    <use xlink:href="#DejaVuSans-20" x="138.525391"/>
    <use xlink:href="#DejaVuSans-52" x="170.3125"/>
    <use xlink:href="#DejaVuSans-61" x="237.544922"/>
    <use xlink:href="#DejaVuSans-64" x="298.824219"/>
    <use xlink:href="#DejaVuSans-69" x="362.300781"/>
    <use xlink:href="#DejaVuSans-6b" x="390.083984"/>
    <use xlink:href="#DejaVuSans-61" x="446.244141"/>
    <use xlink:href="#DejaVuSans-6c" x="507.523438"/>
    <use xlink:href="#DejaVuSans-65" x="535.306641"/>
    <use xlink:href="#DejaVuSans-20" x="596.830078"/>
    <use xlink:href="#DejaVuSans-68" x="628.617188"/>
    <use xlink:href="#DejaVuSans-61" x="691.996094"/>
    <use xlink:href="#DejaVuSans-72" x="753.275391"/>
    <use xlink:href="#DejaVuSans-20" x="794.388672"/>
    <use xlink:href="#DejaVuSans-73" x="826.175781"/>
    <use xlink:href="#DejaVuSans-69" x="878.275391"/>
    <use xlink:href="#DejaVuSans-64" x="906.058594"/>
    <use xlink:href="#DejaVuSans-64" x="969.535156"/>
    <use xlink:href="#DejaVuSans-65" x="1033.011719"/>
    <use xlink:href="#DejaVuSans-74" x="1094.535156"/>
    <use xlink:href="#DejaVuSans-20" x="1133.744141"/>
    <use xlink:href="#DejaVuSans-6c" x="1165.53125"/>
    <use xlink:href="#DejaVuSans-e6" x="1193.314453"/>
    <use xlink:href="#DejaVuSans-6e" x="1291.507812"/>
    <use xlink:href="#DejaVuSans-67" x="1354.886719"/>
    <use xlink:href="#DejaVuSans-73" x="1418.363281"/>
    <use xlink:href="#DejaVuSans-74" x="1470.462891"/>
    <use xlink:href="#DejaVuSans-20" x="1509.671875"/>
    <use xlink:href="#DejaVuSans-70" x="1541.458984"/>
    <use xlink:href="#DejaVuSans-e5" x="1604.935547"/>
    <use xlink:href="#DejaVuSans-20" x="1666.214844"/>
    <use xlink:href="#DejaVuSans-73" x="1698.001953"/>
    <use xlink:href="#DejaVuSans-6b" x="1750.101562"/>
    <use xlink:href="#DejaVuSans-6f" x="1804.386719"/>
    <use xlink:href="#DejaVuSans-6c" x="1865.568359"/>
    <use xlink:href="#DejaVuSans-65" x="1893.351562"/>
    <use xlink:href="#DejaVuSans-62" x="1954.875"/>
    <use xlink:href="#DejaVuSans-e6" x="2018.351562"/>
    <use xlink:href="#DejaVuSans-6e" x="2116.544922"/>
    <use xlink:href="#DejaVuSans-6b" x="2179.923828"/>
    <use xlink:href="#DejaVuSans-65" x="2234.208984"/>
    <use xlink:href="#DejaVuSans-6e" x="2295.732422"/>
   </g>
  </g>
 </g>
 <defs>
  <clipPath id="p02f096259d">
   <rect x="140.11" y="28.8" width="281.09" height="215.83375"/>
  </clipPath>
 </defs>
</svg>
