<?xml version="1.0" encoding="utf-8" standalone="no"?>
<!DOCTYPE svg PUBLIC "-//W3C//DTD SVG 1.1//EN"
  "http://www.w3.org/Graphics/SVG/1.1/DTD/svg11.dtd">
<svg xmlns:xlink="http://www.w3.org/1999/xlink" width="504pt" height="288pt" viewBox="0 0 504 288" xmlns="http://www.w3.org/2000/svg" version="1.1">
 <metadata>
  <rdf:RDF xmlns:dc="http://purl.org/dc/elements/1.1/" xmlns:cc="http://creativecommons.org/ns#" xmlns:rdf="http://www.w3.org/1999/02/22-rdf-syntax-ns#">
   <cc:Work>
    <dc:type rdf:resource="http://purl.org/dc/dcmitype/StillImage"/>
    <dc:date>2022-10-30T08:37:39.045474</dc:date>
    <dc:format>image/svg+xml</dc:format>
    <dc:creator>
     <cc:Agent>
      <dc:title>Matplotlib v3.6.1, https://matplotlib.org/</dc:title>
     </cc:Agent>
    </dc:creator>
   </cc:Work>
  </rdf:RDF>
 </metadata>
 <defs>
  <style type="text/css">*{stroke-linejoin: round; stroke-linecap: butt}</style>
 </defs>
 <g id="figure_1">
  <g id="patch_1">
   <path d="M 0 288 
L 504 288 
L 504 0 
L 0 0 
z
" style="fill: #ffffff"/>
  </g>
  <g id="axes_1">
   <g id="patch_2">
    <path d="M 39.94 246.04 
L 329.909448 246.04 
L 329.909448 28.8 
L 39.94 28.8 
z
" style="fill: #ffffff"/>
   </g>
   <g id="PathCollection_1">
    <defs>
     <path id="m1ff31cdeb7" d="M 0 1.936492 
C 0.513564 1.936492 1.006162 1.732451 1.369306 1.369306 
C 1.732451 1.006162 1.936492 0.513564 1.936492 0 
C 1.936492 -0.513564 1.732451 -1.006162 1.369306 -1.369306 
C 1.006162 -1.732451 0.513564 -1.936492 0 -1.936492 
C -0.513564 -1.936492 -1.006162 -1.732451 -1.369306 -1.369306 
C -1.732451 -1.006162 -1.936492 -0.513564 -1.936492 0 
C -1.936492 0.513564 -1.732451 1.006162 -1.369306 1.369306 
C -1.006162 1.732451 -0.513564 1.936492 0 1.936492 
z
" style="stroke: #4c4c4c"/>
    </defs>
    <g clip-path="url(#ped8ebc0cba)">
     <use xlink:href="#m1ff31cdeb7" x="316.729019" y="39.144762" style="fill: #4c4c4c; stroke: #4c4c4c"/>
    </g>
   </g>
   <g id="PathCollection_2">
    <defs>
     <path id="m17c7206fa0" d="M 0 1.936492 
C 0.513564 1.936492 1.006162 1.732451 1.369306 1.369306 
C 1.732451 1.006162 1.936492 0.513564 1.936492 0 
C 1.936492 -0.513564 1.732451 -1.006162 1.369306 -1.369306 
C 1.006162 -1.732451 0.513564 -1.936492 0 -1.936492 
C -0.513564 -1.936492 -1.006162 -1.732451 -1.369306 -1.369306 
C -1.732451 -1.006162 -1.936492 -0.513564 -1.936492 0 
C -1.936492 0.513564 -1.732451 1.006162 -1.369306 1.369306 
C -1.006162 1.732451 -0.513564 1.936492 0 1.936492 
z
" style="stroke: #cccccc"/>
    </defs>
    <g clip-path="url(#ped8ebc0cba)">
     <use xlink:href="#m17c7206fa0" x="316.729019" y="63.610523" style="fill: #cccccc; stroke: #cccccc"/>
    </g>
   </g>
   <g id="matplotlib.axis_1">
    <g id="xtick_1">
     <g id="line2d_1">
      <path d="M 54.644179 246.04 
L 54.644179 28.8 
" clip-path="url(#ped8ebc0cba)" style="fill: none; stroke-dasharray: 0.8,1.32; stroke-dashoffset: 0; stroke: #cccccc; stroke-width: 0.8"/>
     </g>
     <g id="text_1">
      <!-- 1850 -->
      <g transform="translate(41.919179 260.638438) scale(0.1 -0.1)">
       <defs>
        <path id="DejaVuSans-31" d="M 794 531 
L 1825 531 
L 1825 4091 
L 703 3866 
L 703 4441 
L 1819 4666 
L 2450 4666 
L 2450 531 
L 3481 531 
L 3481 0 
L 794 0 
L 794 531 
z
" transform="scale(0.015625)"/>
        <path id="DejaVuSans-38" d="M 2034 2216 
Q 1584 2216 1326 1975 
Q 1069 1734 1069 1313 
Q 1069 891 1326 650 
Q 1584 409 2034 409 
Q 2484 409 2743 651 
Q 3003 894 3003 1313 
Q 3003 1734 2745 1975 
Q 2488 2216 2034 2216 
z
M 1403 2484 
Q 997 2584 770 2862 
Q 544 3141 544 3541 
Q 544 4100 942 4425 
Q 1341 4750 2034 4750 
Q 2731 4750 3128 4425 
Q 3525 4100 3525 3541 
Q 3525 3141 3298 2862 
Q 3072 2584 2669 2484 
Q 3125 2378 3379 2068 
Q 3634 1759 3634 1313 
Q 3634 634 3220 271 
Q 2806 -91 2034 -91 
Q 1263 -91 848 271 
Q 434 634 434 1313 
Q 434 1759 690 2068 
Q 947 2378 1403 2484 
z
M 1172 3481 
Q 1172 3119 1398 2916 
Q 1625 2713 2034 2713 
Q 2441 2713 2670 2916 
Q 2900 3119 2900 3481 
Q 2900 3844 2670 4047 
Q 2441 4250 2034 4250 
Q 1625 4250 1398 4047 
Q 1172 3844 1172 3481 
z
" transform="scale(0.015625)"/>
        <path id="DejaVuSans-35" d="M 691 4666 
L 3169 4666 
L 3169 4134 
L 1269 4134 
L 1269 2991 
Q 1406 3038 1543 3061 
Q 1681 3084 1819 3084 
Q 2600 3084 3056 2656 
Q 3513 2228 3513 1497 
Q 3513 744 3044 326 
Q 2575 -91 1722 -91 
Q 1428 -91 1123 -41 
Q 819 9 494 109 
L 494 744 
Q 775 591 1075 516 
Q 1375 441 1709 441 
Q 2250 441 2565 725 
Q 2881 1009 2881 1497 
Q 2881 1984 2565 2268 
Q 2250 2553 1709 2553 
Q 1456 2553 1204 2497 
Q 953 2441 691 2322 
L 691 4666 
z
" transform="scale(0.015625)"/>
        <path id="DejaVuSans-30" d="M 2034 4250 
Q 1547 4250 1301 3770 
Q 1056 3291 1056 2328 
Q 1056 1369 1301 889 
Q 1547 409 2034 409 
Q 2525 409 2770 889 
Q 3016 1369 3016 2328 
Q 3016 3291 2770 3770 
Q 2525 4250 2034 4250 
z
M 2034 4750 
Q 2819 4750 3233 4129 
Q 3647 3509 3647 2328 
Q 3647 1150 3233 529 
Q 2819 -91 2034 -91 
Q 1250 -91 836 529 
Q 422 1150 422 2328 
Q 422 3509 836 4129 
Q 1250 4750 2034 4750 
z
" transform="scale(0.015625)"/>
       </defs>
       <use xlink:href="#DejaVuSans-31"/>
       <use xlink:href="#DejaVuSans-38" x="63.623047"/>
       <use xlink:href="#DejaVuSans-35" x="127.246094"/>
       <use xlink:href="#DejaVuSans-30" x="190.869141"/>
      </g>
     </g>
    </g>
    <g id="xtick_2">
     <g id="line2d_2">
      <path d="M 92.737905 246.04 
L 92.737905 28.8 
" clip-path="url(#ped8ebc0cba)" style="fill: none; stroke-dasharray: 0.8,1.32; stroke-dashoffset: 0; stroke: #cccccc; stroke-width: 0.8"/>
     </g>
     <g id="text_2">
      <!-- 1875 -->
      <g transform="translate(80.012905 260.638438) scale(0.1 -0.1)">
       <defs>
        <path id="DejaVuSans-37" d="M 525 4666 
L 3525 4666 
L 3525 4397 
L 1831 0 
L 1172 0 
L 2766 4134 
L 525 4134 
L 525 4666 
z
" transform="scale(0.015625)"/>
       </defs>
       <use xlink:href="#DejaVuSans-31"/>
       <use xlink:href="#DejaVuSans-38" x="63.623047"/>
       <use xlink:href="#DejaVuSans-37" x="127.246094"/>
       <use xlink:href="#DejaVuSans-35" x="190.869141"/>
      </g>
     </g>
    </g>
    <g id="xtick_3">
     <g id="line2d_3">
      <path d="M 130.831632 246.04 
L 130.831632 28.8 
" clip-path="url(#ped8ebc0cba)" style="fill: none; stroke-dasharray: 0.8,1.32; stroke-dashoffset: 0; stroke: #cccccc; stroke-width: 0.8"/>
     </g>
     <g id="text_3">
      <!-- 1900 -->
      <g transform="translate(118.106632 260.638438) scale(0.1 -0.1)">
       <defs>
        <path id="DejaVuSans-39" d="M 703 97 
L 703 672 
Q 941 559 1184 500 
Q 1428 441 1663 441 
Q 2288 441 2617 861 
Q 2947 1281 2994 2138 
Q 2813 1869 2534 1725 
Q 2256 1581 1919 1581 
Q 1219 1581 811 2004 
Q 403 2428 403 3163 
Q 403 3881 828 4315 
Q 1253 4750 1959 4750 
Q 2769 4750 3195 4129 
Q 3622 3509 3622 2328 
Q 3622 1225 3098 567 
Q 2575 -91 1691 -91 
Q 1453 -91 1209 -44 
Q 966 3 703 97 
z
M 1959 2075 
Q 2384 2075 2632 2365 
Q 2881 2656 2881 3163 
Q 2881 3666 2632 3958 
Q 2384 4250 1959 4250 
Q 1534 4250 1286 3958 
Q 1038 3666 1038 3163 
Q 1038 2656 1286 2365 
Q 1534 2075 1959 2075 
z
" transform="scale(0.015625)"/>
       </defs>
       <use xlink:href="#DejaVuSans-31"/>
       <use xlink:href="#DejaVuSans-39" x="63.623047"/>
       <use xlink:href="#DejaVuSans-30" x="127.246094"/>
       <use xlink:href="#DejaVuSans-30" x="190.869141"/>
      </g>
     </g>
    </g>
    <g id="xtick_4">
     <g id="line2d_4">
      <path d="M 168.925359 246.04 
L 168.925359 28.8 
" clip-path="url(#ped8ebc0cba)" style="fill: none; stroke-dasharray: 0.8,1.32; stroke-dashoffset: 0; stroke: #cccccc; stroke-width: 0.8"/>
     </g>
     <g id="text_4">
      <!-- 1925 -->
      <g transform="translate(156.200359 260.638438) scale(0.1 -0.1)">
       <defs>
        <path id="DejaVuSans-32" d="M 1228 531 
L 3431 531 
L 3431 0 
L 469 0 
L 469 531 
Q 828 903 1448 1529 
Q 2069 2156 2228 2338 
Q 2531 2678 2651 2914 
Q 2772 3150 2772 3378 
Q 2772 3750 2511 3984 
Q 2250 4219 1831 4219 
Q 1534 4219 1204 4116 
Q 875 4013 500 3803 
L 500 4441 
Q 881 4594 1212 4672 
Q 1544 4750 1819 4750 
Q 2544 4750 2975 4387 
Q 3406 4025 3406 3419 
Q 3406 3131 3298 2873 
Q 3191 2616 2906 2266 
Q 2828 2175 2409 1742 
Q 1991 1309 1228 531 
z
" transform="scale(0.015625)"/>
       </defs>
       <use xlink:href="#DejaVuSans-31"/>
       <use xlink:href="#DejaVuSans-39" x="63.623047"/>
       <use xlink:href="#DejaVuSans-32" x="127.246094"/>
       <use xlink:href="#DejaVuSans-35" x="190.869141"/>
      </g>
     </g>
    </g>
    <g id="xtick_5">
     <g id="line2d_5">
      <path d="M 207.019086 246.04 
L 207.019086 28.8 
" clip-path="url(#ped8ebc0cba)" style="fill: none; stroke-dasharray: 0.8,1.32; stroke-dashoffset: 0; stroke: #cccccc; stroke-width: 0.8"/>
     </g>
     <g id="text_5">
      <!-- 1950 -->
      <g transform="translate(194.294086 260.638438) scale(0.1 -0.1)">
       <use xlink:href="#DejaVuSans-31"/>
       <use xlink:href="#DejaVuSans-39" x="63.623047"/>
       <use xlink:href="#DejaVuSans-35" x="127.246094"/>
       <use xlink:href="#DejaVuSans-30" x="190.869141"/>
      </g>
     </g>
    </g>
    <g id="xtick_6">
     <g id="line2d_6">
      <path d="M 245.112812 246.04 
L 245.112812 28.8 
" clip-path="url(#ped8ebc0cba)" style="fill: none; stroke-dasharray: 0.8,1.32; stroke-dashoffset: 0; stroke: #cccccc; stroke-width: 0.8"/>
     </g>
     <g id="text_6">
      <!-- 1975 -->
      <g transform="translate(232.387812 260.638438) scale(0.1 -0.1)">
       <use xlink:href="#DejaVuSans-31"/>
       <use xlink:href="#DejaVuSans-39" x="63.623047"/>
       <use xlink:href="#DejaVuSans-37" x="127.246094"/>
       <use xlink:href="#DejaVuSans-35" x="190.869141"/>
      </g>
     </g>
    </g>
    <g id="xtick_7">
     <g id="line2d_7">
      <path d="M 283.206539 246.04 
L 283.206539 28.8 
" clip-path="url(#ped8ebc0cba)" style="fill: none; stroke-dasharray: 0.8,1.32; stroke-dashoffset: 0; stroke: #cccccc; stroke-width: 0.8"/>
     </g>
     <g id="text_7">
      <!-- 2000 -->
      <g transform="translate(270.481539 260.638438) scale(0.1 -0.1)">
       <use xlink:href="#DejaVuSans-32"/>
       <use xlink:href="#DejaVuSans-30" x="63.623047"/>
       <use xlink:href="#DejaVuSans-30" x="127.246094"/>
       <use xlink:href="#DejaVuSans-30" x="190.869141"/>
      </g>
     </g>
    </g>
    <g id="text_8">
     <!-- År -->
     <g transform="translate(179.448943 274.316562) scale(0.1 -0.1)">
      <defs>
       <path id="DejaVuSans-c5" d="M 2663 5081 
Q 2663 5278 2523 5417 
Q 2384 5556 2188 5556 
Q 1988 5556 1852 5420 
Q 1716 5284 1716 5081 
Q 1716 4884 1853 4746 
Q 1991 4609 2188 4609 
Q 2384 4609 2523 4746 
Q 2663 4884 2663 5081 
z
M 2188 4044 
L 1338 1722 
L 3041 1722 
L 2188 4044 
z
M 1716 4366 
Q 1525 4494 1428 4673 
Q 1331 4853 1331 5081 
Q 1331 5441 1579 5691 
Q 1828 5941 2188 5941 
Q 2544 5941 2795 5689 
Q 3047 5438 3047 5081 
Q 3047 4863 2948 4678 
Q 2850 4494 2663 4366 
L 4325 0 
L 3669 0 
L 3244 1197 
L 1141 1197 
L 716 0 
L 50 0 
L 1716 4366 
z
" transform="scale(0.015625)"/>
       <path id="DejaVuSans-72" d="M 2631 2963 
Q 2534 3019 2420 3045 
Q 2306 3072 2169 3072 
Q 1681 3072 1420 2755 
Q 1159 2438 1159 1844 
L 1159 0 
L 581 0 
L 581 3500 
L 1159 3500 
L 1159 2956 
Q 1341 3275 1631 3429 
Q 1922 3584 2338 3584 
Q 2397 3584 2469 3576 
Q 2541 3569 2628 3553 
L 2631 2963 
z
" transform="scale(0.015625)"/>
      </defs>
      <use xlink:href="#DejaVuSans-c5"/>
      <use xlink:href="#DejaVuSans-72" x="68.408203"/>
     </g>
    </g>
   </g>
   <g id="matplotlib.axis_2">
    <g id="ytick_1">
     <g id="text_9">
      <!-- 0% -->
      <g transform="translate(17.075938 249.839219) scale(0.1 -0.1)">
       <defs>
        <path id="DejaVuSans-25" d="M 4653 2053 
Q 4381 2053 4226 1822 
Q 4072 1591 4072 1178 
Q 4072 772 4226 539 
Q 4381 306 4653 306 
Q 4919 306 5073 539 
Q 5228 772 5228 1178 
Q 5228 1588 5073 1820 
Q 4919 2053 4653 2053 
z
M 4653 2450 
Q 5147 2450 5437 2106 
Q 5728 1763 5728 1178 
Q 5728 594 5436 251 
Q 5144 -91 4653 -91 
Q 4153 -91 3862 251 
Q 3572 594 3572 1178 
Q 3572 1766 3864 2108 
Q 4156 2450 4653 2450 
z
M 1428 4353 
Q 1159 4353 1004 4120 
Q 850 3888 850 3481 
Q 850 3069 1003 2837 
Q 1156 2606 1428 2606 
Q 1700 2606 1854 2837 
Q 2009 3069 2009 3481 
Q 2009 3884 1853 4118 
Q 1697 4353 1428 4353 
z
M 4250 4750 
L 4750 4750 
L 1831 -91 
L 1331 -91 
L 4250 4750 
z
M 1428 4750 
Q 1922 4750 2215 4408 
Q 2509 4066 2509 3481 
Q 2509 2891 2217 2550 
Q 1925 2209 1428 2209 
Q 931 2209 642 2551 
Q 353 2894 353 3481 
Q 353 4063 643 4406 
Q 934 4750 1428 4750 
z
" transform="scale(0.015625)"/>
       </defs>
       <use xlink:href="#DejaVuSans-30"/>
       <use xlink:href="#DejaVuSans-25" x="63.623047"/>
      </g>
     </g>
    </g>
    <g id="ytick_2">
     <g id="text_10">
      <!-- 10% -->
      <g transform="translate(10.713438 196.652782) scale(0.1 -0.1)">
       <use xlink:href="#DejaVuSans-31"/>
       <use xlink:href="#DejaVuSans-30" x="63.623047"/>
       <use xlink:href="#DejaVuSans-25" x="127.246094"/>
      </g>
     </g>
    </g>
    <g id="ytick_3">
     <g id="text_11">
      <!-- 20% -->
      <g transform="translate(10.713438 143.466346) scale(0.1 -0.1)">
       <use xlink:href="#DejaVuSans-32"/>
       <use xlink:href="#DejaVuSans-30" x="63.623047"/>
       <use xlink:href="#DejaVuSans-25" x="127.246094"/>
      </g>
     </g>
    </g>
    <g id="ytick_4">
     <g id="text_12">
      <!-- 30% -->
      <g transform="translate(10.713438 90.279909) scale(0.1 -0.1)">
       <defs>
        <path id="DejaVuSans-33" d="M 2597 2516 
Q 3050 2419 3304 2112 
Q 3559 1806 3559 1356 
Q 3559 666 3084 287 
Q 2609 -91 1734 -91 
Q 1441 -91 1130 -33 
Q 819 25 488 141 
L 488 750 
Q 750 597 1062 519 
Q 1375 441 1716 441 
Q 2309 441 2620 675 
Q 2931 909 2931 1356 
Q 2931 1769 2642 2001 
Q 2353 2234 1838 2234 
L 1294 2234 
L 1294 2753 
L 1863 2753 
Q 2328 2753 2575 2939 
Q 2822 3125 2822 3475 
Q 2822 3834 2567 4026 
Q 2313 4219 1838 4219 
Q 1578 4219 1281 4162 
Q 984 4106 628 3988 
L 628 4550 
Q 988 4650 1302 4700 
Q 1616 4750 1894 4750 
Q 2613 4750 3031 4423 
Q 3450 4097 3450 3541 
Q 3450 3153 3228 2886 
Q 3006 2619 2597 2516 
z
" transform="scale(0.015625)"/>
       </defs>
       <use xlink:href="#DejaVuSans-33"/>
       <use xlink:href="#DejaVuSans-30" x="63.623047"/>
       <use xlink:href="#DejaVuSans-25" x="127.246094"/>
      </g>
     </g>
    </g>
    <g id="ytick_5">
     <g id="text_13">
      <!-- 40% -->
      <g transform="translate(10.713438 37.093473) scale(0.1 -0.1)">
       <defs>
        <path id="DejaVuSans-34" d="M 2419 4116 
L 825 1625 
L 2419 1625 
L 2419 4116 
z
M 2253 4666 
L 3047 4666 
L 3047 1625 
L 3713 1625 
L 3713 1100 
L 3047 1100 
L 3047 0 
L 2419 0 
L 2419 1100 
L 313 1100 
L 313 1709 
L 2253 4666 
z
" transform="scale(0.015625)"/>
       </defs>
       <use xlink:href="#DejaVuSans-34"/>
       <use xlink:href="#DejaVuSans-30" x="63.623047"/>
       <use xlink:href="#DejaVuSans-25" x="127.246094"/>
      </g>
     </g>
    </g>
   </g>
   <g id="line2d_8">
    <path d="M 53.120429 246.04 
L 158.259115 246.04 
L 158.259115 191.789835 
L 161.306614 191.789835 
L 161.306614 224.765425 
L 167.40161 224.765425 
L 167.40161 229.02034 
L 170.449108 229.02034 
L 170.449108 228.488476 
L 175.020355 228.488476 
L 175.020355 229.02034 
L 179.591602 229.02034 
L 179.591602 230.615933 
L 184.16285 230.615933 
L 184.16285 231.147798 
L 190.257846 231.147798 
L 190.257846 226.892883 
L 196.352842 226.892883 
L 196.352842 226.892883 
L 199.40034 226.892883 
L 199.40034 189.662377 
L 202.447838 189.662377 
L 202.447838 185.939327 
L 207.019086 185.939327 
L 207.019086 183.280005 
L 211.590333 183.280005 
L 211.590333 187.53492 
L 217.685329 187.53492 
L 217.685329 191.25797 
L 222.256576 191.25797 
L 222.256576 182.748141 
L 228.351573 182.748141 
L 228.351573 176.365768 
L 231.399071 176.365768 
L 231.399071 174.770175 
L 234.446569 174.770175 
L 234.446569 170.51526 
L 239.017816 170.51526 
L 239.017816 159.346108 
L 242.065314 159.346108 
L 242.065314 162.537295 
L 245.112812 162.537295 
L 245.112812 151.368143 
L 248.160311 151.368143 
L 248.160311 141.26272 
L 251.207809 141.26272 
L 251.207809 129.561704 
L 254.255307 129.561704 
L 254.255307 111.478316 
L 258.826554 111.478316 
L 258.826554 106.159672 
L 263.397801 106.159672 
L 263.397801 81.162047 
L 264.92155 81.162047 
L 264.92155 82.75764 
L 267.969048 82.75764 
L 267.969048 80.098318 
L 274.064045 80.098318 
L 274.064045 88.608148 
L 280.159041 88.608148 
L 280.159041 99.245435 
L 284.730288 99.245435 
L 284.730288 89.671877 
L 290.825285 89.671877 
L 290.825285 77.970861 
L 293.872783 77.970861 
L 293.872783 74.779674 
L 299.967779 74.779674 
L 299.967779 69.461031 
L 306.062775 69.461031 
L 306.062775 79.566454 
L 312.157772 79.566454 
L 312.157772 63.610523 
L 316.729019 63.610523 
L 316.729019 63.610523 
" clip-path="url(#ped8ebc0cba)" style="fill: none; stroke: #cccccc; stroke-width: 1.5; stroke-linecap: square"/>
   </g>
   <g id="line2d_9">
    <path d="M 53.120429 246.04 
L 158.259115 246.04 
L 158.259115 230.615933 
L 161.306614 230.615933 
L 161.306614 234.870848 
L 167.40161 234.870848 
L 167.40161 235.402713 
L 170.449108 235.402713 
L 170.449108 235.402713 
L 175.020355 235.402713 
L 175.020355 231.679662 
L 179.591602 231.679662 
L 179.591602 231.679662 
L 184.16285 231.679662 
L 184.16285 235.402713 
L 190.257846 235.402713 
L 190.257846 235.402713 
L 196.352842 235.402713 
L 196.352842 238.593899 
L 199.40034 238.593899 
L 199.40034 217.319324 
L 202.447838 217.319324 
L 202.447838 199.235936 
L 207.019086 199.235936 
L 207.019086 202.958986 
L 211.590333 202.958986 
L 211.590333 194.981021 
L 217.685329 194.981021 
L 217.685329 200.299665 
L 222.256576 200.299665 
L 222.256576 194.449157 
L 228.351573 194.449157 
L 228.351573 194.449157 
L 231.399071 194.449157 
L 231.399071 188.066784 
L 234.446569 188.066784 
L 234.446569 188.066784 
L 239.017816 188.066784 
L 239.017816 155.091194 
L 242.065314 155.091194 
L 242.065314 164.132888 
L 245.112812 164.132888 
L 245.112812 160.941702 
L 248.160311 160.941702 
L 248.160311 155.091194 
L 251.207809 155.091194 
L 251.207809 118.392552 
L 254.255307 118.392552 
L 254.255307 118.392552 
L 258.826554 118.392552 
L 258.826554 102.968486 
L 263.397801 102.968486 
L 263.397801 88.076284 
L 264.92155 88.076284 
L 264.92155 79.034589 
L 267.969048 79.034589 
L 267.969048 66.801709 
L 274.064045 66.801709 
L 274.064045 66.801709 
L 280.159041 66.801709 
L 280.159041 45.527134 
L 284.730288 45.527134 
L 284.730288 42.335948 
L 290.825285 42.335948 
L 290.825285 45.527134 
L 293.872783 45.527134 
L 293.872783 45.527134 
L 299.967779 45.527134 
L 299.967779 39.144762 
L 306.062775 39.144762 
L 306.062775 48.71832 
L 312.157772 48.71832 
L 312.157772 39.144762 
L 316.729019 39.144762 
L 316.729019 39.144762 
" clip-path="url(#ped8ebc0cba)" style="fill: none; stroke: #4c4c4c; stroke-width: 1.5; stroke-linecap: square"/>
   </g>
   <g id="line2d_10">
    <path d="M 153.687868 246.04 
L 153.687868 28.8 
" clip-path="url(#ped8ebc0cba)" style="fill: none; stroke-dasharray: 1.5,2.475; stroke-dashoffset: 0; stroke: #4c4c4c; stroke-width: 1.5"/>
   </g>
   <g id="text_14">
    <!-- 38,9% kvinder i folketinget -->
    <g style="fill: #4c4c4c" transform="translate(319.776517 41.904137) scale(0.1 -0.1)">
     <defs>
      <path id="DejaVuSans-2c" d="M 750 794 
L 1409 794 
L 1409 256 
L 897 -744 
L 494 -744 
L 750 256 
L 750 794 
z
" transform="scale(0.015625)"/>
      <path id="DejaVuSans-20" transform="scale(0.015625)"/>
      <path id="DejaVuSans-6b" d="M 581 4863 
L 1159 4863 
L 1159 1991 
L 2875 3500 
L 3609 3500 
L 1753 1863 
L 3688 0 
L 2938 0 
L 1159 1709 
L 1159 0 
L 581 0 
L 581 4863 
z
" transform="scale(0.015625)"/>
      <path id="DejaVuSans-76" d="M 191 3500 
L 800 3500 
L 1894 563 
L 2988 3500 
L 3597 3500 
L 2284 0 
L 1503 0 
L 191 3500 
z
" transform="scale(0.015625)"/>
      <path id="DejaVuSans-69" d="M 603 3500 
L 1178 3500 
L 1178 0 
L 603 0 
L 603 3500 
z
M 603 4863 
L 1178 4863 
L 1178 4134 
L 603 4134 
L 603 4863 
z
" transform="scale(0.015625)"/>
      <path id="DejaVuSans-6e" d="M 3513 2113 
L 3513 0 
L 2938 0 
L 2938 2094 
Q 2938 2591 2744 2837 
Q 2550 3084 2163 3084 
Q 1697 3084 1428 2787 
Q 1159 2491 1159 1978 
L 1159 0 
L 581 0 
L 581 3500 
L 1159 3500 
L 1159 2956 
Q 1366 3272 1645 3428 
Q 1925 3584 2291 3584 
Q 2894 3584 3203 3211 
Q 3513 2838 3513 2113 
z
" transform="scale(0.015625)"/>
      <path id="DejaVuSans-64" d="M 2906 2969 
L 2906 4863 
L 3481 4863 
L 3481 0 
L 2906 0 
L 2906 525 
Q 2725 213 2448 61 
Q 2172 -91 1784 -91 
Q 1150 -91 751 415 
Q 353 922 353 1747 
Q 353 2572 751 3078 
Q 1150 3584 1784 3584 
Q 2172 3584 2448 3432 
Q 2725 3281 2906 2969 
z
M 947 1747 
Q 947 1113 1208 752 
Q 1469 391 1925 391 
Q 2381 391 2643 752 
Q 2906 1113 2906 1747 
Q 2906 2381 2643 2742 
Q 2381 3103 1925 3103 
Q 1469 3103 1208 2742 
Q 947 2381 947 1747 
z
" transform="scale(0.015625)"/>
      <path id="DejaVuSans-65" d="M 3597 1894 
L 3597 1613 
L 953 1613 
Q 991 1019 1311 708 
Q 1631 397 2203 397 
Q 2534 397 2845 478 
Q 3156 559 3463 722 
L 3463 178 
Q 3153 47 2828 -22 
Q 2503 -91 2169 -91 
Q 1331 -91 842 396 
Q 353 884 353 1716 
Q 353 2575 817 3079 
Q 1281 3584 2069 3584 
Q 2775 3584 3186 3129 
Q 3597 2675 3597 1894 
z
M 3022 2063 
Q 3016 2534 2758 2815 
Q 2500 3097 2075 3097 
Q 1594 3097 1305 2825 
Q 1016 2553 972 2059 
L 3022 2063 
z
" transform="scale(0.015625)"/>
      <path id="DejaVuSans-66" d="M 2375 4863 
L 2375 4384 
L 1825 4384 
Q 1516 4384 1395 4259 
Q 1275 4134 1275 3809 
L 1275 3500 
L 2222 3500 
L 2222 3053 
L 1275 3053 
L 1275 0 
L 697 0 
L 697 3053 
L 147 3053 
L 147 3500 
L 697 3500 
L 697 3744 
Q 697 4328 969 4595 
Q 1241 4863 1831 4863 
L 2375 4863 
z
" transform="scale(0.015625)"/>
      <path id="DejaVuSans-6f" d="M 1959 3097 
Q 1497 3097 1228 2736 
Q 959 2375 959 1747 
Q 959 1119 1226 758 
Q 1494 397 1959 397 
Q 2419 397 2687 759 
Q 2956 1122 2956 1747 
Q 2956 2369 2687 2733 
Q 2419 3097 1959 3097 
z
M 1959 3584 
Q 2709 3584 3137 3096 
Q 3566 2609 3566 1747 
Q 3566 888 3137 398 
Q 2709 -91 1959 -91 
Q 1206 -91 779 398 
Q 353 888 353 1747 
Q 353 2609 779 3096 
Q 1206 3584 1959 3584 
z
" transform="scale(0.015625)"/>
      <path id="DejaVuSans-6c" d="M 603 4863 
L 1178 4863 
L 1178 0 
L 603 0 
L 603 4863 
z
" transform="scale(0.015625)"/>
      <path id="DejaVuSans-74" d="M 1172 4494 
L 1172 3500 
L 2356 3500 
L 2356 3053 
L 1172 3053 
L 1172 1153 
Q 1172 725 1289 603 
Q 1406 481 1766 481 
L 2356 481 
L 2356 0 
L 1766 0 
Q 1100 0 847 248 
Q 594 497 594 1153 
L 594 3053 
L 172 3053 
L 172 3500 
L 594 3500 
L 594 4494 
L 1172 4494 
z
" transform="scale(0.015625)"/>
      <path id="DejaVuSans-67" d="M 2906 1791 
Q 2906 2416 2648 2759 
Q 2391 3103 1925 3103 
Q 1463 3103 1205 2759 
Q 947 2416 947 1791 
Q 947 1169 1205 825 
Q 1463 481 1925 481 
Q 2391 481 2648 825 
Q 2906 1169 2906 1791 
z
M 3481 434 
Q 3481 -459 3084 -895 
Q 2688 -1331 1869 -1331 
Q 1566 -1331 1297 -1286 
Q 1028 -1241 775 -1147 
L 775 -588 
Q 1028 -725 1275 -790 
Q 1522 -856 1778 -856 
Q 2344 -856 2625 -561 
Q 2906 -266 2906 331 
L 2906 616 
Q 2728 306 2450 153 
Q 2172 0 1784 0 
Q 1141 0 747 490 
Q 353 981 353 1791 
Q 353 2603 747 3093 
Q 1141 3584 1784 3584 
Q 2172 3584 2450 3431 
Q 2728 3278 2906 2969 
L 2906 3500 
L 3481 3500 
L 3481 434 
z
" transform="scale(0.015625)"/>
     </defs>
     <use xlink:href="#DejaVuSans-33"/>
     <use xlink:href="#DejaVuSans-38" x="63.623047"/>
     <use xlink:href="#DejaVuSans-2c" x="127.246094"/>
     <use xlink:href="#DejaVuSans-39" x="159.033203"/>
     <use xlink:href="#DejaVuSans-25" x="222.65625"/>
     <use xlink:href="#DejaVuSans-20" x="317.675781"/>
     <use xlink:href="#DejaVuSans-6b" x="349.462891"/>
     <use xlink:href="#DejaVuSans-76" x="407.373047"/>
     <use xlink:href="#DejaVuSans-69" x="466.552734"/>
     <use xlink:href="#DejaVuSans-6e" x="494.335938"/>
     <use xlink:href="#DejaVuSans-64" x="557.714844"/>
     <use xlink:href="#DejaVuSans-65" x="621.191406"/>
     <use xlink:href="#DejaVuSans-72" x="682.714844"/>
     <use xlink:href="#DejaVuSans-20" x="723.828125"/>
     <use xlink:href="#DejaVuSans-69" x="755.615234"/>
     <use xlink:href="#DejaVuSans-20" x="783.398438"/>
     <use xlink:href="#DejaVuSans-66" x="815.185547"/>
     <use xlink:href="#DejaVuSans-6f" x="850.390625"/>
     <use xlink:href="#DejaVuSans-6c" x="911.572266"/>
     <use xlink:href="#DejaVuSans-6b" x="939.355469"/>
     <use xlink:href="#DejaVuSans-65" x="993.640625"/>
     <use xlink:href="#DejaVuSans-74" x="1055.164062"/>
     <use xlink:href="#DejaVuSans-69" x="1094.373047"/>
     <use xlink:href="#DejaVuSans-6e" x="1122.15625"/>
     <use xlink:href="#DejaVuSans-67" x="1185.535156"/>
     <use xlink:href="#DejaVuSans-65" x="1249.011719"/>
     <use xlink:href="#DejaVuSans-74" x="1310.535156"/>
    </g>
   </g>
   <g id="text_15">
    <!-- 34,3% kvinder blandt kandidaterne -->
    <g style="fill: #999999" transform="translate(319.776517 66.369898) scale(0.1 -0.1)">
     <defs>
      <path id="DejaVuSans-62" d="M 3116 1747 
Q 3116 2381 2855 2742 
Q 2594 3103 2138 3103 
Q 1681 3103 1420 2742 
Q 1159 2381 1159 1747 
Q 1159 1113 1420 752 
Q 1681 391 2138 391 
Q 2594 391 2855 752 
Q 3116 1113 3116 1747 
z
M 1159 2969 
Q 1341 3281 1617 3432 
Q 1894 3584 2278 3584 
Q 2916 3584 3314 3078 
Q 3713 2572 3713 1747 
Q 3713 922 3314 415 
Q 2916 -91 2278 -91 
Q 1894 -91 1617 61 
Q 1341 213 1159 525 
L 1159 0 
L 581 0 
L 581 4863 
L 1159 4863 
L 1159 2969 
z
" transform="scale(0.015625)"/>
      <path id="DejaVuSans-61" d="M 2194 1759 
Q 1497 1759 1228 1600 
Q 959 1441 959 1056 
Q 959 750 1161 570 
Q 1363 391 1709 391 
Q 2188 391 2477 730 
Q 2766 1069 2766 1631 
L 2766 1759 
L 2194 1759 
z
M 3341 1997 
L 3341 0 
L 2766 0 
L 2766 531 
Q 2569 213 2275 61 
Q 1981 -91 1556 -91 
Q 1019 -91 701 211 
Q 384 513 384 1019 
Q 384 1609 779 1909 
Q 1175 2209 1959 2209 
L 2766 2209 
L 2766 2266 
Q 2766 2663 2505 2880 
Q 2244 3097 1772 3097 
Q 1472 3097 1187 3025 
Q 903 2953 641 2809 
L 641 3341 
Q 956 3463 1253 3523 
Q 1550 3584 1831 3584 
Q 2591 3584 2966 3190 
Q 3341 2797 3341 1997 
z
" transform="scale(0.015625)"/>
     </defs>
     <use xlink:href="#DejaVuSans-33"/>
     <use xlink:href="#DejaVuSans-34" x="63.623047"/>
     <use xlink:href="#DejaVuSans-2c" x="127.246094"/>
     <use xlink:href="#DejaVuSans-33" x="159.033203"/>
     <use xlink:href="#DejaVuSans-25" x="222.65625"/>
     <use xlink:href="#DejaVuSans-20" x="317.675781"/>
     <use xlink:href="#DejaVuSans-6b" x="349.462891"/>
     <use xlink:href="#DejaVuSans-76" x="407.373047"/>
     <use xlink:href="#DejaVuSans-69" x="466.552734"/>
     <use xlink:href="#DejaVuSans-6e" x="494.335938"/>
     <use xlink:href="#DejaVuSans-64" x="557.714844"/>
     <use xlink:href="#DejaVuSans-65" x="621.191406"/>
     <use xlink:href="#DejaVuSans-72" x="682.714844"/>
     <use xlink:href="#DejaVuSans-20" x="723.828125"/>
     <use xlink:href="#DejaVuSans-62" x="755.615234"/>
     <use xlink:href="#DejaVuSans-6c" x="819.091797"/>
     <use xlink:href="#DejaVuSans-61" x="846.875"/>
     <use xlink:href="#DejaVuSans-6e" x="908.154297"/>
     <use xlink:href="#DejaVuSans-64" x="971.533203"/>
     <use xlink:href="#DejaVuSans-74" x="1035.009766"/>
     <use xlink:href="#DejaVuSans-20" x="1074.21875"/>
     <use xlink:href="#DejaVuSans-6b" x="1106.005859"/>
     <use xlink:href="#DejaVuSans-61" x="1162.166016"/>
     <use xlink:href="#DejaVuSans-6e" x="1223.445312"/>
     <use xlink:href="#DejaVuSans-64" x="1286.824219"/>
     <use xlink:href="#DejaVuSans-69" x="1350.300781"/>
     <use xlink:href="#DejaVuSans-64" x="1378.083984"/>
     <use xlink:href="#DejaVuSans-61" x="1441.560547"/>
     <use xlink:href="#DejaVuSans-74" x="1502.839844"/>
     <use xlink:href="#DejaVuSans-65" x="1542.048828"/>
     <use xlink:href="#DejaVuSans-72" x="1603.572266"/>
     <use xlink:href="#DejaVuSans-6e" x="1642.935547"/>
     <use xlink:href="#DejaVuSans-65" x="1706.314453"/>
    </g>
   </g>
   <g id="text_16">
    <!-- 1915: kvinderne får stemme- og valgret -->
    <g style="fill: #4c4c4c" transform="translate(152.024118 219.805877) rotate(-90) scale(0.08 -0.08)">
     <defs>
      <path id="DejaVuSans-3a" d="M 750 794 
L 1409 794 
L 1409 0 
L 750 0 
L 750 794 
z
M 750 3309 
L 1409 3309 
L 1409 2516 
L 750 2516 
L 750 3309 
z
" transform="scale(0.015625)"/>
      <path id="DejaVuSans-e5" d="M 2194 1759 
Q 1497 1759 1228 1600 
Q 959 1441 959 1056 
Q 959 750 1161 570 
Q 1363 391 1709 391 
Q 2188 391 2477 730 
Q 2766 1069 2766 1631 
L 2766 1759 
L 2194 1759 
z
M 3341 1997 
L 3341 0 
L 2766 0 
L 2766 531 
Q 2569 213 2275 61 
Q 1981 -91 1556 -91 
Q 1019 -91 701 211 
Q 384 513 384 1019 
Q 384 1609 779 1909 
Q 1175 2209 1959 2209 
L 2766 2209 
L 2766 2266 
Q 2766 2663 2505 2880 
Q 2244 3097 1772 3097 
Q 1472 3097 1187 3025 
Q 903 2953 641 2809 
L 641 3341 
Q 956 3463 1253 3523 
Q 1550 3584 1831 3584 
Q 2591 3584 2966 3190 
Q 3341 2797 3341 1997 
z
M 2331 4763 
Q 2331 4959 2193 5096 
Q 2056 5234 1856 5234 
Q 1653 5234 1517 5098 
Q 1381 4963 1381 4763 
Q 1381 4559 1517 4423 
Q 1653 4288 1856 4288 
Q 2056 4288 2193 4425 
Q 2331 4563 2331 4763 
z
M 2712 4763 
Q 2712 4403 2463 4153 
Q 2215 3903 1856 3903 
Q 1497 3903 1248 4153 
Q 1000 4403 1000 4763 
Q 1000 5122 1248 5370 
Q 1497 5619 1856 5619 
Q 2215 5619 2463 5370 
Q 2712 5122 2712 4763 
z
" transform="scale(0.015625)"/>
      <path id="DejaVuSans-73" d="M 2834 3397 
L 2834 2853 
Q 2591 2978 2328 3040 
Q 2066 3103 1784 3103 
Q 1356 3103 1142 2972 
Q 928 2841 928 2578 
Q 928 2378 1081 2264 
Q 1234 2150 1697 2047 
L 1894 2003 
Q 2506 1872 2764 1633 
Q 3022 1394 3022 966 
Q 3022 478 2636 193 
Q 2250 -91 1575 -91 
Q 1294 -91 989 -36 
Q 684 19 347 128 
L 347 722 
Q 666 556 975 473 
Q 1284 391 1588 391 
Q 1994 391 2212 530 
Q 2431 669 2431 922 
Q 2431 1156 2273 1281 
Q 2116 1406 1581 1522 
L 1381 1569 
Q 847 1681 609 1914 
Q 372 2147 372 2553 
Q 372 3047 722 3315 
Q 1072 3584 1716 3584 
Q 2034 3584 2315 3537 
Q 2597 3491 2834 3397 
z
" transform="scale(0.015625)"/>
      <path id="DejaVuSans-6d" d="M 3328 2828 
Q 3544 3216 3844 3400 
Q 4144 3584 4550 3584 
Q 5097 3584 5394 3201 
Q 5691 2819 5691 2113 
L 5691 0 
L 5113 0 
L 5113 2094 
Q 5113 2597 4934 2840 
Q 4756 3084 4391 3084 
Q 3944 3084 3684 2787 
Q 3425 2491 3425 1978 
L 3425 0 
L 2847 0 
L 2847 2094 
Q 2847 2600 2669 2842 
Q 2491 3084 2119 3084 
Q 1678 3084 1418 2786 
Q 1159 2488 1159 1978 
L 1159 0 
L 581 0 
L 581 3500 
L 1159 3500 
L 1159 2956 
Q 1356 3278 1631 3431 
Q 1906 3584 2284 3584 
Q 2666 3584 2933 3390 
Q 3200 3197 3328 2828 
z
" transform="scale(0.015625)"/>
      <path id="DejaVuSans-2d" d="M 313 2009 
L 1997 2009 
L 1997 1497 
L 313 1497 
L 313 2009 
z
" transform="scale(0.015625)"/>
     </defs>
     <use xlink:href="#DejaVuSans-31"/>
     <use xlink:href="#DejaVuSans-39" x="63.623047"/>
     <use xlink:href="#DejaVuSans-31" x="127.246094"/>
     <use xlink:href="#DejaVuSans-35" x="190.869141"/>
     <use xlink:href="#DejaVuSans-3a" x="254.492188"/>
     <use xlink:href="#DejaVuSans-20" x="288.183594"/>
     <use xlink:href="#DejaVuSans-6b" x="319.970703"/>
     <use xlink:href="#DejaVuSans-76" x="377.880859"/>
     <use xlink:href="#DejaVuSans-69" x="437.060547"/>
     <use xlink:href="#DejaVuSans-6e" x="464.84375"/>
     <use xlink:href="#DejaVuSans-64" x="528.222656"/>
     <use xlink:href="#DejaVuSans-65" x="591.699219"/>
     <use xlink:href="#DejaVuSans-72" x="653.222656"/>
     <use xlink:href="#DejaVuSans-6e" x="692.585938"/>
     <use xlink:href="#DejaVuSans-65" x="755.964844"/>
     <use xlink:href="#DejaVuSans-20" x="817.488281"/>
     <use xlink:href="#DejaVuSans-66" x="849.275391"/>
     <use xlink:href="#DejaVuSans-e5" x="884.480469"/>
     <use xlink:href="#DejaVuSans-72" x="945.759766"/>
     <use xlink:href="#DejaVuSans-20" x="986.873047"/>
     <use xlink:href="#DejaVuSans-73" x="1018.660156"/>
     <use xlink:href="#DejaVuSans-74" x="1070.759766"/>
     <use xlink:href="#DejaVuSans-65" x="1109.96875"/>
     <use xlink:href="#DejaVuSans-6d" x="1171.492188"/>
     <use xlink:href="#DejaVuSans-6d" x="1268.904297"/>
     <use xlink:href="#DejaVuSans-65" x="1366.316406"/>
     <use xlink:href="#DejaVuSans-2d" x="1427.839844"/>
     <use xlink:href="#DejaVuSans-20" x="1463.923828"/>
     <use xlink:href="#DejaVuSans-6f" x="1495.710938"/>
     <use xlink:href="#DejaVuSans-67" x="1556.892578"/>
     <use xlink:href="#DejaVuSans-20" x="1620.369141"/>
     <use xlink:href="#DejaVuSans-76" x="1652.15625"/>
     <use xlink:href="#DejaVuSans-61" x="1711.335938"/>
     <use xlink:href="#DejaVuSans-6c" x="1772.615234"/>
     <use xlink:href="#DejaVuSans-67" x="1800.398438"/>
     <use xlink:href="#DejaVuSans-72" x="1863.875"/>
     <use xlink:href="#DejaVuSans-65" x="1902.738281"/>
     <use xlink:href="#DejaVuSans-74" x="1964.261719"/>
    </g>
   </g>
   <g id="patch_3">
    <path d="M 104.214815 230.056282 
Q 110.392707 234.879114 114.299988 243.206133 
" style="fill: none; stroke: #808080; stroke-linecap: round"/>
    <path d="M 114.389129 239.629535 
L 114.299988 243.206133 
L 111.492194 240.988862 
" style="fill: none; stroke: #808080; stroke-linecap: round"/>
   </g>
   <g id="text_17">
    <!-- Ret meget nul -->
    <g style="fill: #808080" transform="translate(44.036641 231.04) scale(0.08 -0.08)">
     <defs>
      <path id="DejaVuSans-52" d="M 2841 2188 
Q 3044 2119 3236 1894 
Q 3428 1669 3622 1275 
L 4263 0 
L 3584 0 
L 2988 1197 
Q 2756 1666 2539 1819 
Q 2322 1972 1947 1972 
L 1259 1972 
L 1259 0 
L 628 0 
L 628 4666 
L 2053 4666 
Q 2853 4666 3247 4331 
Q 3641 3997 3641 3322 
Q 3641 2881 3436 2590 
Q 3231 2300 2841 2188 
z
M 1259 4147 
L 1259 2491 
L 2053 2491 
Q 2509 2491 2742 2702 
Q 2975 2913 2975 3322 
Q 2975 3731 2742 3939 
Q 2509 4147 2053 4147 
L 1259 4147 
z
" transform="scale(0.015625)"/>
      <path id="DejaVuSans-75" d="M 544 1381 
L 544 3500 
L 1119 3500 
L 1119 1403 
Q 1119 906 1312 657 
Q 1506 409 1894 409 
Q 2359 409 2629 706 
Q 2900 1003 2900 1516 
L 2900 3500 
L 3475 3500 
L 3475 0 
L 2900 0 
L 2900 538 
Q 2691 219 2414 64 
Q 2138 -91 1772 -91 
Q 1169 -91 856 284 
Q 544 659 544 1381 
z
M 1991 3584 
L 1991 3584 
z
" transform="scale(0.015625)"/>
     </defs>
     <use xlink:href="#DejaVuSans-52"/>
     <use xlink:href="#DejaVuSans-65" x="64.982422"/>
     <use xlink:href="#DejaVuSans-74" x="126.505859"/>
     <use xlink:href="#DejaVuSans-20" x="165.714844"/>
     <use xlink:href="#DejaVuSans-6d" x="197.501953"/>
     <use xlink:href="#DejaVuSans-65" x="294.914062"/>
     <use xlink:href="#DejaVuSans-67" x="356.4375"/>
     <use xlink:href="#DejaVuSans-65" x="419.914062"/>
     <use xlink:href="#DejaVuSans-74" x="481.4375"/>
     <use xlink:href="#DejaVuSans-20" x="520.646484"/>
     <use xlink:href="#DejaVuSans-6e" x="552.433594"/>
     <use xlink:href="#DejaVuSans-75" x="615.8125"/>
     <use xlink:href="#DejaVuSans-6c" x="679.191406"/>
    </g>
   </g>
   <g id="patch_4">
    <path d="M 195.727299 145.656281 
Q 166.928886 184.031992 167.361744 232.285041 
" style="fill: none; stroke: #808080; stroke-linecap: round"/>
    <path d="M 168.932975 229.070818 
L 167.361744 232.285041 
L 165.733104 229.099522 
" style="fill: none; stroke: #808080; stroke-linecap: round"/>
   </g>
   <g id="text_18">
    <!-- Den første -->
    <g style="fill: #808080" transform="translate(167.40161 131.444463) scale(0.08 -0.08)">
     <defs>
      <path id="DejaVuSans-44" d="M 1259 4147 
L 1259 519 
L 2022 519 
Q 2988 519 3436 956 
Q 3884 1394 3884 2338 
Q 3884 3275 3436 3711 
Q 2988 4147 2022 4147 
L 1259 4147 
z
M 628 4666 
L 1925 4666 
Q 3281 4666 3915 4102 
Q 4550 3538 4550 2338 
Q 4550 1131 3912 565 
Q 3275 0 1925 0 
L 628 0 
L 628 4666 
z
" transform="scale(0.015625)"/>
      <path id="DejaVuSans-f8" d="M 2828 2503 
L 1306 653 
Q 1434 522 1595 459 
Q 1756 397 1959 397 
Q 2419 397 2687 759 
Q 2956 1122 2956 1747 
Q 2956 1994 2925 2176 
Q 2894 2359 2828 2503 
z
M 2606 2841 
Q 2475 2969 2314 3033 
Q 2153 3097 1959 3097 
Q 1488 3097 1223 2730 
Q 959 2363 959 1703 
Q 959 1478 989 1306 
Q 1019 1134 1081 991 
L 2606 2841 
z
M 691 519 
Q 522 759 437 1067 
Q 353 1375 353 1747 
Q 353 2609 779 3096 
Q 1206 3584 1959 3584 
Q 2250 3584 2498 3504 
Q 2747 3425 2956 3263 
L 3391 3788 
L 3688 3541 
L 3231 2981 
Q 3397 2741 3481 2431 
Q 3566 2122 3566 1747 
Q 3566 888 3137 398 
Q 2709 -91 1959 -91 
Q 1659 -91 1407 -9 
Q 1156 72 959 231 
L 525 -294 
L 225 -50 
L 691 519 
z
" transform="scale(0.015625)"/>
     </defs>
     <use xlink:href="#DejaVuSans-44"/>
     <use xlink:href="#DejaVuSans-65" x="77.001953"/>
     <use xlink:href="#DejaVuSans-6e" x="138.525391"/>
     <use xlink:href="#DejaVuSans-20" x="201.904297"/>
     <use xlink:href="#DejaVuSans-66" x="233.691406"/>
     <use xlink:href="#DejaVuSans-f8" x="268.896484"/>
     <use xlink:href="#DejaVuSans-72" x="330.078125"/>
     <use xlink:href="#DejaVuSans-73" x="371.191406"/>
     <use xlink:href="#DejaVuSans-74" x="423.291016"/>
     <use xlink:href="#DejaVuSans-65" x="462.5"/>
    </g>
    <!-- kvindelige minister -->
    <g style="fill: #808080" transform="translate(167.40161 140.402713) scale(0.08 -0.08)">
     <use xlink:href="#DejaVuSans-6b"/>
     <use xlink:href="#DejaVuSans-76" x="57.910156"/>
     <use xlink:href="#DejaVuSans-69" x="117.089844"/>
     <use xlink:href="#DejaVuSans-6e" x="144.873047"/>
     <use xlink:href="#DejaVuSans-64" x="208.251953"/>
     <use xlink:href="#DejaVuSans-65" x="271.728516"/>
     <use xlink:href="#DejaVuSans-6c" x="333.251953"/>
     <use xlink:href="#DejaVuSans-69" x="361.035156"/>
     <use xlink:href="#DejaVuSans-67" x="388.818359"/>
     <use xlink:href="#DejaVuSans-65" x="452.294922"/>
     <use xlink:href="#DejaVuSans-20" x="513.818359"/>
     <use xlink:href="#DejaVuSans-6d" x="545.605469"/>
     <use xlink:href="#DejaVuSans-69" x="643.017578"/>
     <use xlink:href="#DejaVuSans-6e" x="670.800781"/>
     <use xlink:href="#DejaVuSans-69" x="734.179688"/>
     <use xlink:href="#DejaVuSans-73" x="761.962891"/>
     <use xlink:href="#DejaVuSans-74" x="814.0625"/>
     <use xlink:href="#DejaVuSans-65" x="853.271484"/>
     <use xlink:href="#DejaVuSans-72" x="914.794922"/>
    </g>
   </g>
   <g id="patch_5">
    <path d="M 312.6639 120.218754 
Q 300.939929 85.676995 300.046504 50.260105 
" style="fill: none; stroke: #808080; stroke-linecap: round"/>
    <path d="M 298.52771 53.499436 
L 300.046504 50.260105 
L 301.726693 53.418739 
" style="fill: none; stroke: #808080; stroke-linecap: round"/>
   </g>
   <g id="text_19">
    <!-- Den første kvindelige -->
    <g style="fill: #808080" transform="translate(274.396529 130.186512) scale(0.08 -0.08)">
     <use xlink:href="#DejaVuSans-44"/>
     <use xlink:href="#DejaVuSans-65" x="77.001953"/>
     <use xlink:href="#DejaVuSans-6e" x="138.525391"/>
     <use xlink:href="#DejaVuSans-20" x="201.904297"/>
     <use xlink:href="#DejaVuSans-66" x="233.691406"/>
     <use xlink:href="#DejaVuSans-f8" x="268.896484"/>
     <use xlink:href="#DejaVuSans-72" x="330.078125"/>
     <use xlink:href="#DejaVuSans-73" x="371.191406"/>
     <use xlink:href="#DejaVuSans-74" x="423.291016"/>
     <use xlink:href="#DejaVuSans-65" x="462.5"/>
     <use xlink:href="#DejaVuSans-20" x="524.023438"/>
     <use xlink:href="#DejaVuSans-6b" x="555.810547"/>
     <use xlink:href="#DejaVuSans-76" x="613.720703"/>
     <use xlink:href="#DejaVuSans-69" x="672.900391"/>
     <use xlink:href="#DejaVuSans-6e" x="700.683594"/>
     <use xlink:href="#DejaVuSans-64" x="764.0625"/>
     <use xlink:href="#DejaVuSans-65" x="827.539062"/>
     <use xlink:href="#DejaVuSans-6c" x="889.0625"/>
     <use xlink:href="#DejaVuSans-69" x="916.845703"/>
     <use xlink:href="#DejaVuSans-67" x="944.628906"/>
     <use xlink:href="#DejaVuSans-65" x="1008.105469"/>
    </g>
    <!-- statsminister -->
    <g style="fill: #808080" transform="translate(307.635279 139.144762) scale(0.08 -0.08)">
     <use xlink:href="#DejaVuSans-73"/>
     <use xlink:href="#DejaVuSans-74" x="52.099609"/>
     <use xlink:href="#DejaVuSans-61" x="91.308594"/>
     <use xlink:href="#DejaVuSans-74" x="152.587891"/>
     <use xlink:href="#DejaVuSans-73" x="191.796875"/>
     <use xlink:href="#DejaVuSans-6d" x="243.896484"/>
     <use xlink:href="#DejaVuSans-69" x="341.308594"/>
     <use xlink:href="#DejaVuSans-6e" x="369.091797"/>
     <use xlink:href="#DejaVuSans-69" x="432.470703"/>
     <use xlink:href="#DejaVuSans-73" x="460.253906"/>
     <use xlink:href="#DejaVuSans-74" x="512.353516"/>
     <use xlink:href="#DejaVuSans-65" x="551.5625"/>
     <use xlink:href="#DejaVuSans-72" x="613.085938"/>
    </g>
   </g>
  </g>
  <g id="text_20">
   <!-- Andelen af kvinder er stagneret de seneste 20 år -->
   <g transform="translate(10.08 17.28) scale(0.14 -0.14)">
    <defs>
     <path id="DejaVuSans-41" d="M 2188 4044 
L 1331 1722 
L 3047 1722 
L 2188 4044 
z
M 1831 4666 
L 2547 4666 
L 4325 0 
L 3669 0 
L 3244 1197 
L 1141 1197 
L 716 0 
L 50 0 
L 1831 4666 
z
" transform="scale(0.015625)"/>
    </defs>
    <use xlink:href="#DejaVuSans-41"/>
    <use xlink:href="#DejaVuSans-6e" x="68.408203"/>
    <use xlink:href="#DejaVuSans-64" x="131.787109"/>
    <use xlink:href="#DejaVuSans-65" x="195.263672"/>
    <use xlink:href="#DejaVuSans-6c" x="256.787109"/>
    <use xlink:href="#DejaVuSans-65" x="284.570312"/>
    <use xlink:href="#DejaVuSans-6e" x="346.09375"/>
    <use xlink:href="#DejaVuSans-20" x="409.472656"/>
    <use xlink:href="#DejaVuSans-61" x="441.259766"/>
    <use xlink:href="#DejaVuSans-66" x="502.539062"/>
    <use xlink:href="#DejaVuSans-20" x="537.744141"/>
    <use xlink:href="#DejaVuSans-6b" x="569.53125"/>
    <use xlink:href="#DejaVuSans-76" x="627.441406"/>
    <use xlink:href="#DejaVuSans-69" x="686.621094"/>
    <use xlink:href="#DejaVuSans-6e" x="714.404297"/>
    <use xlink:href="#DejaVuSans-64" x="777.783203"/>
    <use xlink:href="#DejaVuSans-65" x="841.259766"/>
    <use xlink:href="#DejaVuSans-72" x="902.783203"/>
    <use xlink:href="#DejaVuSans-20" x="943.896484"/>
    <use xlink:href="#DejaVuSans-65" x="975.683594"/>
    <use xlink:href="#DejaVuSans-72" x="1037.207031"/>
    <use xlink:href="#DejaVuSans-20" x="1078.320312"/>
    <use xlink:href="#DejaVuSans-73" x="1110.107422"/>
    <use xlink:href="#DejaVuSans-74" x="1162.207031"/>
    <use xlink:href="#DejaVuSans-61" x="1201.416016"/>
    <use xlink:href="#DejaVuSans-67" x="1262.695312"/>
    <use xlink:href="#DejaVuSans-6e" x="1326.171875"/>
    <use xlink:href="#DejaVuSans-65" x="1389.550781"/>
    <use xlink:href="#DejaVuSans-72" x="1451.074219"/>
    <use xlink:href="#DejaVuSans-65" x="1489.9375"/>
    <use xlink:href="#DejaVuSans-74" x="1551.460938"/>
    <use xlink:href="#DejaVuSans-20" x="1590.669922"/>
    <use xlink:href="#DejaVuSans-64" x="1622.457031"/>
    <use xlink:href="#DejaVuSans-65" x="1685.933594"/>
    <use xlink:href="#DejaVuSans-20" x="1747.457031"/>
    <use xlink:href="#DejaVuSans-73" x="1779.244141"/>
    <use xlink:href="#DejaVuSans-65" x="1831.34375"/>
    <use xlink:href="#DejaVuSans-6e" x="1892.867188"/>
    <use xlink:href="#DejaVuSans-65" x="1956.246094"/>
    <use xlink:href="#DejaVuSans-73" x="2017.769531"/>
    <use xlink:href="#DejaVuSans-74" x="2069.869141"/>
    <use xlink:href="#DejaVuSans-65" x="2109.078125"/>
    <use xlink:href="#DejaVuSans-20" x="2170.601562"/>
    <use xlink:href="#DejaVuSans-32" x="2202.388672"/>
    <use xlink:href="#DejaVuSans-30" x="2266.011719"/>
    <use xlink:href="#DejaVuSans-20" x="2329.634766"/>
    <use xlink:href="#DejaVuSans-e5" x="2361.421875"/>
    <use xlink:href="#DejaVuSans-72" x="2422.701172"/>
   </g>
  </g>
 </g>
 <defs>
  <clipPath id="ped8ebc0cba">
   <rect x="39.94" y="28.8" width="289.969448" height="217.24"/>
  </clipPath>
 </defs>
</svg>
