<?xml version="1.0" encoding="utf-8" standalone="no"?>
<!DOCTYPE svg PUBLIC "-//W3C//DTD SVG 1.1//EN"
  "http://www.w3.org/Graphics/SVG/1.1/DTD/svg11.dtd">
<svg xmlns:xlink="http://www.w3.org/1999/xlink" width="360pt" height="288pt" viewBox="0 0 360 288" xmlns="http://www.w3.org/2000/svg" version="1.1">
 <metadata>
  <rdf:RDF xmlns:dc="http://purl.org/dc/elements/1.1/" xmlns:cc="http://creativecommons.org/ns#" xmlns:rdf="http://www.w3.org/1999/02/22-rdf-syntax-ns#">
   <cc:Work>
    <dc:type rdf:resource="http://purl.org/dc/dcmitype/StillImage"/>
    <dc:date>2022-10-30T09:29:42.517452</dc:date>
    <dc:format>image/svg+xml</dc:format>
    <dc:creator>
     <cc:Agent>
      <dc:title>Matplotlib v3.6.1, https://matplotlib.org/</dc:title>
     </cc:Agent>
    </dc:creator>
   </cc:Work>
  </rdf:RDF>
 </metadata>
 <defs>
  <style type="text/css">*{stroke-linejoin: round; stroke-linecap: butt}</style>
 </defs>
 <g id="figure_1">
  <g id="patch_1">
   <path d="M 0 288 
L 360 288 
L 360 0 
L 0 0 
z
" style="fill: #ffffff"/>
  </g>
  <g id="axes_1">
   <g id="patch_2">
    <path d="M 86.917597 248.456 
L 346.266818 248.456 
L 346.266818 28.8 
L 86.917597 28.8 
z
" style="fill: #ffffff"/>
   </g>
   <g id="patch_3">
    <path d="M 114.310907 161.668839 
Q 119.109683 161.668839 122.790424 161.668839 
" style="fill: none; stroke: #4c4c4c; stroke-linecap: round"/>
    <path d="M 118.790424 159.668839 
L 122.790424 161.668839 
L 118.790424 163.668839 
" style="fill: none; stroke: #4c4c4c; stroke-linecap: round"/>
   </g>
   <g id="patch_4">
    <path d="M 135.247806 146.30828 
Q 133.258356 146.30828 132.386939 146.30828 
" style="fill: none; stroke: #ff0000; stroke-linecap: round"/>
    <path d="M 136.386939 148.30828 
L 132.386939 146.30828 
L 136.386939 144.30828 
" style="fill: none; stroke: #ff0000; stroke-linecap: round"/>
   </g>
   <g id="patch_5">
    <path d="M 228.756405 130.94772 
Q 234.305721 130.94772 238.737004 130.94772 
" style="fill: none; stroke: #4c4c4c; stroke-linecap: round"/>
    <path d="M 234.737004 128.94772 
L 238.737004 130.94772 
L 234.737004 132.94772 
" style="fill: none; stroke: #4c4c4c; stroke-linecap: round"/>
   </g>
   <g id="patch_6">
    <path d="M 218.589494 115.587161 
Q 245.045631 115.587161 270.383735 115.587161 
" style="fill: none; stroke: #4c4c4c; stroke-linecap: round"/>
    <path d="M 266.383735 113.587161 
L 270.383735 115.587161 
L 266.383735 117.587161 
" style="fill: none; stroke: #4c4c4c; stroke-linecap: round"/>
   </g>
   <g id="patch_7">
    <path d="M 257.410336 100.226601 
Q 267.929028 100.226601 277.329686 100.226601 
" style="fill: none; stroke: #4c4c4c; stroke-linecap: round"/>
    <path d="M 273.329686 98.226601 
L 277.329686 100.226601 
L 273.329686 102.226601 
" style="fill: none; stroke: #4c4c4c; stroke-linecap: round"/>
   </g>
   <g id="patch_8">
    <path d="M 273.849559 84.866042 
Q 279.588289 84.866042 284.208984 84.866042 
" style="fill: none; stroke: #4c4c4c; stroke-linecap: round"/>
    <path d="M 280.208984 82.866042 
L 284.208984 84.866042 
L 280.208984 86.866042 
" style="fill: none; stroke: #4c4c4c; stroke-linecap: round"/>
   </g>
   <g id="patch_9">
    <path d="M 286.464926 69.505483 
Q 291.609371 69.505483 295.635782 69.505483 
" style="fill: none; stroke: #4c4c4c; stroke-linecap: round"/>
    <path d="M 291.635782 67.505483 
L 295.635782 69.505483 
L 291.635782 71.505483 
" style="fill: none; stroke: #4c4c4c; stroke-linecap: round"/>
   </g>
   <g id="patch_10">
    <path d="M 297.797938 54.144923 
Q 298.850633 54.144923 298.785294 54.144923 
" style="fill: none; stroke: #4c4c4c; stroke-linecap: round"/>
    <path d="M 294.785294 52.144923 
L 298.785294 54.144923 
L 294.785294 56.144923 
" style="fill: none; stroke: #4c4c4c; stroke-linecap: round"/>
   </g>
   <g id="patch_11">
    <path d="M 313.808647 38.784364 
Q 323.143007 38.784364 331.359333 38.784364 
" style="fill: none; stroke: #4c4c4c; stroke-linecap: round"/>
    <path d="M 327.359333 36.784364 
L 331.359333 38.784364 
L 327.359333 40.784364 
" style="fill: none; stroke: #4c4c4c; stroke-linecap: round"/>
   </g>
   <g id="PathCollection_1">
    <defs>
     <path id="m9e4c422c48" d="M 0 3 
C 0.795609 3 1.55874 2.683901 2.12132 2.12132 
C 2.683901 1.55874 3 0.795609 3 0 
C 3 -0.795609 2.683901 -1.55874 2.12132 -2.12132 
C 1.55874 -2.683901 0.795609 -3 0 -3 
C -0.795609 -3 -1.55874 -2.683901 -2.12132 -2.12132 
C -2.683901 -1.55874 -3 -0.795609 -3 0 
C -3 0.795609 -2.683901 1.55874 -2.12132 2.12132 
C -1.55874 2.683901 -0.795609 3 0 3 
z
" style="stroke: #4c4c4c"/>
    </defs>
    <g clip-path="url(#p25c91ceb51)">
     <use xlink:href="#m9e4c422c48" x="98.706198" y="238.471636" style="fill: #e50000; stroke: #4c4c4c"/>
    </g>
   </g>
   <g id="PathCollection_2">
    <defs>
     <path id="m2e95302899" d="M 0 3 
C 0.795609 3 1.55874 2.683901 2.12132 2.12132 
C 2.683901 1.55874 3 0.795609 3 0 
C 3 -0.795609 2.683901 -1.55874 2.12132 -2.12132 
C 1.55874 -2.683901 0.795609 -3 0 -3 
C -0.795609 -3 -1.55874 -2.683901 -2.12132 -2.12132 
C -2.683901 -1.55874 -3 -0.795609 -3 0 
C -3 0.795609 -2.683901 1.55874 -2.12132 2.12132 
C -1.55874 2.683901 -0.795609 3 0 3 
z
" style="stroke: #4c4c4c"/>
    </defs>
    <g clip-path="url(#p25c91ceb51)">
     <use xlink:href="#m2e95302899" x="100.299253" y="238.471636" style="fill: #75bbfd; stroke: #4c4c4c"/>
    </g>
   </g>
   <g id="PathCollection_3">
    <g clip-path="url(#p25c91ceb51)">
     <use xlink:href="#m9e4c422c48" x="98.706198" y="223.111077" style="fill: #e50000; stroke: #4c4c4c"/>
    </g>
   </g>
   <g id="PathCollection_4">
    <g clip-path="url(#p25c91ceb51)">
     <use xlink:href="#m2e95302899" x="103.329179" y="223.111077" style="fill: #75bbfd; stroke: #4c4c4c"/>
    </g>
   </g>
   <g id="PathCollection_5">
    <g clip-path="url(#p25c91ceb51)">
     <use xlink:href="#m9e4c422c48" x="114.424333" y="207.750517" style="fill: #e50000; stroke: #4c4c4c"/>
    </g>
   </g>
   <g id="PathCollection_6">
    <g clip-path="url(#p25c91ceb51)">
     <use xlink:href="#m2e95302899" x="112.740247" y="207.750517" style="fill: #75bbfd; stroke: #4c4c4c"/>
    </g>
   </g>
   <g id="PathCollection_7">
    <g clip-path="url(#p25c91ceb51)">
     <use xlink:href="#m9e4c422c48" x="115.547057" y="192.389958" style="fill: #e50000; stroke: #4c4c4c"/>
    </g>
   </g>
   <g id="PathCollection_8">
    <g clip-path="url(#p25c91ceb51)">
     <use xlink:href="#m2e95302899" x="120.809825" y="192.389958" style="fill: #75bbfd; stroke: #4c4c4c"/>
    </g>
   </g>
   <g id="PathCollection_9">
    <g clip-path="url(#p25c91ceb51)">
     <use xlink:href="#m9e4c422c48" x="117.862675" y="177.029399" style="fill: #e50000; stroke: #4c4c4c"/>
    </g>
   </g>
   <g id="PathCollection_10">
    <g clip-path="url(#p25c91ceb51)">
     <use xlink:href="#m2e95302899" x="117.612445" y="177.029399" style="fill: #75bbfd; stroke: #4c4c4c"/>
    </g>
   </g>
   <g id="PathCollection_11">
    <g clip-path="url(#p25c91ceb51)">
     <use xlink:href="#m9e4c422c48" x="125.910662" y="161.668839" style="fill: #e50000; stroke: #4c4c4c"/>
    </g>
   </g>
   <g id="PathCollection_12">
    <g clip-path="url(#p25c91ceb51)">
     <use xlink:href="#m2e95302899" x="112.30843" y="161.668839" style="fill: #75bbfd; stroke: #4c4c4c"/>
    </g>
   </g>
   <g id="PathCollection_13">
    <g clip-path="url(#p25c91ceb51)">
     <use xlink:href="#m9e4c422c48" x="129.269238" y="146.30828" style="fill: #e50000; stroke: #4c4c4c"/>
    </g>
   </g>
   <g id="PathCollection_14">
    <g clip-path="url(#p25c91ceb51)">
     <use xlink:href="#m2e95302899" x="137.245855" y="146.30828" style="fill: #75bbfd; stroke: #4c4c4c"/>
    </g>
   </g>
   <g id="PathCollection_15">
    <g clip-path="url(#p25c91ceb51)">
     <use xlink:href="#m9e4c422c48" x="241.853496" y="130.94772" style="fill: #e50000; stroke: #4c4c4c"/>
    </g>
   </g>
   <g id="PathCollection_16">
    <g clip-path="url(#p25c91ceb51)">
     <use xlink:href="#m2e95302899" x="226.754795" y="130.94772" style="fill: #75bbfd; stroke: #4c4c4c"/>
    </g>
   </g>
   <g id="PathCollection_17">
    <g clip-path="url(#p25c91ceb51)">
     <use xlink:href="#m9e4c422c48" x="273.502695" y="115.587161" style="fill: #e50000; stroke: #4c4c4c"/>
    </g>
   </g>
   <g id="PathCollection_18">
    <g clip-path="url(#p25c91ceb51)">
     <use xlink:href="#m2e95302899" x="216.592208" y="115.587161" style="fill: #75bbfd; stroke: #4c4c4c"/>
    </g>
   </g>
   <g id="PathCollection_19">
    <g clip-path="url(#p25c91ceb51)">
     <use xlink:href="#m9e4c422c48" x="280.44713" y="100.226601" style="fill: #e50000; stroke: #4c4c4c"/>
    </g>
   </g>
   <g id="PathCollection_20">
    <g clip-path="url(#p25c91ceb51)">
     <use xlink:href="#m2e95302899" x="255.408333" y="100.226601" style="fill: #75bbfd; stroke: #4c4c4c"/>
    </g>
   </g>
   <g id="PathCollection_21">
    <g clip-path="url(#p25c91ceb51)">
     <use xlink:href="#m9e4c422c48" x="287.323813" y="84.866042" style="fill: #e50000; stroke: #4c4c4c"/>
    </g>
   </g>
   <g id="PathCollection_22">
    <g clip-path="url(#p25c91ceb51)">
     <use xlink:href="#m2e95302899" x="271.851275" y="84.866042" style="fill: #75bbfd; stroke: #4c4c4c"/>
    </g>
   </g>
   <g id="PathCollection_23">
    <g clip-path="url(#p25c91ceb51)">
     <use xlink:href="#m9e4c422c48" x="298.755184" y="69.505483" style="fill: #e50000; stroke: #4c4c4c"/>
    </g>
   </g>
   <g id="PathCollection_24">
    <g clip-path="url(#p25c91ceb51)">
     <use xlink:href="#m2e95302899" x="284.465971" y="69.505483" style="fill: #75bbfd; stroke: #4c4c4c"/>
    </g>
   </g>
   <g id="PathCollection_25">
    <g clip-path="url(#p25c91ceb51)">
     <use xlink:href="#m9e4c422c48" x="301.904451" y="54.144923" style="fill: #e50000; stroke: #4c4c4c"/>
    </g>
   </g>
   <g id="PathCollection_26">
    <g clip-path="url(#p25c91ceb51)">
     <use xlink:href="#m2e95302899" x="295.79687" y="54.144923" style="fill: #75bbfd; stroke: #4c4c4c"/>
    </g>
   </g>
   <g id="PathCollection_27">
    <g clip-path="url(#p25c91ceb51)">
     <use xlink:href="#m9e4c422c48" x="334.478217" y="38.784364" style="fill: #e50000; stroke: #4c4c4c"/>
    </g>
   </g>
   <g id="PathCollection_28">
    <g clip-path="url(#p25c91ceb51)">
     <use xlink:href="#m2e95302899" x="311.807831" y="38.784364" style="fill: #75bbfd; stroke: #4c4c4c"/>
    </g>
   </g>
   <g id="matplotlib.axis_1">
    <g id="xtick_1">
     <g id="line2d_1">
      <path d="M 98.706198 248.456 
L 98.706198 28.8 
" clip-path="url(#p25c91ceb51)" style="fill: none; stroke-dasharray: 0.8,1.32; stroke-dashoffset: 0; stroke: #b0b0b0; stroke-width: 0.8"/>
     </g>
     <g id="text_1">
      <!-- Meget -->
      <g transform="translate(83.104636 263.054438) scale(0.1 -0.1)">
       <defs>
        <path id="DejaVuSans-4d" d="M 628 4666 
L 1569 4666 
L 2759 1491 
L 3956 4666 
L 4897 4666 
L 4897 0 
L 4281 0 
L 4281 4097 
L 3078 897 
L 2444 897 
L 1241 4097 
L 1241 0 
L 628 0 
L 628 4666 
z
" transform="scale(0.015625)"/>
        <path id="DejaVuSans-65" d="M 3597 1894 
L 3597 1613 
L 953 1613 
Q 991 1019 1311 708 
Q 1631 397 2203 397 
Q 2534 397 2845 478 
Q 3156 559 3463 722 
L 3463 178 
Q 3153 47 2828 -22 
Q 2503 -91 2169 -91 
Q 1331 -91 842 396 
Q 353 884 353 1716 
Q 353 2575 817 3079 
Q 1281 3584 2069 3584 
Q 2775 3584 3186 3129 
Q 3597 2675 3597 1894 
z
M 3022 2063 
Q 3016 2534 2758 2815 
Q 2500 3097 2075 3097 
Q 1594 3097 1305 2825 
Q 1016 2553 972 2059 
L 3022 2063 
z
" transform="scale(0.015625)"/>
        <path id="DejaVuSans-67" d="M 2906 1791 
Q 2906 2416 2648 2759 
Q 2391 3103 1925 3103 
Q 1463 3103 1205 2759 
Q 947 2416 947 1791 
Q 947 1169 1205 825 
Q 1463 481 1925 481 
Q 2391 481 2648 825 
Q 2906 1169 2906 1791 
z
M 3481 434 
Q 3481 -459 3084 -895 
Q 2688 -1331 1869 -1331 
Q 1566 -1331 1297 -1286 
Q 1028 -1241 775 -1147 
L 775 -588 
Q 1028 -725 1275 -790 
Q 1522 -856 1778 -856 
Q 2344 -856 2625 -561 
Q 2906 -266 2906 331 
L 2906 616 
Q 2728 306 2450 153 
Q 2172 0 1784 0 
Q 1141 0 747 490 
Q 353 981 353 1791 
Q 353 2603 747 3093 
Q 1141 3584 1784 3584 
Q 2172 3584 2450 3431 
Q 2728 3278 2906 2969 
L 2906 3500 
L 3481 3500 
L 3481 434 
z
" transform="scale(0.015625)"/>
        <path id="DejaVuSans-74" d="M 1172 4494 
L 1172 3500 
L 2356 3500 
L 2356 3053 
L 1172 3053 
L 1172 1153 
Q 1172 725 1289 603 
Q 1406 481 1766 481 
L 2356 481 
L 2356 0 
L 1766 0 
Q 1100 0 847 248 
Q 594 497 594 1153 
L 594 3053 
L 172 3053 
L 172 3500 
L 594 3500 
L 594 4494 
L 1172 4494 
z
" transform="scale(0.015625)"/>
       </defs>
       <use xlink:href="#DejaVuSans-4d"/>
       <use xlink:href="#DejaVuSans-65" x="86.279297"/>
       <use xlink:href="#DejaVuSans-67" x="147.802734"/>
       <use xlink:href="#DejaVuSans-65" x="211.279297"/>
       <use xlink:href="#DejaVuSans-74" x="272.802734"/>
      </g>
      <!-- uenig -->
      <g transform="translate(84.728855 274.25225) scale(0.1 -0.1)">
       <defs>
        <path id="DejaVuSans-75" d="M 544 1381 
L 544 3500 
L 1119 3500 
L 1119 1403 
Q 1119 906 1312 657 
Q 1506 409 1894 409 
Q 2359 409 2629 706 
Q 2900 1003 2900 1516 
L 2900 3500 
L 3475 3500 
L 3475 0 
L 2900 0 
L 2900 538 
Q 2691 219 2414 64 
Q 2138 -91 1772 -91 
Q 1169 -91 856 284 
Q 544 659 544 1381 
z
M 1991 3584 
L 1991 3584 
z
" transform="scale(0.015625)"/>
        <path id="DejaVuSans-6e" d="M 3513 2113 
L 3513 0 
L 2938 0 
L 2938 2094 
Q 2938 2591 2744 2837 
Q 2550 3084 2163 3084 
Q 1697 3084 1428 2787 
Q 1159 2491 1159 1978 
L 1159 0 
L 581 0 
L 581 3500 
L 1159 3500 
L 1159 2956 
Q 1366 3272 1645 3428 
Q 1925 3584 2291 3584 
Q 2894 3584 3203 3211 
Q 3513 2838 3513 2113 
z
" transform="scale(0.015625)"/>
        <path id="DejaVuSans-69" d="M 603 3500 
L 1178 3500 
L 1178 0 
L 603 0 
L 603 3500 
z
M 603 4863 
L 1178 4863 
L 1178 4134 
L 603 4134 
L 603 4863 
z
" transform="scale(0.015625)"/>
       </defs>
       <use xlink:href="#DejaVuSans-75"/>
       <use xlink:href="#DejaVuSans-65" x="63.378906"/>
       <use xlink:href="#DejaVuSans-6e" x="124.902344"/>
       <use xlink:href="#DejaVuSans-69" x="188.28125"/>
       <use xlink:href="#DejaVuSans-67" x="216.064453"/>
      </g>
     </g>
    </g>
    <g id="xtick_2">
     <g id="line2d_2">
      <path d="M 157.649203 248.456 
L 157.649203 28.8 
" clip-path="url(#p25c91ceb51)" style="fill: none; stroke-dasharray: 0.8,1.32; stroke-dashoffset: 0; stroke: #b0b0b0; stroke-width: 0.8"/>
     </g>
     <g id="text_2">
      <!-- Lidt -->
      <g transform="translate(148.339828 263.054438) scale(0.1 -0.1)">
       <defs>
        <path id="DejaVuSans-4c" d="M 628 4666 
L 1259 4666 
L 1259 531 
L 3531 531 
L 3531 0 
L 628 0 
L 628 4666 
z
" transform="scale(0.015625)"/>
        <path id="DejaVuSans-64" d="M 2906 2969 
L 2906 4863 
L 3481 4863 
L 3481 0 
L 2906 0 
L 2906 525 
Q 2725 213 2448 61 
Q 2172 -91 1784 -91 
Q 1150 -91 751 415 
Q 353 922 353 1747 
Q 353 2572 751 3078 
Q 1150 3584 1784 3584 
Q 2172 3584 2448 3432 
Q 2725 3281 2906 2969 
z
M 947 1747 
Q 947 1113 1208 752 
Q 1469 391 1925 391 
Q 2381 391 2643 752 
Q 2906 1113 2906 1747 
Q 2906 2381 2643 2742 
Q 2381 3103 1925 3103 
Q 1469 3103 1208 2742 
Q 947 2381 947 1747 
z
" transform="scale(0.015625)"/>
       </defs>
       <use xlink:href="#DejaVuSans-4c"/>
       <use xlink:href="#DejaVuSans-69" x="55.712891"/>
       <use xlink:href="#DejaVuSans-64" x="83.496094"/>
       <use xlink:href="#DejaVuSans-74" x="146.972656"/>
      </g>
      <!-- uenig -->
      <g transform="translate(143.671859 274.25225) scale(0.1 -0.1)">
       <use xlink:href="#DejaVuSans-75"/>
       <use xlink:href="#DejaVuSans-65" x="63.378906"/>
       <use xlink:href="#DejaVuSans-6e" x="124.902344"/>
       <use xlink:href="#DejaVuSans-69" x="188.28125"/>
       <use xlink:href="#DejaVuSans-67" x="216.064453"/>
      </g>
     </g>
    </g>
    <g id="xtick_3">
     <g id="line2d_3">
      <path d="M 216.592208 248.456 
L 216.592208 28.8 
" clip-path="url(#p25c91ceb51)" style="fill: none; stroke-dasharray: 0.8,1.32; stroke-dashoffset: 0; stroke: #b0b0b0; stroke-width: 0.8"/>
     </g>
     <g id="text_3">
      <!-- Hverken -->
      <g transform="translate(195.78127 263.054438) scale(0.1 -0.1)">
       <defs>
        <path id="DejaVuSans-48" d="M 628 4666 
L 1259 4666 
L 1259 2753 
L 3553 2753 
L 3553 4666 
L 4184 4666 
L 4184 0 
L 3553 0 
L 3553 2222 
L 1259 2222 
L 1259 0 
L 628 0 
L 628 4666 
z
" transform="scale(0.015625)"/>
        <path id="DejaVuSans-76" d="M 191 3500 
L 800 3500 
L 1894 563 
L 2988 3500 
L 3597 3500 
L 2284 0 
L 1503 0 
L 191 3500 
z
" transform="scale(0.015625)"/>
        <path id="DejaVuSans-72" d="M 2631 2963 
Q 2534 3019 2420 3045 
Q 2306 3072 2169 3072 
Q 1681 3072 1420 2755 
Q 1159 2438 1159 1844 
L 1159 0 
L 581 0 
L 581 3500 
L 1159 3500 
L 1159 2956 
Q 1341 3275 1631 3429 
Q 1922 3584 2338 3584 
Q 2397 3584 2469 3576 
Q 2541 3569 2628 3553 
L 2631 2963 
z
" transform="scale(0.015625)"/>
        <path id="DejaVuSans-6b" d="M 581 4863 
L 1159 4863 
L 1159 1991 
L 2875 3500 
L 3609 3500 
L 1753 1863 
L 3688 0 
L 2938 0 
L 1159 1709 
L 1159 0 
L 581 0 
L 581 4863 
z
" transform="scale(0.015625)"/>
       </defs>
       <use xlink:href="#DejaVuSans-48"/>
       <use xlink:href="#DejaVuSans-76" x="75.195312"/>
       <use xlink:href="#DejaVuSans-65" x="134.375"/>
       <use xlink:href="#DejaVuSans-72" x="195.898438"/>
       <use xlink:href="#DejaVuSans-6b" x="237.011719"/>
       <use xlink:href="#DejaVuSans-65" x="291.296875"/>
       <use xlink:href="#DejaVuSans-6e" x="352.820312"/>
      </g>
      <!-- eller -->
      <g transform="translate(205.605489 274.25225) scale(0.1 -0.1)">
       <defs>
        <path id="DejaVuSans-6c" d="M 603 4863 
L 1178 4863 
L 1178 0 
L 603 0 
L 603 4863 
z
" transform="scale(0.015625)"/>
       </defs>
       <use xlink:href="#DejaVuSans-65"/>
       <use xlink:href="#DejaVuSans-6c" x="61.523438"/>
       <use xlink:href="#DejaVuSans-6c" x="89.306641"/>
       <use xlink:href="#DejaVuSans-65" x="117.089844"/>
       <use xlink:href="#DejaVuSans-72" x="178.613281"/>
      </g>
     </g>
    </g>
    <g id="xtick_4">
     <g id="line2d_4">
      <path d="M 275.535213 248.456 
L 275.535213 28.8 
" clip-path="url(#p25c91ceb51)" style="fill: none; stroke-dasharray: 0.8,1.32; stroke-dashoffset: 0; stroke: #b0b0b0; stroke-width: 0.8"/>
     </g>
     <g id="text_4">
      <!-- Lidt -->
      <g transform="translate(266.225838 263.054438) scale(0.1 -0.1)">
       <use xlink:href="#DejaVuSans-4c"/>
       <use xlink:href="#DejaVuSans-69" x="55.712891"/>
       <use xlink:href="#DejaVuSans-64" x="83.496094"/>
       <use xlink:href="#DejaVuSans-74" x="146.972656"/>
      </g>
      <!-- enig -->
      <g transform="translate(264.726619 274.25225) scale(0.1 -0.1)">
       <use xlink:href="#DejaVuSans-65"/>
       <use xlink:href="#DejaVuSans-6e" x="61.523438"/>
       <use xlink:href="#DejaVuSans-69" x="124.902344"/>
       <use xlink:href="#DejaVuSans-67" x="152.685547"/>
      </g>
     </g>
    </g>
    <g id="xtick_5">
     <g id="line2d_5">
      <path d="M 334.478217 248.456 
L 334.478217 28.8 
" clip-path="url(#p25c91ceb51)" style="fill: none; stroke-dasharray: 0.8,1.32; stroke-dashoffset: 0; stroke: #b0b0b0; stroke-width: 0.8"/>
     </g>
     <g id="text_5">
      <!-- Meget -->
      <g transform="translate(318.876655 263.054438) scale(0.1 -0.1)">
       <use xlink:href="#DejaVuSans-4d"/>
       <use xlink:href="#DejaVuSans-65" x="86.279297"/>
       <use xlink:href="#DejaVuSans-67" x="147.802734"/>
       <use xlink:href="#DejaVuSans-65" x="211.279297"/>
       <use xlink:href="#DejaVuSans-74" x="272.802734"/>
      </g>
      <!-- enig -->
      <g transform="translate(323.669623 274.25225) scale(0.1 -0.1)">
       <use xlink:href="#DejaVuSans-65"/>
       <use xlink:href="#DejaVuSans-6e" x="61.523438"/>
       <use xlink:href="#DejaVuSans-69" x="124.902344"/>
       <use xlink:href="#DejaVuSans-67" x="152.685547"/>
      </g>
     </g>
    </g>
   </g>
   <g id="matplotlib.axis_2"/>
   <g id="text_6">
    <!-- Nye Borgerlige -->
    <g style="fill: #840000" transform="translate(33.947578 240.679136) scale(0.08 -0.08)">
     <defs>
      <path id="DejaVuSans-4e" d="M 628 4666 
L 1478 4666 
L 3547 763 
L 3547 4666 
L 4159 4666 
L 4159 0 
L 3309 0 
L 1241 3903 
L 1241 0 
L 628 0 
L 628 4666 
z
" transform="scale(0.015625)"/>
      <path id="DejaVuSans-79" d="M 2059 -325 
Q 1816 -950 1584 -1140 
Q 1353 -1331 966 -1331 
L 506 -1331 
L 506 -850 
L 844 -850 
Q 1081 -850 1212 -737 
Q 1344 -625 1503 -206 
L 1606 56 
L 191 3500 
L 800 3500 
L 1894 763 
L 2988 3500 
L 3597 3500 
L 2059 -325 
z
" transform="scale(0.015625)"/>
      <path id="DejaVuSans-20" transform="scale(0.015625)"/>
      <path id="DejaVuSans-42" d="M 1259 2228 
L 1259 519 
L 2272 519 
Q 2781 519 3026 730 
Q 3272 941 3272 1375 
Q 3272 1813 3026 2020 
Q 2781 2228 2272 2228 
L 1259 2228 
z
M 1259 4147 
L 1259 2741 
L 2194 2741 
Q 2656 2741 2882 2914 
Q 3109 3088 3109 3444 
Q 3109 3797 2882 3972 
Q 2656 4147 2194 4147 
L 1259 4147 
z
M 628 4666 
L 2241 4666 
Q 2963 4666 3353 4366 
Q 3744 4066 3744 3513 
Q 3744 3084 3544 2831 
Q 3344 2578 2956 2516 
Q 3422 2416 3680 2098 
Q 3938 1781 3938 1306 
Q 3938 681 3513 340 
Q 3088 0 2303 0 
L 628 0 
L 628 4666 
z
" transform="scale(0.015625)"/>
      <path id="DejaVuSans-6f" d="M 1959 3097 
Q 1497 3097 1228 2736 
Q 959 2375 959 1747 
Q 959 1119 1226 758 
Q 1494 397 1959 397 
Q 2419 397 2687 759 
Q 2956 1122 2956 1747 
Q 2956 2369 2687 2733 
Q 2419 3097 1959 3097 
z
M 1959 3584 
Q 2709 3584 3137 3096 
Q 3566 2609 3566 1747 
Q 3566 888 3137 398 
Q 2709 -91 1959 -91 
Q 1206 -91 779 398 
Q 353 888 353 1747 
Q 353 2609 779 3096 
Q 1206 3584 1959 3584 
z
" transform="scale(0.015625)"/>
     </defs>
     <use xlink:href="#DejaVuSans-4e"/>
     <use xlink:href="#DejaVuSans-79" x="74.804688"/>
     <use xlink:href="#DejaVuSans-65" x="133.984375"/>
     <use xlink:href="#DejaVuSans-20" x="195.507812"/>
     <use xlink:href="#DejaVuSans-42" x="227.294922"/>
     <use xlink:href="#DejaVuSans-6f" x="295.898438"/>
     <use xlink:href="#DejaVuSans-72" x="357.080078"/>
     <use xlink:href="#DejaVuSans-67" x="396.443359"/>
     <use xlink:href="#DejaVuSans-65" x="459.919922"/>
     <use xlink:href="#DejaVuSans-72" x="521.443359"/>
     <use xlink:href="#DejaVuSans-6c" x="562.556641"/>
     <use xlink:href="#DejaVuSans-69" x="590.339844"/>
     <use xlink:href="#DejaVuSans-67" x="618.123047"/>
     <use xlink:href="#DejaVuSans-65" x="681.599609"/>
    </g>
   </g>
   <g id="text_7">
    <!-- Liberal Alliance -->
    <g style="fill: #840000" transform="translate(32.330078 225.318577) scale(0.08 -0.08)">
     <defs>
      <path id="DejaVuSans-62" d="M 3116 1747 
Q 3116 2381 2855 2742 
Q 2594 3103 2138 3103 
Q 1681 3103 1420 2742 
Q 1159 2381 1159 1747 
Q 1159 1113 1420 752 
Q 1681 391 2138 391 
Q 2594 391 2855 752 
Q 3116 1113 3116 1747 
z
M 1159 2969 
Q 1341 3281 1617 3432 
Q 1894 3584 2278 3584 
Q 2916 3584 3314 3078 
Q 3713 2572 3713 1747 
Q 3713 922 3314 415 
Q 2916 -91 2278 -91 
Q 1894 -91 1617 61 
Q 1341 213 1159 525 
L 1159 0 
L 581 0 
L 581 4863 
L 1159 4863 
L 1159 2969 
z
" transform="scale(0.015625)"/>
      <path id="DejaVuSans-61" d="M 2194 1759 
Q 1497 1759 1228 1600 
Q 959 1441 959 1056 
Q 959 750 1161 570 
Q 1363 391 1709 391 
Q 2188 391 2477 730 
Q 2766 1069 2766 1631 
L 2766 1759 
L 2194 1759 
z
M 3341 1997 
L 3341 0 
L 2766 0 
L 2766 531 
Q 2569 213 2275 61 
Q 1981 -91 1556 -91 
Q 1019 -91 701 211 
Q 384 513 384 1019 
Q 384 1609 779 1909 
Q 1175 2209 1959 2209 
L 2766 2209 
L 2766 2266 
Q 2766 2663 2505 2880 
Q 2244 3097 1772 3097 
Q 1472 3097 1187 3025 
Q 903 2953 641 2809 
L 641 3341 
Q 956 3463 1253 3523 
Q 1550 3584 1831 3584 
Q 2591 3584 2966 3190 
Q 3341 2797 3341 1997 
z
" transform="scale(0.015625)"/>
      <path id="DejaVuSans-41" d="M 2188 4044 
L 1331 1722 
L 3047 1722 
L 2188 4044 
z
M 1831 4666 
L 2547 4666 
L 4325 0 
L 3669 0 
L 3244 1197 
L 1141 1197 
L 716 0 
L 50 0 
L 1831 4666 
z
" transform="scale(0.015625)"/>
      <path id="DejaVuSans-63" d="M 3122 3366 
L 3122 2828 
Q 2878 2963 2633 3030 
Q 2388 3097 2138 3097 
Q 1578 3097 1268 2742 
Q 959 2388 959 1747 
Q 959 1106 1268 751 
Q 1578 397 2138 397 
Q 2388 397 2633 464 
Q 2878 531 3122 666 
L 3122 134 
Q 2881 22 2623 -34 
Q 2366 -91 2075 -91 
Q 1284 -91 818 406 
Q 353 903 353 1747 
Q 353 2603 823 3093 
Q 1294 3584 2113 3584 
Q 2378 3584 2631 3529 
Q 2884 3475 3122 3366 
z
" transform="scale(0.015625)"/>
     </defs>
     <use xlink:href="#DejaVuSans-4c"/>
     <use xlink:href="#DejaVuSans-69" x="55.712891"/>
     <use xlink:href="#DejaVuSans-62" x="83.496094"/>
     <use xlink:href="#DejaVuSans-65" x="146.972656"/>
     <use xlink:href="#DejaVuSans-72" x="208.496094"/>
     <use xlink:href="#DejaVuSans-61" x="249.609375"/>
     <use xlink:href="#DejaVuSans-6c" x="310.888672"/>
     <use xlink:href="#DejaVuSans-20" x="338.671875"/>
     <use xlink:href="#DejaVuSans-41" x="370.458984"/>
     <use xlink:href="#DejaVuSans-6c" x="438.867188"/>
     <use xlink:href="#DejaVuSans-6c" x="466.650391"/>
     <use xlink:href="#DejaVuSans-69" x="494.433594"/>
     <use xlink:href="#DejaVuSans-61" x="522.216797"/>
     <use xlink:href="#DejaVuSans-6e" x="583.496094"/>
     <use xlink:href="#DejaVuSans-63" x="646.875"/>
     <use xlink:href="#DejaVuSans-65" x="701.855469"/>
    </g>
   </g>
   <g id="text_8">
    <!-- Danmarksdemokraterne -->
    <g style="fill: #666666" transform="translate(9.806627 209.958017) scale(0.08 -0.08)">
     <defs>
      <path id="DejaVuSans-44" d="M 1259 4147 
L 1259 519 
L 2022 519 
Q 2988 519 3436 956 
Q 3884 1394 3884 2338 
Q 3884 3275 3436 3711 
Q 2988 4147 2022 4147 
L 1259 4147 
z
M 628 4666 
L 1925 4666 
Q 3281 4666 3915 4102 
Q 4550 3538 4550 2338 
Q 4550 1131 3912 565 
Q 3275 0 1925 0 
L 628 0 
L 628 4666 
z
" transform="scale(0.015625)"/>
      <path id="DejaVuSans-6d" d="M 3328 2828 
Q 3544 3216 3844 3400 
Q 4144 3584 4550 3584 
Q 5097 3584 5394 3201 
Q 5691 2819 5691 2113 
L 5691 0 
L 5113 0 
L 5113 2094 
Q 5113 2597 4934 2840 
Q 4756 3084 4391 3084 
Q 3944 3084 3684 2787 
Q 3425 2491 3425 1978 
L 3425 0 
L 2847 0 
L 2847 2094 
Q 2847 2600 2669 2842 
Q 2491 3084 2119 3084 
Q 1678 3084 1418 2786 
Q 1159 2488 1159 1978 
L 1159 0 
L 581 0 
L 581 3500 
L 1159 3500 
L 1159 2956 
Q 1356 3278 1631 3431 
Q 1906 3584 2284 3584 
Q 2666 3584 2933 3390 
Q 3200 3197 3328 2828 
z
" transform="scale(0.015625)"/>
      <path id="DejaVuSans-73" d="M 2834 3397 
L 2834 2853 
Q 2591 2978 2328 3040 
Q 2066 3103 1784 3103 
Q 1356 3103 1142 2972 
Q 928 2841 928 2578 
Q 928 2378 1081 2264 
Q 1234 2150 1697 2047 
L 1894 2003 
Q 2506 1872 2764 1633 
Q 3022 1394 3022 966 
Q 3022 478 2636 193 
Q 2250 -91 1575 -91 
Q 1294 -91 989 -36 
Q 684 19 347 128 
L 347 722 
Q 666 556 975 473 
Q 1284 391 1588 391 
Q 1994 391 2212 530 
Q 2431 669 2431 922 
Q 2431 1156 2273 1281 
Q 2116 1406 1581 1522 
L 1381 1569 
Q 847 1681 609 1914 
Q 372 2147 372 2553 
Q 372 3047 722 3315 
Q 1072 3584 1716 3584 
Q 2034 3584 2315 3537 
Q 2597 3491 2834 3397 
z
" transform="scale(0.015625)"/>
     </defs>
     <use xlink:href="#DejaVuSans-44"/>
     <use xlink:href="#DejaVuSans-61" x="77.001953"/>
     <use xlink:href="#DejaVuSans-6e" x="138.28125"/>
     <use xlink:href="#DejaVuSans-6d" x="201.660156"/>
     <use xlink:href="#DejaVuSans-61" x="299.072266"/>
     <use xlink:href="#DejaVuSans-72" x="360.351562"/>
     <use xlink:href="#DejaVuSans-6b" x="401.464844"/>
     <use xlink:href="#DejaVuSans-73" x="459.375"/>
     <use xlink:href="#DejaVuSans-64" x="511.474609"/>
     <use xlink:href="#DejaVuSans-65" x="574.951172"/>
     <use xlink:href="#DejaVuSans-6d" x="636.474609"/>
     <use xlink:href="#DejaVuSans-6f" x="733.886719"/>
     <use xlink:href="#DejaVuSans-6b" x="795.068359"/>
     <use xlink:href="#DejaVuSans-72" x="852.978516"/>
     <use xlink:href="#DejaVuSans-61" x="894.091797"/>
     <use xlink:href="#DejaVuSans-74" x="955.371094"/>
     <use xlink:href="#DejaVuSans-65" x="994.580078"/>
     <use xlink:href="#DejaVuSans-72" x="1056.103516"/>
     <use xlink:href="#DejaVuSans-6e" x="1095.466797"/>
     <use xlink:href="#DejaVuSans-65" x="1158.845703"/>
    </g>
   </g>
   <g id="text_9">
    <!-- Dansk Folkeparti -->
    <g style="fill: #840000" transform="translate(43.444686 194.597458) scale(0.08 -0.08)">
     <defs>
      <path id="DejaVuSans-46" d="M 628 4666 
L 3309 4666 
L 3309 4134 
L 1259 4134 
L 1259 2759 
L 3109 2759 
L 3109 2228 
L 1259 2228 
L 1259 0 
L 628 0 
L 628 4666 
z
" transform="scale(0.015625)"/>
      <path id="DejaVuSans-70" d="M 1159 525 
L 1159 -1331 
L 581 -1331 
L 581 3500 
L 1159 3500 
L 1159 2969 
Q 1341 3281 1617 3432 
Q 1894 3584 2278 3584 
Q 2916 3584 3314 3078 
Q 3713 2572 3713 1747 
Q 3713 922 3314 415 
Q 2916 -91 2278 -91 
Q 1894 -91 1617 61 
Q 1341 213 1159 525 
z
M 3116 1747 
Q 3116 2381 2855 2742 
Q 2594 3103 2138 3103 
Q 1681 3103 1420 2742 
Q 1159 2381 1159 1747 
Q 1159 1113 1420 752 
Q 1681 391 2138 391 
Q 2594 391 2855 752 
Q 3116 1113 3116 1747 
z
" transform="scale(0.015625)"/>
     </defs>
     <use xlink:href="#DejaVuSans-44"/>
     <use xlink:href="#DejaVuSans-61" x="77.001953"/>
     <use xlink:href="#DejaVuSans-6e" x="138.28125"/>
     <use xlink:href="#DejaVuSans-73" x="201.660156"/>
     <use xlink:href="#DejaVuSans-6b" x="253.759766"/>
     <use xlink:href="#DejaVuSans-20" x="311.669922"/>
     <use xlink:href="#DejaVuSans-46" x="343.457031"/>
     <use xlink:href="#DejaVuSans-6f" x="397.351562"/>
     <use xlink:href="#DejaVuSans-6c" x="458.533203"/>
     <use xlink:href="#DejaVuSans-6b" x="486.316406"/>
     <use xlink:href="#DejaVuSans-65" x="540.601562"/>
     <use xlink:href="#DejaVuSans-70" x="602.125"/>
     <use xlink:href="#DejaVuSans-61" x="665.601562"/>
     <use xlink:href="#DejaVuSans-72" x="726.880859"/>
     <use xlink:href="#DejaVuSans-74" x="767.994141"/>
     <use xlink:href="#DejaVuSans-69" x="807.203125"/>
    </g>
   </g>
   <g id="text_10">
    <!-- Konservative -->
    <g style="fill: #666666" transform="translate(60.463825 179.236899) scale(0.08 -0.08)">
     <defs>
      <path id="DejaVuSans-4b" d="M 628 4666 
L 1259 4666 
L 1259 2694 
L 3353 4666 
L 4166 4666 
L 1850 2491 
L 4331 0 
L 3500 0 
L 1259 2247 
L 1259 0 
L 628 0 
L 628 4666 
z
" transform="scale(0.015625)"/>
     </defs>
     <use xlink:href="#DejaVuSans-4b"/>
     <use xlink:href="#DejaVuSans-6f" x="60.576172"/>
     <use xlink:href="#DejaVuSans-6e" x="121.757812"/>
     <use xlink:href="#DejaVuSans-73" x="185.136719"/>
     <use xlink:href="#DejaVuSans-65" x="237.236328"/>
     <use xlink:href="#DejaVuSans-72" x="298.759766"/>
     <use xlink:href="#DejaVuSans-76" x="339.873047"/>
     <use xlink:href="#DejaVuSans-61" x="399.052734"/>
     <use xlink:href="#DejaVuSans-74" x="460.332031"/>
     <use xlink:href="#DejaVuSans-69" x="499.541016"/>
     <use xlink:href="#DejaVuSans-76" x="527.324219"/>
     <use xlink:href="#DejaVuSans-65" x="586.503906"/>
    </g>
   </g>
   <g id="text_11">
    <!-- Kristendemokraterne -->
    <g style="fill: #666666" transform="translate(22.23731 163.876339) scale(0.08 -0.08)">
     <use xlink:href="#DejaVuSans-4b"/>
     <use xlink:href="#DejaVuSans-72" x="65.576172"/>
     <use xlink:href="#DejaVuSans-69" x="106.689453"/>
     <use xlink:href="#DejaVuSans-73" x="134.472656"/>
     <use xlink:href="#DejaVuSans-74" x="186.572266"/>
     <use xlink:href="#DejaVuSans-65" x="225.78125"/>
     <use xlink:href="#DejaVuSans-6e" x="287.304688"/>
     <use xlink:href="#DejaVuSans-64" x="350.683594"/>
     <use xlink:href="#DejaVuSans-65" x="414.160156"/>
     <use xlink:href="#DejaVuSans-6d" x="475.683594"/>
     <use xlink:href="#DejaVuSans-6f" x="573.095703"/>
     <use xlink:href="#DejaVuSans-6b" x="634.277344"/>
     <use xlink:href="#DejaVuSans-72" x="692.1875"/>
     <use xlink:href="#DejaVuSans-61" x="733.300781"/>
     <use xlink:href="#DejaVuSans-74" x="794.580078"/>
     <use xlink:href="#DejaVuSans-65" x="833.789062"/>
     <use xlink:href="#DejaVuSans-72" x="895.3125"/>
     <use xlink:href="#DejaVuSans-6e" x="934.675781"/>
     <use xlink:href="#DejaVuSans-65" x="998.054688"/>
    </g>
   </g>
   <g id="text_12">
    <!-- Venstre -->
    <g style="fill: #840000" transform="translate(93.784367 148.51578) scale(0.08 -0.08)">
     <defs>
      <path id="DejaVuSans-56" d="M 1831 0 
L 50 4666 
L 709 4666 
L 2188 738 
L 3669 4666 
L 4325 4666 
L 2547 0 
L 1831 0 
z
" transform="scale(0.015625)"/>
     </defs>
     <use xlink:href="#DejaVuSans-56"/>
     <use xlink:href="#DejaVuSans-65" x="60.658203"/>
     <use xlink:href="#DejaVuSans-6e" x="122.181641"/>
     <use xlink:href="#DejaVuSans-73" x="185.560547"/>
     <use xlink:href="#DejaVuSans-74" x="237.660156"/>
     <use xlink:href="#DejaVuSans-72" x="276.869141"/>
     <use xlink:href="#DejaVuSans-65" x="315.732422"/>
    </g>
   </g>
   <g id="text_13">
    <!-- Moderaterne -->
    <g style="fill: #666666" transform="translate(170.259924 133.15522) scale(0.08 -0.08)">
     <use xlink:href="#DejaVuSans-4d"/>
     <use xlink:href="#DejaVuSans-6f" x="86.279297"/>
     <use xlink:href="#DejaVuSans-64" x="147.460938"/>
     <use xlink:href="#DejaVuSans-65" x="210.9375"/>
     <use xlink:href="#DejaVuSans-72" x="272.460938"/>
     <use xlink:href="#DejaVuSans-61" x="313.574219"/>
     <use xlink:href="#DejaVuSans-74" x="374.853516"/>
     <use xlink:href="#DejaVuSans-65" x="414.0625"/>
     <use xlink:href="#DejaVuSans-72" x="475.585938"/>
     <use xlink:href="#DejaVuSans-6e" x="514.949219"/>
     <use xlink:href="#DejaVuSans-65" x="578.328125"/>
    </g>
   </g>
   <g id="text_14">
    <!-- Socialdemokratiet -->
    <g style="fill: #666666" transform="translate(138.637337 117.794661) scale(0.08 -0.08)">
     <defs>
      <path id="DejaVuSans-53" d="M 3425 4513 
L 3425 3897 
Q 3066 4069 2747 4153 
Q 2428 4238 2131 4238 
Q 1616 4238 1336 4038 
Q 1056 3838 1056 3469 
Q 1056 3159 1242 3001 
Q 1428 2844 1947 2747 
L 2328 2669 
Q 3034 2534 3370 2195 
Q 3706 1856 3706 1288 
Q 3706 609 3251 259 
Q 2797 -91 1919 -91 
Q 1588 -91 1214 -16 
Q 841 59 441 206 
L 441 856 
Q 825 641 1194 531 
Q 1563 422 1919 422 
Q 2459 422 2753 634 
Q 3047 847 3047 1241 
Q 3047 1584 2836 1778 
Q 2625 1972 2144 2069 
L 1759 2144 
Q 1053 2284 737 2584 
Q 422 2884 422 3419 
Q 422 4038 858 4394 
Q 1294 4750 2059 4750 
Q 2388 4750 2728 4690 
Q 3069 4631 3425 4513 
z
" transform="scale(0.015625)"/>
     </defs>
     <use xlink:href="#DejaVuSans-53"/>
     <use xlink:href="#DejaVuSans-6f" x="63.476562"/>
     <use xlink:href="#DejaVuSans-63" x="124.658203"/>
     <use xlink:href="#DejaVuSans-69" x="179.638672"/>
     <use xlink:href="#DejaVuSans-61" x="207.421875"/>
     <use xlink:href="#DejaVuSans-6c" x="268.701172"/>
     <use xlink:href="#DejaVuSans-64" x="296.484375"/>
     <use xlink:href="#DejaVuSans-65" x="359.960938"/>
     <use xlink:href="#DejaVuSans-6d" x="421.484375"/>
     <use xlink:href="#DejaVuSans-6f" x="518.896484"/>
     <use xlink:href="#DejaVuSans-6b" x="580.078125"/>
     <use xlink:href="#DejaVuSans-72" x="637.988281"/>
     <use xlink:href="#DejaVuSans-61" x="679.101562"/>
     <use xlink:href="#DejaVuSans-74" x="740.380859"/>
     <use xlink:href="#DejaVuSans-69" x="779.589844"/>
     <use xlink:href="#DejaVuSans-65" x="807.373047"/>
     <use xlink:href="#DejaVuSans-74" x="868.896484"/>
    </g>
   </g>
   <g id="text_15">
    <!-- Radikale -->
    <g style="fill: #666666" transform="translate(215.980962 102.434101) scale(0.08 -0.08)">
     <defs>
      <path id="DejaVuSans-52" d="M 2841 2188 
Q 3044 2119 3236 1894 
Q 3428 1669 3622 1275 
L 4263 0 
L 3584 0 
L 2988 1197 
Q 2756 1666 2539 1819 
Q 2322 1972 1947 1972 
L 1259 1972 
L 1259 0 
L 628 0 
L 628 4666 
L 2053 4666 
Q 2853 4666 3247 4331 
Q 3641 3997 3641 3322 
Q 3641 2881 3436 2590 
Q 3231 2300 2841 2188 
z
M 1259 4147 
L 1259 2491 
L 2053 2491 
Q 2509 2491 2742 2702 
Q 2975 2913 2975 3322 
Q 2975 3731 2742 3939 
Q 2509 4147 2053 4147 
L 1259 4147 
z
" transform="scale(0.015625)"/>
     </defs>
     <use xlink:href="#DejaVuSans-52"/>
     <use xlink:href="#DejaVuSans-61" x="67.232422"/>
     <use xlink:href="#DejaVuSans-64" x="128.511719"/>
     <use xlink:href="#DejaVuSans-69" x="191.988281"/>
     <use xlink:href="#DejaVuSans-6b" x="219.771484"/>
     <use xlink:href="#DejaVuSans-61" x="275.931641"/>
     <use xlink:href="#DejaVuSans-6c" x="337.210938"/>
     <use xlink:href="#DejaVuSans-65" x="364.994141"/>
    </g>
   </g>
   <g id="text_16">
    <!-- Alternativet -->
    <g style="fill: #666666" transform="translate(219.518904 87.073542) scale(0.08 -0.08)">
     <use xlink:href="#DejaVuSans-41"/>
     <use xlink:href="#DejaVuSans-6c" x="68.408203"/>
     <use xlink:href="#DejaVuSans-74" x="96.191406"/>
     <use xlink:href="#DejaVuSans-65" x="135.400391"/>
     <use xlink:href="#DejaVuSans-72" x="196.923828"/>
     <use xlink:href="#DejaVuSans-6e" x="236.287109"/>
     <use xlink:href="#DejaVuSans-61" x="299.666016"/>
     <use xlink:href="#DejaVuSans-74" x="360.945312"/>
     <use xlink:href="#DejaVuSans-69" x="400.154297"/>
     <use xlink:href="#DejaVuSans-76" x="427.9375"/>
     <use xlink:href="#DejaVuSans-65" x="487.117188"/>
     <use xlink:href="#DejaVuSans-74" x="548.640625"/>
    </g>
   </g>
   <g id="text_17">
    <!-- SF -->
    <g style="fill: #666666" transform="translate(269.4811 71.712983) scale(0.08 -0.08)">
     <use xlink:href="#DejaVuSans-53"/>
     <use xlink:href="#DejaVuSans-46" x="63.476562"/>
    </g>
   </g>
   <g id="text_18">
    <!-- Enhedslisten -->
    <g style="fill: #666666" transform="translate(239.387 56.352423) scale(0.08 -0.08)">
     <defs>
      <path id="DejaVuSans-45" d="M 628 4666 
L 3578 4666 
L 3578 4134 
L 1259 4134 
L 1259 2753 
L 3481 2753 
L 3481 2222 
L 1259 2222 
L 1259 531 
L 3634 531 
L 3634 0 
L 628 0 
L 628 4666 
z
" transform="scale(0.015625)"/>
      <path id="DejaVuSans-68" d="M 3513 2113 
L 3513 0 
L 2938 0 
L 2938 2094 
Q 2938 2591 2744 2837 
Q 2550 3084 2163 3084 
Q 1697 3084 1428 2787 
Q 1159 2491 1159 1978 
L 1159 0 
L 581 0 
L 581 4863 
L 1159 4863 
L 1159 2956 
Q 1366 3272 1645 3428 
Q 1925 3584 2291 3584 
Q 2894 3584 3203 3211 
Q 3513 2838 3513 2113 
z
" transform="scale(0.015625)"/>
     </defs>
     <use xlink:href="#DejaVuSans-45"/>
     <use xlink:href="#DejaVuSans-6e" x="63.183594"/>
     <use xlink:href="#DejaVuSans-68" x="126.5625"/>
     <use xlink:href="#DejaVuSans-65" x="189.941406"/>
     <use xlink:href="#DejaVuSans-64" x="251.464844"/>
     <use xlink:href="#DejaVuSans-73" x="314.941406"/>
     <use xlink:href="#DejaVuSans-6c" x="367.041016"/>
     <use xlink:href="#DejaVuSans-69" x="394.824219"/>
     <use xlink:href="#DejaVuSans-73" x="422.607422"/>
     <use xlink:href="#DejaVuSans-74" x="474.707031"/>
     <use xlink:href="#DejaVuSans-65" x="513.916016"/>
     <use xlink:href="#DejaVuSans-6e" x="575.439453"/>
    </g>
   </g>
   <g id="text_19">
    <!-- Frie Grønne -->
    <g style="fill: #666666" transform="translate(260.06046 40.991864) scale(0.08 -0.08)">
     <defs>
      <path id="DejaVuSans-47" d="M 3809 666 
L 3809 1919 
L 2778 1919 
L 2778 2438 
L 4434 2438 
L 4434 434 
Q 4069 175 3628 42 
Q 3188 -91 2688 -91 
Q 1594 -91 976 548 
Q 359 1188 359 2328 
Q 359 3472 976 4111 
Q 1594 4750 2688 4750 
Q 3144 4750 3555 4637 
Q 3966 4525 4313 4306 
L 4313 3634 
Q 3963 3931 3569 4081 
Q 3175 4231 2741 4231 
Q 1884 4231 1454 3753 
Q 1025 3275 1025 2328 
Q 1025 1384 1454 906 
Q 1884 428 2741 428 
Q 3075 428 3337 486 
Q 3600 544 3809 666 
z
" transform="scale(0.015625)"/>
      <path id="DejaVuSans-f8" d="M 2828 2503 
L 1306 653 
Q 1434 522 1595 459 
Q 1756 397 1959 397 
Q 2419 397 2687 759 
Q 2956 1122 2956 1747 
Q 2956 1994 2925 2176 
Q 2894 2359 2828 2503 
z
M 2606 2841 
Q 2475 2969 2314 3033 
Q 2153 3097 1959 3097 
Q 1488 3097 1223 2730 
Q 959 2363 959 1703 
Q 959 1478 989 1306 
Q 1019 1134 1081 991 
L 2606 2841 
z
M 691 519 
Q 522 759 437 1067 
Q 353 1375 353 1747 
Q 353 2609 779 3096 
Q 1206 3584 1959 3584 
Q 2250 3584 2498 3504 
Q 2747 3425 2956 3263 
L 3391 3788 
L 3688 3541 
L 3231 2981 
Q 3397 2741 3481 2431 
Q 3566 2122 3566 1747 
Q 3566 888 3137 398 
Q 2709 -91 1959 -91 
Q 1659 -91 1407 -9 
Q 1156 72 959 231 
L 525 -294 
L 225 -50 
L 691 519 
z
" transform="scale(0.015625)"/>
     </defs>
     <use xlink:href="#DejaVuSans-46"/>
     <use xlink:href="#DejaVuSans-72" x="50.269531"/>
     <use xlink:href="#DejaVuSans-69" x="91.382812"/>
     <use xlink:href="#DejaVuSans-65" x="119.166016"/>
     <use xlink:href="#DejaVuSans-20" x="180.689453"/>
     <use xlink:href="#DejaVuSans-47" x="212.476562"/>
     <use xlink:href="#DejaVuSans-72" x="289.966797"/>
     <use xlink:href="#DejaVuSans-f8" x="331.080078"/>
     <use xlink:href="#DejaVuSans-6e" x="392.261719"/>
     <use xlink:href="#DejaVuSans-6e" x="455.640625"/>
     <use xlink:href="#DejaVuSans-65" x="519.019531"/>
    </g>
   </g>
   <g id="patch_12">
    <path d="M 258.239886 152.22767 
Q 249.462388 145.530765 244.564701 136.430626 
" style="fill: none; stroke: #808080; stroke-linecap: round"/>
    <path d="M 244.67234 140.006715 
L 244.564701 136.430626 
L 247.490156 138.490169 
" style="fill: none; stroke: #808080; stroke-linecap: round"/>
   </g>
   <g id="text_20">
    <!-- Kvindernes -->
    <g style="fill: #808080" transform="translate(261.853496 156.98947) scale(0.08 -0.08)">
     <use xlink:href="#DejaVuSans-4b"/>
     <use xlink:href="#DejaVuSans-76" x="65.576172"/>
     <use xlink:href="#DejaVuSans-69" x="124.755859"/>
     <use xlink:href="#DejaVuSans-6e" x="152.539062"/>
     <use xlink:href="#DejaVuSans-64" x="215.917969"/>
     <use xlink:href="#DejaVuSans-65" x="279.394531"/>
     <use xlink:href="#DejaVuSans-72" x="340.917969"/>
     <use xlink:href="#DejaVuSans-6e" x="380.28125"/>
     <use xlink:href="#DejaVuSans-65" x="443.660156"/>
     <use xlink:href="#DejaVuSans-73" x="505.183594"/>
    </g>
    <!-- gennemsnitsholdning -->
    <g style="fill: #808080" transform="translate(261.853496 165.94772) scale(0.08 -0.08)">
     <use xlink:href="#DejaVuSans-67"/>
     <use xlink:href="#DejaVuSans-65" x="63.476562"/>
     <use xlink:href="#DejaVuSans-6e" x="125"/>
     <use xlink:href="#DejaVuSans-6e" x="188.378906"/>
     <use xlink:href="#DejaVuSans-65" x="251.757812"/>
     <use xlink:href="#DejaVuSans-6d" x="313.28125"/>
     <use xlink:href="#DejaVuSans-73" x="410.693359"/>
     <use xlink:href="#DejaVuSans-6e" x="462.792969"/>
     <use xlink:href="#DejaVuSans-69" x="526.171875"/>
     <use xlink:href="#DejaVuSans-74" x="553.955078"/>
     <use xlink:href="#DejaVuSans-73" x="593.164062"/>
     <use xlink:href="#DejaVuSans-68" x="645.263672"/>
     <use xlink:href="#DejaVuSans-6f" x="708.642578"/>
     <use xlink:href="#DejaVuSans-6c" x="769.824219"/>
     <use xlink:href="#DejaVuSans-64" x="797.607422"/>
     <use xlink:href="#DejaVuSans-6e" x="861.083984"/>
     <use xlink:href="#DejaVuSans-69" x="924.462891"/>
     <use xlink:href="#DejaVuSans-6e" x="952.246094"/>
     <use xlink:href="#DejaVuSans-67" x="1015.625"/>
    </g>
   </g>
   <g id="patch_13">
    <path d="M 217.251844 167.208267 
Q 225.774195 153.049561 226.600863 137.061713 
" style="fill: none; stroke: #808080; stroke-linecap: round"/>
    <path d="M 224.837759 140.174824 
L 226.600863 137.061713 
L 228.03349 140.340063 
" style="fill: none; stroke: #808080; stroke-linecap: round"/>
   </g>
   <g id="text_21">
    <!-- Mændenes -->
    <g style="fill: #808080" transform="translate(172.766045 176.98947) scale(0.08 -0.08)">
     <defs>
      <path id="DejaVuSans-e6" d="M 5369 2063 
Q 5366 2534 5108 2815 
Q 4850 3097 4422 3097 
Q 3944 3097 3655 2825 
Q 3366 2553 3322 2059 
L 5369 2063 
z
M 3109 3009 
Q 3341 3291 3672 3437 
Q 4003 3584 4416 3584 
Q 5122 3584 5534 3129 
Q 5947 2675 5947 1894 
L 5947 1613 
L 3303 1613 
Q 3341 1016 3659 703 
Q 3978 391 4550 391 
Q 4875 391 5187 473 
Q 5500 556 5813 722 
L 5813 178 
Q 5500 47 5175 -22 
Q 4850 -91 4519 -91 
Q 3997 -91 3609 98 
Q 3222 288 2981 659 
Q 2753 284 2415 96 
Q 2078 -91 1631 -91 
Q 1041 -91 712 201 
Q 384 494 384 1019 
Q 384 1609 779 1909 
Q 1175 2209 1959 2209 
L 2766 2209 
L 2766 2266 
Q 2766 2663 2505 2880 
Q 2244 3097 1772 3097 
Q 1472 3097 1187 3025 
Q 903 2953 641 2809 
L 641 3341 
Q 956 3463 1253 3523 
Q 1550 3584 1831 3584 
Q 2275 3584 2608 3434 
Q 2941 3284 3109 3009 
z
M 2194 1759 
Q 1497 1759 1228 1600 
Q 959 1441 959 1056 
Q 959 750 1161 570 
Q 1363 391 1709 391 
Q 2188 391 2477 730 
Q 2766 1069 2766 1631 
L 2766 1759 
L 2194 1759 
z
" transform="scale(0.015625)"/>
     </defs>
     <use xlink:href="#DejaVuSans-4d"/>
     <use xlink:href="#DejaVuSans-e6" x="86.279297"/>
     <use xlink:href="#DejaVuSans-6e" x="184.472656"/>
     <use xlink:href="#DejaVuSans-64" x="247.851562"/>
     <use xlink:href="#DejaVuSans-65" x="311.328125"/>
     <use xlink:href="#DejaVuSans-6e" x="372.851562"/>
     <use xlink:href="#DejaVuSans-65" x="436.230469"/>
     <use xlink:href="#DejaVuSans-73" x="497.753906"/>
    </g>
    <!-- gennemsnitsholdning -->
    <g style="fill: #808080" transform="translate(130.427295 185.94772) scale(0.08 -0.08)">
     <use xlink:href="#DejaVuSans-67"/>
     <use xlink:href="#DejaVuSans-65" x="63.476562"/>
     <use xlink:href="#DejaVuSans-6e" x="125"/>
     <use xlink:href="#DejaVuSans-6e" x="188.378906"/>
     <use xlink:href="#DejaVuSans-65" x="251.757812"/>
     <use xlink:href="#DejaVuSans-6d" x="313.28125"/>
     <use xlink:href="#DejaVuSans-73" x="410.693359"/>
     <use xlink:href="#DejaVuSans-6e" x="462.792969"/>
     <use xlink:href="#DejaVuSans-69" x="526.171875"/>
     <use xlink:href="#DejaVuSans-74" x="553.955078"/>
     <use xlink:href="#DejaVuSans-73" x="593.164062"/>
     <use xlink:href="#DejaVuSans-68" x="645.263672"/>
     <use xlink:href="#DejaVuSans-6f" x="708.642578"/>
     <use xlink:href="#DejaVuSans-6c" x="769.824219"/>
     <use xlink:href="#DejaVuSans-64" x="797.607422"/>
     <use xlink:href="#DejaVuSans-6e" x="861.083984"/>
     <use xlink:href="#DejaVuSans-69" x="924.462891"/>
     <use xlink:href="#DejaVuSans-6e" x="952.246094"/>
     <use xlink:href="#DejaVuSans-67" x="1015.625"/>
    </g>
   </g>
  </g>
  <g id="text_22">
   <!-- Kvinderne støtter kvoter i højere grad -->
   <g transform="translate(18 17.28) scale(0.14 -0.14)">
    <defs>
     <path id="DejaVuSans-6a" d="M 603 3500 
L 1178 3500 
L 1178 -63 
Q 1178 -731 923 -1031 
Q 669 -1331 103 -1331 
L -116 -1331 
L -116 -844 
L 38 -844 
Q 366 -844 484 -692 
Q 603 -541 603 -63 
L 603 3500 
z
M 603 4863 
L 1178 4863 
L 1178 4134 
L 603 4134 
L 603 4863 
z
" transform="scale(0.015625)"/>
    </defs>
    <use xlink:href="#DejaVuSans-4b"/>
    <use xlink:href="#DejaVuSans-76" x="65.576172"/>
    <use xlink:href="#DejaVuSans-69" x="124.755859"/>
    <use xlink:href="#DejaVuSans-6e" x="152.539062"/>
    <use xlink:href="#DejaVuSans-64" x="215.917969"/>
    <use xlink:href="#DejaVuSans-65" x="279.394531"/>
    <use xlink:href="#DejaVuSans-72" x="340.917969"/>
    <use xlink:href="#DejaVuSans-6e" x="380.28125"/>
    <use xlink:href="#DejaVuSans-65" x="443.660156"/>
    <use xlink:href="#DejaVuSans-20" x="505.183594"/>
    <use xlink:href="#DejaVuSans-73" x="536.970703"/>
    <use xlink:href="#DejaVuSans-74" x="589.070312"/>
    <use xlink:href="#DejaVuSans-f8" x="628.279297"/>
    <use xlink:href="#DejaVuSans-74" x="689.460938"/>
    <use xlink:href="#DejaVuSans-74" x="728.669922"/>
    <use xlink:href="#DejaVuSans-65" x="767.878906"/>
    <use xlink:href="#DejaVuSans-72" x="829.402344"/>
    <use xlink:href="#DejaVuSans-20" x="870.515625"/>
    <use xlink:href="#DejaVuSans-6b" x="902.302734"/>
    <use xlink:href="#DejaVuSans-76" x="960.212891"/>
    <use xlink:href="#DejaVuSans-6f" x="1019.392578"/>
    <use xlink:href="#DejaVuSans-74" x="1080.574219"/>
    <use xlink:href="#DejaVuSans-65" x="1119.783203"/>
    <use xlink:href="#DejaVuSans-72" x="1181.306641"/>
    <use xlink:href="#DejaVuSans-20" x="1222.419922"/>
    <use xlink:href="#DejaVuSans-69" x="1254.207031"/>
    <use xlink:href="#DejaVuSans-20" x="1281.990234"/>
    <use xlink:href="#DejaVuSans-68" x="1313.777344"/>
    <use xlink:href="#DejaVuSans-f8" x="1377.15625"/>
    <use xlink:href="#DejaVuSans-6a" x="1438.337891"/>
    <use xlink:href="#DejaVuSans-65" x="1466.121094"/>
    <use xlink:href="#DejaVuSans-72" x="1527.644531"/>
    <use xlink:href="#DejaVuSans-65" x="1566.507812"/>
    <use xlink:href="#DejaVuSans-20" x="1628.03125"/>
    <use xlink:href="#DejaVuSans-67" x="1659.818359"/>
    <use xlink:href="#DejaVuSans-72" x="1723.294922"/>
    <use xlink:href="#DejaVuSans-61" x="1764.408203"/>
    <use xlink:href="#DejaVuSans-64" x="1825.6875"/>
   </g>
  </g>
 </g>
 <defs>
  <clipPath id="p25c91ceb51">
   <rect x="86.917597" y="28.8" width="259.349221" height="219.656"/>
  </clipPath>
 </defs>
</svg>
