<?xml version="1.0" encoding="utf-8" standalone="no"?>
<!DOCTYPE svg PUBLIC "-//W3C//DTD SVG 1.1//EN"
  "http://www.w3.org/Graphics/SVG/1.1/DTD/svg11.dtd">
<svg xmlns:xlink="http://www.w3.org/1999/xlink" width="432pt" height="432pt" viewBox="0 0 432 432" xmlns="http://www.w3.org/2000/svg" version="1.1">
 <metadata>
  <rdf:RDF xmlns:dc="http://purl.org/dc/elements/1.1/" xmlns:cc="http://creativecommons.org/ns#" xmlns:rdf="http://www.w3.org/1999/02/22-rdf-syntax-ns#">
   <cc:Work>
    <dc:type rdf:resource="http://purl.org/dc/dcmitype/StillImage"/>
    <dc:date>2022-10-26T20:36:51.322867</dc:date>
    <dc:format>image/svg+xml</dc:format>
    <dc:creator>
     <cc:Agent>
      <dc:title>Matplotlib v3.6.1, https://matplotlib.org/</dc:title>
     </cc:Agent>
    </dc:creator>
   </cc:Work>
  </rdf:RDF>
 </metadata>
 <defs>
  <style type="text/css">*{stroke-linejoin: round; stroke-linecap: butt}</style>
 </defs>
 <g id="figure_1">
  <g id="patch_1">
   <path d="M 0 432 
L 432 432 
L 432 0 
L 0 0 
z
" style="fill: #ffffff"/>
  </g>
  <g id="axes_1">
   <g id="patch_2">
    <path d="M 127.010601 404.12 
L 413.911546 404.12 
L 413.911546 43.2 
L 127.010601 43.2 
z
" style="fill: #ffffff"/>
   </g>
   <g id="matplotlib.axis_1">
    <g id="xtick_1">
     <g id="line2d_1">
      <path d="M 146.796258 404.12 
L 146.796258 43.2 
" clip-path="url(#p8a34339a04)" style="fill: none; stroke-dasharray: 0.8,1.32; stroke-dashoffset: 0; stroke: #b0b0b0; stroke-width: 0.8"/>
     </g>
     <g id="text_1">
      <!-- 20 år -->
      <g style="fill: #1a1a1a" transform="translate(133.725164 418.718437) scale(0.1 -0.1)">
       <defs>
        <path id="DejaVuSans-32" d="M 1228 531 
L 3431 531 
L 3431 0 
L 469 0 
L 469 531 
Q 828 903 1448 1529 
Q 2069 2156 2228 2338 
Q 2531 2678 2651 2914 
Q 2772 3150 2772 3378 
Q 2772 3750 2511 3984 
Q 2250 4219 1831 4219 
Q 1534 4219 1204 4116 
Q 875 4013 500 3803 
L 500 4441 
Q 881 4594 1212 4672 
Q 1544 4750 1819 4750 
Q 2544 4750 2975 4387 
Q 3406 4025 3406 3419 
Q 3406 3131 3298 2873 
Q 3191 2616 2906 2266 
Q 2828 2175 2409 1742 
Q 1991 1309 1228 531 
z
" transform="scale(0.015625)"/>
        <path id="DejaVuSans-30" d="M 2034 4250 
Q 1547 4250 1301 3770 
Q 1056 3291 1056 2328 
Q 1056 1369 1301 889 
Q 1547 409 2034 409 
Q 2525 409 2770 889 
Q 3016 1369 3016 2328 
Q 3016 3291 2770 3770 
Q 2525 4250 2034 4250 
z
M 2034 4750 
Q 2819 4750 3233 4129 
Q 3647 3509 3647 2328 
Q 3647 1150 3233 529 
Q 2819 -91 2034 -91 
Q 1250 -91 836 529 
Q 422 1150 422 2328 
Q 422 3509 836 4129 
Q 1250 4750 2034 4750 
z
" transform="scale(0.015625)"/>
        <path id="DejaVuSans-20" transform="scale(0.015625)"/>
        <path id="DejaVuSans-e5" d="M 2194 1759 
Q 1497 1759 1228 1600 
Q 959 1441 959 1056 
Q 959 750 1161 570 
Q 1363 391 1709 391 
Q 2188 391 2477 730 
Q 2766 1069 2766 1631 
L 2766 1759 
L 2194 1759 
z
M 3341 1997 
L 3341 0 
L 2766 0 
L 2766 531 
Q 2569 213 2275 61 
Q 1981 -91 1556 -91 
Q 1019 -91 701 211 
Q 384 513 384 1019 
Q 384 1609 779 1909 
Q 1175 2209 1959 2209 
L 2766 2209 
L 2766 2266 
Q 2766 2663 2505 2880 
Q 2244 3097 1772 3097 
Q 1472 3097 1187 3025 
Q 903 2953 641 2809 
L 641 3341 
Q 956 3463 1253 3523 
Q 1550 3584 1831 3584 
Q 2591 3584 2966 3190 
Q 3341 2797 3341 1997 
z
M 2331 4763 
Q 2331 4959 2193 5096 
Q 2056 5234 1856 5234 
Q 1653 5234 1517 5098 
Q 1381 4963 1381 4763 
Q 1381 4559 1517 4423 
Q 1653 4288 1856 4288 
Q 2056 4288 2193 4425 
Q 2331 4563 2331 4763 
z
M 2712 4763 
Q 2712 4403 2463 4153 
Q 2215 3903 1856 3903 
Q 1497 3903 1248 4153 
Q 1000 4403 1000 4763 
Q 1000 5122 1248 5370 
Q 1497 5619 1856 5619 
Q 2215 5619 2463 5370 
Q 2712 5122 2712 4763 
z
" transform="scale(0.015625)"/>
        <path id="DejaVuSans-72" d="M 2631 2963 
Q 2534 3019 2420 3045 
Q 2306 3072 2169 3072 
Q 1681 3072 1420 2755 
Q 1159 2438 1159 1844 
L 1159 0 
L 581 0 
L 581 3500 
L 1159 3500 
L 1159 2956 
Q 1341 3275 1631 3429 
Q 1922 3584 2338 3584 
Q 2397 3584 2469 3576 
Q 2541 3569 2628 3553 
L 2631 2963 
z
" transform="scale(0.015625)"/>
       </defs>
       <use xlink:href="#DejaVuSans-32"/>
       <use xlink:href="#DejaVuSans-30" x="63.623047"/>
       <use xlink:href="#DejaVuSans-20" x="127.246094"/>
       <use xlink:href="#DejaVuSans-e5" x="159.033203"/>
       <use xlink:href="#DejaVuSans-72" x="220.3125"/>
      </g>
     </g>
    </g>
    <g id="xtick_2">
     <g id="line2d_2">
      <path d="M 190.24429 404.12 
L 190.24429 43.2 
" clip-path="url(#p8a34339a04)" style="fill: none; stroke-dasharray: 0.8,1.32; stroke-dashoffset: 0; stroke: #b0b0b0; stroke-width: 0.8"/>
     </g>
     <g id="text_2">
      <!-- 30 år -->
      <g style="fill: #1a1a1a" transform="translate(177.173196 418.718437) scale(0.1 -0.1)">
       <defs>
        <path id="DejaVuSans-33" d="M 2597 2516 
Q 3050 2419 3304 2112 
Q 3559 1806 3559 1356 
Q 3559 666 3084 287 
Q 2609 -91 1734 -91 
Q 1441 -91 1130 -33 
Q 819 25 488 141 
L 488 750 
Q 750 597 1062 519 
Q 1375 441 1716 441 
Q 2309 441 2620 675 
Q 2931 909 2931 1356 
Q 2931 1769 2642 2001 
Q 2353 2234 1838 2234 
L 1294 2234 
L 1294 2753 
L 1863 2753 
Q 2328 2753 2575 2939 
Q 2822 3125 2822 3475 
Q 2822 3834 2567 4026 
Q 2313 4219 1838 4219 
Q 1578 4219 1281 4162 
Q 984 4106 628 3988 
L 628 4550 
Q 988 4650 1302 4700 
Q 1616 4750 1894 4750 
Q 2613 4750 3031 4423 
Q 3450 4097 3450 3541 
Q 3450 3153 3228 2886 
Q 3006 2619 2597 2516 
z
" transform="scale(0.015625)"/>
       </defs>
       <use xlink:href="#DejaVuSans-33"/>
       <use xlink:href="#DejaVuSans-30" x="63.623047"/>
       <use xlink:href="#DejaVuSans-20" x="127.246094"/>
       <use xlink:href="#DejaVuSans-e5" x="159.033203"/>
       <use xlink:href="#DejaVuSans-72" x="220.3125"/>
      </g>
     </g>
    </g>
    <g id="xtick_3">
     <g id="line2d_3">
      <path d="M 233.692322 404.12 
L 233.692322 43.2 
" clip-path="url(#p8a34339a04)" style="fill: none; stroke-dasharray: 0.8,1.32; stroke-dashoffset: 0; stroke: #b0b0b0; stroke-width: 0.8"/>
     </g>
     <g id="text_3">
      <!-- 40 år -->
      <g style="fill: #1a1a1a" transform="translate(220.621228 418.718437) scale(0.1 -0.1)">
       <defs>
        <path id="DejaVuSans-34" d="M 2419 4116 
L 825 1625 
L 2419 1625 
L 2419 4116 
z
M 2253 4666 
L 3047 4666 
L 3047 1625 
L 3713 1625 
L 3713 1100 
L 3047 1100 
L 3047 0 
L 2419 0 
L 2419 1100 
L 313 1100 
L 313 1709 
L 2253 4666 
z
" transform="scale(0.015625)"/>
       </defs>
       <use xlink:href="#DejaVuSans-34"/>
       <use xlink:href="#DejaVuSans-30" x="63.623047"/>
       <use xlink:href="#DejaVuSans-20" x="127.246094"/>
       <use xlink:href="#DejaVuSans-e5" x="159.033203"/>
       <use xlink:href="#DejaVuSans-72" x="220.3125"/>
      </g>
     </g>
    </g>
    <g id="xtick_4">
     <g id="line2d_4">
      <path d="M 277.140354 404.12 
L 277.140354 43.2 
" clip-path="url(#p8a34339a04)" style="fill: none; stroke-dasharray: 0.8,1.32; stroke-dashoffset: 0; stroke: #b0b0b0; stroke-width: 0.8"/>
     </g>
     <g id="text_4">
      <!-- 50 år -->
      <g style="fill: #1a1a1a" transform="translate(264.06926 418.718437) scale(0.1 -0.1)">
       <defs>
        <path id="DejaVuSans-35" d="M 691 4666 
L 3169 4666 
L 3169 4134 
L 1269 4134 
L 1269 2991 
Q 1406 3038 1543 3061 
Q 1681 3084 1819 3084 
Q 2600 3084 3056 2656 
Q 3513 2228 3513 1497 
Q 3513 744 3044 326 
Q 2575 -91 1722 -91 
Q 1428 -91 1123 -41 
Q 819 9 494 109 
L 494 744 
Q 775 591 1075 516 
Q 1375 441 1709 441 
Q 2250 441 2565 725 
Q 2881 1009 2881 1497 
Q 2881 1984 2565 2268 
Q 2250 2553 1709 2553 
Q 1456 2553 1204 2497 
Q 953 2441 691 2322 
L 691 4666 
z
" transform="scale(0.015625)"/>
       </defs>
       <use xlink:href="#DejaVuSans-35"/>
       <use xlink:href="#DejaVuSans-30" x="63.623047"/>
       <use xlink:href="#DejaVuSans-20" x="127.246094"/>
       <use xlink:href="#DejaVuSans-e5" x="159.033203"/>
       <use xlink:href="#DejaVuSans-72" x="220.3125"/>
      </g>
     </g>
    </g>
    <g id="xtick_5">
     <g id="line2d_5">
      <path d="M 320.588385 404.12 
L 320.588385 43.2 
" clip-path="url(#p8a34339a04)" style="fill: none; stroke-dasharray: 0.8,1.32; stroke-dashoffset: 0; stroke: #b0b0b0; stroke-width: 0.8"/>
     </g>
     <g id="text_5">
      <!-- 60 år -->
      <g style="fill: #1a1a1a" transform="translate(307.517292 418.718437) scale(0.1 -0.1)">
       <defs>
        <path id="DejaVuSans-36" d="M 2113 2584 
Q 1688 2584 1439 2293 
Q 1191 2003 1191 1497 
Q 1191 994 1439 701 
Q 1688 409 2113 409 
Q 2538 409 2786 701 
Q 3034 994 3034 1497 
Q 3034 2003 2786 2293 
Q 2538 2584 2113 2584 
z
M 3366 4563 
L 3366 3988 
Q 3128 4100 2886 4159 
Q 2644 4219 2406 4219 
Q 1781 4219 1451 3797 
Q 1122 3375 1075 2522 
Q 1259 2794 1537 2939 
Q 1816 3084 2150 3084 
Q 2853 3084 3261 2657 
Q 3669 2231 3669 1497 
Q 3669 778 3244 343 
Q 2819 -91 2113 -91 
Q 1303 -91 875 529 
Q 447 1150 447 2328 
Q 447 3434 972 4092 
Q 1497 4750 2381 4750 
Q 2619 4750 2861 4703 
Q 3103 4656 3366 4563 
z
" transform="scale(0.015625)"/>
       </defs>
       <use xlink:href="#DejaVuSans-36"/>
       <use xlink:href="#DejaVuSans-30" x="63.623047"/>
       <use xlink:href="#DejaVuSans-20" x="127.246094"/>
       <use xlink:href="#DejaVuSans-e5" x="159.033203"/>
       <use xlink:href="#DejaVuSans-72" x="220.3125"/>
      </g>
     </g>
    </g>
    <g id="xtick_6">
     <g id="line2d_6">
      <path d="M 364.036417 404.12 
L 364.036417 43.2 
" clip-path="url(#p8a34339a04)" style="fill: none; stroke-dasharray: 0.8,1.32; stroke-dashoffset: 0; stroke: #b0b0b0; stroke-width: 0.8"/>
     </g>
     <g id="text_6">
      <!-- 70 år -->
      <g style="fill: #1a1a1a" transform="translate(350.965323 418.718437) scale(0.1 -0.1)">
       <defs>
        <path id="DejaVuSans-37" d="M 525 4666 
L 3525 4666 
L 3525 4397 
L 1831 0 
L 1172 0 
L 2766 4134 
L 525 4134 
L 525 4666 
z
" transform="scale(0.015625)"/>
       </defs>
       <use xlink:href="#DejaVuSans-37"/>
       <use xlink:href="#DejaVuSans-30" x="63.623047"/>
       <use xlink:href="#DejaVuSans-20" x="127.246094"/>
       <use xlink:href="#DejaVuSans-e5" x="159.033203"/>
       <use xlink:href="#DejaVuSans-72" x="220.3125"/>
      </g>
     </g>
    </g>
    <g id="xtick_7">
     <g id="line2d_7">
      <path d="M 407.484449 404.12 
L 407.484449 43.2 
" clip-path="url(#p8a34339a04)" style="fill: none; stroke-dasharray: 0.8,1.32; stroke-dashoffset: 0; stroke: #b0b0b0; stroke-width: 0.8"/>
     </g>
     <g id="text_7">
      <!-- 80 år -->
      <g style="fill: #1a1a1a" transform="translate(394.413355 418.718437) scale(0.1 -0.1)">
       <defs>
        <path id="DejaVuSans-38" d="M 2034 2216 
Q 1584 2216 1326 1975 
Q 1069 1734 1069 1313 
Q 1069 891 1326 650 
Q 1584 409 2034 409 
Q 2484 409 2743 651 
Q 3003 894 3003 1313 
Q 3003 1734 2745 1975 
Q 2488 2216 2034 2216 
z
M 1403 2484 
Q 997 2584 770 2862 
Q 544 3141 544 3541 
Q 544 4100 942 4425 
Q 1341 4750 2034 4750 
Q 2731 4750 3128 4425 
Q 3525 4100 3525 3541 
Q 3525 3141 3298 2862 
Q 3072 2584 2669 2484 
Q 3125 2378 3379 2068 
Q 3634 1759 3634 1313 
Q 3634 634 3220 271 
Q 2806 -91 2034 -91 
Q 1263 -91 848 271 
Q 434 634 434 1313 
Q 434 1759 690 2068 
Q 947 2378 1403 2484 
z
M 1172 3481 
Q 1172 3119 1398 2916 
Q 1625 2713 2034 2713 
Q 2441 2713 2670 2916 
Q 2900 3119 2900 3481 
Q 2900 3844 2670 4047 
Q 2441 4250 2034 4250 
Q 1625 4250 1398 4047 
Q 1172 3844 1172 3481 
z
" transform="scale(0.015625)"/>
       </defs>
       <use xlink:href="#DejaVuSans-38"/>
       <use xlink:href="#DejaVuSans-30" x="63.623047"/>
       <use xlink:href="#DejaVuSans-20" x="127.246094"/>
       <use xlink:href="#DejaVuSans-e5" x="159.033203"/>
       <use xlink:href="#DejaVuSans-72" x="220.3125"/>
      </g>
     </g>
    </g>
   </g>
   <g id="matplotlib.axis_2"/>
   <g id="line2d_8">
    <path d="M 150.305408 59.605455 
L 315.66368 59.605455 
" clip-path="url(#p8a34339a04)" style="fill: none; stroke: #e7ccc8; stroke-width: 3; stroke-linecap: square"/>
    <defs>
     <path id="m87ae5bd939" d="M 0 1.5 
C 0.397805 1.5 0.77937 1.341951 1.06066 1.06066 
C 1.341951 0.77937 1.5 0.397805 1.5 0 
C 1.5 -0.397805 1.341951 -0.77937 1.06066 -1.06066 
C 0.77937 -1.341951 0.397805 -1.5 0 -1.5 
C -0.397805 -1.5 -0.77937 -1.341951 -1.06066 -1.06066 
C -1.341951 -0.77937 -1.5 -0.397805 -1.5 0 
C -1.5 0.397805 -1.341951 0.77937 -1.06066 1.06066 
C -0.77937 1.341951 -0.397805 1.5 0 1.5 
z
" style="stroke: #e7ccc8"/>
    </defs>
    <g clip-path="url(#p8a34339a04)">
     <use xlink:href="#m87ae5bd939" x="150.305408" y="59.605455" style="fill: #e7ccc8; stroke: #e7ccc8"/>
     <use xlink:href="#m87ae5bd939" x="315.66368" y="59.605455" style="fill: #e7ccc8; stroke: #e7ccc8"/>
    </g>
   </g>
   <g id="line2d_9">
    <path d="M 209.493928 59.605455 
" clip-path="url(#p8a34339a04)" style="fill: none; stroke: #e7ccc8; stroke-width: 1.5; stroke-linecap: square"/>
    <defs>
     <path id="m8c27cad8e4" d="M 0 3 
C 0.795609 3 1.55874 2.683901 2.12132 2.12132 
C 2.683901 1.55874 3 0.795609 3 0 
C 3 -0.795609 2.683901 -1.55874 2.12132 -2.12132 
C 1.55874 -2.683901 0.795609 -3 0 -3 
C -0.795609 -3 -1.55874 -2.683901 -2.12132 -2.12132 
C -2.683901 -1.55874 -3 -0.795609 -3 0 
C -3 0.795609 -2.683901 1.55874 -2.12132 2.12132 
C -1.55874 2.683901 -0.795609 3 0 3 
z
" style="stroke: #e7ccc8"/>
    </defs>
    <g clip-path="url(#p8a34339a04)">
     <use xlink:href="#m8c27cad8e4" x="209.493928" y="59.605455" style="fill: #e7ccc8; stroke: #e7ccc8"/>
    </g>
   </g>
   <g id="line2d_10">
    <path d="M 141.371945 83.041818 
L 374.569814 83.041818 
" clip-path="url(#p8a34339a04)" style="fill: none; stroke: #efb34c; stroke-width: 3; stroke-linecap: square"/>
    <defs>
     <path id="m4895ad4ac8" d="M 0 1.5 
C 0.397805 1.5 0.77937 1.341951 1.06066 1.06066 
C 1.341951 0.77937 1.5 0.397805 1.5 0 
C 1.5 -0.397805 1.341951 -0.77937 1.06066 -1.06066 
C 0.77937 -1.341951 0.397805 -1.5 0 -1.5 
C -0.397805 -1.5 -0.77937 -1.341951 -1.06066 -1.06066 
C -1.341951 -0.77937 -1.5 -0.397805 -1.5 0 
C -1.5 0.397805 -1.341951 0.77937 -1.06066 1.06066 
C -0.77937 1.341951 -0.397805 1.5 0 1.5 
z
" style="stroke: #efb34c"/>
    </defs>
    <g clip-path="url(#p8a34339a04)">
     <use xlink:href="#m4895ad4ac8" x="141.371945" y="83.041818" style="fill: #efb34c; stroke: #efb34c"/>
     <use xlink:href="#m4895ad4ac8" x="374.569814" y="83.041818" style="fill: #efb34c; stroke: #efb34c"/>
    </g>
   </g>
   <g id="line2d_11">
    <path d="M 225.36895 83.041818 
" clip-path="url(#p8a34339a04)" style="fill: none; stroke: #efb34c; stroke-width: 1.5; stroke-linecap: square"/>
    <defs>
     <path id="m5ab9d8514f" d="M 0 3 
C 0.795609 3 1.55874 2.683901 2.12132 2.12132 
C 2.683901 1.55874 3 0.795609 3 0 
C 3 -0.795609 2.683901 -1.55874 2.12132 -2.12132 
C 1.55874 -2.683901 0.795609 -3 0 -3 
C -0.795609 -3 -1.55874 -2.683901 -2.12132 -2.12132 
C -2.683901 -1.55874 -3 -0.795609 -3 0 
C -3 0.795609 -2.683901 1.55874 -2.12132 2.12132 
C -1.55874 2.683901 -0.795609 3 0 3 
z
" style="stroke: #efb34c"/>
    </defs>
    <g clip-path="url(#p8a34339a04)">
     <use xlink:href="#m5ab9d8514f" x="225.36895" y="83.041818" style="fill: #efb34c; stroke: #efb34c"/>
    </g>
   </g>
   <g id="line2d_12">
    <path d="M 146.605931 106.478182 
L 352.016092 106.478182 
" clip-path="url(#p8a34339a04)" style="fill: none; stroke: #c21a24; stroke-width: 3; stroke-linecap: square"/>
    <defs>
     <path id="mf56e1ed0a2" d="M 0 1.5 
C 0.397805 1.5 0.77937 1.341951 1.06066 1.06066 
C 1.341951 0.77937 1.5 0.397805 1.5 0 
C 1.5 -0.397805 1.341951 -0.77937 1.06066 -1.06066 
C 0.77937 -1.341951 0.397805 -1.5 0 -1.5 
C -0.397805 -1.5 -0.77937 -1.341951 -1.06066 -1.06066 
C -1.341951 -0.77937 -1.5 -0.397805 -1.5 0 
C -1.5 0.397805 -1.341951 0.77937 -1.06066 1.06066 
C -0.77937 1.341951 -0.397805 1.5 0 1.5 
z
" style="stroke: #c21a24"/>
    </defs>
    <g clip-path="url(#p8a34339a04)">
     <use xlink:href="#mf56e1ed0a2" x="146.605931" y="106.478182" style="fill: #c21a24; stroke: #c21a24"/>
     <use xlink:href="#mf56e1ed0a2" x="352.016092" y="106.478182" style="fill: #c21a24; stroke: #c21a24"/>
    </g>
   </g>
   <g id="line2d_13">
    <path d="M 238.128385 106.478182 
" clip-path="url(#p8a34339a04)" style="fill: none; stroke: #c21a24; stroke-width: 1.5; stroke-linecap: square"/>
    <defs>
     <path id="mb5eed73ab8" d="M 0 3 
C 0.795609 3 1.55874 2.683901 2.12132 2.12132 
C 2.683901 1.55874 3 0.795609 3 0 
C 3 -0.795609 2.683901 -1.55874 2.12132 -2.12132 
C 1.55874 -2.683901 0.795609 -3 0 -3 
C -0.795609 -3 -1.55874 -2.683901 -2.12132 -2.12132 
C -2.683901 -1.55874 -3 -0.795609 -3 0 
C -3 0.795609 -2.683901 1.55874 -2.12132 2.12132 
C -1.55874 2.683901 -0.795609 3 0 3 
z
" style="stroke: #c21a24"/>
    </defs>
    <g clip-path="url(#p8a34339a04)">
     <use xlink:href="#mb5eed73ab8" x="238.128385" y="106.478182" style="fill: #c21a24; stroke: #c21a24"/>
    </g>
   </g>
   <g id="line2d_14">
    <path d="M 141.942925 129.914545 
L 384.240793 129.914545 
" clip-path="url(#p8a34339a04)" style="fill: none; stroke: #d11557; stroke-width: 3; stroke-linecap: square"/>
    <defs>
     <path id="me8c1d90679" d="M 0 1.5 
C 0.397805 1.5 0.77937 1.341951 1.06066 1.06066 
C 1.341951 0.77937 1.5 0.397805 1.5 0 
C 1.5 -0.397805 1.341951 -0.77937 1.06066 -1.06066 
C 0.77937 -1.341951 0.397805 -1.5 0 -1.5 
C -0.397805 -1.5 -0.77937 -1.341951 -1.06066 -1.06066 
C -1.341951 -0.77937 -1.5 -0.397805 -1.5 0 
C -1.5 0.397805 -1.341951 0.77937 -1.06066 1.06066 
C -0.77937 1.341951 -0.397805 1.5 0 1.5 
z
" style="stroke: #d11557"/>
    </defs>
    <g clip-path="url(#p8a34339a04)">
     <use xlink:href="#me8c1d90679" x="141.942925" y="129.914545" style="fill: #d11557; stroke: #d11557"/>
     <use xlink:href="#me8c1d90679" x="384.240793" y="129.914545" style="fill: #d11557; stroke: #d11557"/>
    </g>
   </g>
   <g id="line2d_15">
    <path d="M 242.370882 129.914545 
" clip-path="url(#p8a34339a04)" style="fill: none; stroke: #d11557; stroke-width: 1.5; stroke-linecap: square"/>
    <defs>
     <path id="m0a7771225b" d="M 0 3 
C 0.795609 3 1.55874 2.683901 2.12132 2.12132 
C 2.683901 1.55874 3 0.795609 3 0 
C 3 -0.795609 2.683901 -1.55874 2.12132 -2.12132 
C 1.55874 -2.683901 0.795609 -3 0 -3 
C -0.795609 -3 -1.55874 -2.683901 -2.12132 -2.12132 
C -2.683901 -1.55874 -3 -0.795609 -3 0 
C -3 0.795609 -2.683901 1.55874 -2.12132 2.12132 
C -1.55874 2.683901 -0.795609 3 0 3 
z
" style="stroke: #d11557"/>
    </defs>
    <g clip-path="url(#p8a34339a04)">
     <use xlink:href="#m0a7771225b" x="242.370882" y="129.914545" style="fill: #d11557; stroke: #d11557"/>
    </g>
   </g>
   <g id="line2d_16">
    <path d="M 142.63286 153.350909 
L 400.870594 153.350909 
" clip-path="url(#p8a34339a04)" style="fill: none; stroke: #832e8e; stroke-width: 3; stroke-linecap: square"/>
    <defs>
     <path id="m18f5ef3038" d="M 0 1.5 
C 0.397805 1.5 0.77937 1.341951 1.06066 1.06066 
C 1.341951 0.77937 1.5 0.397805 1.5 0 
C 1.5 -0.397805 1.341951 -0.77937 1.06066 -1.06066 
C 0.77937 -1.341951 0.397805 -1.5 0 -1.5 
C -0.397805 -1.5 -0.77937 -1.341951 -1.06066 -1.06066 
C -1.341951 -0.77937 -1.5 -0.397805 -1.5 0 
C -1.5 0.397805 -1.341951 0.77937 -1.06066 1.06066 
C -0.77937 1.341951 -0.397805 1.5 0 1.5 
z
" style="stroke: #832e8e"/>
    </defs>
    <g clip-path="url(#p8a34339a04)">
     <use xlink:href="#m18f5ef3038" x="142.63286" y="153.350909" style="fill: #832e8e; stroke: #832e8e"/>
     <use xlink:href="#m18f5ef3038" x="400.870594" y="153.350909" style="fill: #832e8e; stroke: #832e8e"/>
    </g>
   </g>
   <g id="line2d_17">
    <path d="M 248.753958 153.350909 
" clip-path="url(#p8a34339a04)" style="fill: none; stroke: #832e8e; stroke-width: 1.5; stroke-linecap: square"/>
    <defs>
     <path id="m0644cb05cf" d="M 0 3 
C 0.795609 3 1.55874 2.683901 2.12132 2.12132 
C 2.683901 1.55874 3 0.795609 3 0 
C 3 -0.795609 2.683901 -1.55874 2.12132 -2.12132 
C 1.55874 -2.683901 0.795609 -3 0 -3 
C -0.795609 -3 -1.55874 -2.683901 -2.12132 -2.12132 
C -2.683901 -1.55874 -3 -0.795609 -3 0 
C -3 0.795609 -2.683901 1.55874 -2.12132 2.12132 
C -1.55874 2.683901 -0.795609 3 0 3 
z
" style="stroke: #832e8e"/>
    </defs>
    <g clip-path="url(#p8a34339a04)">
     <use xlink:href="#m0644cb05cf" x="248.753958" y="153.350909" style="fill: #832e8e; stroke: #832e8e"/>
    </g>
   </g>
   <g id="line2d_18">
    <path d="M 151.007238 176.787273 
L 384.217002 176.787273 
" clip-path="url(#p8a34339a04)" style="fill: none; stroke: #df147b; stroke-width: 3; stroke-linecap: square"/>
    <defs>
     <path id="mbe941b5fb4" d="M 0 1.5 
C 0.397805 1.5 0.77937 1.341951 1.06066 1.06066 
C 1.341951 0.77937 1.5 0.397805 1.5 0 
C 1.5 -0.397805 1.341951 -0.77937 1.06066 -1.06066 
C 0.77937 -1.341951 0.397805 -1.5 0 -1.5 
C -0.397805 -1.5 -0.77937 -1.341951 -1.06066 -1.06066 
C -1.341951 -0.77937 -1.5 -0.397805 -1.5 0 
C -1.5 0.397805 -1.341951 0.77937 -1.06066 1.06066 
C -0.77937 1.341951 -0.397805 1.5 0 1.5 
z
" style="stroke: #df147b"/>
    </defs>
    <g clip-path="url(#p8a34339a04)">
     <use xlink:href="#mbe941b5fb4" x="151.007238" y="176.787273" style="fill: #df147b; stroke: #df147b"/>
     <use xlink:href="#mbe941b5fb4" x="384.217002" y="176.787273" style="fill: #df147b; stroke: #df147b"/>
    </g>
   </g>
   <g id="line2d_19">
    <path d="M 249.357478 176.787273 
" clip-path="url(#p8a34339a04)" style="fill: none; stroke: #df147b; stroke-width: 1.5; stroke-linecap: square"/>
    <defs>
     <path id="m3800497d8e" d="M 0 3 
C 0.795609 3 1.55874 2.683901 2.12132 2.12132 
C 2.683901 1.55874 3 0.795609 3 0 
C 3 -0.795609 2.683901 -1.55874 2.12132 -2.12132 
C 1.55874 -2.683901 0.795609 -3 0 -3 
C -0.795609 -3 -1.55874 -2.683901 -2.12132 -2.12132 
C -2.683901 -1.55874 -3 -0.795609 -3 0 
C -3 0.795609 -2.683901 1.55874 -2.12132 2.12132 
C -1.55874 2.683901 -0.795609 3 0 3 
z
" style="stroke: #df147b"/>
    </defs>
    <g clip-path="url(#p8a34339a04)">
     <use xlink:href="#m3800497d8e" x="249.357478" y="176.787273" style="fill: #df147b; stroke: #df147b"/>
    </g>
   </g>
   <g id="line2d_20">
    <path d="M 147.735996 200.223636 
L 349.042237 200.223636 
" clip-path="url(#p8a34339a04)" style="fill: none; stroke: #267862; stroke-width: 3; stroke-linecap: square"/>
    <defs>
     <path id="m8a47bfeb91" d="M 0 1.5 
C 0.397805 1.5 0.77937 1.341951 1.06066 1.06066 
C 1.341951 0.77937 1.5 0.397805 1.5 0 
C 1.5 -0.397805 1.341951 -0.77937 1.06066 -1.06066 
C 0.77937 -1.341951 0.397805 -1.5 0 -1.5 
C -0.397805 -1.5 -0.77937 -1.341951 -1.06066 -1.06066 
C -1.341951 -0.77937 -1.5 -0.397805 -1.5 0 
C -1.5 0.397805 -1.341951 0.77937 -1.06066 1.06066 
C -0.77937 1.341951 -0.397805 1.5 0 1.5 
z
" style="stroke: #267862"/>
    </defs>
    <g clip-path="url(#p8a34339a04)">
     <use xlink:href="#m8a47bfeb91" x="147.735996" y="200.223636" style="fill: #267862; stroke: #267862"/>
     <use xlink:href="#m8a47bfeb91" x="349.042237" y="200.223636" style="fill: #267862; stroke: #267862"/>
    </g>
   </g>
   <g id="line2d_21">
    <path d="M 254.635667 200.223636 
" clip-path="url(#p8a34339a04)" style="fill: none; stroke: #267862; stroke-width: 1.5; stroke-linecap: square"/>
    <defs>
     <path id="mb61c0b95bd" d="M 0 3 
C 0.795609 3 1.55874 2.683901 2.12132 2.12132 
C 2.683901 1.55874 3 0.795609 3 0 
C 3 -0.795609 2.683901 -1.55874 2.12132 -2.12132 
C 1.55874 -2.683901 0.795609 -3 0 -3 
C -0.795609 -3 -1.55874 -2.683901 -2.12132 -2.12132 
C -2.683901 -1.55874 -3 -0.795609 -3 0 
C -3 0.795609 -2.683901 1.55874 -2.12132 2.12132 
C -1.55874 2.683901 -0.795609 3 0 3 
z
" style="stroke: #267862"/>
    </defs>
    <g clip-path="url(#p8a34339a04)">
     <use xlink:href="#mb61c0b95bd" x="254.635667" y="200.223636" style="fill: #267862; stroke: #267862"/>
    </g>
   </g>
   <g id="line2d_22">
    <path d="M 149.187238 223.66 
L 400.311509 223.66 
" clip-path="url(#p8a34339a04)" style="fill: none; stroke: #c60c31; stroke-width: 3; stroke-linecap: square"/>
    <defs>
     <path id="md872a09a06" d="M 0 1.5 
C 0.397805 1.5 0.77937 1.341951 1.06066 1.06066 
C 1.341951 0.77937 1.5 0.397805 1.5 0 
C 1.5 -0.397805 1.341951 -0.77937 1.06066 -1.06066 
C 0.77937 -1.341951 0.397805 -1.5 0 -1.5 
C -0.397805 -1.5 -0.77937 -1.341951 -1.06066 -1.06066 
C -1.341951 -0.77937 -1.5 -0.397805 -1.5 0 
C -1.5 0.397805 -1.341951 0.77937 -1.06066 1.06066 
C -0.77937 1.341951 -0.397805 1.5 0 1.5 
z
" style="stroke: #c60c31"/>
    </defs>
    <g clip-path="url(#p8a34339a04)">
     <use xlink:href="#md872a09a06" x="149.187238" y="223.66" style="fill: #c60c31; stroke: #c60c31"/>
     <use xlink:href="#md872a09a06" x="400.311509" y="223.66" style="fill: #c60c31; stroke: #c60c31"/>
    </g>
   </g>
   <g id="line2d_23">
    <path d="M 254.74362 223.66 
" clip-path="url(#p8a34339a04)" style="fill: none; stroke: #c60c31; stroke-width: 1.5; stroke-linecap: square"/>
    <defs>
     <path id="mcd5c256bfb" d="M 0 3 
C 0.795609 3 1.55874 2.683901 2.12132 2.12132 
C 2.683901 1.55874 3 0.795609 3 0 
C 3 -0.795609 2.683901 -1.55874 2.12132 -2.12132 
C 1.55874 -2.683901 0.795609 -3 0 -3 
C -0.795609 -3 -1.55874 -2.683901 -2.12132 -2.12132 
C -2.683901 -1.55874 -3 -0.795609 -3 0 
C -3 0.795609 -2.683901 1.55874 -2.12132 2.12132 
C -1.55874 2.683901 -0.795609 3 0 3 
z
" style="stroke: #c60c31"/>
    </defs>
    <g clip-path="url(#p8a34339a04)">
     <use xlink:href="#mcd5c256bfb" x="254.74362" y="223.66" style="fill: #c60c31; stroke: #c60c31"/>
    </g>
   </g>
   <g id="line2d_24">
    <path d="M 149.401356 247.096364 
L 388.642099 247.096364 
" clip-path="url(#p8a34339a04)" style="fill: none; stroke: #0c5ea7; stroke-width: 3; stroke-linecap: square"/>
    <defs>
     <path id="m30d26000ba" d="M 0 1.5 
C 0.397805 1.5 0.77937 1.341951 1.06066 1.06066 
C 1.341951 0.77937 1.5 0.397805 1.5 0 
C 1.5 -0.397805 1.341951 -0.77937 1.06066 -1.06066 
C 0.77937 -1.341951 0.397805 -1.5 0 -1.5 
C -0.397805 -1.5 -0.77937 -1.341951 -1.06066 -1.06066 
C -1.341951 -0.77937 -1.5 -0.397805 -1.5 0 
C -1.5 0.397805 -1.341951 0.77937 -1.06066 1.06066 
C -0.77937 1.341951 -0.397805 1.5 0 1.5 
z
" style="stroke: #0c5ea7"/>
    </defs>
    <g clip-path="url(#p8a34339a04)">
     <use xlink:href="#m30d26000ba" x="149.401356" y="247.096364" style="fill: #0c5ea7; stroke: #0c5ea7"/>
     <use xlink:href="#m30d26000ba" x="388.642099" y="247.096364" style="fill: #0c5ea7; stroke: #0c5ea7"/>
    </g>
   </g>
   <g id="line2d_25">
    <path d="M 258.540238 247.096364 
" clip-path="url(#p8a34339a04)" style="fill: none; stroke: #0c5ea7; stroke-width: 1.5; stroke-linecap: square"/>
    <defs>
     <path id="m7114b8a814" d="M 0 3 
C 0.795609 3 1.55874 2.683901 2.12132 2.12132 
C 2.683901 1.55874 3 0.795609 3 0 
C 3 -0.795609 2.683901 -1.55874 2.12132 -2.12132 
C 1.55874 -2.683901 0.795609 -3 0 -3 
C -0.795609 -3 -1.55874 -2.683901 -2.12132 -2.12132 
C -2.683901 -1.55874 -3 -0.795609 -3 0 
C -3 0.795609 -2.683901 1.55874 -2.12132 2.12132 
C -1.55874 2.683901 -0.795609 3 0 3 
z
" style="stroke: #0c5ea7"/>
    </defs>
    <g clip-path="url(#p8a34339a04)">
     <use xlink:href="#m7114b8a814" x="258.540238" y="247.096364" style="fill: #0c5ea7; stroke: #0c5ea7"/>
    </g>
   </g>
   <g id="line2d_26">
    <path d="M 140.051553 270.532727 
L 361.520535 270.532727 
" clip-path="url(#p8a34339a04)" style="fill: none; stroke: #08458c; stroke-width: 3; stroke-linecap: square"/>
    <defs>
     <path id="mcb93e3617e" d="M 0 1.5 
C 0.397805 1.5 0.77937 1.341951 1.06066 1.06066 
C 1.341951 0.77937 1.5 0.397805 1.5 0 
C 1.5 -0.397805 1.341951 -0.77937 1.06066 -1.06066 
C 0.77937 -1.341951 0.397805 -1.5 0 -1.5 
C -0.397805 -1.5 -0.77937 -1.341951 -1.06066 -1.06066 
C -1.341951 -0.77937 -1.5 -0.397805 -1.5 0 
C -1.5 0.397805 -1.341951 0.77937 -1.06066 1.06066 
C -0.77937 1.341951 -0.397805 1.5 0 1.5 
z
" style="stroke: #08458c"/>
    </defs>
    <g clip-path="url(#p8a34339a04)">
     <use xlink:href="#mcb93e3617e" x="140.051553" y="270.532727" style="fill: #08458c; stroke: #08458c"/>
     <use xlink:href="#mcb93e3617e" x="361.520535" y="270.532727" style="fill: #08458c; stroke: #08458c"/>
    </g>
   </g>
   <g id="line2d_27">
    <path d="M 262.054717 270.532727 
" clip-path="url(#p8a34339a04)" style="fill: none; stroke: #08458c; stroke-width: 1.5; stroke-linecap: square"/>
    <defs>
     <path id="m894916aee9" d="M 0 3 
C 0.795609 3 1.55874 2.683901 2.12132 2.12132 
C 2.683901 1.55874 3 0.795609 3 0 
C 3 -0.795609 2.683901 -1.55874 2.12132 -2.12132 
C 1.55874 -2.683901 0.795609 -3 0 -3 
C -0.795609 -3 -1.55874 -2.683901 -2.12132 -2.12132 
C -2.683901 -1.55874 -3 -0.795609 -3 0 
C -3 0.795609 -2.683901 1.55874 -2.12132 2.12132 
C -1.55874 2.683901 -0.795609 3 0 3 
z
" style="stroke: #08458c"/>
    </defs>
    <g clip-path="url(#p8a34339a04)">
     <use xlink:href="#m894916aee9" x="262.054717" y="270.532727" style="fill: #08458c; stroke: #08458c"/>
    </g>
   </g>
   <g id="line2d_28">
    <path d="M 153.31495 293.969091 
L 396.897523 293.969091 
" clip-path="url(#p8a34339a04)" style="fill: none; stroke: #29fd2f; stroke-width: 3; stroke-linecap: square"/>
    <defs>
     <path id="m32b94cf375" d="M 0 1.5 
C 0.397805 1.5 0.77937 1.341951 1.06066 1.06066 
C 1.341951 0.77937 1.5 0.397805 1.5 0 
C 1.5 -0.397805 1.341951 -0.77937 1.06066 -1.06066 
C 0.77937 -1.341951 0.397805 -1.5 0 -1.5 
C -0.397805 -1.5 -0.77937 -1.341951 -1.06066 -1.06066 
C -1.341951 -0.77937 -1.5 -0.397805 -1.5 0 
C -1.5 0.397805 -1.341951 0.77937 -1.06066 1.06066 
C -0.77937 1.341951 -0.397805 1.5 0 1.5 
z
" style="stroke: #29fd2f"/>
    </defs>
    <g clip-path="url(#p8a34339a04)">
     <use xlink:href="#m32b94cf375" x="153.31495" y="293.969091" style="fill: #29fd2f; stroke: #29fd2f"/>
     <use xlink:href="#m32b94cf375" x="396.897523" y="293.969091" style="fill: #29fd2f; stroke: #29fd2f"/>
    </g>
   </g>
   <g id="line2d_29">
    <path d="M 264.91821 293.969091 
" clip-path="url(#p8a34339a04)" style="fill: none; stroke: #29fd2f; stroke-width: 1.5; stroke-linecap: square"/>
    <defs>
     <path id="m7f3dfa9054" d="M 0 3 
C 0.795609 3 1.55874 2.683901 2.12132 2.12132 
C 2.683901 1.55874 3 0.795609 3 0 
C 3 -0.795609 2.683901 -1.55874 2.12132 -2.12132 
C 1.55874 -2.683901 0.795609 -3 0 -3 
C -0.795609 -3 -1.55874 -2.683901 -2.12132 -2.12132 
C -2.683901 -1.55874 -3 -0.795609 -3 0 
C -3 0.795609 -2.683901 1.55874 -2.12132 2.12132 
C -1.55874 2.683901 -0.795609 3 0 3 
z
" style="stroke: #29fd2f"/>
    </defs>
    <g clip-path="url(#p8a34339a04)">
     <use xlink:href="#m7f3dfa9054" x="264.91821" y="293.969091" style="fill: #29fd2f; stroke: #29fd2f"/>
    </g>
   </g>
   <g id="line2d_30">
    <path d="M 147.83116 317.405455 
L 364.137528 317.405455 
" clip-path="url(#p8a34339a04)" style="fill: none; stroke: #06454f; stroke-width: 3; stroke-linecap: square"/>
    <defs>
     <path id="me19e12ba64" d="M 0 1.5 
C 0.397805 1.5 0.77937 1.341951 1.06066 1.06066 
C 1.341951 0.77937 1.5 0.397805 1.5 0 
C 1.5 -0.397805 1.341951 -0.77937 1.06066 -1.06066 
C 0.77937 -1.341951 0.397805 -1.5 0 -1.5 
C -0.397805 -1.5 -0.77937 -1.341951 -1.06066 -1.06066 
C -1.341951 -0.77937 -1.5 -0.397805 -1.5 0 
C -1.5 0.397805 -1.341951 0.77937 -1.06066 1.06066 
C -0.77937 1.341951 -0.397805 1.5 0 1.5 
z
" style="stroke: #06454f"/>
    </defs>
    <g clip-path="url(#p8a34339a04)">
     <use xlink:href="#me19e12ba64" x="147.83116" y="317.405455" style="fill: #06454f; stroke: #06454f"/>
     <use xlink:href="#me19e12ba64" x="364.137528" y="317.405455" style="fill: #06454f; stroke: #06454f"/>
    </g>
   </g>
   <g id="line2d_31">
    <path d="M 265.23511 317.405455 
" clip-path="url(#p8a34339a04)" style="fill: none; stroke: #06454f; stroke-width: 1.5; stroke-linecap: square"/>
    <defs>
     <path id="m6f7c42804c" d="M 0 3 
C 0.795609 3 1.55874 2.683901 2.12132 2.12132 
C 2.683901 1.55874 3 0.795609 3 0 
C 3 -0.795609 2.683901 -1.55874 2.12132 -2.12132 
C 1.55874 -2.683901 0.795609 -3 0 -3 
C -0.795609 -3 -1.55874 -2.683901 -2.12132 -2.12132 
C -2.683901 -1.55874 -3 -0.795609 -3 0 
C -3 0.795609 -2.683901 1.55874 -2.12132 2.12132 
C -1.55874 2.683901 -0.795609 3 0 3 
z
" style="stroke: #06454f"/>
    </defs>
    <g clip-path="url(#p8a34339a04)">
     <use xlink:href="#m6f7c42804c" x="265.23511" y="317.405455" style="fill: #06454f; stroke: #06454f"/>
    </g>
   </g>
   <g id="line2d_32">
    <path d="M 154.730505 340.841818 
L 380.458048 340.841818 
" clip-path="url(#p8a34339a04)" style="fill: none; stroke: #546299; stroke-width: 3; stroke-linecap: square"/>
    <defs>
     <path id="m8a46266131" d="M 0 1.5 
C 0.397805 1.5 0.77937 1.341951 1.06066 1.06066 
C 1.341951 0.77937 1.5 0.397805 1.5 0 
C 1.5 -0.397805 1.341951 -0.77937 1.06066 -1.06066 
C 0.77937 -1.341951 0.397805 -1.5 0 -1.5 
C -0.397805 -1.5 -0.77937 -1.341951 -1.06066 -1.06066 
C -1.341951 -0.77937 -1.5 -0.397805 -1.5 0 
C -1.5 0.397805 -1.341951 0.77937 -1.06066 1.06066 
C -0.77937 1.341951 -0.397805 1.5 0 1.5 
z
" style="stroke: #546299"/>
    </defs>
    <g clip-path="url(#p8a34339a04)">
     <use xlink:href="#m8a46266131" x="154.730505" y="340.841818" style="fill: #546299; stroke: #546299"/>
     <use xlink:href="#m8a46266131" x="380.458048" y="340.841818" style="fill: #546299; stroke: #546299"/>
    </g>
   </g>
   <g id="line2d_33">
    <path d="M 277.504079 340.841818 
" clip-path="url(#p8a34339a04)" style="fill: none; stroke: #546299; stroke-width: 1.5; stroke-linecap: square"/>
    <defs>
     <path id="mf3c4157871" d="M 0 3 
C 0.795609 3 1.55874 2.683901 2.12132 2.12132 
C 2.683901 1.55874 3 0.795609 3 0 
C 3 -0.795609 2.683901 -1.55874 2.12132 -2.12132 
C 1.55874 -2.683901 0.795609 -3 0 -3 
C -0.795609 -3 -1.55874 -2.683901 -2.12132 -2.12132 
C -2.683901 -1.55874 -3 -0.795609 -3 0 
C -3 0.795609 -2.683901 1.55874 -2.12132 2.12132 
C -1.55874 2.683901 -0.795609 3 0 3 
z
" style="stroke: #546299"/>
    </defs>
    <g clip-path="url(#p8a34339a04)">
     <use xlink:href="#mf3c4157871" x="277.504079" y="340.841818" style="fill: #546299; stroke: #546299"/>
    </g>
   </g>
   <g id="line2d_34">
    <path d="M 164.627497 364.278182 
L 362.733868 364.278182 
" clip-path="url(#p8a34339a04)" style="fill: none; stroke: #1c74bf; stroke-width: 3; stroke-linecap: square"/>
    <defs>
     <path id="m896792ea73" d="M 0 1.5 
C 0.397805 1.5 0.77937 1.341951 1.06066 1.06066 
C 1.341951 0.77937 1.5 0.397805 1.5 0 
C 1.5 -0.397805 1.341951 -0.77937 1.06066 -1.06066 
C 0.77937 -1.341951 0.397805 -1.5 0 -1.5 
C -0.397805 -1.5 -0.77937 -1.341951 -1.06066 -1.06066 
C -1.341951 -0.77937 -1.5 -0.397805 -1.5 0 
C -1.5 0.397805 -1.341951 0.77937 -1.06066 1.06066 
C -0.77937 1.341951 -0.397805 1.5 0 1.5 
z
" style="stroke: #1c74bf"/>
    </defs>
    <g clip-path="url(#p8a34339a04)">
     <use xlink:href="#m896792ea73" x="164.627497" y="364.278182" style="fill: #1c74bf; stroke: #1c74bf"/>
     <use xlink:href="#m896792ea73" x="362.733868" y="364.278182" style="fill: #1c74bf; stroke: #1c74bf"/>
    </g>
   </g>
   <g id="line2d_35">
    <path d="M 285.280321 364.278182 
" clip-path="url(#p8a34339a04)" style="fill: none; stroke: #1c74bf; stroke-width: 1.5; stroke-linecap: square"/>
    <defs>
     <path id="maaf813f07d" d="M 0 3 
C 0.795609 3 1.55874 2.683901 2.12132 2.12132 
C 2.683901 1.55874 3 0.795609 3 0 
C 3 -0.795609 2.683901 -1.55874 2.12132 -2.12132 
C 1.55874 -2.683901 0.795609 -3 0 -3 
C -0.795609 -3 -1.55874 -2.683901 -2.12132 -2.12132 
C -2.683901 -1.55874 -3 -0.795609 -3 0 
C -3 0.795609 -2.683901 1.55874 -2.12132 2.12132 
C -1.55874 2.683901 -0.795609 3 0 3 
z
" style="stroke: #1c74bf"/>
    </defs>
    <g clip-path="url(#p8a34339a04)">
     <use xlink:href="#maaf813f07d" x="285.280321" y="364.278182" style="fill: #1c74bf; stroke: #1c74bf"/>
    </g>
   </g>
   <g id="line2d_36">
    <path d="M 263.633101 387.714545 
L 313.260805 387.714545 
" clip-path="url(#p8a34339a04)" style="fill: none; stroke: #cfcfcf; stroke-width: 3; stroke-linecap: square"/>
    <defs>
     <path id="m4d21459127" d="M 0 1.5 
C 0.397805 1.5 0.77937 1.341951 1.06066 1.06066 
C 1.341951 0.77937 1.5 0.397805 1.5 0 
C 1.5 -0.397805 1.341951 -0.77937 1.06066 -1.06066 
C 0.77937 -1.341951 0.397805 -1.5 0 -1.5 
C -0.397805 -1.5 -0.77937 -1.341951 -1.06066 -1.06066 
C -1.341951 -0.77937 -1.5 -0.397805 -1.5 0 
C -1.5 0.397805 -1.341951 0.77937 -1.06066 1.06066 
C -0.77937 1.341951 -0.397805 1.5 0 1.5 
z
" style="stroke: #cfcfcf"/>
    </defs>
    <g clip-path="url(#p8a34339a04)">
     <use xlink:href="#m4d21459127" x="263.633101" y="387.714545" style="fill: #cfcfcf; stroke: #cfcfcf"/>
     <use xlink:href="#m4d21459127" x="313.260805" y="387.714545" style="fill: #cfcfcf; stroke: #cfcfcf"/>
    </g>
   </g>
   <g id="line2d_37">
    <path d="M 288.446953 387.714545 
" clip-path="url(#p8a34339a04)" style="fill: none; stroke: #cfcfcf; stroke-width: 1.5; stroke-linecap: square"/>
    <defs>
     <path id="mc64a619538" d="M 0 3 
C 0.795609 3 1.55874 2.683901 2.12132 2.12132 
C 2.683901 1.55874 3 0.795609 3 0 
C 3 -0.795609 2.683901 -1.55874 2.12132 -2.12132 
C 1.55874 -2.683901 0.795609 -3 0 -3 
C -0.795609 -3 -1.55874 -2.683901 -2.12132 -2.12132 
C -2.683901 -1.55874 -3 -0.795609 -3 0 
C -3 0.795609 -2.683901 1.55874 -2.12132 2.12132 
C -1.55874 2.683901 -0.795609 3 0 3 
z
" style="stroke: #cfcfcf"/>
    </defs>
    <g clip-path="url(#p8a34339a04)">
     <use xlink:href="#mc64a619538" x="288.446953" y="387.714545" style="fill: #cfcfcf; stroke: #cfcfcf"/>
    </g>
   </g>
   <g id="text_8">
    <!-- 34 -->
    <g style="fill: #333333" transform="translate(204.403928 54.605455) scale(0.08 -0.08)">
     <use xlink:href="#DejaVuSans-33"/>
     <use xlink:href="#DejaVuSans-34" x="63.623047"/>
    </g>
   </g>
   <g id="text_9">
    <!-- Frie Grønne -->
    <g style="fill: #1a1a1a" transform="translate(75.708723 62.36483) scale(0.1 -0.1)">
     <defs>
      <path id="DejaVuSans-46" d="M 628 4666 
L 3309 4666 
L 3309 4134 
L 1259 4134 
L 1259 2759 
L 3109 2759 
L 3109 2228 
L 1259 2228 
L 1259 0 
L 628 0 
L 628 4666 
z
" transform="scale(0.015625)"/>
      <path id="DejaVuSans-69" d="M 603 3500 
L 1178 3500 
L 1178 0 
L 603 0 
L 603 3500 
z
M 603 4863 
L 1178 4863 
L 1178 4134 
L 603 4134 
L 603 4863 
z
" transform="scale(0.015625)"/>
      <path id="DejaVuSans-65" d="M 3597 1894 
L 3597 1613 
L 953 1613 
Q 991 1019 1311 708 
Q 1631 397 2203 397 
Q 2534 397 2845 478 
Q 3156 559 3463 722 
L 3463 178 
Q 3153 47 2828 -22 
Q 2503 -91 2169 -91 
Q 1331 -91 842 396 
Q 353 884 353 1716 
Q 353 2575 817 3079 
Q 1281 3584 2069 3584 
Q 2775 3584 3186 3129 
Q 3597 2675 3597 1894 
z
M 3022 2063 
Q 3016 2534 2758 2815 
Q 2500 3097 2075 3097 
Q 1594 3097 1305 2825 
Q 1016 2553 972 2059 
L 3022 2063 
z
" transform="scale(0.015625)"/>
      <path id="DejaVuSans-47" d="M 3809 666 
L 3809 1919 
L 2778 1919 
L 2778 2438 
L 4434 2438 
L 4434 434 
Q 4069 175 3628 42 
Q 3188 -91 2688 -91 
Q 1594 -91 976 548 
Q 359 1188 359 2328 
Q 359 3472 976 4111 
Q 1594 4750 2688 4750 
Q 3144 4750 3555 4637 
Q 3966 4525 4313 4306 
L 4313 3634 
Q 3963 3931 3569 4081 
Q 3175 4231 2741 4231 
Q 1884 4231 1454 3753 
Q 1025 3275 1025 2328 
Q 1025 1384 1454 906 
Q 1884 428 2741 428 
Q 3075 428 3337 486 
Q 3600 544 3809 666 
z
" transform="scale(0.015625)"/>
      <path id="DejaVuSans-f8" d="M 2828 2503 
L 1306 653 
Q 1434 522 1595 459 
Q 1756 397 1959 397 
Q 2419 397 2687 759 
Q 2956 1122 2956 1747 
Q 2956 1994 2925 2176 
Q 2894 2359 2828 2503 
z
M 2606 2841 
Q 2475 2969 2314 3033 
Q 2153 3097 1959 3097 
Q 1488 3097 1223 2730 
Q 959 2363 959 1703 
Q 959 1478 989 1306 
Q 1019 1134 1081 991 
L 2606 2841 
z
M 691 519 
Q 522 759 437 1067 
Q 353 1375 353 1747 
Q 353 2609 779 3096 
Q 1206 3584 1959 3584 
Q 2250 3584 2498 3504 
Q 2747 3425 2956 3263 
L 3391 3788 
L 3688 3541 
L 3231 2981 
Q 3397 2741 3481 2431 
Q 3566 2122 3566 1747 
Q 3566 888 3137 398 
Q 2709 -91 1959 -91 
Q 1659 -91 1407 -9 
Q 1156 72 959 231 
L 525 -294 
L 225 -50 
L 691 519 
z
" transform="scale(0.015625)"/>
      <path id="DejaVuSans-6e" d="M 3513 2113 
L 3513 0 
L 2938 0 
L 2938 2094 
Q 2938 2591 2744 2837 
Q 2550 3084 2163 3084 
Q 1697 3084 1428 2787 
Q 1159 2491 1159 1978 
L 1159 0 
L 581 0 
L 581 3500 
L 1159 3500 
L 1159 2956 
Q 1366 3272 1645 3428 
Q 1925 3584 2291 3584 
Q 2894 3584 3203 3211 
Q 3513 2838 3513 2113 
z
" transform="scale(0.015625)"/>
     </defs>
     <use xlink:href="#DejaVuSans-46"/>
     <use xlink:href="#DejaVuSans-72" x="50.269531"/>
     <use xlink:href="#DejaVuSans-69" x="91.382812"/>
     <use xlink:href="#DejaVuSans-65" x="119.166016"/>
     <use xlink:href="#DejaVuSans-20" x="180.689453"/>
     <use xlink:href="#DejaVuSans-47" x="212.476562"/>
     <use xlink:href="#DejaVuSans-72" x="289.966797"/>
     <use xlink:href="#DejaVuSans-f8" x="331.080078"/>
     <use xlink:href="#DejaVuSans-6e" x="392.261719"/>
     <use xlink:href="#DejaVuSans-6e" x="455.640625"/>
     <use xlink:href="#DejaVuSans-65" x="519.019531"/>
    </g>
   </g>
   <g id="text_10">
    <!-- 38 -->
    <g style="fill: #333333" transform="translate(220.27895 78.041818) scale(0.08 -0.08)">
     <use xlink:href="#DejaVuSans-33"/>
     <use xlink:href="#DejaVuSans-38" x="63.623047"/>
    </g>
   </g>
   <g id="text_11">
    <!-- Liberal Alliance -->
    <g style="fill: #1a1a1a" transform="translate(57.422786 85.801193) scale(0.1 -0.1)">
     <defs>
      <path id="DejaVuSans-4c" d="M 628 4666 
L 1259 4666 
L 1259 531 
L 3531 531 
L 3531 0 
L 628 0 
L 628 4666 
z
" transform="scale(0.015625)"/>
      <path id="DejaVuSans-62" d="M 3116 1747 
Q 3116 2381 2855 2742 
Q 2594 3103 2138 3103 
Q 1681 3103 1420 2742 
Q 1159 2381 1159 1747 
Q 1159 1113 1420 752 
Q 1681 391 2138 391 
Q 2594 391 2855 752 
Q 3116 1113 3116 1747 
z
M 1159 2969 
Q 1341 3281 1617 3432 
Q 1894 3584 2278 3584 
Q 2916 3584 3314 3078 
Q 3713 2572 3713 1747 
Q 3713 922 3314 415 
Q 2916 -91 2278 -91 
Q 1894 -91 1617 61 
Q 1341 213 1159 525 
L 1159 0 
L 581 0 
L 581 4863 
L 1159 4863 
L 1159 2969 
z
" transform="scale(0.015625)"/>
      <path id="DejaVuSans-61" d="M 2194 1759 
Q 1497 1759 1228 1600 
Q 959 1441 959 1056 
Q 959 750 1161 570 
Q 1363 391 1709 391 
Q 2188 391 2477 730 
Q 2766 1069 2766 1631 
L 2766 1759 
L 2194 1759 
z
M 3341 1997 
L 3341 0 
L 2766 0 
L 2766 531 
Q 2569 213 2275 61 
Q 1981 -91 1556 -91 
Q 1019 -91 701 211 
Q 384 513 384 1019 
Q 384 1609 779 1909 
Q 1175 2209 1959 2209 
L 2766 2209 
L 2766 2266 
Q 2766 2663 2505 2880 
Q 2244 3097 1772 3097 
Q 1472 3097 1187 3025 
Q 903 2953 641 2809 
L 641 3341 
Q 956 3463 1253 3523 
Q 1550 3584 1831 3584 
Q 2591 3584 2966 3190 
Q 3341 2797 3341 1997 
z
" transform="scale(0.015625)"/>
      <path id="DejaVuSans-6c" d="M 603 4863 
L 1178 4863 
L 1178 0 
L 603 0 
L 603 4863 
z
" transform="scale(0.015625)"/>
      <path id="DejaVuSans-41" d="M 2188 4044 
L 1331 1722 
L 3047 1722 
L 2188 4044 
z
M 1831 4666 
L 2547 4666 
L 4325 0 
L 3669 0 
L 3244 1197 
L 1141 1197 
L 716 0 
L 50 0 
L 1831 4666 
z
" transform="scale(0.015625)"/>
      <path id="DejaVuSans-63" d="M 3122 3366 
L 3122 2828 
Q 2878 2963 2633 3030 
Q 2388 3097 2138 3097 
Q 1578 3097 1268 2742 
Q 959 2388 959 1747 
Q 959 1106 1268 751 
Q 1578 397 2138 397 
Q 2388 397 2633 464 
Q 2878 531 3122 666 
L 3122 134 
Q 2881 22 2623 -34 
Q 2366 -91 2075 -91 
Q 1284 -91 818 406 
Q 353 903 353 1747 
Q 353 2603 823 3093 
Q 1294 3584 2113 3584 
Q 2378 3584 2631 3529 
Q 2884 3475 3122 3366 
z
" transform="scale(0.015625)"/>
     </defs>
     <use xlink:href="#DejaVuSans-4c"/>
     <use xlink:href="#DejaVuSans-69" x="55.712891"/>
     <use xlink:href="#DejaVuSans-62" x="83.496094"/>
     <use xlink:href="#DejaVuSans-65" x="146.972656"/>
     <use xlink:href="#DejaVuSans-72" x="208.496094"/>
     <use xlink:href="#DejaVuSans-61" x="249.609375"/>
     <use xlink:href="#DejaVuSans-6c" x="310.888672"/>
     <use xlink:href="#DejaVuSans-20" x="338.671875"/>
     <use xlink:href="#DejaVuSans-41" x="370.458984"/>
     <use xlink:href="#DejaVuSans-6c" x="438.867188"/>
     <use xlink:href="#DejaVuSans-6c" x="466.650391"/>
     <use xlink:href="#DejaVuSans-69" x="494.433594"/>
     <use xlink:href="#DejaVuSans-61" x="522.216797"/>
     <use xlink:href="#DejaVuSans-6e" x="583.496094"/>
     <use xlink:href="#DejaVuSans-63" x="646.875"/>
     <use xlink:href="#DejaVuSans-65" x="701.855469"/>
    </g>
   </g>
   <g id="text_12">
    <!-- 41 -->
    <g style="fill: #333333" transform="translate(233.038385 101.478182) scale(0.08 -0.08)">
     <defs>
      <path id="DejaVuSans-31" d="M 794 531 
L 1825 531 
L 1825 4091 
L 703 3866 
L 703 4441 
L 1819 4666 
L 2450 4666 
L 2450 531 
L 3481 531 
L 3481 0 
L 794 0 
L 794 531 
z
" transform="scale(0.015625)"/>
     </defs>
     <use xlink:href="#DejaVuSans-34"/>
     <use xlink:href="#DejaVuSans-31" x="63.623047"/>
    </g>
   </g>
   <g id="text_13">
    <!-- SF -->
    <g style="fill: #1a1a1a" transform="translate(121.661848 109.237557) scale(0.1 -0.1)">
     <defs>
      <path id="DejaVuSans-53" d="M 3425 4513 
L 3425 3897 
Q 3066 4069 2747 4153 
Q 2428 4238 2131 4238 
Q 1616 4238 1336 4038 
Q 1056 3838 1056 3469 
Q 1056 3159 1242 3001 
Q 1428 2844 1947 2747 
L 2328 2669 
Q 3034 2534 3370 2195 
Q 3706 1856 3706 1288 
Q 3706 609 3251 259 
Q 2797 -91 1919 -91 
Q 1588 -91 1214 -16 
Q 841 59 441 206 
L 441 856 
Q 825 641 1194 531 
Q 1563 422 1919 422 
Q 2459 422 2753 634 
Q 3047 847 3047 1241 
Q 3047 1584 2836 1778 
Q 2625 1972 2144 2069 
L 1759 2144 
Q 1053 2284 737 2584 
Q 422 2884 422 3419 
Q 422 4038 858 4394 
Q 1294 4750 2059 4750 
Q 2388 4750 2728 4690 
Q 3069 4631 3425 4513 
z
" transform="scale(0.015625)"/>
     </defs>
     <use xlink:href="#DejaVuSans-53"/>
     <use xlink:href="#DejaVuSans-46" x="63.476562"/>
    </g>
   </g>
   <g id="text_14">
    <!-- 42 -->
    <g style="fill: #333333" transform="translate(237.280882 124.914545) scale(0.08 -0.08)">
     <use xlink:href="#DejaVuSans-34"/>
     <use xlink:href="#DejaVuSans-32" x="63.623047"/>
    </g>
   </g>
   <g id="text_15">
    <!-- Enhedslisten -->
    <g style="fill: #1a1a1a" transform="translate(69.880598 132.67392) scale(0.1 -0.1)">
     <defs>
      <path id="DejaVuSans-45" d="M 628 4666 
L 3578 4666 
L 3578 4134 
L 1259 4134 
L 1259 2753 
L 3481 2753 
L 3481 2222 
L 1259 2222 
L 1259 531 
L 3634 531 
L 3634 0 
L 628 0 
L 628 4666 
z
" transform="scale(0.015625)"/>
      <path id="DejaVuSans-68" d="M 3513 2113 
L 3513 0 
L 2938 0 
L 2938 2094 
Q 2938 2591 2744 2837 
Q 2550 3084 2163 3084 
Q 1697 3084 1428 2787 
Q 1159 2491 1159 1978 
L 1159 0 
L 581 0 
L 581 4863 
L 1159 4863 
L 1159 2956 
Q 1366 3272 1645 3428 
Q 1925 3584 2291 3584 
Q 2894 3584 3203 3211 
Q 3513 2838 3513 2113 
z
" transform="scale(0.015625)"/>
      <path id="DejaVuSans-64" d="M 2906 2969 
L 2906 4863 
L 3481 4863 
L 3481 0 
L 2906 0 
L 2906 525 
Q 2725 213 2448 61 
Q 2172 -91 1784 -91 
Q 1150 -91 751 415 
Q 353 922 353 1747 
Q 353 2572 751 3078 
Q 1150 3584 1784 3584 
Q 2172 3584 2448 3432 
Q 2725 3281 2906 2969 
z
M 947 1747 
Q 947 1113 1208 752 
Q 1469 391 1925 391 
Q 2381 391 2643 752 
Q 2906 1113 2906 1747 
Q 2906 2381 2643 2742 
Q 2381 3103 1925 3103 
Q 1469 3103 1208 2742 
Q 947 2381 947 1747 
z
" transform="scale(0.015625)"/>
      <path id="DejaVuSans-73" d="M 2834 3397 
L 2834 2853 
Q 2591 2978 2328 3040 
Q 2066 3103 1784 3103 
Q 1356 3103 1142 2972 
Q 928 2841 928 2578 
Q 928 2378 1081 2264 
Q 1234 2150 1697 2047 
L 1894 2003 
Q 2506 1872 2764 1633 
Q 3022 1394 3022 966 
Q 3022 478 2636 193 
Q 2250 -91 1575 -91 
Q 1294 -91 989 -36 
Q 684 19 347 128 
L 347 722 
Q 666 556 975 473 
Q 1284 391 1588 391 
Q 1994 391 2212 530 
Q 2431 669 2431 922 
Q 2431 1156 2273 1281 
Q 2116 1406 1581 1522 
L 1381 1569 
Q 847 1681 609 1914 
Q 372 2147 372 2553 
Q 372 3047 722 3315 
Q 1072 3584 1716 3584 
Q 2034 3584 2315 3537 
Q 2597 3491 2834 3397 
z
" transform="scale(0.015625)"/>
      <path id="DejaVuSans-74" d="M 1172 4494 
L 1172 3500 
L 2356 3500 
L 2356 3053 
L 1172 3053 
L 1172 1153 
Q 1172 725 1289 603 
Q 1406 481 1766 481 
L 2356 481 
L 2356 0 
L 1766 0 
Q 1100 0 847 248 
Q 594 497 594 1153 
L 594 3053 
L 172 3053 
L 172 3500 
L 594 3500 
L 594 4494 
L 1172 4494 
z
" transform="scale(0.015625)"/>
     </defs>
     <use xlink:href="#DejaVuSans-45"/>
     <use xlink:href="#DejaVuSans-6e" x="63.183594"/>
     <use xlink:href="#DejaVuSans-68" x="126.5625"/>
     <use xlink:href="#DejaVuSans-65" x="189.941406"/>
     <use xlink:href="#DejaVuSans-64" x="251.464844"/>
     <use xlink:href="#DejaVuSans-73" x="314.941406"/>
     <use xlink:href="#DejaVuSans-6c" x="367.041016"/>
     <use xlink:href="#DejaVuSans-69" x="394.824219"/>
     <use xlink:href="#DejaVuSans-73" x="422.607422"/>
     <use xlink:href="#DejaVuSans-74" x="474.707031"/>
     <use xlink:href="#DejaVuSans-65" x="513.916016"/>
     <use xlink:href="#DejaVuSans-6e" x="575.439453"/>
    </g>
   </g>
   <g id="text_16">
    <!-- 43 -->
    <g style="fill: #333333" transform="translate(243.663958 148.350909) scale(0.08 -0.08)">
     <use xlink:href="#DejaVuSans-34"/>
     <use xlink:href="#DejaVuSans-33" x="63.623047"/>
    </g>
   </g>
   <g id="text_17">
    <!-- Moderaterne -->
    <g style="fill: #1a1a1a" transform="translate(69.774348 156.110284) scale(0.1 -0.1)">
     <defs>
      <path id="DejaVuSans-4d" d="M 628 4666 
L 1569 4666 
L 2759 1491 
L 3956 4666 
L 4897 4666 
L 4897 0 
L 4281 0 
L 4281 4097 
L 3078 897 
L 2444 897 
L 1241 4097 
L 1241 0 
L 628 0 
L 628 4666 
z
" transform="scale(0.015625)"/>
      <path id="DejaVuSans-6f" d="M 1959 3097 
Q 1497 3097 1228 2736 
Q 959 2375 959 1747 
Q 959 1119 1226 758 
Q 1494 397 1959 397 
Q 2419 397 2687 759 
Q 2956 1122 2956 1747 
Q 2956 2369 2687 2733 
Q 2419 3097 1959 3097 
z
M 1959 3584 
Q 2709 3584 3137 3096 
Q 3566 2609 3566 1747 
Q 3566 888 3137 398 
Q 2709 -91 1959 -91 
Q 1206 -91 779 398 
Q 353 888 353 1747 
Q 353 2609 779 3096 
Q 1206 3584 1959 3584 
z
" transform="scale(0.015625)"/>
     </defs>
     <use xlink:href="#DejaVuSans-4d"/>
     <use xlink:href="#DejaVuSans-6f" x="86.279297"/>
     <use xlink:href="#DejaVuSans-64" x="147.460938"/>
     <use xlink:href="#DejaVuSans-65" x="210.9375"/>
     <use xlink:href="#DejaVuSans-72" x="272.460938"/>
     <use xlink:href="#DejaVuSans-61" x="313.574219"/>
     <use xlink:href="#DejaVuSans-74" x="374.853516"/>
     <use xlink:href="#DejaVuSans-65" x="414.0625"/>
     <use xlink:href="#DejaVuSans-72" x="475.585938"/>
     <use xlink:href="#DejaVuSans-6e" x="514.949219"/>
     <use xlink:href="#DejaVuSans-65" x="578.328125"/>
    </g>
   </g>
   <g id="text_18">
    <!-- 44 -->
    <g style="fill: #333333" transform="translate(244.267478 171.787273) scale(0.08 -0.08)">
     <use xlink:href="#DejaVuSans-34"/>
     <use xlink:href="#DejaVuSans-34" x="63.623047"/>
    </g>
   </g>
   <g id="text_19">
    <!-- Radikale -->
    <g style="fill: #1a1a1a" transform="translate(91.108723 179.546648) scale(0.1 -0.1)">
     <defs>
      <path id="DejaVuSans-52" d="M 2841 2188 
Q 3044 2119 3236 1894 
Q 3428 1669 3622 1275 
L 4263 0 
L 3584 0 
L 2988 1197 
Q 2756 1666 2539 1819 
Q 2322 1972 1947 1972 
L 1259 1972 
L 1259 0 
L 628 0 
L 628 4666 
L 2053 4666 
Q 2853 4666 3247 4331 
Q 3641 3997 3641 3322 
Q 3641 2881 3436 2590 
Q 3231 2300 2841 2188 
z
M 1259 4147 
L 1259 2491 
L 2053 2491 
Q 2509 2491 2742 2702 
Q 2975 2913 2975 3322 
Q 2975 3731 2742 3939 
Q 2509 4147 2053 4147 
L 1259 4147 
z
" transform="scale(0.015625)"/>
      <path id="DejaVuSans-6b" d="M 581 4863 
L 1159 4863 
L 1159 1991 
L 2875 3500 
L 3609 3500 
L 1753 1863 
L 3688 0 
L 2938 0 
L 1159 1709 
L 1159 0 
L 581 0 
L 581 4863 
z
" transform="scale(0.015625)"/>
     </defs>
     <use xlink:href="#DejaVuSans-52"/>
     <use xlink:href="#DejaVuSans-61" x="67.232422"/>
     <use xlink:href="#DejaVuSans-64" x="128.511719"/>
     <use xlink:href="#DejaVuSans-69" x="191.988281"/>
     <use xlink:href="#DejaVuSans-6b" x="219.771484"/>
     <use xlink:href="#DejaVuSans-61" x="275.931641"/>
     <use xlink:href="#DejaVuSans-6c" x="337.210938"/>
     <use xlink:href="#DejaVuSans-65" x="364.994141"/>
    </g>
   </g>
   <g id="text_20">
    <!-- 45 -->
    <g style="fill: #333333" transform="translate(249.545667 195.223636) scale(0.08 -0.08)">
     <use xlink:href="#DejaVuSans-34"/>
     <use xlink:href="#DejaVuSans-35" x="63.623047"/>
    </g>
   </g>
   <g id="text_21">
    <!-- Konservative -->
    <g style="fill: #1a1a1a" transform="translate(68.957161 202.983011) scale(0.1 -0.1)">
     <defs>
      <path id="DejaVuSans-4b" d="M 628 4666 
L 1259 4666 
L 1259 2694 
L 3353 4666 
L 4166 4666 
L 1850 2491 
L 4331 0 
L 3500 0 
L 1259 2247 
L 1259 0 
L 628 0 
L 628 4666 
z
" transform="scale(0.015625)"/>
      <path id="DejaVuSans-76" d="M 191 3500 
L 800 3500 
L 1894 563 
L 2988 3500 
L 3597 3500 
L 2284 0 
L 1503 0 
L 191 3500 
z
" transform="scale(0.015625)"/>
     </defs>
     <use xlink:href="#DejaVuSans-4b"/>
     <use xlink:href="#DejaVuSans-6f" x="60.576172"/>
     <use xlink:href="#DejaVuSans-6e" x="121.757812"/>
     <use xlink:href="#DejaVuSans-73" x="185.136719"/>
     <use xlink:href="#DejaVuSans-65" x="237.236328"/>
     <use xlink:href="#DejaVuSans-72" x="298.759766"/>
     <use xlink:href="#DejaVuSans-76" x="339.873047"/>
     <use xlink:href="#DejaVuSans-61" x="399.052734"/>
     <use xlink:href="#DejaVuSans-74" x="460.332031"/>
     <use xlink:href="#DejaVuSans-69" x="499.541016"/>
     <use xlink:href="#DejaVuSans-76" x="527.324219"/>
     <use xlink:href="#DejaVuSans-65" x="586.503906"/>
    </g>
   </g>
   <g id="text_22">
    <!-- 45 -->
    <g style="fill: #333333" transform="translate(249.65362 218.66) scale(0.08 -0.08)">
     <use xlink:href="#DejaVuSans-34"/>
     <use xlink:href="#DejaVuSans-35" x="63.623047"/>
    </g>
   </g>
   <g id="text_23">
    <!-- Socialdemokratiet -->
    <g style="fill: #1a1a1a" transform="translate(42.949348 226.419375) scale(0.1 -0.1)">
     <defs>
      <path id="DejaVuSans-6d" d="M 3328 2828 
Q 3544 3216 3844 3400 
Q 4144 3584 4550 3584 
Q 5097 3584 5394 3201 
Q 5691 2819 5691 2113 
L 5691 0 
L 5113 0 
L 5113 2094 
Q 5113 2597 4934 2840 
Q 4756 3084 4391 3084 
Q 3944 3084 3684 2787 
Q 3425 2491 3425 1978 
L 3425 0 
L 2847 0 
L 2847 2094 
Q 2847 2600 2669 2842 
Q 2491 3084 2119 3084 
Q 1678 3084 1418 2786 
Q 1159 2488 1159 1978 
L 1159 0 
L 581 0 
L 581 3500 
L 1159 3500 
L 1159 2956 
Q 1356 3278 1631 3431 
Q 1906 3584 2284 3584 
Q 2666 3584 2933 3390 
Q 3200 3197 3328 2828 
z
" transform="scale(0.015625)"/>
     </defs>
     <use xlink:href="#DejaVuSans-53"/>
     <use xlink:href="#DejaVuSans-6f" x="63.476562"/>
     <use xlink:href="#DejaVuSans-63" x="124.658203"/>
     <use xlink:href="#DejaVuSans-69" x="179.638672"/>
     <use xlink:href="#DejaVuSans-61" x="207.421875"/>
     <use xlink:href="#DejaVuSans-6c" x="268.701172"/>
     <use xlink:href="#DejaVuSans-64" x="296.484375"/>
     <use xlink:href="#DejaVuSans-65" x="359.960938"/>
     <use xlink:href="#DejaVuSans-6d" x="421.484375"/>
     <use xlink:href="#DejaVuSans-6f" x="518.896484"/>
     <use xlink:href="#DejaVuSans-6b" x="580.078125"/>
     <use xlink:href="#DejaVuSans-72" x="637.988281"/>
     <use xlink:href="#DejaVuSans-61" x="679.101562"/>
     <use xlink:href="#DejaVuSans-74" x="740.380859"/>
     <use xlink:href="#DejaVuSans-69" x="779.589844"/>
     <use xlink:href="#DejaVuSans-65" x="807.373047"/>
     <use xlink:href="#DejaVuSans-74" x="868.896484"/>
    </g>
   </g>
   <g id="text_24">
    <!-- 46 -->
    <g style="fill: #333333" transform="translate(253.450238 242.096364) scale(0.08 -0.08)">
     <use xlink:href="#DejaVuSans-34"/>
     <use xlink:href="#DejaVuSans-36" x="63.623047"/>
    </g>
   </g>
   <g id="text_25">
    <!-- Dansk Folkeparti -->
    <g style="fill: #1a1a1a" transform="translate(50.264973 249.855739) scale(0.1 -0.1)">
     <defs>
      <path id="DejaVuSans-44" d="M 1259 4147 
L 1259 519 
L 2022 519 
Q 2988 519 3436 956 
Q 3884 1394 3884 2338 
Q 3884 3275 3436 3711 
Q 2988 4147 2022 4147 
L 1259 4147 
z
M 628 4666 
L 1925 4666 
Q 3281 4666 3915 4102 
Q 4550 3538 4550 2338 
Q 4550 1131 3912 565 
Q 3275 0 1925 0 
L 628 0 
L 628 4666 
z
" transform="scale(0.015625)"/>
      <path id="DejaVuSans-70" d="M 1159 525 
L 1159 -1331 
L 581 -1331 
L 581 3500 
L 1159 3500 
L 1159 2969 
Q 1341 3281 1617 3432 
Q 1894 3584 2278 3584 
Q 2916 3584 3314 3078 
Q 3713 2572 3713 1747 
Q 3713 922 3314 415 
Q 2916 -91 2278 -91 
Q 1894 -91 1617 61 
Q 1341 213 1159 525 
z
M 3116 1747 
Q 3116 2381 2855 2742 
Q 2594 3103 2138 3103 
Q 1681 3103 1420 2742 
Q 1159 2381 1159 1747 
Q 1159 1113 1420 752 
Q 1681 391 2138 391 
Q 2594 391 2855 752 
Q 3116 1113 3116 1747 
z
" transform="scale(0.015625)"/>
     </defs>
     <use xlink:href="#DejaVuSans-44"/>
     <use xlink:href="#DejaVuSans-61" x="77.001953"/>
     <use xlink:href="#DejaVuSans-6e" x="138.28125"/>
     <use xlink:href="#DejaVuSans-73" x="201.660156"/>
     <use xlink:href="#DejaVuSans-6b" x="253.759766"/>
     <use xlink:href="#DejaVuSans-20" x="311.669922"/>
     <use xlink:href="#DejaVuSans-46" x="343.457031"/>
     <use xlink:href="#DejaVuSans-6f" x="397.351562"/>
     <use xlink:href="#DejaVuSans-6c" x="458.533203"/>
     <use xlink:href="#DejaVuSans-6b" x="486.316406"/>
     <use xlink:href="#DejaVuSans-65" x="540.601562"/>
     <use xlink:href="#DejaVuSans-70" x="602.125"/>
     <use xlink:href="#DejaVuSans-61" x="665.601562"/>
     <use xlink:href="#DejaVuSans-72" x="726.880859"/>
     <use xlink:href="#DejaVuSans-74" x="767.994141"/>
     <use xlink:href="#DejaVuSans-69" x="807.203125"/>
    </g>
   </g>
   <g id="text_26">
    <!-- 47 -->
    <g style="fill: #333333" transform="translate(256.964717 265.532727) scale(0.08 -0.08)">
     <use xlink:href="#DejaVuSans-34"/>
     <use xlink:href="#DejaVuSans-37" x="63.623047"/>
    </g>
   </g>
   <g id="text_27">
    <!-- Venstre -->
    <g style="fill: #1a1a1a" transform="translate(96.036848 273.292102) scale(0.1 -0.1)">
     <defs>
      <path id="DejaVuSans-56" d="M 1831 0 
L 50 4666 
L 709 4666 
L 2188 738 
L 3669 4666 
L 4325 4666 
L 2547 0 
L 1831 0 
z
" transform="scale(0.015625)"/>
     </defs>
     <use xlink:href="#DejaVuSans-56"/>
     <use xlink:href="#DejaVuSans-65" x="60.658203"/>
     <use xlink:href="#DejaVuSans-6e" x="122.181641"/>
     <use xlink:href="#DejaVuSans-73" x="185.560547"/>
     <use xlink:href="#DejaVuSans-74" x="237.660156"/>
     <use xlink:href="#DejaVuSans-72" x="276.869141"/>
     <use xlink:href="#DejaVuSans-65" x="315.732422"/>
    </g>
   </g>
   <g id="text_28">
    <!-- 47 -->
    <g style="fill: #333333" transform="translate(259.82821 288.969091) scale(0.08 -0.08)">
     <use xlink:href="#DejaVuSans-34"/>
     <use xlink:href="#DejaVuSans-37" x="63.623047"/>
    </g>
   </g>
   <g id="text_29">
    <!-- Alternativet -->
    <g style="fill: #1a1a1a" transform="translate(74.977473 296.728466) scale(0.1 -0.1)">
     <use xlink:href="#DejaVuSans-41"/>
     <use xlink:href="#DejaVuSans-6c" x="68.408203"/>
     <use xlink:href="#DejaVuSans-74" x="96.191406"/>
     <use xlink:href="#DejaVuSans-65" x="135.400391"/>
     <use xlink:href="#DejaVuSans-72" x="196.923828"/>
     <use xlink:href="#DejaVuSans-6e" x="236.287109"/>
     <use xlink:href="#DejaVuSans-61" x="299.666016"/>
     <use xlink:href="#DejaVuSans-74" x="360.945312"/>
     <use xlink:href="#DejaVuSans-69" x="400.154297"/>
     <use xlink:href="#DejaVuSans-76" x="427.9375"/>
     <use xlink:href="#DejaVuSans-65" x="487.117188"/>
     <use xlink:href="#DejaVuSans-74" x="548.640625"/>
    </g>
   </g>
   <g id="text_30">
    <!-- 47 -->
    <g style="fill: #333333" transform="translate(260.14511 312.405455) scale(0.08 -0.08)">
     <use xlink:href="#DejaVuSans-34"/>
     <use xlink:href="#DejaVuSans-37" x="63.623047"/>
    </g>
   </g>
   <g id="text_31">
    <!-- Nye Borgerlige -->
    <g style="fill: #1a1a1a" transform="translate(59.444661 320.16483) scale(0.1 -0.1)">
     <defs>
      <path id="DejaVuSans-4e" d="M 628 4666 
L 1478 4666 
L 3547 763 
L 3547 4666 
L 4159 4666 
L 4159 0 
L 3309 0 
L 1241 3903 
L 1241 0 
L 628 0 
L 628 4666 
z
" transform="scale(0.015625)"/>
      <path id="DejaVuSans-79" d="M 2059 -325 
Q 1816 -950 1584 -1140 
Q 1353 -1331 966 -1331 
L 506 -1331 
L 506 -850 
L 844 -850 
Q 1081 -850 1212 -737 
Q 1344 -625 1503 -206 
L 1606 56 
L 191 3500 
L 800 3500 
L 1894 763 
L 2988 3500 
L 3597 3500 
L 2059 -325 
z
" transform="scale(0.015625)"/>
      <path id="DejaVuSans-42" d="M 1259 2228 
L 1259 519 
L 2272 519 
Q 2781 519 3026 730 
Q 3272 941 3272 1375 
Q 3272 1813 3026 2020 
Q 2781 2228 2272 2228 
L 1259 2228 
z
M 1259 4147 
L 1259 2741 
L 2194 2741 
Q 2656 2741 2882 2914 
Q 3109 3088 3109 3444 
Q 3109 3797 2882 3972 
Q 2656 4147 2194 4147 
L 1259 4147 
z
M 628 4666 
L 2241 4666 
Q 2963 4666 3353 4366 
Q 3744 4066 3744 3513 
Q 3744 3084 3544 2831 
Q 3344 2578 2956 2516 
Q 3422 2416 3680 2098 
Q 3938 1781 3938 1306 
Q 3938 681 3513 340 
Q 3088 0 2303 0 
L 628 0 
L 628 4666 
z
" transform="scale(0.015625)"/>
      <path id="DejaVuSans-67" d="M 2906 1791 
Q 2906 2416 2648 2759 
Q 2391 3103 1925 3103 
Q 1463 3103 1205 2759 
Q 947 2416 947 1791 
Q 947 1169 1205 825 
Q 1463 481 1925 481 
Q 2391 481 2648 825 
Q 2906 1169 2906 1791 
z
M 3481 434 
Q 3481 -459 3084 -895 
Q 2688 -1331 1869 -1331 
Q 1566 -1331 1297 -1286 
Q 1028 -1241 775 -1147 
L 775 -588 
Q 1028 -725 1275 -790 
Q 1522 -856 1778 -856 
Q 2344 -856 2625 -561 
Q 2906 -266 2906 331 
L 2906 616 
Q 2728 306 2450 153 
Q 2172 0 1784 0 
Q 1141 0 747 490 
Q 353 981 353 1791 
Q 353 2603 747 3093 
Q 1141 3584 1784 3584 
Q 2172 3584 2450 3431 
Q 2728 3278 2906 2969 
L 2906 3500 
L 3481 3500 
L 3481 434 
z
" transform="scale(0.015625)"/>
     </defs>
     <use xlink:href="#DejaVuSans-4e"/>
     <use xlink:href="#DejaVuSans-79" x="74.804688"/>
     <use xlink:href="#DejaVuSans-65" x="133.984375"/>
     <use xlink:href="#DejaVuSans-20" x="195.507812"/>
     <use xlink:href="#DejaVuSans-42" x="227.294922"/>
     <use xlink:href="#DejaVuSans-6f" x="295.898438"/>
     <use xlink:href="#DejaVuSans-72" x="357.080078"/>
     <use xlink:href="#DejaVuSans-67" x="396.443359"/>
     <use xlink:href="#DejaVuSans-65" x="459.919922"/>
     <use xlink:href="#DejaVuSans-72" x="521.443359"/>
     <use xlink:href="#DejaVuSans-6c" x="562.556641"/>
     <use xlink:href="#DejaVuSans-69" x="590.339844"/>
     <use xlink:href="#DejaVuSans-67" x="618.123047"/>
     <use xlink:href="#DejaVuSans-65" x="681.599609"/>
    </g>
   </g>
   <g id="text_32">
    <!-- 50 -->
    <g style="fill: #333333" transform="translate(272.414079 335.841818) scale(0.08 -0.08)">
     <use xlink:href="#DejaVuSans-35"/>
     <use xlink:href="#DejaVuSans-30" x="63.623047"/>
    </g>
   </g>
   <g id="text_33">
    <!-- Kristendemokraterne -->
    <g style="fill: #1a1a1a" transform="translate(27.804036 343.601193) scale(0.1 -0.1)">
     <use xlink:href="#DejaVuSans-4b"/>
     <use xlink:href="#DejaVuSans-72" x="65.576172"/>
     <use xlink:href="#DejaVuSans-69" x="106.689453"/>
     <use xlink:href="#DejaVuSans-73" x="134.472656"/>
     <use xlink:href="#DejaVuSans-74" x="186.572266"/>
     <use xlink:href="#DejaVuSans-65" x="225.78125"/>
     <use xlink:href="#DejaVuSans-6e" x="287.304688"/>
     <use xlink:href="#DejaVuSans-64" x="350.683594"/>
     <use xlink:href="#DejaVuSans-65" x="414.160156"/>
     <use xlink:href="#DejaVuSans-6d" x="475.683594"/>
     <use xlink:href="#DejaVuSans-6f" x="573.095703"/>
     <use xlink:href="#DejaVuSans-6b" x="634.277344"/>
     <use xlink:href="#DejaVuSans-72" x="692.1875"/>
     <use xlink:href="#DejaVuSans-61" x="733.300781"/>
     <use xlink:href="#DejaVuSans-74" x="794.580078"/>
     <use xlink:href="#DejaVuSans-65" x="833.789062"/>
     <use xlink:href="#DejaVuSans-72" x="895.3125"/>
     <use xlink:href="#DejaVuSans-6e" x="934.675781"/>
     <use xlink:href="#DejaVuSans-65" x="998.054688"/>
    </g>
   </g>
   <g id="text_34">
    <!-- 52 -->
    <g style="fill: #333333" transform="translate(280.190321 359.278182) scale(0.08 -0.08)">
     <use xlink:href="#DejaVuSans-35"/>
     <use xlink:href="#DejaVuSans-32" x="63.623047"/>
    </g>
   </g>
   <g id="text_35">
    <!-- Danmarksdemokraterne -->
    <g style="fill: #1a1a1a" transform="translate(11.725911 367.037557) scale(0.1 -0.1)">
     <use xlink:href="#DejaVuSans-44"/>
     <use xlink:href="#DejaVuSans-61" x="77.001953"/>
     <use xlink:href="#DejaVuSans-6e" x="138.28125"/>
     <use xlink:href="#DejaVuSans-6d" x="201.660156"/>
     <use xlink:href="#DejaVuSans-61" x="299.072266"/>
     <use xlink:href="#DejaVuSans-72" x="360.351562"/>
     <use xlink:href="#DejaVuSans-6b" x="401.464844"/>
     <use xlink:href="#DejaVuSans-73" x="459.375"/>
     <use xlink:href="#DejaVuSans-64" x="511.474609"/>
     <use xlink:href="#DejaVuSans-65" x="574.951172"/>
     <use xlink:href="#DejaVuSans-6d" x="636.474609"/>
     <use xlink:href="#DejaVuSans-6f" x="733.886719"/>
     <use xlink:href="#DejaVuSans-6b" x="795.068359"/>
     <use xlink:href="#DejaVuSans-72" x="852.978516"/>
     <use xlink:href="#DejaVuSans-61" x="894.091797"/>
     <use xlink:href="#DejaVuSans-74" x="955.371094"/>
     <use xlink:href="#DejaVuSans-65" x="994.580078"/>
     <use xlink:href="#DejaVuSans-72" x="1056.103516"/>
     <use xlink:href="#DejaVuSans-6e" x="1095.466797"/>
     <use xlink:href="#DejaVuSans-65" x="1158.845703"/>
    </g>
   </g>
   <g id="text_36">
    <!-- 53 -->
    <g style="fill: #333333" transform="translate(283.356953 382.714545) scale(0.08 -0.08)">
     <use xlink:href="#DejaVuSans-35"/>
     <use xlink:href="#DejaVuSans-33" x="63.623047"/>
    </g>
   </g>
   <g id="text_37">
    <!-- Uden for partierne -->
    <g style="fill: #1a1a1a" transform="translate(41.632161 390.47392) scale(0.1 -0.1)">
     <defs>
      <path id="DejaVuSans-55" d="M 556 4666 
L 1191 4666 
L 1191 1831 
Q 1191 1081 1462 751 
Q 1734 422 2344 422 
Q 2950 422 3222 751 
Q 3494 1081 3494 1831 
L 3494 4666 
L 4128 4666 
L 4128 1753 
Q 4128 841 3676 375 
Q 3225 -91 2344 -91 
Q 1459 -91 1007 375 
Q 556 841 556 1753 
L 556 4666 
z
" transform="scale(0.015625)"/>
      <path id="DejaVuSans-66" d="M 2375 4863 
L 2375 4384 
L 1825 4384 
Q 1516 4384 1395 4259 
Q 1275 4134 1275 3809 
L 1275 3500 
L 2222 3500 
L 2222 3053 
L 1275 3053 
L 1275 0 
L 697 0 
L 697 3053 
L 147 3053 
L 147 3500 
L 697 3500 
L 697 3744 
Q 697 4328 969 4595 
Q 1241 4863 1831 4863 
L 2375 4863 
z
" transform="scale(0.015625)"/>
     </defs>
     <use xlink:href="#DejaVuSans-55"/>
     <use xlink:href="#DejaVuSans-64" x="73.193359"/>
     <use xlink:href="#DejaVuSans-65" x="136.669922"/>
     <use xlink:href="#DejaVuSans-6e" x="198.193359"/>
     <use xlink:href="#DejaVuSans-20" x="261.572266"/>
     <use xlink:href="#DejaVuSans-66" x="293.359375"/>
     <use xlink:href="#DejaVuSans-6f" x="328.564453"/>
     <use xlink:href="#DejaVuSans-72" x="389.746094"/>
     <use xlink:href="#DejaVuSans-20" x="430.859375"/>
     <use xlink:href="#DejaVuSans-70" x="462.646484"/>
     <use xlink:href="#DejaVuSans-61" x="526.123047"/>
     <use xlink:href="#DejaVuSans-72" x="587.402344"/>
     <use xlink:href="#DejaVuSans-74" x="628.515625"/>
     <use xlink:href="#DejaVuSans-69" x="667.724609"/>
     <use xlink:href="#DejaVuSans-65" x="695.507812"/>
     <use xlink:href="#DejaVuSans-72" x="757.03125"/>
     <use xlink:href="#DejaVuSans-6e" x="796.394531"/>
     <use xlink:href="#DejaVuSans-65" x="859.773438"/>
    </g>
   </g>
   <g id="patch_3">
    <path d="M 259.826898 376.777118 
Q 272.359499 375.474173 281.237124 368.319255 
" style="fill: none; stroke: #333333; stroke-linecap: round"/>
    <path d="M 277.741566 369.081539 
L 281.237124 368.319255 
L 279.749616 371.573071 
" style="fill: none; stroke: #333333; stroke-linecap: round"/>
   </g>
   <g id="text_38">
    <!-- Den højeste gennemsnitsalder -->
    <g style="fill: #333333" transform="translate(133.22121 374.185932) scale(0.08 -0.08)">
     <defs>
      <path id="DejaVuSans-6a" d="M 603 3500 
L 1178 3500 
L 1178 -63 
Q 1178 -731 923 -1031 
Q 669 -1331 103 -1331 
L -116 -1331 
L -116 -844 
L 38 -844 
Q 366 -844 484 -692 
Q 603 -541 603 -63 
L 603 3500 
z
M 603 4863 
L 1178 4863 
L 1178 4134 
L 603 4134 
L 603 4863 
z
" transform="scale(0.015625)"/>
     </defs>
     <use xlink:href="#DejaVuSans-44"/>
     <use xlink:href="#DejaVuSans-65" x="77.001953"/>
     <use xlink:href="#DejaVuSans-6e" x="138.525391"/>
     <use xlink:href="#DejaVuSans-20" x="201.904297"/>
     <use xlink:href="#DejaVuSans-68" x="233.691406"/>
     <use xlink:href="#DejaVuSans-f8" x="297.070312"/>
     <use xlink:href="#DejaVuSans-6a" x="358.251953"/>
     <use xlink:href="#DejaVuSans-65" x="386.035156"/>
     <use xlink:href="#DejaVuSans-73" x="447.558594"/>
     <use xlink:href="#DejaVuSans-74" x="499.658203"/>
     <use xlink:href="#DejaVuSans-65" x="538.867188"/>
     <use xlink:href="#DejaVuSans-20" x="600.390625"/>
     <use xlink:href="#DejaVuSans-67" x="632.177734"/>
     <use xlink:href="#DejaVuSans-65" x="695.654297"/>
     <use xlink:href="#DejaVuSans-6e" x="757.177734"/>
     <use xlink:href="#DejaVuSans-6e" x="820.556641"/>
     <use xlink:href="#DejaVuSans-65" x="883.935547"/>
     <use xlink:href="#DejaVuSans-6d" x="945.458984"/>
     <use xlink:href="#DejaVuSans-73" x="1042.871094"/>
     <use xlink:href="#DejaVuSans-6e" x="1094.970703"/>
     <use xlink:href="#DejaVuSans-69" x="1158.349609"/>
     <use xlink:href="#DejaVuSans-74" x="1186.132812"/>
     <use xlink:href="#DejaVuSans-73" x="1225.341797"/>
     <use xlink:href="#DejaVuSans-61" x="1277.441406"/>
     <use xlink:href="#DejaVuSans-6c" x="1338.720703"/>
     <use xlink:href="#DejaVuSans-64" x="1366.503906"/>
     <use xlink:href="#DejaVuSans-65" x="1429.980469"/>
     <use xlink:href="#DejaVuSans-72" x="1491.503906"/>
    </g>
    <!-- i partierne er 52 år -->
    <g style="fill: #333333" transform="translate(180.16246 384.278182) scale(0.08 -0.08)">
     <use xlink:href="#DejaVuSans-69"/>
     <use xlink:href="#DejaVuSans-20" x="27.783203"/>
     <use xlink:href="#DejaVuSans-70" x="59.570312"/>
     <use xlink:href="#DejaVuSans-61" x="123.046875"/>
     <use xlink:href="#DejaVuSans-72" x="184.326172"/>
     <use xlink:href="#DejaVuSans-74" x="225.439453"/>
     <use xlink:href="#DejaVuSans-69" x="264.648438"/>
     <use xlink:href="#DejaVuSans-65" x="292.431641"/>
     <use xlink:href="#DejaVuSans-72" x="353.955078"/>
     <use xlink:href="#DejaVuSans-6e" x="393.318359"/>
     <use xlink:href="#DejaVuSans-65" x="456.697266"/>
     <use xlink:href="#DejaVuSans-20" x="518.220703"/>
     <use xlink:href="#DejaVuSans-65" x="550.007812"/>
     <use xlink:href="#DejaVuSans-72" x="611.53125"/>
     <use xlink:href="#DejaVuSans-20" x="652.644531"/>
     <use xlink:href="#DejaVuSans-35" x="684.431641"/>
     <use xlink:href="#DejaVuSans-32" x="748.054688"/>
     <use xlink:href="#DejaVuSans-20" x="811.677734"/>
     <use xlink:href="#DejaVuSans-e5" x="843.464844"/>
     <use xlink:href="#DejaVuSans-72" x="904.744141"/>
    </g>
   </g>
   <g id="patch_4">
    <path d="M 154.129236 279.382285 
Q 147.270278 278.138262 142.687311 274.589509 
" style="fill: none; stroke: #333333; stroke-linecap: round"/>
    <path d="M 144.237864 277.813759 
L 142.687311 274.589509 
L 146.197042 275.283616 
" style="fill: none; stroke: #333333; stroke-linecap: round"/>
   </g>
   <g id="text_39">
    <!-- Den yngste kandidat -->
    <g style="fill: #333333" transform="translate(158.106652 277.574477) scale(0.08 -0.08)">
     <use xlink:href="#DejaVuSans-44"/>
     <use xlink:href="#DejaVuSans-65" x="77.001953"/>
     <use xlink:href="#DejaVuSans-6e" x="138.525391"/>
     <use xlink:href="#DejaVuSans-20" x="201.904297"/>
     <use xlink:href="#DejaVuSans-79" x="233.691406"/>
     <use xlink:href="#DejaVuSans-6e" x="292.871094"/>
     <use xlink:href="#DejaVuSans-67" x="356.25"/>
     <use xlink:href="#DejaVuSans-73" x="419.726562"/>
     <use xlink:href="#DejaVuSans-74" x="471.826172"/>
     <use xlink:href="#DejaVuSans-65" x="511.035156"/>
     <use xlink:href="#DejaVuSans-20" x="572.558594"/>
     <use xlink:href="#DejaVuSans-6b" x="604.345703"/>
     <use xlink:href="#DejaVuSans-61" x="660.505859"/>
     <use xlink:href="#DejaVuSans-6e" x="721.785156"/>
     <use xlink:href="#DejaVuSans-64" x="785.164062"/>
     <use xlink:href="#DejaVuSans-69" x="848.640625"/>
     <use xlink:href="#DejaVuSans-64" x="876.423828"/>
     <use xlink:href="#DejaVuSans-61" x="939.900391"/>
     <use xlink:href="#DejaVuSans-74" x="1001.179688"/>
    </g>
    <!-- kommer fra Venstre -->
    <g style="fill: #333333" transform="translate(158.106652 286.532727) scale(0.08 -0.08)">
     <use xlink:href="#DejaVuSans-6b"/>
     <use xlink:href="#DejaVuSans-6f" x="54.285156"/>
     <use xlink:href="#DejaVuSans-6d" x="115.466797"/>
     <use xlink:href="#DejaVuSans-6d" x="212.878906"/>
     <use xlink:href="#DejaVuSans-65" x="310.291016"/>
     <use xlink:href="#DejaVuSans-72" x="371.814453"/>
     <use xlink:href="#DejaVuSans-20" x="412.927734"/>
     <use xlink:href="#DejaVuSans-66" x="444.714844"/>
     <use xlink:href="#DejaVuSans-72" x="479.919922"/>
     <use xlink:href="#DejaVuSans-61" x="521.033203"/>
     <use xlink:href="#DejaVuSans-20" x="582.3125"/>
     <use xlink:href="#DejaVuSans-56" x="614.099609"/>
     <use xlink:href="#DejaVuSans-65" x="674.757812"/>
     <use xlink:href="#DejaVuSans-6e" x="736.28125"/>
     <use xlink:href="#DejaVuSans-73" x="799.660156"/>
     <use xlink:href="#DejaVuSans-74" x="851.759766"/>
     <use xlink:href="#DejaVuSans-72" x="890.96875"/>
     <use xlink:href="#DejaVuSans-65" x="929.832031"/>
    </g>
   </g>
   <g id="patch_5">
    <path d="M 384.814315 162.200467 
Q 391.673273 160.956444 396.256241 157.407691 
" style="fill: none; stroke: #333333; stroke-linecap: round"/>
    <path d="M 392.746509 158.101798 
L 396.256241 157.407691 
L 394.705688 160.631941 
" style="fill: none; stroke: #333333; stroke-linecap: round"/>
   </g>
   <g id="text_40">
    <!-- Den ældste kandidat -->
    <g style="fill: #333333" transform="translate(297.33315 160.392659) scale(0.08 -0.08)">
     <defs>
      <path id="DejaVuSans-e6" d="M 5369 2063 
Q 5366 2534 5108 2815 
Q 4850 3097 4422 3097 
Q 3944 3097 3655 2825 
Q 3366 2553 3322 2059 
L 5369 2063 
z
M 3109 3009 
Q 3341 3291 3672 3437 
Q 4003 3584 4416 3584 
Q 5122 3584 5534 3129 
Q 5947 2675 5947 1894 
L 5947 1613 
L 3303 1613 
Q 3341 1016 3659 703 
Q 3978 391 4550 391 
Q 4875 391 5187 473 
Q 5500 556 5813 722 
L 5813 178 
Q 5500 47 5175 -22 
Q 4850 -91 4519 -91 
Q 3997 -91 3609 98 
Q 3222 288 2981 659 
Q 2753 284 2415 96 
Q 2078 -91 1631 -91 
Q 1041 -91 712 201 
Q 384 494 384 1019 
Q 384 1609 779 1909 
Q 1175 2209 1959 2209 
L 2766 2209 
L 2766 2266 
Q 2766 2663 2505 2880 
Q 2244 3097 1772 3097 
Q 1472 3097 1187 3025 
Q 903 2953 641 2809 
L 641 3341 
Q 956 3463 1253 3523 
Q 1550 3584 1831 3584 
Q 2275 3584 2608 3434 
Q 2941 3284 3109 3009 
z
M 2194 1759 
Q 1497 1759 1228 1600 
Q 959 1441 959 1056 
Q 959 750 1161 570 
Q 1363 391 1709 391 
Q 2188 391 2477 730 
Q 2766 1069 2766 1631 
L 2766 1759 
L 2194 1759 
z
" transform="scale(0.015625)"/>
     </defs>
     <use xlink:href="#DejaVuSans-44"/>
     <use xlink:href="#DejaVuSans-65" x="77.001953"/>
     <use xlink:href="#DejaVuSans-6e" x="138.525391"/>
     <use xlink:href="#DejaVuSans-20" x="201.904297"/>
     <use xlink:href="#DejaVuSans-e6" x="233.691406"/>
     <use xlink:href="#DejaVuSans-6c" x="331.884766"/>
     <use xlink:href="#DejaVuSans-64" x="359.667969"/>
     <use xlink:href="#DejaVuSans-73" x="423.144531"/>
     <use xlink:href="#DejaVuSans-74" x="475.244141"/>
     <use xlink:href="#DejaVuSans-65" x="514.453125"/>
     <use xlink:href="#DejaVuSans-20" x="575.976562"/>
     <use xlink:href="#DejaVuSans-6b" x="607.763672"/>
     <use xlink:href="#DejaVuSans-61" x="663.923828"/>
     <use xlink:href="#DejaVuSans-6e" x="725.203125"/>
     <use xlink:href="#DejaVuSans-64" x="788.582031"/>
     <use xlink:href="#DejaVuSans-69" x="852.058594"/>
     <use xlink:href="#DejaVuSans-64" x="879.841797"/>
     <use xlink:href="#DejaVuSans-61" x="943.318359"/>
     <use xlink:href="#DejaVuSans-74" x="1004.597656"/>
    </g>
    <!-- kommer fra Moderaterne -->
    <g style="fill: #333333" transform="translate(280.52065 169.350909) scale(0.08 -0.08)">
     <use xlink:href="#DejaVuSans-6b"/>
     <use xlink:href="#DejaVuSans-6f" x="54.285156"/>
     <use xlink:href="#DejaVuSans-6d" x="115.466797"/>
     <use xlink:href="#DejaVuSans-6d" x="212.878906"/>
     <use xlink:href="#DejaVuSans-65" x="310.291016"/>
     <use xlink:href="#DejaVuSans-72" x="371.814453"/>
     <use xlink:href="#DejaVuSans-20" x="412.927734"/>
     <use xlink:href="#DejaVuSans-66" x="444.714844"/>
     <use xlink:href="#DejaVuSans-72" x="479.919922"/>
     <use xlink:href="#DejaVuSans-61" x="521.033203"/>
     <use xlink:href="#DejaVuSans-20" x="582.3125"/>
     <use xlink:href="#DejaVuSans-4d" x="614.099609"/>
     <use xlink:href="#DejaVuSans-6f" x="700.378906"/>
     <use xlink:href="#DejaVuSans-64" x="761.560547"/>
     <use xlink:href="#DejaVuSans-65" x="825.037109"/>
     <use xlink:href="#DejaVuSans-72" x="886.560547"/>
     <use xlink:href="#DejaVuSans-61" x="927.673828"/>
     <use xlink:href="#DejaVuSans-74" x="988.953125"/>
     <use xlink:href="#DejaVuSans-65" x="1028.162109"/>
     <use xlink:href="#DejaVuSans-72" x="1089.685547"/>
     <use xlink:href="#DejaVuSans-6e" x="1129.048828"/>
     <use xlink:href="#DejaVuSans-65" x="1192.427734"/>
    </g>
   </g>
   <g id="patch_6">
    <path d="M 151.141061 53.268652 
Q 151.141061 55.436099 151.141061 56.485511 
" style="fill: none; stroke: #333333; stroke-linecap: round"/>
    <path d="M 152.741061 53.285511 
L 151.141061 56.485511 
L 149.541061 53.285511 
" style="fill: none; stroke: #333333; stroke-linecap: round"/>
   </g>
   <g id="text_41">
    <!-- Yngste -->
    <g style="fill: #333333" transform="translate(137.510436 47.605455) scale(0.08 -0.08)">
     <defs>
      <path id="DejaVuSans-59" d="M -13 4666 
L 666 4666 
L 1959 2747 
L 3244 4666 
L 3922 4666 
L 2272 2222 
L 2272 0 
L 1638 0 
L 1638 2222 
L -13 4666 
z
" transform="scale(0.015625)"/>
     </defs>
     <use xlink:href="#DejaVuSans-59"/>
     <use xlink:href="#DejaVuSans-6e" x="61.083984"/>
     <use xlink:href="#DejaVuSans-67" x="124.462891"/>
     <use xlink:href="#DejaVuSans-73" x="187.939453"/>
     <use xlink:href="#DejaVuSans-74" x="240.039062"/>
     <use xlink:href="#DejaVuSans-65" x="279.248047"/>
    </g>
   </g>
   <g id="patch_7">
    <path d="M 316.243582 53.268652 
Q 316.243582 55.436099 316.243582 56.485511 
" style="fill: none; stroke: #333333; stroke-linecap: round"/>
    <path d="M 317.843582 53.285511 
L 316.243582 56.485511 
L 314.643582 53.285511 
" style="fill: none; stroke: #333333; stroke-linecap: round"/>
   </g>
   <g id="text_42">
    <!-- Ældste -->
    <g style="fill: #333333" transform="translate(302.583582 47.605455) scale(0.08 -0.08)">
     <defs>
      <path id="DejaVuSans-c6" d="M 5766 4666 
L 5766 4134 
L 3450 4134 
L 3450 2753 
L 5672 2753 
L 5672 2222 
L 3450 2222 
L 3450 531 
L 5825 531 
L 5825 0 
L 2816 0 
L 2816 1197 
L 1166 1197 
L 666 0 
L 25 0 
L 1978 4666 
L 5766 4666 
z
M 2413 4172 
L 1381 1722 
L 2816 1722 
L 2816 4172 
L 2413 4172 
z
" transform="scale(0.015625)"/>
     </defs>
     <use xlink:href="#DejaVuSans-c6"/>
     <use xlink:href="#DejaVuSans-6c" x="97.412109"/>
     <use xlink:href="#DejaVuSans-64" x="125.195312"/>
     <use xlink:href="#DejaVuSans-73" x="188.671875"/>
     <use xlink:href="#DejaVuSans-74" x="240.771484"/>
     <use xlink:href="#DejaVuSans-65" x="279.980469"/>
    </g>
   </g>
   <g id="patch_8">
    <path d="M 209.361424 43.894107 
Q 209.361424 46.061553 209.361424 47.110965 
" style="fill: none; stroke: #333333; stroke-linecap: round"/>
    <path d="M 210.961424 43.910965 
L 209.361424 47.110965 
L 207.761424 43.910965 
" style="fill: none; stroke: #333333; stroke-linecap: round"/>
   </g>
   <g id="text_43">
    <!-- Gennemsnit -->
    <g style="fill: #333333" transform="translate(185.075174 38.230909) scale(0.08 -0.08)">
     <use xlink:href="#DejaVuSans-47"/>
     <use xlink:href="#DejaVuSans-65" x="77.490234"/>
     <use xlink:href="#DejaVuSans-6e" x="139.013672"/>
     <use xlink:href="#DejaVuSans-6e" x="202.392578"/>
     <use xlink:href="#DejaVuSans-65" x="265.771484"/>
     <use xlink:href="#DejaVuSans-6d" x="327.294922"/>
     <use xlink:href="#DejaVuSans-73" x="424.707031"/>
     <use xlink:href="#DejaVuSans-6e" x="476.806641"/>
     <use xlink:href="#DejaVuSans-69" x="540.185547"/>
     <use xlink:href="#DejaVuSans-74" x="567.96875"/>
    </g>
   </g>
  </g>
  <g id="text_44">
   <!-- Unge idealister på begge fløje -->
   <g transform="translate(43.2 25.92) scale(0.14 -0.14)">
    <use xlink:href="#DejaVuSans-55"/>
    <use xlink:href="#DejaVuSans-6e" x="73.193359"/>
    <use xlink:href="#DejaVuSans-67" x="136.572266"/>
    <use xlink:href="#DejaVuSans-65" x="200.048828"/>
    <use xlink:href="#DejaVuSans-20" x="261.572266"/>
    <use xlink:href="#DejaVuSans-69" x="293.359375"/>
    <use xlink:href="#DejaVuSans-64" x="321.142578"/>
    <use xlink:href="#DejaVuSans-65" x="384.619141"/>
    <use xlink:href="#DejaVuSans-61" x="446.142578"/>
    <use xlink:href="#DejaVuSans-6c" x="507.421875"/>
    <use xlink:href="#DejaVuSans-69" x="535.205078"/>
    <use xlink:href="#DejaVuSans-73" x="562.988281"/>
    <use xlink:href="#DejaVuSans-74" x="615.087891"/>
    <use xlink:href="#DejaVuSans-65" x="654.296875"/>
    <use xlink:href="#DejaVuSans-72" x="715.820312"/>
    <use xlink:href="#DejaVuSans-20" x="756.933594"/>
    <use xlink:href="#DejaVuSans-70" x="788.720703"/>
    <use xlink:href="#DejaVuSans-e5" x="852.197266"/>
    <use xlink:href="#DejaVuSans-20" x="913.476562"/>
    <use xlink:href="#DejaVuSans-62" x="945.263672"/>
    <use xlink:href="#DejaVuSans-65" x="1008.740234"/>
    <use xlink:href="#DejaVuSans-67" x="1070.263672"/>
    <use xlink:href="#DejaVuSans-67" x="1133.740234"/>
    <use xlink:href="#DejaVuSans-65" x="1197.216797"/>
    <use xlink:href="#DejaVuSans-20" x="1258.740234"/>
    <use xlink:href="#DejaVuSans-66" x="1290.527344"/>
    <use xlink:href="#DejaVuSans-6c" x="1325.732422"/>
    <use xlink:href="#DejaVuSans-f8" x="1353.515625"/>
    <use xlink:href="#DejaVuSans-6a" x="1414.697266"/>
    <use xlink:href="#DejaVuSans-65" x="1442.480469"/>
   </g>
  </g>
 </g>
 <defs>
  <clipPath id="p8a34339a04">
   <rect x="127.010601" y="43.2" width="286.900945" height="360.92"/>
  </clipPath>
 </defs>
</svg>
